<?xml version="1.0" encoding="UTF-8" standalone="no"?>
<!-- Created with Inkscape (http://www.inkscape.org/) -->

<svg
   xmlns:dc="http://purl.org/dc/elements/1.1/"
   xmlns:cc="http://creativecommons.org/ns#"
   xmlns:rdf="http://www.w3.org/1999/02/22-rdf-syntax-ns#"
   xmlns:svg="http://www.w3.org/2000/svg"
   xmlns="http://www.w3.org/2000/svg"
   xmlns:sodipodi="http://sodipodi.sourceforge.net/DTD/sodipodi-0.dtd"
   xmlns:inkscape="http://www.inkscape.org/namespaces/inkscape"
   width="14in"
   height="8.5in"
   viewBox="0 0 1260 765"
   id="svg23886"
   version="1.1"
   inkscape:version="0.92.4 (5da689c313, 2019-01-14)"
   sodipodi:docname="910-950_v4-dirty.svg">
  <defs
     id="defs23888" />
  <sodipodi:namedview
     id="base"
     pagecolor="#ffffff"
     bordercolor="#666666"
     borderopacity="1.0"
     inkscape:pageopacity="0.0"
     inkscape:pageshadow="2"
     inkscape:zoom="1.6095238"
     inkscape:cx="452.97015"
     inkscape:cy="208.93889"
     inkscape:document-units="px"
     inkscape:current-layer="layer1"
     showgrid="false"
     fit-margin-top="0"
     fit-margin-left="0"
     fit-margin-right="0"
     fit-margin-bottom="0"
     inkscape:window-width="1842"
     inkscape:window-height="1051"
     inkscape:window-x="-9"
     inkscape:window-y="-9"
     inkscape:window-maximized="1"
     units="in" />
  <metadata
     id="metadata23891">
    <rdf:RDF>
      <cc:Work
         rdf:about="">
        <dc:format>image/svg+xml</dc:format>
        <dc:type
           rdf:resource="http://purl.org/dc/dcmitype/StillImage" />
        <dc:title></dc:title>
      </cc:Work>
    </rdf:RDF>
  </metadata>
  <g
     inkscape:label="Layer 1"
     inkscape:groupmode="layer"
     id="layer1"
     transform="translate(285.69414,279.86641)">
    <g
       id="g1017">
      <path
         inkscape:connector-curvature="0"
         id="rect22497-0"
         d="m -23.38545,217.40061 h 3.893716 v 22.78154 h -3.893716 z"
         style="display:inline;opacity:1;fill:none;fill-opacity:1;stroke:#9e3f3f;stroke-width:1.506284;stroke-linecap:round;stroke-linejoin:round;stroke-miterlimit:4;stroke-dasharray:none;stroke-opacity:1" />
      <path
         inkscape:connector-curvature="0"
         id="rect22529-1"
         d="m 29.429002,217.40061 h 3.893716 v 22.78154 h -3.893716 z"
         style="display:inline;opacity:1;fill:none;fill-opacity:1;stroke:#9e3f3f;stroke-width:1.506284;stroke-linecap:round;stroke-linejoin:round;stroke-miterlimit:4;stroke-dasharray:none;stroke-opacity:1" />
      <path
         inkscape:connector-curvature="0"
         id="rect22531-9"
         d="m 27.765122,242.38564 v 3.8856 h -45.422673 v -3.8856 z"
         style="display:inline;opacity:1;fill:none;fill-opacity:1;stroke:#9e3f3f;stroke-width:1.51439631;stroke-linecap:round;stroke-linejoin:round;stroke-miterlimit:4;stroke-dasharray:none;stroke-opacity:1" />
      <path
         id="rect22251-0-7"
         d="m 662.34048,290.29689 c -0.9972,0 -1.80079,0.80163 -1.80079,1.79883 v 9.06641 h -40.74023 c -0.9972,0 -1.80078,0.80358 -1.80078,1.80078 v 2.69531 7.92969 2.69531 c 0,0.9972 0.80358,1.79883 1.80078,1.79883 h 117.71875 c 0.9972,0 1.8008,-0.80163 1.8008,-1.79883 v -2.69531 -7.92969 -2.69531 c 0,-0.9972 -0.8036,-1.80078 -1.8008,-1.80078 h -46.2832 v -9.06641 c 0,-0.9972 -0.80358,-1.79883 -1.80078,-1.79883 z"
         style="display:inline;opacity:1;fill:none;fill-opacity:1;stroke:#9e3f3f;stroke-width:0.89999998;stroke-linecap:round;stroke-linejoin:round;stroke-miterlimit:4;stroke-dasharray:none;stroke-opacity:1" />
      <path
         id="rect22251-0-0-5"
         d="m 582.06118,318.29299 c -0.9972,0 -1.80078,0.80358 -1.80078,1.80078 v 9.4375 h -33.42383 c -0.9972,0 -1.80078,0.80163 -1.80078,1.79883 v 2.69531 7.93164 2.69336 c 0,0.9972 0.80358,1.80078 1.80078,1.80078 h 97.65039 c 0.9972,0 1.79883,-0.80358 1.79883,-1.80078 v -2.69336 -7.93164 -2.69531 c 0,-0.9972 -0.80163,-1.79883 -1.79883,-1.79883 h -32.85742 v -9.4375 c 0,-0.9972 -0.80163,-1.80078 -1.79883,-1.80078 z"
         style="display:inline;opacity:1;fill:none;fill-opacity:1;stroke:#9e3f3f;stroke-width:0.89999998;stroke-linecap:round;stroke-linejoin:round;stroke-miterlimit:4;stroke-dasharray:none;stroke-opacity:1" />
      <path
         id="rect22298-1"
         d="m 443.76626,316.94338 c -0.9972,0 -1.80078,0.80358 -1.80078,1.80078 v 10.5293 h -41.88086 c -0.9972,0 -1.80079,0.80358 -1.80079,1.80078 v 2.69336 7.93164 2.69336 c 0,0.9972 0.80359,1.80078 1.80079,1.80078 H 516.5436 c 0.9972,0 1.80078,-0.80358 1.80078,-1.80078 v -2.69336 -7.93164 -2.69336 c 0,-0.9972 -0.80358,-1.80078 -1.80078,-1.80078 h -42.87109 v -10.5293 c 0,-0.9972 -0.80163,-1.80078 -1.79883,-1.80078 z"
         style="display:inline;opacity:1;fill:none;fill-opacity:1;stroke:#9e3f3f;stroke-width:0.90000004;stroke-linecap:round;stroke-linejoin:round;stroke-miterlimit:4;stroke-dasharray:none;stroke-opacity:1" />
      <path
         id="path13-8-6"
         d="m -212.10308,272.70341 c 0,-8.88184 -13.32031,-8.88184 -13.32031,0 0,8.88184 13.32031,8.88184 13.32031,0"
         style="display:inline;fill:none;fill-opacity:1;fill-rule:evenodd;stroke:#000000;stroke-width:0.90000004;stroke-miterlimit:4;stroke-dasharray:none;stroke-opacity:1" />
      <path
         id="path15-1-8"
         d="m -212.10308,339.30497 c 0,-8.88183 -13.32031,-8.88183 -13.32031,0 0,8.87695 13.32031,8.87695 13.32031,0"
         style="display:inline;fill:none;fill-opacity:1;fill-rule:evenodd;stroke:#000000;stroke-width:0.90000004;stroke-miterlimit:4;stroke-dasharray:none;stroke-opacity:1" />
      <path
         id="path17-6-3"
         d="m 249.14692,272.70341 c 0,-8.88184 -13.32031,-8.88184 -13.32031,0 0,8.88184 13.32031,8.88184 13.32031,0"
         style="display:inline;fill:none;fill-opacity:1;fill-rule:evenodd;stroke:#000000;stroke-width:0.90000004;stroke-miterlimit:4;stroke-dasharray:none;stroke-opacity:1" />
      <path
         id="path19-7-28"
         d="m 249.14692,339.30497 c 0,-8.88183 -13.32031,-8.88183 -13.32031,0 0,8.87695 13.32031,8.87695 13.32031,0"
         style="display:inline;fill:none;fill-opacity:1;fill-rule:evenodd;stroke:#000000;stroke-width:0.90000004;stroke-miterlimit:4;stroke-dasharray:none;stroke-opacity:1" />
      <path
         id="path21-9-9"
         d="m 710.39692,272.70341 c 0,-8.88184 -13.32031,-8.88184 -13.32031,0 0,8.88184 13.32031,8.88184 13.32031,0"
         style="display:inline;fill:none;fill-opacity:1;fill-rule:evenodd;stroke:#000000;stroke-width:0.90000004;stroke-miterlimit:4;stroke-dasharray:none;stroke-opacity:1" />
      <path
         id="path23-3-59"
         d="m 710.39692,339.30497 c 0,-8.88183 -13.32031,-8.88183 -13.32031,0 0,8.87695 13.32031,8.87695 13.32031,0"
         style="display:inline;fill:none;fill-opacity:1;fill-rule:evenodd;stroke:#000000;stroke-width:0.90000004;stroke-miterlimit:4;stroke-dasharray:none;stroke-opacity:1" />
      <path
         id="path12911-3-2"
         d="m 34.225013,270.09109 c 0,11.68461 9.46781,21.15233 21.15234,21.15233 11.67975,0 21.14747,-9.46772 21.14747,-21.15233 0,-11.67967 -9.46772,-21.14748 -21.14747,-21.14748 -11.68453,0 -21.15234,9.46781 -21.15234,21.14748"
         style="display:inline;fill:none;stroke:#000000;stroke-width:0.89999998;stroke-miterlimit:4;stroke-dasharray:none;stroke-opacity:1" />
      <path
         id="rect22729-4"
         d="m 271.96263,238.17447 h 179.15651 c 0.9972,0 1.8,0.8028 1.8,1.8 v 37.98882 c 0,0.9972 -0.8028,1.8 -1.8,1.8 H 271.96263 c -0.9972,0 -1.8,-0.8028 -1.8,-1.8 v -37.98882 c 0,-0.9972 0.8028,-1.8 1.8,-1.8 z"
         style="display:inline;opacity:1;fill:none;fill-opacity:1;stroke:#9e3f3f;stroke-width:0.89999998;stroke-linecap:round;stroke-linejoin:round;stroke-miterlimit:4;stroke-dasharray:none;stroke-opacity:1" />
      <path
         id="rect22251-0-5-0"
         d="m -226.51499,304.82814 c -0.9972,0 -1.80078,0.80357 -1.80078,1.80079 v 3.08398 h -18.86328 c -0.9972,0 -1.80079,0.80163 -1.80079,1.79883 v 2.69531 7.93164 2.69336 c 0,0.9972 0.80359,1.80078 1.80079,1.80078 h 53.99999 c 0.99721,0 1.79883,-0.80358 1.79883,-1.80078 v -2.69336 -7.93164 -2.69531 c 0,-0.9972 -0.80162,-1.79883 -1.79883,-1.79883 h -18.48828 v -3.08398 c 0,-0.99721 -0.80358,-1.80079 -1.80078,-1.80079 z"
         style="display:inline;opacity:1;fill:none;fill-opacity:1;stroke:#9e3f3f;stroke-width:0.89999998;stroke-linecap:round;stroke-linejoin:round;stroke-miterlimit:4;stroke-dasharray:none;stroke-opacity:1" />
      <path
         id="rect22193-0-8"
         d="m -250.2193,212.00046 h 985.5 c 6.2325,0 11.25,5.0175 11.25,11.25 v 148.5 c 0,6.2325 -5.0175,11.25 -11.25,11.25 h -985.5 c -6.2325,0 -11.25,-5.0175 -11.25,-11.25 v -148.5 c 0,-6.2325 5.0175,-11.25 11.25,-11.25 z"
         style="display:inline;opacity:1;fill:none;fill-opacity:1;stroke:#9e3f3f;stroke-width:0.89999998;stroke-linecap:round;stroke-linejoin:round;stroke-miterlimit:4;stroke-dasharray:none;stroke-opacity:1" />
      <path
         inkscape:connector-curvature="0"
         id="rect22454-1"
         d="m 398.2653,314.5224 h 4.04111 v 8.98563 h -4.04111 z"
         style="display:inline;opacity:1;fill:none;fill-opacity:1;stroke:#9e3f3f;stroke-width:1.35888183;stroke-linecap:round;stroke-linejoin:round;stroke-miterlimit:4;stroke-dasharray:none;stroke-opacity:1" />
      <path
         inkscape:connector-curvature="0"
         id="rect22454-8-7"
         d="m 545.4153,316.18506 h 4.04111 v 8.98563 h -4.04111 z"
         style="display:inline;opacity:1;fill:none;fill-opacity:1;stroke:#9e3f3f;stroke-width:1.35888183;stroke-linecap:round;stroke-linejoin:round;stroke-miterlimit:4;stroke-dasharray:none;stroke-opacity:1" />
      <path
         inkscape:connector-curvature="0"
         id="rect22454-3-3"
         d="m 618.9453,287.87537 h 4.04111 v 8.98563 h -4.04111 z"
         style="display:inline;opacity:1;fill:none;fill-opacity:1;stroke:#9e3f3f;stroke-width:1.35888183;stroke-linecap:round;stroke-linejoin:round;stroke-miterlimit:4;stroke-dasharray:none;stroke-opacity:1" />
      <path
         id="rect22495-9"
         d="m -254.8515,331.04999 h 2.57471 v 7.41849 h -2.57471 z"
         style="display:inline;opacity:1;fill:none;fill-opacity:1;stroke:#9e3f3f;stroke-width:1.02528465;stroke-linecap:round;stroke-linejoin:round;stroke-miterlimit:4;stroke-dasharray:none;stroke-opacity:1" />
      <path
         inkscape:connector-curvature="0"
         id="path160"
         d="m -255.62635,331.17514 h 4.12442 v 7.16819 h -4.12442 z"
         style="display:inline;opacity:1;fill:none;fill-opacity:1;stroke:#9e3f3f;stroke-width:1.27558279;stroke-linecap:round;stroke-linejoin:round;stroke-miterlimit:4;stroke-dasharray:none;stroke-opacity:1" />
    </g>
  </g>
</svg>
