<?xml version="1.0" encoding="UTF-8" standalone="no"?>
<!-- Created with Inkscape (http://www.inkscape.org/) -->

<svg
   xmlns:dc="http://purl.org/dc/elements/1.1/"
   xmlns:cc="http://creativecommons.org/ns#"
   xmlns:rdf="http://www.w3.org/1999/02/22-rdf-syntax-ns#"
   xmlns:svg="http://www.w3.org/2000/svg"
   xmlns="http://www.w3.org/2000/svg"
   xmlns:sodipodi="http://sodipodi.sourceforge.net/DTD/sodipodi-0.dtd"
   xmlns:inkscape="http://www.inkscape.org/namespaces/inkscape"
   width="14in"
   height="8.5in"
   viewBox="0 0 1260 765"
   id="svg25193"
   version="1.1"
   inkscape:version="0.92.4 (5da689c313, 2019-01-14)"
   sodipodi:docname="930-940v2-dirty.svg">
  <defs
     id="defs25195" />
  <sodipodi:namedview
     id="base"
     pagecolor="#ffffff"
     bordercolor="#666666"
     borderopacity="1.0"
     inkscape:pageopacity="0.0"
     inkscape:pageshadow="2"
     inkscape:zoom="2.2762104"
     inkscape:cx="255.10293"
     inkscape:cy="98.570732"
     inkscape:document-units="px"
     inkscape:current-layer="layer1"
     showgrid="false"
     fit-margin-top="0"
     fit-margin-left="0"
     fit-margin-right="0"
     fit-margin-bottom="0"
     inkscape:window-width="1842"
     inkscape:window-height="1051"
     inkscape:window-x="-9"
     inkscape:window-y="-9"
     inkscape:window-maximized="1"
     units="in" />
  <metadata
     id="metadata25198">
    <rdf:RDF>
      <cc:Work
         rdf:about="">
        <dc:format>image/svg+xml</dc:format>
        <dc:type
           rdf:resource="http://purl.org/dc/dcmitype/StillImage" />
        <dc:title></dc:title>
      </cc:Work>
    </rdf:RDF>
  </metadata>
  <g
     inkscape:label="Layer 1"
     inkscape:groupmode="layer"
     id="layer1"
     transform="translate(195.79453,218.16211)">
    <g
       id="g1181">
      <path
         id="path183"
         d="m -164.09453,355.38789 c -6.2325,0 -11.25,5.0175 -11.25,11.25 v 148.5 c 0,6.2325 5.0175,11.25 11.25,11.25 h 985.5 c 6.2325,0 11.25,-5.0175 11.25,-11.25 v -148.5 c 0,-6.2325 -5.0175,-11.25 -11.25,-11.25 z"
         style="display:inline;opacity:1;fill:none;fill-opacity:1;stroke:#9e3f3f;stroke-width:0.89999998;stroke-linecap:round;stroke-linejoin:round;stroke-miterlimit:4;stroke-dasharray:none;stroke-opacity:1"
         inkscape:connector-curvature="0" />
      <path
         inkscape:connector-curvature="0"
         id="path181"
         d="m 62.73998,360.78881 h 3.89348 V 383.569 h -3.89348 z"
         style="display:inline;opacity:1;fill:none;fill-opacity:1;stroke:#9e3f3f;stroke-width:1.50652003;stroke-linecap:round;stroke-linejoin:round;stroke-miterlimit:4;stroke-dasharray:none;stroke-opacity:1" />
      <path
         inkscape:connector-curvature="0"
         id="path179"
         d="m 115.54873,360.78881 h 3.89348 V 383.569 h -3.89348 z"
         style="display:inline;opacity:1;fill:none;fill-opacity:1;stroke:#9e3f3f;stroke-width:1.50651896;stroke-linecap:round;stroke-linejoin:round;stroke-miterlimit:4;stroke-dasharray:none;stroke-opacity:1" />
      <path
         id="path177"
         d="m 358.08906,381.56172 h 179.15625 c 0.9972,0 1.79883,0.80358 1.79883,1.80078 v 37.98828 c 0,0.9972 -0.80163,1.80078 -1.79883,1.80078 H 358.08906 c -0.9972,0 -1.80078,-0.80358 -1.80078,-1.80078 V 383.3625 c 0,-0.9972 0.80358,-1.80078 1.80078,-1.80078 z"
         style="display:inline;opacity:1;fill:none;fill-opacity:1;stroke:#9e3f3f;stroke-width:0.89999998;stroke-linecap:round;stroke-linejoin:round;stroke-miterlimit:4;stroke-dasharray:none;stroke-opacity:1"
         inkscape:connector-curvature="0" />
      <path
         inkscape:connector-curvature="0"
         id="path175"
         d="m 68.468648,385.77333 h 45.422482 v 3.88537 H 68.468648 Z"
         style="display:inline;opacity:1;fill:none;fill-opacity:1;stroke:#9e3f3f;stroke-width:1.5146364;stroke-linecap:round;stroke-linejoin:round;stroke-miterlimit:4;stroke-dasharray:none;stroke-opacity:1" />
      <path
         id="path173"
         d="m 141.50313,392.33125 c 11.67975,0 21.14648,9.46681 21.14648,21.14648 0,11.68461 -9.46673,21.15235 -21.14648,21.15235 -11.68454,0 -21.15235,-9.46774 -21.15235,-21.15235 0,-11.67967 9.46782,-21.14648 21.15235,-21.14648 z"
         style="display:inline;opacity:1;fill:none;fill-opacity:1;stroke:#9e3f3f;stroke-width:0.89999998;stroke-linecap:round;stroke-linejoin:round;stroke-miterlimit:4;stroke-dasharray:none;stroke-opacity:1"
         inkscape:connector-curvature="0" />
      <path
         id="path171"
         d="m -132.6375,409.4289 c 3.33008,0 6.66016,2.22119 6.66016,6.66211 0,8.88184 -13.32032,8.88184 -13.32032,0 0,-4.44092 3.33008,-6.66211 6.66016,-6.66211 z"
         style="display:inline;opacity:1;fill:none;fill-opacity:1;stroke:#9e3f3f;stroke-width:0.89999998;stroke-linecap:round;stroke-linejoin:round;stroke-miterlimit:4;stroke-dasharray:none;stroke-opacity:1"
         inkscape:connector-curvature="0" />
      <path
         id="path169"
         d="m 328.6125,409.4289 c 3.33008,0 6.66016,2.22119 6.66016,6.66211 0,8.88184 -13.32032,8.88184 -13.32032,0 0,-4.44092 3.33008,-6.66211 6.66016,-6.66211 z"
         style="display:inline;opacity:1;fill:none;fill-opacity:1;stroke:#9e3f3f;stroke-width:0.89999998;stroke-linecap:round;stroke-linejoin:round;stroke-miterlimit:4;stroke-dasharray:none;stroke-opacity:1"
         inkscape:connector-curvature="0" />
      <path
         id="path167"
         d="m 789.8625,409.4289 c 3.33008,0 6.66016,2.22119 6.66016,6.66211 0,8.88184 -13.32032,8.88184 -13.32032,0 0,-4.44092 3.33008,-6.66211 6.66016,-6.66211 z"
         style="display:inline;opacity:1;fill:none;fill-opacity:1;stroke:#9e3f3f;stroke-width:0.89999998;stroke-linecap:round;stroke-linejoin:round;stroke-miterlimit:4;stroke-dasharray:none;stroke-opacity:1"
         inkscape:connector-curvature="0" />
      <path
         id="path165"
         d="M 26.10664,415.19453 H 94.2082 c 0.9972,0 1.79883,0.80163 1.79883,1.79883 v 16.67773 c 0,0.9972 -0.80163,1.80078 -1.79883,1.80078 H 26.10664 c -0.9972,0 -1.80078,-0.80358 -1.80078,-1.80078 v -16.67773 c 0,-0.9972 0.80358,-1.79883 1.80078,-1.79883 z"
         style="display:inline;opacity:1;fill:none;fill-opacity:1;stroke:#9e3f3f;stroke-width:0.89999998;stroke-linecap:round;stroke-linejoin:round;stroke-miterlimit:4;stroke-dasharray:none;stroke-opacity:1"
         inkscape:connector-curvature="0" />
      <path
         id="path163"
         d="m -132.6375,476.03047 c 3.33008,0 6.66016,2.22119 6.66016,6.66211 0,8.87695 -13.32032,8.87695 -13.32032,0 0,-4.44092 3.33008,-6.66211 6.66016,-6.66211 z"
         style="display:inline;opacity:1;fill:none;fill-opacity:1;stroke:#9e3f3f;stroke-width:0.89999998;stroke-linecap:round;stroke-linejoin:round;stroke-miterlimit:4;stroke-dasharray:none;stroke-opacity:1"
         inkscape:connector-curvature="0" />
      <path
         id="path161"
         d="m 328.6125,476.03047 c 3.33008,0 6.66016,2.22119 6.66016,6.66211 0,8.87695 -13.32032,8.87695 -13.32032,0 0,-4.44092 3.33008,-6.66211 6.66016,-6.66211 z"
         style="display:inline;opacity:1;fill:none;fill-opacity:1;stroke:#9e3f3f;stroke-width:0.89999998;stroke-linecap:round;stroke-linejoin:round;stroke-miterlimit:4;stroke-dasharray:none;stroke-opacity:1"
         inkscape:connector-curvature="0" />
      <path
         id="path159"
         d="m 789.8625,476.03047 c 3.33008,0 6.66016,2.22119 6.66016,6.66211 0,8.87695 -13.32032,8.87695 -13.32032,0 0,-4.44092 3.33008,-6.66211 6.66016,-6.66211 z"
         style="display:inline;opacity:1;fill:none;fill-opacity:1;stroke:#9e3f3f;stroke-width:0.89999998;stroke-linecap:round;stroke-linejoin:round;stroke-miterlimit:4;stroke-dasharray:none;stroke-opacity:1"
         inkscape:connector-curvature="0" />
      <path
         id="path157"
         d="m 6.37227,477.41328 h 94.35937 c 0.9972,0 1.80078,0.80358 1.80078,1.80078 v 17.45508 c 0,0.9972 -0.80358,1.80078 -1.80078,1.80078 H 6.37227 c -0.9972,0 -1.80079,-0.80358 -1.80079,-1.80078 v -17.45508 c 0,-0.9972 0.80359,-1.80078 1.80079,-1.80078 z"
         style="display:inline;opacity:1;fill:none;fill-opacity:1;stroke:#9e3f3f;stroke-width:0.89999998;stroke-linecap:round;stroke-linejoin:round;stroke-miterlimit:4;stroke-dasharray:none;stroke-opacity:1"
         inkscape:connector-curvature="0" />
      <path
         id="path155"
         d="m 110.04414,478.01289 h 112.16992 c 0.9972,0 1.79883,0.80163 1.79883,1.79883 v 17.45703 c 0,0.9972 -0.80163,1.80078 -1.79883,1.80078 H 110.04414 c -0.9972,0 -1.79883,-0.80358 -1.79883,-1.80078 v -17.45703 c 0,-0.9972 0.80163,-1.79883 1.79883,-1.79883 z"
         style="display:inline;opacity:1;fill:none;fill-opacity:1;stroke:#9e3f3f;stroke-width:0.89999998;stroke-linecap:round;stroke-linejoin:round;stroke-miterlimit:4;stroke-dasharray:none;stroke-opacity:1"
         inkscape:connector-curvature="0" />
      <path
         id="path153"
         d="m 805.75313,487.52851 h 12.50195 c 0.9972,0 1.80078,0.80358 1.80078,1.80079 v 10.30468 1.88086 14.96875 c 0,0.9972 -0.80358,1.79883 -1.80078,1.79883 h -34.69727 c -0.9972,0 -1.79883,-0.80163 -1.79883,-1.79883 v -16.84961 c 0,-0.9972 0.80163,-1.80078 1.79883,-1.80078 h 20.39453 v -8.5039 c 0,-0.99721 0.80358,-1.80079 1.80079,-1.80079 z"
         style="display:inline;opacity:1;fill:none;fill-opacity:1;stroke:#9e3f3f;stroke-width:0.89999998;stroke-linecap:round;stroke-linejoin:round;stroke-miterlimit:4;stroke-dasharray:none;stroke-opacity:1"
         inkscape:connector-curvature="0" />
      <path
         id="rect22193-0-09"
         d="m -150.53594,497.91719 h 36.43555 c 0.9972,0 1.80078,0.80162 1.80078,1.79882 v 16.78321 c 0,0.9972 -0.80358,1.79883 -1.80078,1.79883 h -36.43555 c -0.9972,0 -1.79883,-0.80163 -1.79883,-1.79883 v -1.06641 h -8.74414 c -0.9972,0 -1.80078,-0.80358 -1.80078,-1.80078 v -4.94531 c 0,-0.9972 0.80358,-1.79883 1.80078,-1.79883 h 8.74414 v -7.17188 c 0,-0.9972 0.80163,-1.79882 1.79883,-1.79882 z"
         style="display:inline;opacity:1;fill:none;fill-opacity:1;stroke:#9e3f3f;stroke-width:0.89999998;stroke-linecap:round;stroke-linejoin:round;stroke-miterlimit:4;stroke-dasharray:none;stroke-opacity:1"
         inkscape:connector-curvature="0" />
      <path
         inkscape:connector-curvature="0"
         id="path147"
         d="m 61.916232,371.99255 c 0,-6.56736 0.08494,-9.254 0.188766,-5.97033 0.103828,3.28368 0.103828,8.65697 0,11.94064 -0.103819,3.28368 -0.188766,0.59703 -0.188766,-5.97031 z"
         style="stroke-width:0.58247042" />
    </g>
  </g>
</svg>
