  0
SECTION
  2
HEADER
  9
$ACADVER
  1
AC1014
  9
$HANDSEED
  5
FFFF
  9
$MEASUREMENT
 70
     1
  0
ENDSEC
  0
SECTION
  2
TABLES
  0
TABLE
  2
VPORT
  5
8
330
0
100
AcDbSymbolTable
 70
     4
  0
VPORT
  5
2E
330
8
100
AcDbSymbolTableRecord
100
AcDbViewportTableRecord
  2
*ACTIVE
 70
     0
 10
0.0
 20
0.0
 11
1.0
 21
1.0
 12
210.0
 22
148.5
 13
0.0
 23
0.0
 14
10.0
 24
10.0
 15
10.0
 25
10.0
 16
0.0
 26
0.0
 36
1.0
 17
0.0
 27
0.0
 37
0.0
 40
341.0
 41
1.24
 42
50.0
 43
0.0
 44
0.0
 50
0.0
 51
0.0
 71
     0
 72
   100
 73
     1
 74
     3
 75
     0
 76
     0
 77
     0
 78
     0
  0
ENDTAB
  0
TABLE
  2
LTYPE
  5
5
330
0
100
AcDbSymbolTable
 70
     1
  0
LTYPE
  5
14
330
5
100
AcDbSymbolTableRecord
100
AcDbLinetypeTableRecord
  2
BYBLOCK
 70
     0
  3

 72
    65
 73
     0
 40
0.0
  0
LTYPE
  5
15
330
5
100
AcDbSymbolTableRecord
100
AcDbLinetypeTableRecord
  2
BYLAYER
 70
     0
  3

 72
    65
 73
     0
 40
0.0
  0
LTYPE
  5
16
330
5
100
AcDbSymbolTableRecord
100
AcDbLinetypeTableRecord
  2
CONTINUOUS
 70
     0
  3
Solid line
 72
    65
 73
     0
 40
0.0
  0
ENDTAB
  0
TABLE
  2
LAYER
  5
2
100
AcDbSymbolTable
 70
2
  0
LAYER
  5
50
100
AcDbSymbolTableRecord
100
AcDbLayerTableRecord
  2
0
 70
0
  6
CONTINUOUS
  0
LAYER
  5
51
100
AcDbSymbolTableRecord
100
AcDbLayerTableRecord
  2
Layer_1
 70
0
  6
CONTINUOUS
  0
ENDTAB
  0
TABLE
  2
STYLE
  5
3
330
0
100
AcDbSymbolTable
 70
     1
  0
STYLE
  5
11
330
3
100
AcDbSymbolTableRecord
100
AcDbTextStyleTableRecord
  2
STANDARD
 70
     0
 40
0.0
 41
1.0
 50
0.0
 71
     0
 42
2.5
  3
txt
  4

  0
ENDTAB
  0
TABLE
  2
VIEW
  5
6
330
0
100
AcDbSymbolTable
 70
     0
  0
ENDTAB
  0
TABLE
  2
UCS
  5
7
330
0
100
AcDbSymbolTable
 70
     0
  0
ENDTAB
  0
TABLE
  2
APPID
  5
9
330
0
100
AcDbSymbolTable
 70
     2
  0
APPID
  5
12
330
9
100
AcDbSymbolTableRecord
100
AcDbRegAppTableRecord
  2
ACAD
 70
     0
  0
ENDTAB
  0
TABLE
  2
DIMSTYLE
  5
A
330
0
100
AcDbSymbolTable
 70
     1
  0
DIMSTYLE
105
27
330
A
100
AcDbSymbolTableRecord
100
AcDbDimStyleTableRecord
  2
ISO-25
 70
     0
  3

  4

  5

  6

  7

 40
1.0
 41
2.5
 42
0.625
 43
3.75
 44
1.25
 45
0.0
 46
0.0
 47
0.0
 48
0.0
140
2.5
141
2.5
142
0.0
143
0.03937007874016
144
1.0
145
0.0
146
1.0
147
0.625
 71
     0
 72
     0
 73
     0
 74
     0
 75
     0
 76
     0
 77
     1
 78
     8
170
     0
171
     3
172
     1
173
     0
174
     0
175
     0
176
     0
177
     0
178
     0
270
     2
271
     2
272
     2
273
     2
274
     3
340
11
275
     0
280
     0
281
     0
282
     0
283
     0
284
     8
285
     0
286
     0
287
     3
288
     0
  0
ENDTAB
  0
TABLE
  2
BLOCK_RECORD
  5
1
330
0
100
AcDbSymbolTable
 70
     1
  0
BLOCK_RECORD
  5
1F
330
1
100
AcDbSymbolTableRecord
100
AcDbBlockTableRecord
  2
*MODEL_SPACE
  0
BLOCK_RECORD
  5
1B
330
1
100
AcDbSymbolTableRecord
100
AcDbBlockTableRecord
  2
*PAPER_SPACE
  0
ENDTAB
  0
ENDSEC
  0
SECTION
  2
BLOCKS
  0
BLOCK
  5
20
330
1F
100
AcDbEntity
  8
0
100
AcDbBlockBegin
  2
*MODEL_SPACE
 70
     0
 10
0.0
 20
0.0
 30
0.0
  3
*MODEL_SPACE
  1

  0
ENDBLK
  5
21
330
1F
100
AcDbEntity
  8
0
100
AcDbBlockEnd
  0
BLOCK
  5
1C
330
1B
100
AcDbEntity
 67
     1
  8
0
100
AcDbBlockBegin
  2
*PAPER_SPACE
  1

  0
ENDBLK
  5
1D
330
1B
100
AcDbEntity
 67
     1
  8
0
100
AcDbBlockEnd
  0
ENDSEC
  0
SECTION
  2
ENTITIES
  0
SPLINE
  5
100
100
AcDbEntity
  8
Layer_1
 62
1
100
AcDbSpline
 70
8
 71
3
 72
8
 73
4
 74
0
 40
0
 40
0
 40
0
 40
0
 40
1
 40
1
 40
1
 40
1
 10
0.894644
 20
6.842478
 30
0.0
 10
0.718749
 20
6.842478
 30
0.0
 10
0.577144
 20
6.700873
 30
0.0
 10
0.577144
 20
6.524978
 30
0.0
  0
LINE
  5
101
100
AcDbEntity
  8
Layer_1
 62
1
100
AcDbLine
 10
0.577144
 20
6.524978
 30
0.0
 11
0.577144
 21
2.333978
 31
0.0
  0
SPLINE
  5
102
100
AcDbEntity
  8
Layer_1
 62
1
100
AcDbSpline
 70
8
 71
3
 72
8
 73
4
 74
0
 40
0
 40
0
 40
0
 40
0
 40
1
 40
1
 40
1
 40
1
 10
0.577144
 20
2.333978
 30
0.0
 10
0.577144
 20
2.158083
 30
0.0
 10
0.718749
 20
2.016478
 30
0.0
 10
0.894644
 20
2.016478
 30
0.0
  0
LINE
  5
103
100
AcDbEntity
  8
Layer_1
 62
1
100
AcDbLine
 10
0.894644
 20
2.016478
 30
0.0
 11
28.707644
 21
2.016478
 31
0.0
  0
SPLINE
  5
104
100
AcDbEntity
  8
Layer_1
 62
1
100
AcDbSpline
 70
8
 71
3
 72
8
 73
4
 74
0
 40
0
 40
0
 40
0
 40
0
 40
1
 40
1
 40
1
 40
1
 10
28.707644
 20
2.016478
 30
0.0
 10
28.883539
 20
2.016478
 30
0.0
 10
29.025144
 20
2.158083
 30
0.0
 10
29.025144
 20
2.333978
 30
0.0
  0
LINE
  5
105
100
AcDbEntity
  8
Layer_1
 62
1
100
AcDbLine
 10
29.025144
 20
2.333978
 30
0.0
 11
29.025144
 21
6.524978
 31
0.0
  0
SPLINE
  5
106
100
AcDbEntity
  8
Layer_1
 62
1
100
AcDbSpline
 70
8
 71
3
 72
8
 73
4
 74
0
 40
0
 40
0
 40
0
 40
0
 40
1
 40
1
 40
1
 40
1
 10
29.025144
 20
6.524978
 30
0.0
 10
29.025144
 20
6.700873
 30
0.0
 10
28.883539
 20
6.842478
 30
0.0
 10
28.707644
 20
6.842478
 30
0.0
  0
LINE
  5
107
100
AcDbEntity
  8
Layer_1
 62
1
100
AcDbLine
 10
28.707644
 20
6.842478
 30
0.0
 11
0.894644
 21
6.842478
 31
0.0
  0
LINE
  5
108
100
AcDbEntity
  8
Layer_1
 62
1
100
AcDbLine
 10
7.296418
 20
6.690052
 30
0.0
 11
7.406301
 21
6.690052
 31
0.0
  0
LINE
  5
109
100
AcDbEntity
  8
Layer_1
 62
1
100
AcDbLine
 10
7.406301
 20
6.690052
 30
0.0
 11
7.406301
 21
6.047144
 31
0.0
  0
LINE
  5
10a
100
AcDbEntity
  8
Layer_1
 62
1
100
AcDbLine
 10
7.406301
 20
6.047144
 30
0.0
 11
7.296418
 21
6.047144
 31
0.0
  0
LINE
  5
10b
100
AcDbEntity
  8
Layer_1
 62
1
100
AcDbLine
 10
7.296418
 20
6.047144
 30
0.0
 11
7.296418
 21
6.690052
 31
0.0
  0
LINE
  5
10c
100
AcDbEntity
  8
Layer_1
 62
1
100
AcDbLine
 10
8.786799
 20
6.690052
 30
0.0
 11
8.896681
 21
6.690052
 31
0.0
  0
LINE
  5
10d
100
AcDbEntity
  8
Layer_1
 62
1
100
AcDbLine
 10
8.896681
 20
6.690052
 30
0.0
 11
8.896681
 21
6.047144
 31
0.0
  0
LINE
  5
10e
100
AcDbEntity
  8
Layer_1
 62
1
100
AcDbLine
 10
8.896681
 20
6.047144
 30
0.0
 11
8.786799
 21
6.047144
 31
0.0
  0
LINE
  5
10f
100
AcDbEntity
  8
Layer_1
 62
1
100
AcDbLine
 10
8.786799
 20
6.047144
 30
0.0
 11
8.786799
 21
6.690052
 31
0.0
  0
LINE
  5
110
100
AcDbEntity
  8
Layer_1
 62
1
100
AcDbLine
 10
15.631826
 20
6.103794
 30
0.0
 11
20.688013
 21
6.103794
 31
0.0
  0
SPLINE
  5
111
100
AcDbEntity
  8
Layer_1
 62
1
100
AcDbSpline
 70
8
 71
3
 72
8
 73
4
 74
0
 40
0
 40
0
 40
0
 40
0
 40
1
 40
1
 40
1
 40
1
 10
20.688013
 20
6.103794
 30
0.0
 10
20.716156
 20
6.103794
 30
0.0
 10
20.738780
 20
6.081115
 30
0.0
 10
20.738780
 20
6.052972
 30
0.0
  0
LINE
  5
112
100
AcDbEntity
  8
Layer_1
 62
1
100
AcDbLine
 10
20.738780
 20
6.052972
 30
0.0
 11
20.738780
 21
4.980858
 31
0.0
  0
SPLINE
  5
113
100
AcDbEntity
  8
Layer_1
 62
1
100
AcDbSpline
 70
8
 71
3
 72
8
 73
4
 74
0
 40
0
 40
0
 40
0
 40
0
 40
1
 40
1
 40
1
 40
1
 10
20.738780
 20
4.980858
 30
0.0
 10
20.738780
 20
4.952715
 30
0.0
 10
20.716156
 20
4.930036
 30
0.0
 10
20.688013
 20
4.930036
 30
0.0
  0
LINE
  5
114
100
AcDbEntity
  8
Layer_1
 62
1
100
AcDbLine
 10
20.688013
 20
4.930036
 30
0.0
 11
15.631826
 21
4.930036
 31
0.0
  0
SPLINE
  5
115
100
AcDbEntity
  8
Layer_1
 62
1
100
AcDbSpline
 70
8
 71
3
 72
8
 73
4
 74
0
 40
0
 40
0
 40
0
 40
0
 40
1
 40
1
 40
1
 40
1
 10
15.631826
 20
4.930036
 30
0.0
 10
15.603683
 20
4.930036
 30
0.0
 10
15.581004
 20
4.952715
 30
0.0
 10
15.581004
 20
4.980858
 30
0.0
  0
LINE
  5
116
100
AcDbEntity
  8
Layer_1
 62
1
100
AcDbLine
 10
15.581004
 20
4.980858
 30
0.0
 11
15.581004
 21
6.052972
 31
0.0
  0
SPLINE
  5
117
100
AcDbEntity
  8
Layer_1
 62
1
100
AcDbSpline
 70
8
 71
3
 72
8
 73
4
 74
0
 40
0
 40
0
 40
0
 40
0
 40
1
 40
1
 40
1
 40
1
 10
15.581004
 20
6.052972
 30
0.0
 10
15.581004
 20
6.081115
 30
0.0
 10
15.603683
 20
6.103794
 30
0.0
 10
15.631826
 20
6.103794
 30
0.0
  0
LINE
  5
118
100
AcDbEntity
  8
Layer_1
 62
1
100
AcDbLine
 10
15.631826
 20
6.103794
 30
0.0
 11
15.631826
 21
6.103794
 31
0.0
  0
LINE
  5
119
100
AcDbEntity
  8
Layer_1
 62
1
100
AcDbLine
 10
7.458094
 20
5.984933
 30
0.0
 11
8.740018
 21
5.984933
 31
0.0
  0
LINE
  5
11a
100
AcDbEntity
  8
Layer_1
 62
1
100
AcDbLine
 10
8.740018
 20
5.984933
 30
0.0
 11
8.740018
 21
5.875279
 31
0.0
  0
LINE
  5
11b
100
AcDbEntity
  8
Layer_1
 62
1
100
AcDbLine
 10
8.740018
 20
5.875279
 30
0.0
 11
7.458094
 21
5.875279
 31
0.0
  0
LINE
  5
11c
100
AcDbEntity
  8
Layer_1
 62
1
100
AcDbLine
 10
7.458094
 20
5.875279
 30
0.0
 11
7.458094
 21
5.984933
 31
0.0
  0
SPLINE
  5
11d
100
AcDbEntity
  8
Layer_1
 62
1
100
AcDbSpline
 70
8
 71
3
 72
8
 73
4
 74
0
 40
0
 40
0
 40
0
 40
0
 40
1
 40
1
 40
1
 40
1
 10
9.519290
 20
5.799854
 30
0.0
 10
9.848918
 20
5.799854
 30
0.0
 10
10.116090
 20
5.532680
 30
0.0
 10
10.116090
 20
5.203053
 30
0.0
  0
SPLINE
  5
11e
100
AcDbEntity
  8
Layer_1
 62
1
100
AcDbSpline
 70
8
 71
3
 72
8
 73
4
 74
0
 40
0
 40
0
 40
0
 40
0
 40
1
 40
1
 40
1
 40
1
 10
10.116090
 20
5.203053
 30
0.0
 10
10.116090
 20
4.873288
 30
0.0
 10
9.848918
 20
4.606087
 30
0.0
 10
9.519290
 20
4.606087
 30
0.0
  0
SPLINE
  5
11f
100
AcDbEntity
  8
Layer_1
 62
1
100
AcDbSpline
 70
8
 71
3
 72
8
 73
4
 74
0
 40
0
 40
0
 40
0
 40
0
 40
1
 40
1
 40
1
 40
1
 10
9.519290
 20
4.606087
 30
0.0
 10
9.189526
 20
4.606087
 30
0.0
 10
8.922323
 20
4.873288
 30
0.0
 10
8.922323
 20
5.203053
 30
0.0
  0
SPLINE
  5
120
100
AcDbEntity
  8
Layer_1
 62
1
100
AcDbSpline
 70
8
 71
3
 72
8
 73
4
 74
0
 40
0
 40
0
 40
0
 40
0
 40
1
 40
1
 40
1
 40
1
 10
8.922323
 20
5.203053
 30
0.0
 10
8.922323
 20
5.532680
 30
0.0
 10
9.189526
 20
5.799854
 30
0.0
 10
9.519290
 20
5.799854
 30
0.0
  0
LINE
  5
121
100
AcDbEntity
  8
Layer_1
 62
1
100
AcDbLine
 10
9.519290
 20
5.799854
 30
0.0
 11
9.519290
 21
5.799854
 31
0.0
  0
SPLINE
  5
122
100
AcDbEntity
  8
Layer_1
 62
1
100
AcDbSpline
 70
8
 71
3
 72
8
 73
4
 74
0
 40
0
 40
0
 40
0
 40
0
 40
1
 40
1
 40
1
 40
1
 10
1.782432
 20
5.317320
 30
0.0
 10
1.876414
 20
5.317320
 30
0.0
 10
1.970396
 20
5.254633
 30
0.0
 10
1.970396
 20
5.129301
 30
0.0
  0
SPLINE
  5
123
100
AcDbEntity
  8
Layer_1
 62
1
100
AcDbSpline
 70
8
 71
3
 72
8
 73
4
 74
0
 40
0
 40
0
 40
0
 40
0
 40
1
 40
1
 40
1
 40
1
 10
1.970396
 20
5.129301
 30
0.0
 10
1.970396
 20
4.878636
 30
0.0
 10
1.594467
 20
4.878636
 30
0.0
 10
1.594467
 20
5.129301
 30
0.0
  0
SPLINE
  5
124
100
AcDbEntity
  8
Layer_1
 62
1
100
AcDbSpline
 70
8
 71
3
 72
8
 73
4
 74
0
 40
0
 40
0
 40
0
 40
0
 40
1
 40
1
 40
1
 40
1
 10
1.594467
 20
5.129301
 30
0.0
 10
1.594467
 20
5.254633
 30
0.0
 10
1.688449
 20
5.317320
 30
0.0
 10
1.782432
 20
5.317320
 30
0.0
  0
LINE
  5
125
100
AcDbEntity
  8
Layer_1
 62
1
100
AcDbLine
 10
1.782432
 20
5.317320
 30
0.0
 11
1.782432
 21
5.317320
 31
0.0
  0
SPLINE
  5
126
100
AcDbEntity
  8
Layer_1
 62
1
100
AcDbSpline
 70
8
 71
3
 72
8
 73
4
 74
0
 40
0
 40
0
 40
0
 40
0
 40
1
 40
1
 40
1
 40
1
 10
14.799932
 20
5.317320
 30
0.0
 10
14.893914
 20
5.317320
 30
0.0
 10
14.987896
 20
5.254633
 30
0.0
 10
14.987896
 20
5.129301
 30
0.0
  0
SPLINE
  5
127
100
AcDbEntity
  8
Layer_1
 62
1
100
AcDbSpline
 70
8
 71
3
 72
8
 73
4
 74
0
 40
0
 40
0
 40
0
 40
0
 40
1
 40
1
 40
1
 40
1
 10
14.987896
 20
5.129301
 30
0.0
 10
14.987896
 20
4.878636
 30
0.0
 10
14.611967
 20
4.878636
 30
0.0
 10
14.611967
 20
5.129301
 30
0.0
  0
SPLINE
  5
128
100
AcDbEntity
  8
Layer_1
 62
1
100
AcDbSpline
 70
8
 71
3
 72
8
 73
4
 74
0
 40
0
 40
0
 40
0
 40
0
 40
1
 40
1
 40
1
 40
1
 10
14.611967
 20
5.129301
 30
0.0
 10
14.611967
 20
5.254633
 30
0.0
 10
14.705949
 20
5.317320
 30
0.0
 10
14.799932
 20
5.317320
 30
0.0
  0
LINE
  5
129
100
AcDbEntity
  8
Layer_1
 62
1
100
AcDbLine
 10
14.799932
 20
5.317320
 30
0.0
 11
14.799932
 21
5.317320
 31
0.0
  0
SPLINE
  5
12a
100
AcDbEntity
  8
Layer_1
 62
1
100
AcDbSpline
 70
8
 71
3
 72
8
 73
4
 74
0
 40
0
 40
0
 40
0
 40
0
 40
1
 40
1
 40
1
 40
1
 10
27.817432
 20
5.317320
 30
0.0
 10
27.911414
 20
5.317320
 30
0.0
 10
28.005396
 20
5.254633
 30
0.0
 10
28.005396
 20
5.129301
 30
0.0
  0
SPLINE
  5
12b
100
AcDbEntity
  8
Layer_1
 62
1
100
AcDbSpline
 70
8
 71
3
 72
8
 73
4
 74
0
 40
0
 40
0
 40
0
 40
0
 40
1
 40
1
 40
1
 40
1
 10
28.005396
 20
5.129301
 30
0.0
 10
28.005396
 20
4.878636
 30
0.0
 10
27.629467
 20
4.878636
 30
0.0
 10
27.629467
 20
5.129301
 30
0.0
  0
SPLINE
  5
12c
100
AcDbEntity
  8
Layer_1
 62
1
100
AcDbSpline
 70
8
 71
3
 72
8
 73
4
 74
0
 40
0
 40
0
 40
0
 40
0
 40
1
 40
1
 40
1
 40
1
 10
27.629467
 20
5.129301
 30
0.0
 10
27.629467
 20
5.254633
 30
0.0
 10
27.723449
 20
5.317320
 30
0.0
 10
27.817432
 20
5.317320
 30
0.0
  0
LINE
  5
12d
100
AcDbEntity
  8
Layer_1
 62
1
100
AcDbLine
 10
27.817432
 20
5.317320
 30
0.0
 11
27.817432
 21
5.317320
 31
0.0
  0
LINE
  5
12e
100
AcDbEntity
  8
Layer_1
 62
1
100
AcDbLine
 10
0.888360
 20
4.753537
 30
0.0
 11
2.174842
 21
4.753537
 31
0.0
  0
SPLINE
  5
12f
100
AcDbEntity
  8
Layer_1
 62
1
100
AcDbSpline
 70
8
 71
3
 72
8
 73
4
 74
0
 40
0
 40
0
 40
0
 40
0
 40
1
 40
1
 40
1
 40
1
 10
2.174842
 20
4.753537
 30
0.0
 10
2.202985
 20
4.753537
 30
0.0
 10
2.225609
 20
4.730913
 30
0.0
 10
2.225609
 20
4.702770
 30
0.0
  0
LINE
  5
130
100
AcDbEntity
  8
Layer_1
 62
1
100
AcDbLine
 10
2.225609
 20
4.702770
 30
0.0
 11
2.225609
 21
4.246419
 31
0.0
  0
SPLINE
  5
131
100
AcDbEntity
  8
Layer_1
 62
1
100
AcDbSpline
 70
8
 71
3
 72
8
 73
4
 74
0
 40
0
 40
0
 40
0
 40
0
 40
1
 40
1
 40
1
 40
1
 10
2.225609
 20
4.246419
 30
0.0
 10
2.225609
 20
4.218276
 30
0.0
 10
2.202985
 20
4.195652
 30
0.0
 10
2.174842
 20
4.195652
 30
0.0
  0
LINE
  5
132
100
AcDbEntity
  8
Layer_1
 62
1
100
AcDbLine
 10
2.174842
 20
4.195652
 30
0.0
 11
0.888360
 21
4.195652
 31
0.0
  0
SPLINE
  5
133
100
AcDbEntity
  8
Layer_1
 62
1
100
AcDbSpline
 70
8
 71
3
 72
8
 73
4
 74
0
 40
0
 40
0
 40
0
 40
0
 40
1
 40
1
 40
1
 40
1
 10
0.888360
 20
4.195652
 30
0.0
 10
0.860217
 20
4.195652
 30
0.0
 10
0.837538
 20
4.218276
 30
0.0
 10
0.837538
 20
4.246419
 30
0.0
  0
LINE
  5
134
100
AcDbEntity
  8
Layer_1
 62
1
100
AcDbLine
 10
0.837538
 20
4.246419
 30
0.0
 11
0.837538
 21
4.702770
 31
0.0
  0
SPLINE
  5
135
100
AcDbEntity
  8
Layer_1
 62
1
100
AcDbSpline
 70
8
 71
3
 72
8
 73
4
 74
0
 40
0
 40
0
 40
0
 40
0
 40
1
 40
1
 40
1
 40
1
 10
0.837538
 20
4.702770
 30
0.0
 10
0.837538
 20
4.730913
 30
0.0
 10
0.860217
 20
4.753537
 30
0.0
 10
0.888360
 20
4.753537
 30
0.0
  0
LINE
  5
136
100
AcDbEntity
  8
Layer_1
 62
1
100
AcDbLine
 10
0.888360
 20
4.753537
 30
0.0
 11
0.888360
 21
4.753537
 31
0.0
  0
LINE
  5
137
100
AcDbEntity
  8
Layer_1
 62
1
100
AcDbLine
 10
6.109968
 20
4.462110
 30
0.0
 11
7.755841
 21
4.462110
 31
0.0
  0
SPLINE
  5
138
100
AcDbEntity
  8
Layer_1
 62
1
100
AcDbSpline
 70
8
 71
3
 72
8
 73
4
 74
0
 40
0
 40
0
 40
0
 40
0
 40
1
 40
1
 40
1
 40
1
 10
7.755841
 20
4.462110
 30
0.0
 10
7.783985
 20
4.462110
 30
0.0
 10
7.806663
 20
4.439431
 30
0.0
 10
7.806663
 20
4.411288
 30
0.0
  0
LINE
  5
139
100
AcDbEntity
  8
Layer_1
 62
1
100
AcDbLine
 10
7.806663
 20
4.411288
 30
0.0
 11
7.806663
 21
3.917675
 31
0.0
  0
SPLINE
  5
13a
100
AcDbEntity
  8
Layer_1
 62
1
100
AcDbSpline
 70
8
 71
3
 72
8
 73
4
 74
0
 40
0
 40
0
 40
0
 40
0
 40
1
 40
1
 40
1
 40
1
 10
7.806663
 20
3.917675
 30
0.0
 10
7.806663
 20
3.889531
 30
0.0
 10
7.783985
 20
3.866908
 30
0.0
 10
7.755841
 20
3.866908
 30
0.0
  0
LINE
  5
13b
100
AcDbEntity
  8
Layer_1
 62
1
100
AcDbLine
 10
7.755841
 20
3.866908
 30
0.0
 11
6.109968
 21
3.866908
 31
0.0
  0
SPLINE
  5
13c
100
AcDbEntity
  8
Layer_1
 62
1
100
AcDbSpline
 70
8
 71
3
 72
8
 73
4
 74
0
 40
0
 40
0
 40
0
 40
0
 40
1
 40
1
 40
1
 40
1
 10
6.109968
 20
3.866908
 30
0.0
 10
6.081825
 20
3.866908
 30
0.0
 10
6.059146
 20
3.889531
 30
0.0
 10
6.059146
 20
3.917675
 30
0.0
  0
LINE
  5
13d
100
AcDbEntity
  8
Layer_1
 62
1
100
AcDbLine
 10
6.059146
 20
3.917675
 30
0.0
 11
6.059146
 21
4.411288
 31
0.0
  0
SPLINE
  5
13e
100
AcDbEntity
  8
Layer_1
 62
1
100
AcDbSpline
 70
8
 71
3
 72
8
 73
4
 74
0
 40
0
 40
0
 40
0
 40
0
 40
1
 40
1
 40
1
 40
1
 10
6.059146
 20
4.411288
 30
0.0
 10
6.059146
 20
4.439431
 30
0.0
 10
6.081825
 20
4.462110
 30
0.0
 10
6.109968
 20
4.462110
 30
0.0
  0
LINE
  5
13f
100
AcDbEntity
  8
Layer_1
 62
1
100
AcDbLine
 10
6.109968
 20
4.462110
 30
0.0
 11
6.109968
 21
4.462110
 31
0.0
  0
SPLINE
  5
140
100
AcDbEntity
  8
Layer_1
 62
1
100
AcDbSpline
 70
8
 71
3
 72
8
 73
4
 74
0
 40
0
 40
0
 40
0
 40
0
 40
1
 40
1
 40
1
 40
1
 10
1.782432
 20
3.437676
 30
0.0
 10
1.876414
 20
3.437676
 30
0.0
 10
1.970396
 20
3.374989
 30
0.0
 10
1.970396
 20
3.249657
 30
0.0
  0
SPLINE
  5
141
100
AcDbEntity
  8
Layer_1
 62
1
100
AcDbSpline
 70
8
 71
3
 72
8
 73
4
 74
0
 40
0
 40
0
 40
0
 40
0
 40
1
 40
1
 40
1
 40
1
 10
1.970396
 20
3.249657
 30
0.0
 10
1.970396
 20
2.999129
 30
0.0
 10
1.594467
 20
2.999129
 30
0.0
 10
1.594467
 20
3.249657
 30
0.0
  0
SPLINE
  5
142
100
AcDbEntity
  8
Layer_1
 62
1
100
AcDbSpline
 70
8
 71
3
 72
8
 73
4
 74
0
 40
0
 40
0
 40
0
 40
0
 40
1
 40
1
 40
1
 40
1
 10
1.594467
 20
3.249657
 30
0.0
 10
1.594467
 20
3.374989
 30
0.0
 10
1.688449
 20
3.437676
 30
0.0
 10
1.782432
 20
3.437676
 30
0.0
  0
LINE
  5
143
100
AcDbEntity
  8
Layer_1
 62
1
100
AcDbLine
 10
1.782432
 20
3.437676
 30
0.0
 11
1.782432
 21
3.437676
 31
0.0
  0
SPLINE
  5
144
100
AcDbEntity
  8
Layer_1
 62
1
100
AcDbSpline
 70
8
 71
3
 72
8
 73
4
 74
0
 40
0
 40
0
 40
0
 40
0
 40
1
 40
1
 40
1
 40
1
 10
14.799932
 20
3.437676
 30
0.0
 10
14.893914
 20
3.437676
 30
0.0
 10
14.987896
 20
3.374989
 30
0.0
 10
14.987896
 20
3.249657
 30
0.0
  0
SPLINE
  5
145
100
AcDbEntity
  8
Layer_1
 62
1
100
AcDbSpline
 70
8
 71
3
 72
8
 73
4
 74
0
 40
0
 40
0
 40
0
 40
0
 40
1
 40
1
 40
1
 40
1
 10
14.987896
 20
3.249657
 30
0.0
 10
14.987896
 20
2.999129
 30
0.0
 10
14.611967
 20
2.999129
 30
0.0
 10
14.611967
 20
3.249657
 30
0.0
  0
SPLINE
  5
146
100
AcDbEntity
  8
Layer_1
 62
1
100
AcDbSpline
 70
8
 71
3
 72
8
 73
4
 74
0
 40
0
 40
0
 40
0
 40
0
 40
1
 40
1
 40
1
 40
1
 10
14.611967
 20
3.249657
 30
0.0
 10
14.611967
 20
3.374989
 30
0.0
 10
14.705949
 20
3.437676
 30
0.0
 10
14.799932
 20
3.437676
 30
0.0
  0
LINE
  5
147
100
AcDbEntity
  8
Layer_1
 62
1
100
AcDbLine
 10
14.799932
 20
3.437676
 30
0.0
 11
14.799932
 21
3.437676
 31
0.0
  0
SPLINE
  5
148
100
AcDbEntity
  8
Layer_1
 62
1
100
AcDbSpline
 70
8
 71
3
 72
8
 73
4
 74
0
 40
0
 40
0
 40
0
 40
0
 40
1
 40
1
 40
1
 40
1
 10
27.817432
 20
3.437676
 30
0.0
 10
27.911414
 20
3.437676
 30
0.0
 10
28.005396
 20
3.374989
 30
0.0
 10
28.005396
 20
3.249657
 30
0.0
  0
SPLINE
  5
149
100
AcDbEntity
  8
Layer_1
 62
1
100
AcDbSpline
 70
8
 71
3
 72
8
 73
4
 74
0
 40
0
 40
0
 40
0
 40
0
 40
1
 40
1
 40
1
 40
1
 10
28.005396
 20
3.249657
 30
0.0
 10
28.005396
 20
2.999129
 30
0.0
 10
27.629467
 20
2.999129
 30
0.0
 10
27.629467
 20
3.249657
 30
0.0
  0
SPLINE
  5
14a
100
AcDbEntity
  8
Layer_1
 62
1
100
AcDbSpline
 70
8
 71
3
 72
8
 73
4
 74
0
 40
0
 40
0
 40
0
 40
0
 40
1
 40
1
 40
1
 40
1
 10
27.629467
 20
3.249657
 30
0.0
 10
27.629467
 20
3.374989
 30
0.0
 10
27.723449
 20
3.437676
 30
0.0
 10
27.817432
 20
3.437676
 30
0.0
  0
LINE
  5
14b
100
AcDbEntity
  8
Layer_1
 62
1
100
AcDbLine
 10
27.817432
 20
3.437676
 30
0.0
 11
27.817432
 21
3.437676
 31
0.0
  0
LINE
  5
14c
100
AcDbEntity
  8
Layer_1
 62
1
100
AcDbLine
 10
5.705596
 20
3.398650
 30
0.0
 11
8.368627
 21
3.398650
 31
0.0
  0
SPLINE
  5
14d
100
AcDbEntity
  8
Layer_1
 62
1
100
AcDbSpline
 70
8
 71
3
 72
8
 73
4
 74
0
 40
0
 40
0
 40
0
 40
0
 40
1
 40
1
 40
1
 40
1
 10
8.368627
 20
3.398650
 30
0.0
 10
8.396771
 20
3.398650
 30
0.0
 10
8.419449
 20
3.375971
 30
0.0
 10
8.419449
 20
3.347828
 30
0.0
  0
LINE
  5
14e
100
AcDbEntity
  8
Layer_1
 62
1
100
AcDbLine
 10
8.419449
 20
3.347828
 30
0.0
 11
8.419449
 21
2.855207
 31
0.0
  0
SPLINE
  5
14f
100
AcDbEntity
  8
Layer_1
 62
1
100
AcDbSpline
 70
8
 71
3
 72
8
 73
4
 74
0
 40
0
 40
0
 40
0
 40
0
 40
1
 40
1
 40
1
 40
1
 10
8.419449
 20
2.855207
 30
0.0
 10
8.419449
 20
2.827064
 30
0.0
 10
8.396771
 20
2.804385
 30
0.0
 10
8.368627
 20
2.804385
 30
0.0
  0
LINE
  5
150
100
AcDbEntity
  8
Layer_1
 62
1
100
AcDbLine
 10
8.368627
 20
2.804385
 30
0.0
 11
5.705596
 21
2.804385
 31
0.0
  0
SPLINE
  5
151
100
AcDbEntity
  8
Layer_1
 62
1
100
AcDbSpline
 70
8
 71
3
 72
8
 73
4
 74
0
 40
0
 40
0
 40
0
 40
0
 40
1
 40
1
 40
1
 40
1
 10
5.705596
 20
2.804385
 30
0.0
 10
5.677453
 20
2.804385
 30
0.0
 10
5.654774
 20
2.827064
 30
0.0
 10
5.654774
 20
2.855207
 30
0.0
  0
LINE
  5
152
100
AcDbEntity
  8
Layer_1
 62
1
100
AcDbLine
 10
5.654774
 20
2.855207
 30
0.0
 11
5.654774
 21
3.347828
 31
0.0
  0
SPLINE
  5
153
100
AcDbEntity
  8
Layer_1
 62
1
100
AcDbSpline
 70
8
 71
3
 72
8
 73
4
 74
0
 40
0
 40
0
 40
0
 40
0
 40
1
 40
1
 40
1
 40
1
 10
5.654774
 20
3.347828
 30
0.0
 10
5.654774
 20
3.375971
 30
0.0
 10
5.677453
 20
3.398650
 30
0.0
 10
5.705596
 20
3.398650
 30
0.0
  0
LINE
  5
154
100
AcDbEntity
  8
Layer_1
 62
1
100
AcDbLine
 10
5.705596
 20
3.398650
 30
0.0
 11
5.705596
 21
3.398650
 31
0.0
  0
LINE
  5
155
100
AcDbEntity
  8
Layer_1
 62
1
100
AcDbLine
 10
8.631447
 20
3.381728
 30
0.0
 11
11.797076
 21
3.381728
 31
0.0
  0
SPLINE
  5
156
100
AcDbEntity
  8
Layer_1
 62
1
100
AcDbSpline
 70
8
 71
3
 72
8
 73
4
 74
0
 40
0
 40
0
 40
0
 40
0
 40
1
 40
1
 40
1
 40
1
 10
11.797076
 20
3.381728
 30
0.0
 10
11.825219
 20
3.381728
 30
0.0
 10
11.847898
 20
3.359104
 30
0.0
 10
11.847898
 20
3.330961
 30
0.0
  0
LINE
  5
157
100
AcDbEntity
  8
Layer_1
 62
1
100
AcDbLine
 10
11.847898
 20
3.330961
 30
0.0
 11
11.847898
 21
2.838285
 31
0.0
  0
SPLINE
  5
158
100
AcDbEntity
  8
Layer_1
 62
1
100
AcDbSpline
 70
8
 71
3
 72
8
 73
4
 74
0
 40
0
 40
0
 40
0
 40
0
 40
1
 40
1
 40
1
 40
1
 10
11.847898
 20
2.838285
 30
0.0
 10
11.847898
 20
2.810141
 30
0.0
 10
11.825219
 20
2.787463
 30
0.0
 10
11.797076
 20
2.787463
 30
0.0
  0
LINE
  5
159
100
AcDbEntity
  8
Layer_1
 62
1
100
AcDbLine
 10
11.797076
 20
2.787463
 30
0.0
 11
8.631447
 21
2.787463
 31
0.0
  0
SPLINE
  5
15a
100
AcDbEntity
  8
Layer_1
 62
1
100
AcDbSpline
 70
8
 71
3
 72
8
 73
4
 74
0
 40
0
 40
0
 40
0
 40
0
 40
1
 40
1
 40
1
 40
1
 10
8.631447
 20
2.787463
 30
0.0
 10
8.603304
 20
2.787463
 30
0.0
 10
8.580680
 20
2.810141
 30
0.0
 10
8.580680
 20
2.838285
 30
0.0
  0
LINE
  5
15b
100
AcDbEntity
  8
Layer_1
 62
1
100
AcDbLine
 10
8.580680
 20
2.838285
 30
0.0
 11
8.580680
 21
3.330961
 31
0.0
  0
SPLINE
  5
15c
100
AcDbEntity
  8
Layer_1
 62
1
100
AcDbSpline
 70
8
 71
3
 72
8
 73
4
 74
0
 40
0
 40
0
 40
0
 40
0
 40
1
 40
1
 40
1
 40
1
 10
8.580680
 20
3.330961
 30
0.0
 10
8.580680
 20
3.359104
 30
0.0
 10
8.603304
 20
3.381728
 30
0.0
 10
8.631447
 20
3.381728
 30
0.0
  0
LINE
  5
15d
100
AcDbEntity
  8
Layer_1
 62
1
100
AcDbLine
 10
8.631447
 20
3.381728
 30
0.0
 11
8.631447
 21
3.381728
 31
0.0
  0
LINE
  5
15e
100
AcDbEntity
  8
Layer_1
 62
1
100
AcDbLine
 10
26.650013
 20
3.113176
 30
0.0
 11
27.149304
 21
3.113176
 31
0.0
  0
SPLINE
  5
15f
100
AcDbEntity
  8
Layer_1
 62
1
100
AcDbSpline
 70
8
 71
3
 72
8
 73
4
 74
0
 40
0
 40
0
 40
0
 40
0
 40
1
 40
1
 40
1
 40
1
 10
27.149304
 20
3.113176
 30
0.0
 10
27.177447
 20
3.113176
 30
0.0
 10
27.200071
 20
3.090497
 30
0.0
 10
27.200071
 20
3.062354
 30
0.0
  0
LINE
  5
160
100
AcDbEntity
  8
Layer_1
 62
1
100
AcDbLine
 10
27.200071
 20
3.062354
 30
0.0
 11
27.200071
 21
2.846498
 31
0.0
  0
LINE
  5
161
100
AcDbEntity
  8
Layer_1
 62
1
100
AcDbLine
 10
27.200071
 20
2.846498
 30
0.0
 11
27.453078
 21
2.846498
 31
0.0
  0
SPLINE
  5
162
100
AcDbEntity
  8
Layer_1
 62
1
100
AcDbSpline
 70
8
 71
3
 72
8
 73
4
 74
0
 40
0
 40
0
 40
0
 40
0
 40
1
 40
1
 40
1
 40
1
 10
27.453078
 20
2.846498
 30
0.0
 10
27.481222
 20
2.846498
 30
0.0
 10
27.503845
 20
2.823819
 30
0.0
 10
27.503845
 20
2.795676
 30
0.0
  0
LINE
  5
163
100
AcDbEntity
  8
Layer_1
 62
1
100
AcDbLine
 10
27.503845
 20
2.795676
 30
0.0
 11
27.503845
 21
2.363192
 31
0.0
  0
SPLINE
  5
164
100
AcDbEntity
  8
Layer_1
 62
1
100
AcDbSpline
 70
8
 71
3
 72
8
 73
4
 74
0
 40
0
 40
0
 40
0
 40
0
 40
1
 40
1
 40
1
 40
1
 10
27.503845
 20
2.363192
 30
0.0
 10
27.503845
 20
2.335049
 30
0.0
 10
27.481222
 20
2.312425
 30
0.0
 10
27.453078
 20
2.312425
 30
0.0
  0
LINE
  5
165
100
AcDbEntity
  8
Layer_1
 62
1
100
AcDbLine
 10
27.453078
 20
2.312425
 30
0.0
 11
26.650013
 21
2.312425
 31
0.0
  0
SPLINE
  5
166
100
AcDbEntity
  8
Layer_1
 62
1
100
AcDbSpline
 70
8
 71
3
 72
8
 73
4
 74
0
 40
0
 40
0
 40
0
 40
0
 40
1
 40
1
 40
1
 40
1
 10
26.650013
 20
2.312425
 30
0.0
 10
26.621870
 20
2.312425
 30
0.0
 10
26.599191
 20
2.335049
 30
0.0
 10
26.599191
 20
2.363192
 30
0.0
  0
LINE
  5
167
100
AcDbEntity
  8
Layer_1
 62
1
100
AcDbLine
 10
26.599191
 20
2.363192
 30
0.0
 11
26.599191
 21
2.795676
 31
0.0
  0
SPLINE
  5
168
100
AcDbEntity
  8
Layer_1
 62
1
100
AcDbSpline
 70
8
 71
3
 72
8
 73
4
 74
0
 40
0
 40
0
 40
0
 40
0
 40
1
 40
1
 40
1
 40
1
 10
26.599191
 20
2.795676
 30
0.0
 10
26.599191
 20
2.800879
 30
0.0
 10
26.600176
 20
2.805839
 30
0.0
 10
26.601615
 20
2.810559
 30
0.0
  0
SPLINE
  5
169
100
AcDbEntity
  8
Layer_1
 62
1
100
AcDbSpline
 70
8
 71
3
 72
8
 73
4
 74
0
 40
0
 40
0
 40
0
 40
0
 40
1
 40
1
 40
1
 40
1
 10
26.601615
 20
2.810559
 30
0.0
 10
26.600187
 20
2.815263
 30
0.0
 10
26.599191
 20
2.820202
 30
0.0
 10
26.599191
 20
2.825386
 30
0.0
  0
LINE
  5
16a
100
AcDbEntity
  8
Layer_1
 62
1
100
AcDbLine
 10
26.599191
 20
2.825386
 30
0.0
 11
26.599191
 21
3.062354
 31
0.0
  0
SPLINE
  5
16b
100
AcDbEntity
  8
Layer_1
 62
1
100
AcDbSpline
 70
8
 71
3
 72
8
 73
4
 74
0
 40
0
 40
0
 40
0
 40
0
 40
1
 40
1
 40
1
 40
1
 10
26.599191
 20
3.062354
 30
0.0
 10
26.599191
 20
3.090497
 30
0.0
 10
26.621870
 20
3.113176
 30
0.0
 10
26.650013
 20
3.113176
 30
0.0
  0
LINE
  5
16c
100
AcDbEntity
  8
Layer_1
 62
1
100
AcDbLine
 10
26.650013
 20
3.113176
 30
0.0
 11
26.650013
 21
3.113176
 31
0.0
  0
ENDSEC
  0
SECTION
  2
OBJECTS
  0
DICTIONARY
  5
C
330
0
100
AcDbDictionary
  3
ACAD_GROUP
350
D
  3
ACAD_MLINESTYLE
350
17
  0
DICTIONARY
  5
D
330
C
100
AcDbDictionary
  0
DICTIONARY
  5
1A
330
C
100
AcDbDictionary
  0
DICTIONARY
  5
17
330
C
100
AcDbDictionary
  3
STANDARD
350
18
  0
DICTIONARY
  5
19
330
C
100
AcDbDictionary
  0
ENDSEC
  0
EOF
