<?xml version="1.0" encoding="UTF-8" standalone="no"?>
<!-- Created with Inkscape (http://www.inkscape.org/) -->

<svg
   xmlns:dc="http://purl.org/dc/elements/1.1/"
   xmlns:cc="http://creativecommons.org/ns#"
   xmlns:rdf="http://www.w3.org/1999/02/22-rdf-syntax-ns#"
   xmlns:svg="http://www.w3.org/2000/svg"
   xmlns="http://www.w3.org/2000/svg"
   xmlns:sodipodi="http://sodipodi.sourceforge.net/DTD/sodipodi-0.dtd"
   xmlns:inkscape="http://www.inkscape.org/namespaces/inkscape"
   width="14in"
   height="8.5in"
   viewBox="0 0 1260 765"
   id="svg24542"
   version="1.1"
   inkscape:version="0.92.4 (5da689c313, 2019-01-14)"
   sodipodi:docname="900v2-mod.svg">
  <defs
     id="defs24544" />
  <sodipodi:namedview
     id="base"
     pagecolor="#ffffff"
     bordercolor="#666666"
     borderopacity="1.0"
     inkscape:pageopacity="0.0"
     inkscape:pageshadow="2"
     inkscape:zoom="5.6854496"
     inkscape:cx="786.01481"
     inkscape:cy="83.399292"
     inkscape:document-units="px"
     inkscape:current-layer="layer1"
     showgrid="false"
     fit-margin-top="0"
     fit-margin-left="0"
     fit-margin-right="0"
     fit-margin-bottom="0"
     inkscape:window-width="1842"
     inkscape:window-height="1051"
     inkscape:window-x="-9"
     inkscape:window-y="-9"
     inkscape:window-maximized="1"
     units="in" />
  <metadata
     id="metadata24547">
    <rdf:RDF>
      <cc:Work
         rdf:about="">
        <dc:format>image/svg+xml</dc:format>
        <dc:type
           rdf:resource="http://purl.org/dc/dcmitype/StillImage" />
        <dc:title></dc:title>
      </cc:Work>
    </rdf:RDF>
  </metadata>
  <g
     inkscape:label="Layer 1"
     inkscape:groupmode="layer"
     id="layer1"
     transform="translate(163.87615,220.33745)">
    <g
       id="g5256">
      <path
         id="path5173"
         d="m 32.82385,353.21255 c -6.2325,0 -11.25,5.0175 -11.25,11.25 v 148.5 c 0,6.2325 5.0175,11.25 11.25,11.25 h 985.49995 c 6.2325,0 11.25,-5.0175 11.25,-11.25 v -148.5 c 0,-6.2325 -5.0175,-11.25 -11.25,-11.25 z"
         style="display:inline;opacity:1;fill:none;fill-opacity:1;stroke:#9e3f3f;stroke-width:0.89999998;stroke-linecap:round;stroke-linejoin:round;stroke-miterlimit:4;stroke-dasharray:none;stroke-opacity:1" />
      <path
         id="path5171"
         d="m 259.3551,358.31021 h 1.35351 v 23.38671 h -1.35351 z"
         style="display:inline;opacity:1;fill:none;fill-opacity:1;stroke:#9e3f3f;stroke-width:0.89999998;stroke-linecap:round;stroke-linejoin:round;stroke-miterlimit:4;stroke-dasharray:none;stroke-opacity:1" />
      <path
         id="path5169"
         d="m 315.3551,358.31021 h 1.35351 v 23.38671 h -1.35351 z"
         style="display:inline;opacity:1;fill:none;fill-opacity:1;stroke:#9e3f3f;stroke-width:0.89999998;stroke-linecap:round;stroke-linejoin:round;stroke-miterlimit:4;stroke-dasharray:none;stroke-opacity:1" />
      <path
         id="path5167"
         d="m 555.00744,379.38638 h 179.15625 c 0.9972,0 1.79883,0.80358 1.79883,1.80078 v 37.98828 c 0,0.9972 -0.80163,1.80078 -1.79883,1.80078 H 555.00744 c -0.9972,0 -1.80078,-0.80358 -1.80078,-1.80078 v -37.98828 c 0,-0.9972 0.80358,-1.80078 1.80078,-1.80078 z"
         style="display:inline;opacity:1;fill:none;fill-opacity:1;stroke:#9e3f3f;stroke-width:0.89999998;stroke-linecap:round;stroke-linejoin:round;stroke-miterlimit:4;stroke-dasharray:none;stroke-opacity:1" />
      <path
         id="path5165"
         d="m 265.07971,386.43716 h 46.03711 v 1.35351 h -46.03711 z"
         style="display:inline;opacity:1;fill:none;fill-opacity:1;stroke:#9e3f3f;stroke-width:0.89999998;stroke-linecap:round;stroke-linejoin:round;stroke-miterlimit:4;stroke-dasharray:none;stroke-opacity:1" />
      <path
         id="path5163"
         d="m 338.42151,390.15591 c 11.67975,0 21.14648,9.46681 21.14648,21.14648 0,11.68461 -9.46673,21.15235 -21.14648,21.15235 -11.68454,0 -21.15235,-9.46774 -21.15235,-21.15235 0,-11.67967 9.46782,-21.14648 21.15235,-21.14648 z"
         style="display:inline;opacity:1;fill:none;fill-opacity:1;stroke:#9e3f3f;stroke-width:0.89999998;stroke-linecap:round;stroke-linejoin:round;stroke-miterlimit:4;stroke-dasharray:none;stroke-opacity:1" />
      <path
         id="path5157"
         d="m 986.78088,407.25356 c 3.33008,0 6.66016,2.22119 6.66016,6.66211 0,8.88184 -13.32032,8.88184 -13.32032,0 0,-4.44092 3.33008,-6.66211 6.66016,-6.66211 z"
         style="display:inline;opacity:1;fill:none;fill-opacity:1;stroke:#9e3f3f;stroke-width:0.89999998;stroke-linecap:round;stroke-linejoin:round;stroke-miterlimit:4;stroke-dasharray:none;stroke-opacity:1" />
      <path
         id="path5155"
         d="m 29.62658,427.23013 h 48.5586 c 0.9972,0 1.79883,0.80163 1.79883,1.79883 v 16.16992 c 0,0.9972 -0.80163,1.79883 -1.79883,1.79883 h -48.5586 c -0.9972,0 -1.80078,-0.80163 -1.80078,-1.79883 v -16.16992 c 0,-0.9972 0.80358,-1.79883 1.80078,-1.79883 z"
         style="display:inline;opacity:1;fill:none;fill-opacity:1;stroke:#9e3f3f;stroke-width:0.89999998;stroke-linecap:round;stroke-linejoin:round;stroke-miterlimit:4;stroke-dasharray:none;stroke-opacity:1" />
      <path
         id="path5153"
         d="m 217.61877,437.5563 h 58.31836 c 0.9972,0 1.80078,0.80358 1.80078,1.80078 v 16.50586 h 17.70508 c 0.9972,0 1.80078,0.80163 1.80078,1.79883 v 19.84765 c 0,0.9972 -0.80358,1.79883 -1.80078,1.79883 h -79.94336 c -0.9972,0 -1.80078,-0.80163 -1.80078,-1.79883 v -19.84765 c 0,-0.9972 0.80358,-1.79883 1.80078,-1.79883 h 0.31836 v -16.50586 c 0,-0.9972 0.80358,-1.80078 1.80078,-1.80078 z"
         style="display:inline;opacity:1;fill:none;fill-opacity:1;stroke:#9e3f3f;stroke-width:0.89999998;stroke-linecap:round;stroke-linejoin:round;stroke-miterlimit:4;stroke-dasharray:none;stroke-opacity:1" />
      <path
         id="path5151"
         d="m 320.23596,454.42935 h 94.27929 c 0.99722,0 1.79883,0.80358 1.79883,1.80078 v 14.95117 c 0,0.9972 -0.80162,1.79883 -1.79883,1.79883 h -94.27929 c -0.9972,0 -1.80078,-0.80163 -1.80078,-1.79883 v -14.95117 c 0,-0.9972 0.80358,-1.80078 1.80078,-1.80078 z"
         style="display:inline;opacity:1;fill:none;fill-opacity:1;stroke:#9e3f3f;stroke-width:0.89999998;stroke-linecap:round;stroke-linejoin:round;stroke-miterlimit:4;stroke-dasharray:none;stroke-opacity:1" />
      <path
         id="path5145"
         d="m 986.78088,473.85513 c 3.33008,0 6.66016,2.22119 6.66016,6.66211 0,8.87695 -13.32032,8.87695 -13.32032,0 0,-4.44092 3.33008,-6.66211 6.66016,-6.66211 z"
         style="display:inline;opacity:1;fill:none;fill-opacity:1;stroke:#9e3f3f;stroke-width:0.89999998;stroke-linecap:round;stroke-linejoin:round;stroke-miterlimit:4;stroke-dasharray:none;stroke-opacity:1" />
      <path
         id="rect22193-0-0"
         d="m 945.41565,485.35317 h 17.6914 c 0.9972,0 1.79883,0.80358 1.79883,1.80079 v 7.64843 h 8.96484 c 0.9972,0 1.79883,0.80358 1.79883,1.80078 v 15.32422 c 0,0.9972 -0.80163,1.79883 -1.79883,1.79883 h -28.45507 c -0.9972,0 -1.80079,-0.80163 -1.80079,-1.79883 v -15.32422 c 0,-0.18436 0.0349,-0.36011 0.0859,-0.52734 -0.0506,-0.16671 -0.0859,-0.34168 -0.0859,-0.52539 v -8.39648 c 0,-0.99721 0.80359,-1.80079 1.80079,-1.80079 z"
         style="display:inline;opacity:1;fill:none;fill-opacity:1;stroke:#9e3f3f;stroke-width:0.89999998;stroke-linecap:round;stroke-linejoin:round;stroke-miterlimit:4;stroke-dasharray:none;stroke-opacity:1" />
      <path
         id="path5157-1"
         d="m 986.77385,408.58326 c 2.6556,0 5.31122,1.77058 5.31122,5.31055 0,7.07995 -10.62244,7.07995 -10.62244,0 0,-3.53997 2.65561,-5.31055 5.31122,-5.31055 z"
         style="display:inline;opacity:1;fill:none;fill-opacity:1;stroke:#9e3f3f;stroke-width:0.71756434;stroke-linecap:round;stroke-linejoin:round;stroke-miterlimit:4;stroke-dasharray:none;stroke-opacity:1"
         inkscape:connector-curvature="0" />
      <path
         id="path5157-1-2"
         d="m 986.77385,475.18326 c 2.6556,0 5.31122,1.77058 5.31122,5.31055 0,7.07995 -10.62244,7.07995 -10.62244,0 0,-3.53997 2.65561,-5.31055 5.31122,-5.31055 z"
         style="display:inline;opacity:1;fill:none;fill-opacity:1;stroke:#9e3f3f;stroke-width:0.7175644;stroke-linecap:round;stroke-linejoin:round;stroke-miterlimit:4;stroke-dasharray:none;stroke-opacity:1"
         inkscape:connector-curvature="0" />
      <path
         id="path5157-1-7"
         d="m 525.52385,475.18326 c 2.6556,0 5.31122,1.77058 5.31122,5.31055 0,7.07995 -10.62244,7.07995 -10.62244,0 0,-3.53997 2.65561,-5.31055 5.31122,-5.31055 z"
         style="display:inline;opacity:1;fill:none;fill-opacity:1;stroke:#9e3f3f;stroke-width:0.7175644;stroke-linecap:round;stroke-linejoin:round;stroke-miterlimit:4;stroke-dasharray:none;stroke-opacity:1"
         inkscape:connector-curvature="0" />
      <path
         id="path5157-1-77"
         d="m 525.52385,408.58326 c 2.6556,0 5.31122,1.77058 5.31122,5.31055 0,7.07995 -10.62244,7.07995 -10.62244,0 0,-3.53997 2.65561,-5.31055 5.31122,-5.31055 z"
         style="display:inline;opacity:1;fill:none;fill-opacity:1;stroke:#9e3f3f;stroke-width:0.7175644;stroke-linecap:round;stroke-linejoin:round;stroke-miterlimit:4;stroke-dasharray:none;stroke-opacity:1"
         inkscape:connector-curvature="0" />
      <path
         id="path5157-1-4"
         d="m 64.273852,475.18326 c 2.6556,0 5.31122,1.77058 5.31122,5.31055 0,7.07995 -10.62244,7.07995 -10.62244,0 0,-3.53997 2.65561,-5.31055 5.31122,-5.31055 z"
         style="display:inline;opacity:1;fill:none;fill-opacity:1;stroke:#9e3f3f;stroke-width:0.7175644;stroke-linecap:round;stroke-linejoin:round;stroke-miterlimit:4;stroke-dasharray:none;stroke-opacity:1"
         inkscape:connector-curvature="0" />
      <path
         id="path5157-1-9"
         d="m 64.273852,408.58326 c 2.6556,0 5.31122,1.77058 5.31122,5.31055 0,7.07995 -10.62244,7.07995 -10.62244,0 0,-3.53997 2.65561,-5.31055 5.31122,-5.31055 z"
         style="display:inline;opacity:1;fill:none;fill-opacity:1;stroke:#9e3f3f;stroke-width:0.7175644;stroke-linecap:round;stroke-linejoin:round;stroke-miterlimit:4;stroke-dasharray:none;stroke-opacity:1"
         inkscape:connector-curvature="0" />
    </g>
  </g>
</svg>
