  0
SECTION
  2
HEADER
  9
$ACADVER
  1
AC1014
  9
$HANDSEED
  5
FFFF
  9
$MEASUREMENT
 70
     1
  0
ENDSEC
  0
SECTION
  2
TABLES
  0
TABLE
  2
VPORT
  5
8
330
0
100
AcDbSymbolTable
 70
     4
  0
VPORT
  5
2E
330
8
100
AcDbSymbolTableRecord
100
AcDbViewportTableRecord
  2
*ACTIVE
 70
     0
 10
0.0
 20
0.0
 11
1.0
 21
1.0
 12
210.0
 22
148.5
 13
0.0
 23
0.0
 14
10.0
 24
10.0
 15
10.0
 25
10.0
 16
0.0
 26
0.0
 36
1.0
 17
0.0
 27
0.0
 37
0.0
 40
341.0
 41
1.24
 42
50.0
 43
0.0
 44
0.0
 50
0.0
 51
0.0
 71
     0
 72
   100
 73
     1
 74
     3
 75
     0
 76
     0
 77
     0
 78
     0
  0
ENDTAB
  0
TABLE
  2
LTYPE
  5
5
330
0
100
AcDbSymbolTable
 70
     1
  0
LTYPE
  5
14
330
5
100
AcDbSymbolTableRecord
100
AcDbLinetypeTableRecord
  2
BYBLOCK
 70
     0
  3

 72
    65
 73
     0
 40
0.0
  0
LTYPE
  5
15
330
5
100
AcDbSymbolTableRecord
100
AcDbLinetypeTableRecord
  2
BYLAYER
 70
     0
  3

 72
    65
 73
     0
 40
0.0
  0
LTYPE
  5
16
330
5
100
AcDbSymbolTableRecord
100
AcDbLinetypeTableRecord
  2
CONTINUOUS
 70
     0
  3
Solid line
 72
    65
 73
     0
 40
0.0
  0
ENDTAB
  0
TABLE
  2
LAYER
  5
2
100
AcDbSymbolTable
 70
2
  0
LAYER
  5
50
100
AcDbSymbolTableRecord
100
AcDbLayerTableRecord
  2
0
 70
0
  6
CONTINUOUS
  0
LAYER
  5
51
100
AcDbSymbolTableRecord
100
AcDbLayerTableRecord
  2
Layer_1
 70
0
  6
CONTINUOUS
  0
ENDTAB
  0
TABLE
  2
STYLE
  5
3
330
0
100
AcDbSymbolTable
 70
     1
  0
STYLE
  5
11
330
3
100
AcDbSymbolTableRecord
100
AcDbTextStyleTableRecord
  2
STANDARD
 70
     0
 40
0.0
 41
1.0
 50
0.0
 71
     0
 42
2.5
  3
txt
  4

  0
ENDTAB
  0
TABLE
  2
VIEW
  5
6
330
0
100
AcDbSymbolTable
 70
     0
  0
ENDTAB
  0
TABLE
  2
UCS
  5
7
330
0
100
AcDbSymbolTable
 70
     0
  0
ENDTAB
  0
TABLE
  2
APPID
  5
9
330
0
100
AcDbSymbolTable
 70
     2
  0
APPID
  5
12
330
9
100
AcDbSymbolTableRecord
100
AcDbRegAppTableRecord
  2
ACAD
 70
     0
  0
ENDTAB
  0
TABLE
  2
DIMSTYLE
  5
A
330
0
100
AcDbSymbolTable
 70
     1
  0
DIMSTYLE
105
27
330
A
100
AcDbSymbolTableRecord
100
AcDbDimStyleTableRecord
  2
ISO-25
 70
     0
  3

  4

  5

  6

  7

 40
1.0
 41
2.5
 42
0.625
 43
3.75
 44
1.25
 45
0.0
 46
0.0
 47
0.0
 48
0.0
140
2.5
141
2.5
142
0.0
143
0.03937007874016
144
1.0
145
0.0
146
1.0
147
0.625
 71
     0
 72
     0
 73
     0
 74
     0
 75
     0
 76
     0
 77
     1
 78
     8
170
     0
171
     3
172
     1
173
     0
174
     0
175
     0
176
     0
177
     0
178
     0
270
     2
271
     2
272
     2
273
     2
274
     3
340
11
275
     0
280
     0
281
     0
282
     0
283
     0
284
     8
285
     0
286
     0
287
     3
288
     0
  0
ENDTAB
  0
TABLE
  2
BLOCK_RECORD
  5
1
330
0
100
AcDbSymbolTable
 70
     1
  0
BLOCK_RECORD
  5
1F
330
1
100
AcDbSymbolTableRecord
100
AcDbBlockTableRecord
  2
*MODEL_SPACE
  0
BLOCK_RECORD
  5
1B
330
1
100
AcDbSymbolTableRecord
100
AcDbBlockTableRecord
  2
*PAPER_SPACE
  0
ENDTAB
  0
ENDSEC
  0
SECTION
  2
BLOCKS
  0
BLOCK
  5
20
330
1F
100
AcDbEntity
  8
0
100
AcDbBlockBegin
  2
*MODEL_SPACE
 70
     0
 10
0.0
 20
0.0
 30
0.0
  3
*MODEL_SPACE
  1

  0
ENDBLK
  5
21
330
1F
100
AcDbEntity
  8
0
100
AcDbBlockEnd
  0
BLOCK
  5
1C
330
1B
100
AcDbEntity
 67
     1
  8
0
100
AcDbBlockBegin
  2
*PAPER_SPACE
  1

  0
ENDBLK
  5
1D
330
1B
100
AcDbEntity
 67
     1
  8
0
100
AcDbBlockEnd
  0
ENDSEC
  0
SECTION
  2
ENTITIES
  0
SPLINE
  5
100
100
AcDbEntity
  8
Layer_1
 62
1
100
AcDbSpline
 70
8
 71
3
 72
8
 73
4
 74
0
 40
0
 40
0
 40
0
 40
0
 40
1
 40
1
 40
1
 40
1
 10
55.513111
 20
68.424778
 30
0.0
 10
53.754161
 20
68.424778
 30
0.0
 10
52.338111
 20
67.008728
 30
0.0
 10
52.338111
 20
65.249778
 30
0.0
  0
LINE
  5
101
100
AcDbEntity
  8
Layer_1
 62
1
100
AcDbLine
 10
52.338111
 20
65.249778
 30
0.0
 11
52.338111
 21
23.339778
 31
0.0
  0
SPLINE
  5
102
100
AcDbEntity
  8
Layer_1
 62
1
100
AcDbSpline
 70
8
 71
3
 72
8
 73
4
 74
0
 40
0
 40
0
 40
0
 40
0
 40
1
 40
1
 40
1
 40
1
 10
52.338111
 20
23.339778
 30
0.0
 10
52.338111
 20
21.580828
 30
0.0
 10
53.754161
 20
20.164778
 30
0.0
 10
55.513111
 20
20.164778
 30
0.0
  0
LINE
  5
103
100
AcDbEntity
  8
Layer_1
 62
1
100
AcDbLine
 10
55.513111
 20
20.164778
 30
0.0
 11
333.643097
 21
20.164778
 31
0.0
  0
SPLINE
  5
104
100
AcDbEntity
  8
Layer_1
 62
1
100
AcDbSpline
 70
8
 71
3
 72
8
 73
4
 74
0
 40
0
 40
0
 40
0
 40
0
 40
1
 40
1
 40
1
 40
1
 10
333.643097
 20
20.164778
 30
0.0
 10
335.402047
 20
20.164778
 30
0.0
 10
336.818097
 20
21.580828
 30
0.0
 10
336.818097
 20
23.339778
 30
0.0
  0
LINE
  5
105
100
AcDbEntity
  8
Layer_1
 62
1
100
AcDbLine
 10
336.818097
 20
23.339778
 30
0.0
 11
336.818097
 21
65.249778
 31
0.0
  0
SPLINE
  5
106
100
AcDbEntity
  8
Layer_1
 62
1
100
AcDbSpline
 70
8
 71
3
 72
8
 73
4
 74
0
 40
0
 40
0
 40
0
 40
0
 40
1
 40
1
 40
1
 40
1
 10
336.818097
 20
65.249778
 30
0.0
 10
336.818097
 20
67.008728
 30
0.0
 10
335.402047
 20
68.424778
 30
0.0
 10
333.643097
 20
68.424778
 30
0.0
  0
LINE
  5
107
100
AcDbEntity
  8
Layer_1
 62
1
100
AcDbLine
 10
333.643097
 20
68.424778
 30
0.0
 11
55.513111
 21
68.424778
 31
0.0
  0
LINE
  5
108
100
AcDbEntity
  8
Layer_1
 62
1
100
AcDbLine
 10
202.884924
 20
61.037941
 30
0.0
 11
253.446799
 21
61.037941
 31
0.0
  0
SPLINE
  5
109
100
AcDbEntity
  8
Layer_1
 62
1
100
AcDbSpline
 70
8
 71
3
 72
8
 73
4
 74
0
 40
0
 40
0
 40
0
 40
0
 40
1
 40
1
 40
1
 40
1
 10
253.446799
 20
61.037941
 30
0.0
 10
253.728231
 20
61.037941
 30
0.0
 10
253.954469
 20
60.811153
 30
0.0
 10
253.954469
 20
60.529721
 30
0.0
  0
LINE
  5
10a
100
AcDbEntity
  8
Layer_1
 62
1
100
AcDbLine
 10
253.954469
 20
60.529721
 30
0.0
 11
253.954469
 21
49.808584
 31
0.0
  0
SPLINE
  5
10b
100
AcDbEntity
  8
Layer_1
 62
1
100
AcDbSpline
 70
8
 71
3
 72
8
 73
4
 74
0
 40
0
 40
0
 40
0
 40
0
 40
1
 40
1
 40
1
 40
1
 10
253.954469
 20
49.808584
 30
0.0
 10
253.954469
 20
49.527152
 30
0.0
 10
253.728231
 20
49.300364
 30
0.0
 10
253.446799
 20
49.300364
 30
0.0
  0
LINE
  5
10c
100
AcDbEntity
  8
Layer_1
 62
1
100
AcDbLine
 10
253.446799
 20
49.300364
 30
0.0
 11
202.884924
 21
49.300364
 31
0.0
  0
SPLINE
  5
10d
100
AcDbEntity
  8
Layer_1
 62
1
100
AcDbSpline
 70
8
 71
3
 72
8
 73
4
 74
0
 40
0
 40
0
 40
0
 40
0
 40
1
 40
1
 40
1
 40
1
 10
202.884924
 20
49.300364
 30
0.0
 10
202.603492
 20
49.300364
 30
0.0
 10
202.376704
 20
49.527152
 30
0.0
 10
202.376704
 20
49.808584
 30
0.0
  0
LINE
  5
10e
100
AcDbEntity
  8
Layer_1
 62
1
100
AcDbLine
 10
202.376704
 20
49.808584
 30
0.0
 11
202.376704
 21
60.529721
 31
0.0
  0
SPLINE
  5
10f
100
AcDbEntity
  8
Layer_1
 62
1
100
AcDbSpline
 70
8
 71
3
 72
8
 73
4
 74
0
 40
0
 40
0
 40
0
 40
0
 40
1
 40
1
 40
1
 40
1
 10
202.376704
 20
60.529721
 30
0.0
 10
202.376704
 20
60.811153
 30
0.0
 10
202.603492
 20
61.037941
 30
0.0
 10
202.884924
 20
61.037941
 30
0.0
  0
LINE
  5
110
100
AcDbEntity
  8
Layer_1
 62
1
100
AcDbLine
 10
202.884924
 20
61.037941
 30
0.0
 11
202.884924
 21
61.037941
 31
0.0
  0
SPLINE
  5
111
100
AcDbEntity
  8
Layer_1
 62
1
100
AcDbSpline
 70
8
 71
3
 72
8
 73
4
 74
0
 40
0
 40
0
 40
0
 40
0
 40
1
 40
1
 40
1
 40
1
 10
141.759562
 20
57.998541
 30
0.0
 10
145.055847
 20
57.998541
 30
0.0
 10
147.727568
 20
55.326796
 30
0.0
 10
147.727568
 20
52.030534
 30
0.0
  0
SPLINE
  5
112
100
AcDbEntity
  8
Layer_1
 62
1
100
AcDbSpline
 70
8
 71
3
 72
8
 73
4
 74
0
 40
0
 40
0
 40
0
 40
0
 40
1
 40
1
 40
1
 40
1
 10
147.727568
 20
52.030534
 30
0.0
 10
147.727568
 20
48.732877
 30
0.0
 10
145.055847
 20
46.060871
 30
0.0
 10
141.759562
 20
46.060871
 30
0.0
  0
SPLINE
  5
113
100
AcDbEntity
  8
Layer_1
 62
1
100
AcDbSpline
 70
8
 71
3
 72
8
 73
4
 74
0
 40
0
 40
0
 40
0
 40
0
 40
1
 40
1
 40
1
 40
1
 10
141.759562
 20
46.060871
 30
0.0
 10
138.461925
 20
46.060871
 30
0.0
 10
135.789899
 20
48.732877
 30
0.0
 10
135.789899
 20
52.030534
 30
0.0
  0
SPLINE
  5
114
100
AcDbEntity
  8
Layer_1
 62
1
100
AcDbSpline
 70
8
 71
3
 72
8
 73
4
 74
0
 40
0
 40
0
 40
0
 40
0
 40
1
 40
1
 40
1
 40
1
 10
135.789899
 20
52.030534
 30
0.0
 10
135.789899
 20
55.326796
 30
0.0
 10
138.461928
 20
57.998541
 30
0.0
 10
141.759562
 20
57.998541
 30
0.0
  0
LINE
  5
115
100
AcDbEntity
  8
Layer_1
 62
1
100
AcDbLine
 10
141.759562
 20
57.998541
 30
0.0
 11
141.759562
 21
57.998541
 31
0.0
  0
LINE
  5
116
100
AcDbEntity
  8
Layer_1
 62
1
100
AcDbLine
 10
54.610770
 20
47.535372
 30
0.0
 11
68.315086
 21
47.535372
 31
0.0
  0
SPLINE
  5
117
100
AcDbEntity
  8
Layer_1
 62
1
100
AcDbSpline
 70
8
 71
3
 72
8
 73
4
 74
0
 40
0
 40
0
 40
0
 40
0
 40
1
 40
1
 40
1
 40
1
 10
68.315086
 20
47.535372
 30
0.0
 10
68.596518
 20
47.535372
 30
0.0
 10
68.822756
 20
47.309134
 30
0.0
 10
68.822756
 20
47.027702
 30
0.0
  0
LINE
  5
118
100
AcDbEntity
  8
Layer_1
 62
1
100
AcDbLine
 10
68.822756
 20
47.027702
 30
0.0
 11
68.822756
 21
42.464191
 31
0.0
  0
SPLINE
  5
119
100
AcDbEntity
  8
Layer_1
 62
1
100
AcDbSpline
 70
8
 71
3
 72
8
 73
4
 74
0
 40
0
 40
0
 40
0
 40
0
 40
1
 40
1
 40
1
 40
1
 10
68.822756
 20
42.464191
 30
0.0
 10
68.822756
 20
42.182759
 30
0.0
 10
68.596518
 20
41.956522
 30
0.0
 10
68.315086
 20
41.956522
 30
0.0
  0
LINE
  5
11a
100
AcDbEntity
  8
Layer_1
 62
1
100
AcDbLine
 10
68.315086
 20
41.956522
 30
0.0
 11
54.610770
 21
41.956522
 31
0.0
  0
SPLINE
  5
11b
100
AcDbEntity
  8
Layer_1
 62
1
100
AcDbSpline
 70
8
 71
3
 72
8
 73
4
 74
0
 40
0
 40
0
 40
0
 40
0
 40
1
 40
1
 40
1
 40
1
 10
54.610770
 20
41.956522
 30
0.0
 10
54.329338
 20
41.956522
 30
0.0
 10
54.102550
 20
42.182759
 30
0.0
 10
54.102550
 20
42.464191
 30
0.0
  0
LINE
  5
11c
100
AcDbEntity
  8
Layer_1
 62
1
100
AcDbLine
 10
54.102550
 20
42.464191
 30
0.0
 11
54.102550
 21
47.027702
 31
0.0
  0
SPLINE
  5
11d
100
AcDbEntity
  8
Layer_1
 62
1
100
AcDbSpline
 70
8
 71
3
 72
8
 73
4
 74
0
 40
0
 40
0
 40
0
 40
0
 40
1
 40
1
 40
1
 40
1
 10
54.102550
 20
47.027702
 30
0.0
 10
54.102550
 20
47.309134
 30
0.0
 10
54.329338
 20
47.535372
 30
0.0
 10
54.610770
 20
47.535372
 30
0.0
  0
LINE
  5
11e
100
AcDbEntity
  8
Layer_1
 62
1
100
AcDbLine
 10
54.610770
 20
47.535372
 30
0.0
 11
54.610770
 21
47.535372
 31
0.0
  0
LINE
  5
11f
100
AcDbEntity
  8
Layer_1
 62
1
100
AcDbLine
 10
107.666344
 20
44.621097
 30
0.0
 11
124.125081
 21
44.621097
 31
0.0
  0
SPLINE
  5
120
100
AcDbEntity
  8
Layer_1
 62
1
100
AcDbSpline
 70
8
 71
3
 72
8
 73
4
 74
0
 40
0
 40
0
 40
0
 40
0
 40
1
 40
1
 40
1
 40
1
 10
124.125081
 20
44.621097
 30
0.0
 10
124.406513
 20
44.621097
 30
0.0
 10
124.633301
 20
44.394309
 30
0.0
 10
124.633301
 20
44.112877
 30
0.0
  0
LINE
  5
121
100
AcDbEntity
  8
Layer_1
 62
1
100
AcDbLine
 10
124.633301
 20
44.112877
 30
0.0
 11
124.633301
 21
39.454557
 31
0.0
  0
LINE
  5
122
100
AcDbEntity
  8
Layer_1
 62
1
100
AcDbLine
 10
124.633301
 20
39.454557
 30
0.0
 11
129.630068
 21
39.454557
 31
0.0
  0
SPLINE
  5
123
100
AcDbEntity
  8
Layer_1
 62
1
100
AcDbSpline
 70
8
 71
3
 72
8
 73
4
 74
0
 40
0
 40
0
 40
0
 40
0
 40
1
 40
1
 40
1
 40
1
 10
129.630068
 20
39.454557
 30
0.0
 10
129.911500
 20
39.454557
 30
0.0
 10
130.138289
 20
39.228319
 30
0.0
 10
130.138289
 20
38.946887
 30
0.0
  0
LINE
  5
124
100
AcDbEntity
  8
Layer_1
 62
1
100
AcDbLine
 10
130.138289
 20
38.946887
 30
0.0
 11
130.138289
 21
33.345439
 31
0.0
  0
SPLINE
  5
125
100
AcDbEntity
  8
Layer_1
 62
1
100
AcDbSpline
 70
8
 71
3
 72
8
 73
4
 74
0
 40
0
 40
0
 40
0
 40
0
 40
1
 40
1
 40
1
 40
1
 10
130.138289
 20
33.345439
 30
0.0
 10
130.138289
 20
33.064007
 30
0.0
 10
129.911500
 20
32.837769
 30
0.0
 10
129.630068
 20
32.837769
 30
0.0
  0
LINE
  5
126
100
AcDbEntity
  8
Layer_1
 62
1
100
AcDbLine
 10
129.630068
 20
32.837769
 30
0.0
 11
107.068276
 21
32.837769
 31
0.0
  0
SPLINE
  5
127
100
AcDbEntity
  8
Layer_1
 62
1
100
AcDbSpline
 70
8
 71
3
 72
8
 73
4
 74
0
 40
0
 40
0
 40
0
 40
0
 40
1
 40
1
 40
1
 40
1
 10
107.068276
 20
32.837769
 30
0.0
 10
106.786844
 20
32.837769
 30
0.0
 10
106.560056
 20
33.064007
 30
0.0
 10
106.560056
 20
33.345439
 30
0.0
  0
LINE
  5
128
100
AcDbEntity
  8
Layer_1
 62
1
100
AcDbLine
 10
106.560056
 20
33.345439
 30
0.0
 11
106.560056
 21
38.946887
 31
0.0
  0
SPLINE
  5
129
100
AcDbEntity
  8
Layer_1
 62
1
100
AcDbSpline
 70
8
 71
3
 72
8
 73
4
 74
0
 40
0
 40
0
 40
0
 40
0
 40
1
 40
1
 40
1
 40
1
 10
106.560056
 20
38.946887
 30
0.0
 10
106.560056
 20
39.228319
 30
0.0
 10
106.786844
 20
39.454557
 30
0.0
 10
107.068276
 20
39.454557
 30
0.0
  0
LINE
  5
12a
100
AcDbEntity
  8
Layer_1
 62
1
100
AcDbLine
 10
107.068276
 20
39.454557
 30
0.0
 11
107.158124
 21
39.454557
 31
0.0
  0
LINE
  5
12b
100
AcDbEntity
  8
Layer_1
 62
1
100
AcDbLine
 10
107.158124
 20
39.454557
 30
0.0
 11
107.158124
 21
44.112877
 31
0.0
  0
SPLINE
  5
12c
100
AcDbEntity
  8
Layer_1
 62
1
100
AcDbSpline
 70
8
 71
3
 72
8
 73
4
 74
0
 40
0
 40
0
 40
0
 40
0
 40
1
 40
1
 40
1
 40
1
 10
107.158124
 20
44.112877
 30
0.0
 10
107.158124
 20
44.394309
 30
0.0
 10
107.384912
 20
44.621097
 30
0.0
 10
107.666344
 20
44.621097
 30
0.0
  0
LINE
  5
12d
100
AcDbEntity
  8
Layer_1
 62
1
100
AcDbLine
 10
107.666344
 20
44.621097
 30
0.0
 11
107.666344
 21
44.621097
 31
0.0
  0
LINE
  5
12e
100
AcDbEntity
  8
Layer_1
 62
1
100
AcDbLine
 10
136.627195
 20
39.859148
 30
0.0
 11
163.234906
 21
39.859148
 31
0.0
  0
SPLINE
  5
12f
100
AcDbEntity
  8
Layer_1
 62
1
100
AcDbSpline
 70
8
 71
3
 72
8
 73
4
 74
0
 40
0
 40
0
 40
0
 40
0
 40
1
 40
1
 40
1
 40
1
 10
163.234906
 20
39.859148
 30
0.0
 10
163.516344
 20
39.859148
 30
0.0
 10
163.742576
 20
39.632359
 30
0.0
 10
163.742576
 20
39.350927
 30
0.0
  0
LINE
  5
130
100
AcDbEntity
  8
Layer_1
 62
1
100
AcDbLine
 10
163.742576
 20
39.350927
 30
0.0
 11
163.742576
 21
35.131375
 31
0.0
  0
SPLINE
  5
131
100
AcDbEntity
  8
Layer_1
 62
1
100
AcDbSpline
 70
8
 71
3
 72
8
 73
4
 74
0
 40
0
 40
0
 40
0
 40
0
 40
1
 40
1
 40
1
 40
1
 10
163.742576
 20
35.131375
 30
0.0
 10
163.742576
 20
34.849943
 30
0.0
 10
163.516341
 20
34.623705
 30
0.0
 10
163.234906
 20
34.623705
 30
0.0
  0
LINE
  5
132
100
AcDbEntity
  8
Layer_1
 62
1
100
AcDbLine
 10
163.234906
 20
34.623705
 30
0.0
 11
136.627195
 21
34.623705
 31
0.0
  0
SPLINE
  5
133
100
AcDbEntity
  8
Layer_1
 62
1
100
AcDbSpline
 70
8
 71
3
 72
8
 73
4
 74
0
 40
0
 40
0
 40
0
 40
0
 40
1
 40
1
 40
1
 40
1
 10
136.627195
 20
34.623705
 30
0.0
 10
136.345763
 20
34.623705
 30
0.0
 10
136.118975
 20
34.849943
 30
0.0
 10
136.118975
 20
35.131375
 30
0.0
  0
LINE
  5
134
100
AcDbEntity
  8
Layer_1
 62
1
100
AcDbLine
 10
136.118975
 20
35.131375
 30
0.0
 11
136.118975
 21
39.350927
 31
0.0
  0
SPLINE
  5
135
100
AcDbEntity
  8
Layer_1
 62
1
100
AcDbSpline
 70
8
 71
3
 72
8
 73
4
 74
0
 40
0
 40
0
 40
0
 40
0
 40
1
 40
1
 40
1
 40
1
 10
136.118975
 20
39.350927
 30
0.0
 10
136.118975
 20
39.632359
 30
0.0
 10
136.345763
 20
39.859148
 30
0.0
 10
136.627195
 20
39.859148
 30
0.0
  0
LINE
  5
136
100
AcDbEntity
  8
Layer_1
 62
1
100
AcDbLine
 10
136.627195
 20
39.859148
 30
0.0
 11
136.627195
 21
39.859148
 31
0.0
  0
LINE
  5
137
100
AcDbEntity
  8
Layer_1
 62
1
100
AcDbLine
 10
313.066797
 20
31.131758
 30
0.0
 11
318.059703
 21
31.131758
 31
0.0
  0
SPLINE
  5
138
100
AcDbEntity
  8
Layer_1
 62
1
100
AcDbSpline
 70
8
 71
3
 72
8
 73
4
 74
0
 40
0
 40
0
 40
0
 40
0
 40
1
 40
1
 40
1
 40
1
 10
318.059703
 20
31.131758
 30
0.0
 10
318.341135
 20
31.131758
 30
0.0
 10
318.567373
 20
30.904970
 30
0.0
 10
318.567373
 20
30.623535
 30
0.0
  0
LINE
  5
139
100
AcDbEntity
  8
Layer_1
 62
1
100
AcDbLine
 10
318.567373
 20
30.623535
 30
0.0
 11
318.567373
 21
28.464978
 31
0.0
  0
LINE
  5
13a
100
AcDbEntity
  8
Layer_1
 62
1
100
AcDbLine
 10
318.567373
 20
28.464978
 30
0.0
 11
321.097450
 21
28.464978
 31
0.0
  0
SPLINE
  5
13b
100
AcDbEntity
  8
Layer_1
 62
1
100
AcDbSpline
 70
8
 71
3
 72
8
 73
4
 74
0
 40
0
 40
0
 40
0
 40
0
 40
1
 40
1
 40
1
 40
1
 10
321.097450
 20
28.464978
 30
0.0
 10
321.378882
 20
28.464978
 30
0.0
 10
321.605120
 20
28.238190
 30
0.0
 10
321.605120
 20
27.956758
 30
0.0
  0
LINE
  5
13c
100
AcDbEntity
  8
Layer_1
 62
1
100
AcDbLine
 10
321.605120
 20
27.956758
 30
0.0
 11
321.605120
 21
23.631923
 31
0.0
  0
SPLINE
  5
13d
100
AcDbEntity
  8
Layer_1
 62
1
100
AcDbSpline
 70
8
 71
3
 72
8
 73
4
 74
0
 40
0
 40
0
 40
0
 40
0
 40
1
 40
1
 40
1
 40
1
 10
321.605120
 20
23.631923
 30
0.0
 10
321.605120
 20
23.350491
 30
0.0
 10
321.378882
 20
23.124253
 30
0.0
 10
321.097450
 20
23.124253
 30
0.0
  0
LINE
  5
13e
100
AcDbEntity
  8
Layer_1
 62
1
100
AcDbLine
 10
321.097450
 20
23.124253
 30
0.0
 11
313.066797
 21
23.124253
 31
0.0
  0
SPLINE
  5
13f
100
AcDbEntity
  8
Layer_1
 62
1
100
AcDbSpline
 70
8
 71
3
 72
8
 73
4
 74
0
 40
0
 40
0
 40
0
 40
0
 40
1
 40
1
 40
1
 40
1
 10
313.066797
 20
23.124253
 30
0.0
 10
312.785365
 20
23.124253
 30
0.0
 10
312.558574
 20
23.350491
 30
0.0
 10
312.558574
 20
23.631923
 30
0.0
  0
LINE
  5
140
100
AcDbEntity
  8
Layer_1
 62
1
100
AcDbLine
 10
312.558574
 20
23.631923
 30
0.0
 11
312.558574
 21
27.956758
 31
0.0
  0
SPLINE
  5
141
100
AcDbEntity
  8
Layer_1
 62
1
100
AcDbSpline
 70
8
 71
3
 72
8
 73
4
 74
0
 40
0
 40
0
 40
0
 40
0
 40
1
 40
1
 40
1
 40
1
 10
312.558574
 20
27.956758
 30
0.0
 10
312.558574
 20
28.008789
 30
0.0
 10
312.568423
 20
28.058389
 30
0.0
 10
312.582817
 20
28.105585
 30
0.0
  0
SPLINE
  5
142
100
AcDbEntity
  8
Layer_1
 62
1
100
AcDbSpline
 70
8
 71
3
 72
8
 73
4
 74
0
 40
0
 40
0
 40
0
 40
0
 40
1
 40
1
 40
1
 40
1
 10
312.582817
 20
28.105585
 30
0.0
 10
312.568536
 20
28.152635
 30
0.0
 10
312.558574
 20
28.202015
 30
0.0
 10
312.558574
 20
28.253862
 30
0.0
  0
LINE
  5
143
100
AcDbEntity
  8
Layer_1
 62
1
100
AcDbLine
 10
312.558574
 20
28.253862
 30
0.0
 11
312.558574
 21
30.623535
 31
0.0
  0
SPLINE
  5
144
100
AcDbEntity
  8
Layer_1
 62
1
100
AcDbSpline
 70
8
 71
3
 72
8
 73
4
 74
0
 40
0
 40
0
 40
0
 40
0
 40
1
 40
1
 40
1
 40
1
 10
312.558574
 20
30.623535
 30
0.0
 10
312.558574
 20
30.904970
 30
0.0
 10
312.785365
 20
31.131758
 30
0.0
 10
313.066797
 20
31.131758
 30
0.0
  0
LINE
  5
145
100
AcDbEntity
  8
Layer_1
 62
1
100
AcDbLine
 10
313.066797
 20
31.131758
 30
0.0
 11
313.066797
 21
31.131758
 31
0.0
  0
SPLINE
  5
146
100
AcDbEntity
  8
Layer_1
 62
1
100
AcDbSpline
 70
8
 71
3
 72
8
 73
4
 74
0
 40
0
 40
0
 40
0
 40
0
 40
1
 40
1
 40
1
 40
1
 10
324.739000
 20
52.797933
 30
0.0
 10
325.488469
 20
52.797933
 30
0.0
 10
326.237944
 20
52.298236
 30
0.0
 10
326.237944
 20
51.299178
 30
0.0
  0
SPLINE
  5
147
100
AcDbEntity
  8
Layer_1
 62
1
100
AcDbSpline
 70
8
 71
3
 72
8
 73
4
 74
0
 40
0
 40
0
 40
0
 40
0
 40
1
 40
1
 40
1
 40
1
 10
326.237944
 20
51.299178
 30
0.0
 10
326.237944
 20
49.301059
 30
0.0
 10
323.240056
 20
49.301059
 30
0.0
 10
323.240056
 20
51.299178
 30
0.0
  0
SPLINE
  5
148
100
AcDbEntity
  8
Layer_1
 62
1
100
AcDbSpline
 70
8
 71
3
 72
8
 73
4
 74
0
 40
0
 40
0
 40
0
 40
0
 40
1
 40
1
 40
1
 40
1
 10
323.240056
 20
51.299178
 30
0.0
 10
323.240056
 20
52.298236
 30
0.0
 10
323.989528
 20
52.797933
 30
0.0
 10
324.739000
 20
52.797933
 30
0.0
  0
LINE
  5
149
100
AcDbEntity
  8
Layer_1
 62
1
100
AcDbLine
 10
324.739000
 20
52.797933
 30
0.0
 11
324.739000
 21
52.797933
 31
0.0
  0
SPLINE
  5
14a
100
AcDbEntity
  8
Layer_1
 62
1
100
AcDbSpline
 70
8
 71
3
 72
8
 73
4
 74
0
 40
0
 40
0
 40
0
 40
0
 40
1
 40
1
 40
1
 40
1
 10
324.739000
 20
34.001933
 30
0.0
 10
325.488469
 20
34.001933
 30
0.0
 10
326.237944
 20
33.502236
 30
0.0
 10
326.237944
 20
32.503178
 30
0.0
  0
SPLINE
  5
14b
100
AcDbEntity
  8
Layer_1
 62
1
100
AcDbSpline
 70
8
 71
3
 72
8
 73
4
 74
0
 40
0
 40
0
 40
0
 40
0
 40
1
 40
1
 40
1
 40
1
 10
326.237944
 20
32.503178
 30
0.0
 10
326.237944
 20
30.505059
 30
0.0
 10
323.240056
 20
30.505059
 30
0.0
 10
323.240056
 20
32.503178
 30
0.0
  0
SPLINE
  5
14c
100
AcDbEntity
  8
Layer_1
 62
1
100
AcDbSpline
 70
8
 71
3
 72
8
 73
4
 74
0
 40
0
 40
0
 40
0
 40
0
 40
1
 40
1
 40
1
 40
1
 10
323.240056
 20
32.503178
 30
0.0
 10
323.240056
 20
33.502236
 30
0.0
 10
323.989528
 20
34.001933
 30
0.0
 10
324.739000
 20
34.001933
 30
0.0
  0
LINE
  5
14d
100
AcDbEntity
  8
Layer_1
 62
1
100
AcDbLine
 10
324.739000
 20
34.001933
 30
0.0
 11
324.739000
 21
34.001933
 31
0.0
  0
SPLINE
  5
14e
100
AcDbEntity
  8
Layer_1
 62
1
100
AcDbSpline
 70
8
 71
3
 72
8
 73
4
 74
0
 40
0
 40
0
 40
0
 40
0
 40
1
 40
1
 40
1
 40
1
 10
194.564000
 20
34.001933
 30
0.0
 10
195.313469
 20
34.001933
 30
0.0
 10
196.062944
 20
33.502236
 30
0.0
 10
196.062944
 20
32.503178
 30
0.0
  0
SPLINE
  5
14f
100
AcDbEntity
  8
Layer_1
 62
1
100
AcDbSpline
 70
8
 71
3
 72
8
 73
4
 74
0
 40
0
 40
0
 40
0
 40
0
 40
1
 40
1
 40
1
 40
1
 10
196.062944
 20
32.503178
 30
0.0
 10
196.062944
 20
30.505059
 30
0.0
 10
193.065056
 20
30.505059
 30
0.0
 10
193.065056
 20
32.503178
 30
0.0
  0
SPLINE
  5
150
100
AcDbEntity
  8
Layer_1
 62
1
100
AcDbSpline
 70
8
 71
3
 72
8
 73
4
 74
0
 40
0
 40
0
 40
0
 40
0
 40
1
 40
1
 40
1
 40
1
 10
193.065056
 20
32.503178
 30
0.0
 10
193.065056
 20
33.502236
 30
0.0
 10
193.814528
 20
34.001933
 30
0.0
 10
194.564000
 20
34.001933
 30
0.0
  0
LINE
  5
151
100
AcDbEntity
  8
Layer_1
 62
1
100
AcDbLine
 10
194.564000
 20
34.001933
 30
0.0
 11
194.564000
 21
34.001933
 31
0.0
  0
SPLINE
  5
152
100
AcDbEntity
  8
Layer_1
 62
1
100
AcDbSpline
 70
8
 71
3
 72
8
 73
4
 74
0
 40
0
 40
0
 40
0
 40
0
 40
1
 40
1
 40
1
 40
1
 10
194.564000
 20
52.797933
 30
0.0
 10
195.313469
 20
52.797933
 30
0.0
 10
196.062944
 20
52.298236
 30
0.0
 10
196.062944
 20
51.299178
 30
0.0
  0
SPLINE
  5
153
100
AcDbEntity
  8
Layer_1
 62
1
100
AcDbSpline
 70
8
 71
3
 72
8
 73
4
 74
0
 40
0
 40
0
 40
0
 40
0
 40
1
 40
1
 40
1
 40
1
 10
196.062944
 20
51.299178
 30
0.0
 10
196.062944
 20
49.301059
 30
0.0
 10
193.065056
 20
49.301059
 30
0.0
 10
193.065056
 20
51.299178
 30
0.0
  0
SPLINE
  5
154
100
AcDbEntity
  8
Layer_1
 62
1
100
AcDbSpline
 70
8
 71
3
 72
8
 73
4
 74
0
 40
0
 40
0
 40
0
 40
0
 40
1
 40
1
 40
1
 40
1
 10
193.065056
 20
51.299178
 30
0.0
 10
193.065056
 20
52.298236
 30
0.0
 10
193.814528
 20
52.797933
 30
0.0
 10
194.564000
 20
52.797933
 30
0.0
  0
LINE
  5
155
100
AcDbEntity
  8
Layer_1
 62
1
100
AcDbLine
 10
194.564000
 20
52.797933
 30
0.0
 11
194.564000
 21
52.797933
 31
0.0
  0
SPLINE
  5
156
100
AcDbEntity
  8
Layer_1
 62
1
100
AcDbSpline
 70
8
 71
3
 72
8
 73
4
 74
0
 40
0
 40
0
 40
0
 40
0
 40
1
 40
1
 40
1
 40
1
 10
64.389001
 20
34.001933
 30
0.0
 10
65.138470
 20
34.001933
 30
0.0
 10
65.887945
 20
33.502236
 30
0.0
 10
65.887945
 20
32.503178
 30
0.0
  0
SPLINE
  5
157
100
AcDbEntity
  8
Layer_1
 62
1
100
AcDbSpline
 70
8
 71
3
 72
8
 73
4
 74
0
 40
0
 40
0
 40
0
 40
0
 40
1
 40
1
 40
1
 40
1
 10
65.887945
 20
32.503178
 30
0.0
 10
65.887945
 20
30.505059
 30
0.0
 10
62.890056
 20
30.505059
 30
0.0
 10
62.890056
 20
32.503178
 30
0.0
  0
SPLINE
  5
158
100
AcDbEntity
  8
Layer_1
 62
1
100
AcDbSpline
 70
8
 71
3
 72
8
 73
4
 74
0
 40
0
 40
0
 40
0
 40
0
 40
1
 40
1
 40
1
 40
1
 10
62.890056
 20
32.503178
 30
0.0
 10
62.890056
 20
33.502236
 30
0.0
 10
63.639528
 20
34.001933
 30
0.0
 10
64.389001
 20
34.001933
 30
0.0
  0
LINE
  5
159
100
AcDbEntity
  8
Layer_1
 62
1
100
AcDbLine
 10
64.389001
 20
34.001933
 30
0.0
 11
64.389001
 21
34.001933
 31
0.0
  0
SPLINE
  5
15a
100
AcDbEntity
  8
Layer_1
 62
1
100
AcDbSpline
 70
8
 71
3
 72
8
 73
4
 74
0
 40
0
 40
0
 40
0
 40
0
 40
1
 40
1
 40
1
 40
1
 10
64.389001
 20
52.797933
 30
0.0
 10
65.138470
 20
52.797933
 30
0.0
 10
65.887945
 20
52.298236
 30
0.0
 10
65.887945
 20
51.299178
 30
0.0
  0
SPLINE
  5
15b
100
AcDbEntity
  8
Layer_1
 62
1
100
AcDbSpline
 70
8
 71
3
 72
8
 73
4
 74
0
 40
0
 40
0
 40
0
 40
0
 40
1
 40
1
 40
1
 40
1
 10
65.887945
 20
51.299178
 30
0.0
 10
65.887945
 20
49.301059
 30
0.0
 10
62.890056
 20
49.301059
 30
0.0
 10
62.890056
 20
51.299178
 30
0.0
  0
SPLINE
  5
15c
100
AcDbEntity
  8
Layer_1
 62
1
100
AcDbSpline
 70
8
 71
3
 72
8
 73
4
 74
0
 40
0
 40
0
 40
0
 40
0
 40
1
 40
1
 40
1
 40
1
 10
62.890056
 20
51.299178
 30
0.0
 10
62.890056
 20
52.298236
 30
0.0
 10
63.639528
 20
52.797933
 30
0.0
 10
64.389001
 20
52.797933
 30
0.0
  0
LINE
  5
15d
100
AcDbEntity
  8
Layer_1
 62
1
100
AcDbLine
 10
64.389001
 20
52.797933
 30
0.0
 11
64.389001
 21
52.797933
 31
0.0
  0
ENDSEC
  0
SECTION
  2
OBJECTS
  0
DICTIONARY
  5
C
330
0
100
AcDbDictionary
  3
ACAD_GROUP
350
D
  3
ACAD_MLINESTYLE
350
17
  0
DICTIONARY
  5
D
330
C
100
AcDbDictionary
  0
DICTIONARY
  5
1A
330
C
100
AcDbDictionary
  0
DICTIONARY
  5
17
330
C
100
AcDbDictionary
  3
STANDARD
350
18
  0
DICTIONARY
  5
19
330
C
100
AcDbDictionary
  0
ENDSEC
  0
EOF
