  0
SECTION
  2
HEADER
  9
$ACADVER
  1
AC1014
  9
$HANDSEED
  5
FFFF
  9
$MEASUREMENT
 70
     1
  0
ENDSEC
  0
SECTION
  2
TABLES
  0
TABLE
  2
VPORT
  5
8
330
0
100
AcDbSymbolTable
 70
     4
  0
VPORT
  5
2E
330
8
100
AcDbSymbolTableRecord
100
AcDbViewportTableRecord
  2
*ACTIVE
 70
     0
 10
0.0
 20
0.0
 11
1.0
 21
1.0
 12
210.0
 22
148.5
 13
0.0
 23
0.0
 14
10.0
 24
10.0
 15
10.0
 25
10.0
 16
0.0
 26
0.0
 36
1.0
 17
0.0
 27
0.0
 37
0.0
 40
341.0
 41
1.24
 42
50.0
 43
0.0
 44
0.0
 50
0.0
 51
0.0
 71
     0
 72
   100
 73
     1
 74
     3
 75
     0
 76
     0
 77
     0
 78
     0
  0
ENDTAB
  0
TABLE
  2
LTYPE
  5
5
330
0
100
AcDbSymbolTable
 70
     1
  0
LTYPE
  5
14
330
5
100
AcDbSymbolTableRecord
100
AcDbLinetypeTableRecord
  2
BYBLOCK
 70
     0
  3

 72
    65
 73
     0
 40
0.0
  0
LTYPE
  5
15
330
5
100
AcDbSymbolTableRecord
100
AcDbLinetypeTableRecord
  2
BYLAYER
 70
     0
  3

 72
    65
 73
     0
 40
0.0
  0
LTYPE
  5
16
330
5
100
AcDbSymbolTableRecord
100
AcDbLinetypeTableRecord
  2
CONTINUOUS
 70
     0
  3
Solid line
 72
    65
 73
     0
 40
0.0
  0
ENDTAB
  0
TABLE
  2
LAYER
  5
2
100
AcDbSymbolTable
 70
2
  0
LAYER
  5
50
100
AcDbSymbolTableRecord
100
AcDbLayerTableRecord
  2
0
 70
0
  6
CONTINUOUS
  0
LAYER
  5
51
100
AcDbSymbolTableRecord
100
AcDbLayerTableRecord
  2
Layer_1
 70
0
  6
CONTINUOUS
  0
ENDTAB
  0
TABLE
  2
STYLE
  5
3
330
0
100
AcDbSymbolTable
 70
     1
  0
STYLE
  5
11
330
3
100
AcDbSymbolTableRecord
100
AcDbTextStyleTableRecord
  2
STANDARD
 70
     0
 40
0.0
 41
1.0
 50
0.0
 71
     0
 42
2.5
  3
txt
  4

  0
ENDTAB
  0
TABLE
  2
VIEW
  5
6
330
0
100
AcDbSymbolTable
 70
     0
  0
ENDTAB
  0
TABLE
  2
UCS
  5
7
330
0
100
AcDbSymbolTable
 70
     0
  0
ENDTAB
  0
TABLE
  2
APPID
  5
9
330
0
100
AcDbSymbolTable
 70
     2
  0
APPID
  5
12
330
9
100
AcDbSymbolTableRecord
100
AcDbRegAppTableRecord
  2
ACAD
 70
     0
  0
ENDTAB
  0
TABLE
  2
DIMSTYLE
  5
A
330
0
100
AcDbSymbolTable
 70
     1
  0
DIMSTYLE
105
27
330
A
100
AcDbSymbolTableRecord
100
AcDbDimStyleTableRecord
  2
ISO-25
 70
     0
  3

  4

  5

  6

  7

 40
1.0
 41
2.5
 42
0.625
 43
3.75
 44
1.25
 45
0.0
 46
0.0
 47
0.0
 48
0.0
140
2.5
141
2.5
142
0.0
143
0.03937007874016
144
1.0
145
0.0
146
1.0
147
0.625
 71
     0
 72
     0
 73
     0
 74
     0
 75
     0
 76
     0
 77
     1
 78
     8
170
     0
171
     3
172
     1
173
     0
174
     0
175
     0
176
     0
177
     0
178
     0
270
     2
271
     2
272
     2
273
     2
274
     3
340
11
275
     0
280
     0
281
     0
282
     0
283
     0
284
     8
285
     0
286
     0
287
     3
288
     0
  0
ENDTAB
  0
TABLE
  2
BLOCK_RECORD
  5
1
330
0
100
AcDbSymbolTable
 70
     1
  0
BLOCK_RECORD
  5
1F
330
1
100
AcDbSymbolTableRecord
100
AcDbBlockTableRecord
  2
*MODEL_SPACE
  0
BLOCK_RECORD
  5
1B
330
1
100
AcDbSymbolTableRecord
100
AcDbBlockTableRecord
  2
*PAPER_SPACE
  0
ENDTAB
  0
ENDSEC
  0
SECTION
  2
BLOCKS
  0
BLOCK
  5
20
330
1F
100
AcDbEntity
  8
0
100
AcDbBlockBegin
  2
*MODEL_SPACE
 70
     0
 10
0.0
 20
0.0
 30
0.0
  3
*MODEL_SPACE
  1

  0
ENDBLK
  5
21
330
1F
100
AcDbEntity
  8
0
100
AcDbBlockEnd
  0
BLOCK
  5
1C
330
1B
100
AcDbEntity
 67
     1
  8
0
100
AcDbBlockBegin
  2
*PAPER_SPACE
  1

  0
ENDBLK
  5
1D
330
1B
100
AcDbEntity
 67
     1
  8
0
100
AcDbBlockEnd
  0
ENDSEC
  0
SECTION
  2
ENTITIES
  0
SPLINE
  5
100
100
AcDbEntity
  8
Layer_1
 62
1
100
AcDbSpline
 70
8
 71
3
 72
8
 73
4
 74
0
 40
0
 40
0
 40
0
 40
0
 40
1
 40
1
 40
1
 40
1
 10
0.352222
 20
2.631389
 30
0.0
 10
0.282972
 20
2.631389
 30
0.0
 10
0.227222
 20
2.575639
 30
0.0
 10
0.227222
 20
2.506389
 30
0.0
  0
LINE
  5
101
100
AcDbEntity
  8
Layer_1
 62
1
100
AcDbLine
 10
0.227222
 20
2.506389
 30
0.0
 11
0.227222
 21
0.856389
 31
0.0
  0
SPLINE
  5
102
100
AcDbEntity
  8
Layer_1
 62
1
100
AcDbSpline
 70
8
 71
3
 72
8
 73
4
 74
0
 40
0
 40
0
 40
0
 40
0
 40
1
 40
1
 40
1
 40
1
 10
0.227222
 20
0.856389
 30
0.0
 10
0.227222
 20
0.787139
 30
0.0
 10
0.282972
 20
0.731389
 30
0.0
 10
0.352222
 20
0.731389
 30
0.0
  0
LINE
  5
103
100
AcDbEntity
  8
Layer_1
 62
1
100
AcDbLine
 10
0.352222
 20
0.731389
 30
0.0
 11
11.302222
 21
0.731389
 31
0.0
  0
SPLINE
  5
104
100
AcDbEntity
  8
Layer_1
 62
1
100
AcDbSpline
 70
8
 71
3
 72
8
 73
4
 74
0
 40
0
 40
0
 40
0
 40
0
 40
1
 40
1
 40
1
 40
1
 10
11.302222
 20
0.731389
 30
0.0
 10
11.371472
 20
0.731389
 30
0.0
 10
11.427222
 20
0.787139
 30
0.0
 10
11.427222
 20
0.856389
 30
0.0
  0
LINE
  5
105
100
AcDbEntity
  8
Layer_1
 62
1
100
AcDbLine
 10
11.427222
 20
0.856389
 30
0.0
 11
11.427222
 21
2.506389
 31
0.0
  0
SPLINE
  5
106
100
AcDbEntity
  8
Layer_1
 62
1
100
AcDbSpline
 70
8
 71
3
 72
8
 73
4
 74
0
 40
0
 40
0
 40
0
 40
0
 40
1
 40
1
 40
1
 40
1
 10
11.427222
 20
2.506389
 30
0.0
 10
11.427222
 20
2.575639
 30
0.0
 10
11.371472
 20
2.631389
 30
0.0
 10
11.302222
 20
2.631389
 30
0.0
  0
LINE
  5
107
100
AcDbEntity
  8
Layer_1
 62
1
100
AcDbLine
 10
11.302222
 20
2.631389
 30
0.0
 11
0.352222
 21
2.631389
 31
0.0
  0
LINE
  5
108
100
AcDbEntity
  8
Layer_1
 62
1
100
AcDbLine
 10
2.869236
 20
2.574748
 30
0.0
 11
2.884275
 21
2.574748
 31
0.0
  0
LINE
  5
109
100
AcDbEntity
  8
Layer_1
 62
1
100
AcDbLine
 10
2.884275
 20
2.574748
 30
0.0
 11
2.884275
 21
2.314896
 31
0.0
  0
LINE
  5
10a
100
AcDbEntity
  8
Layer_1
 62
1
100
AcDbLine
 10
2.884275
 20
2.314896
 30
0.0
 11
2.869236
 21
2.314896
 31
0.0
  0
LINE
  5
10b
100
AcDbEntity
  8
Layer_1
 62
1
100
AcDbLine
 10
2.869236
 20
2.314896
 30
0.0
 11
2.869236
 21
2.574748
 31
0.0
  0
LINE
  5
10c
100
AcDbEntity
  8
Layer_1
 62
1
100
AcDbLine
 10
3.491458
 20
2.574748
 30
0.0
 11
3.506497
 21
2.574748
 31
0.0
  0
LINE
  5
10d
100
AcDbEntity
  8
Layer_1
 62
1
100
AcDbLine
 10
3.506497
 20
2.574748
 30
0.0
 11
3.506497
 21
2.314896
 31
0.0
  0
LINE
  5
10e
100
AcDbEntity
  8
Layer_1
 62
1
100
AcDbLine
 10
3.506497
 20
2.314896
 30
0.0
 11
3.491458
 21
2.314896
 31
0.0
  0
LINE
  5
10f
100
AcDbEntity
  8
Layer_1
 62
1
100
AcDbLine
 10
3.491458
 20
2.314896
 30
0.0
 11
3.491458
 21
2.574748
 31
0.0
  0
LINE
  5
110
100
AcDbEntity
  8
Layer_1
 62
1
100
AcDbLine
 10
6.154262
 20
2.340569
 30
0.0
 11
8.144887
 21
2.340569
 31
0.0
  0
SPLINE
  5
111
100
AcDbEntity
  8
Layer_1
 62
1
100
AcDbSpline
 70
8
 71
3
 72
8
 73
4
 74
0
 40
0
 40
0
 40
0
 40
0
 40
1
 40
1
 40
1
 40
1
 10
8.144887
 20
2.340569
 30
0.0
 10
8.155967
 20
2.340569
 30
0.0
 10
8.164874
 20
2.331640
 30
0.0
 10
8.164874
 20
2.320560
 30
0.0
  0
LINE
  5
112
100
AcDbEntity
  8
Layer_1
 62
1
100
AcDbLine
 10
8.164874
 20
2.320560
 30
0.0
 11
8.164874
 21
1.898468
 31
0.0
  0
SPLINE
  5
113
100
AcDbEntity
  8
Layer_1
 62
1
100
AcDbSpline
 70
8
 71
3
 72
8
 73
4
 74
0
 40
0
 40
0
 40
0
 40
0
 40
1
 40
1
 40
1
 40
1
 10
8.164874
 20
1.898468
 30
0.0
 10
8.164874
 20
1.887388
 30
0.0
 10
8.155967
 20
1.878459
 30
0.0
 10
8.144887
 20
1.878459
 30
0.0
  0
LINE
  5
114
100
AcDbEntity
  8
Layer_1
 62
1
100
AcDbLine
 10
8.144887
 20
1.878459
 30
0.0
 11
6.154262
 21
1.878459
 31
0.0
  0
SPLINE
  5
115
100
AcDbEntity
  8
Layer_1
 62
1
100
AcDbSpline
 70
8
 71
3
 72
8
 73
4
 74
0
 40
0
 40
0
 40
0
 40
0
 40
1
 40
1
 40
1
 40
1
 10
6.154262
 20
1.878459
 30
0.0
 10
6.143182
 20
1.878459
 30
0.0
 10
6.134253
 20
1.887388
 30
0.0
 10
6.134253
 20
1.898468
 30
0.0
  0
LINE
  5
116
100
AcDbEntity
  8
Layer_1
 62
1
100
AcDbLine
 10
6.134253
 20
1.898468
 30
0.0
 11
6.134253
 21
2.320560
 31
0.0
  0
SPLINE
  5
117
100
AcDbEntity
  8
Layer_1
 62
1
100
AcDbSpline
 70
8
 71
3
 72
8
 73
4
 74
0
 40
0
 40
0
 40
0
 40
0
 40
1
 40
1
 40
1
 40
1
 10
6.134253
 20
2.320560
 30
0.0
 10
6.134253
 20
2.331640
 30
0.0
 10
6.143182
 20
2.340569
 30
0.0
 10
6.154262
 20
2.340569
 30
0.0
  0
LINE
  5
118
100
AcDbEntity
  8
Layer_1
 62
1
100
AcDbLine
 10
6.154262
 20
2.340569
 30
0.0
 11
6.154262
 21
2.340569
 31
0.0
  0
LINE
  5
119
100
AcDbEntity
  8
Layer_1
 62
1
100
AcDbLine
 10
2.932843
 20
2.262227
 30
0.0
 11
3.444366
 21
2.262227
 31
0.0
  0
LINE
  5
11a
100
AcDbEntity
  8
Layer_1
 62
1
100
AcDbLine
 10
3.444366
 20
2.262227
 30
0.0
 11
3.444366
 21
2.247188
 31
0.0
  0
LINE
  5
11b
100
AcDbEntity
  8
Layer_1
 62
1
100
AcDbLine
 10
3.444366
 20
2.247188
 30
0.0
 11
2.932843
 21
2.247188
 31
0.0
  0
LINE
  5
11c
100
AcDbEntity
  8
Layer_1
 62
1
100
AcDbLine
 10
2.932843
 20
2.247188
 30
0.0
 11
2.932843
 21
2.262227
 31
0.0
  0
SPLINE
  5
11d
100
AcDbEntity
  8
Layer_1
 62
1
100
AcDbSpline
 70
8
 71
3
 72
8
 73
4
 74
0
 40
0
 40
0
 40
0
 40
0
 40
1
 40
1
 40
1
 40
1
 10
3.747752
 20
2.220907
 30
0.0
 10
3.877527
 20
2.220907
 30
0.0
 10
3.982713
 20
2.115720
 30
0.0
 10
3.982713
 20
1.985946
 30
0.0
  0
SPLINE
  5
11e
100
AcDbEntity
  8
Layer_1
 62
1
100
AcDbSpline
 70
8
 71
3
 72
8
 73
4
 74
0
 40
0
 40
0
 40
0
 40
0
 40
1
 40
1
 40
1
 40
1
 10
3.982713
 20
1.985946
 30
0.0
 10
3.982713
 20
1.856117
 30
0.0
 10
3.877527
 20
1.750920
 30
0.0
 10
3.747752
 20
1.750920
 30
0.0
  0
SPLINE
  5
11f
100
AcDbEntity
  8
Layer_1
 62
1
100
AcDbSpline
 70
8
 71
3
 72
8
 73
4
 74
0
 40
0
 40
0
 40
0
 40
0
 40
1
 40
1
 40
1
 40
1
 10
3.747752
 20
1.750920
 30
0.0
 10
3.617924
 20
1.750920
 30
0.0
 10
3.512726
 20
1.856117
 30
0.0
 10
3.512726
 20
1.985946
 30
0.0
  0
SPLINE
  5
120
100
AcDbEntity
  8
Layer_1
 62
1
100
AcDbSpline
 70
8
 71
3
 72
8
 73
4
 74
0
 40
0
 40
0
 40
0
 40
0
 40
1
 40
1
 40
1
 40
1
 10
3.512726
 20
1.985946
 30
0.0
 10
3.512726
 20
2.115720
 30
0.0
 10
3.617924
 20
2.220907
 30
0.0
 10
3.747752
 20
2.220907
 30
0.0
  0
LINE
  5
121
100
AcDbEntity
  8
Layer_1
 62
1
100
AcDbLine
 10
3.747752
 20
2.220907
 30
0.0
 11
3.747752
 21
2.220907
 31
0.0
  0
SPLINE
  5
122
100
AcDbEntity
  8
Layer_1
 62
1
100
AcDbSpline
 70
8
 71
3
 72
8
 73
4
 74
0
 40
0
 40
0
 40
0
 40
0
 40
1
 40
1
 40
1
 40
1
 10
0.701745
 20
2.030933
 30
0.0
 10
0.738746
 20
2.030933
 30
0.0
 10
0.775747
 20
2.006253
 30
0.0
 10
0.775747
 20
1.956910
 30
0.0
  0
SPLINE
  5
123
100
AcDbEntity
  8
Layer_1
 62
1
100
AcDbSpline
 70
8
 71
3
 72
8
 73
4
 74
0
 40
0
 40
0
 40
0
 40
0
 40
1
 40
1
 40
1
 40
1
 10
0.775747
 20
1.956910
 30
0.0
 10
0.775747
 20
1.858223
 30
0.0
 10
0.627743
 20
1.858223
 30
0.0
 10
0.627743
 20
1.956910
 30
0.0
  0
SPLINE
  5
124
100
AcDbEntity
  8
Layer_1
 62
1
100
AcDbSpline
 70
8
 71
3
 72
8
 73
4
 74
0
 40
0
 40
0
 40
0
 40
0
 40
1
 40
1
 40
1
 40
1
 10
0.627743
 20
1.956910
 30
0.0
 10
0.627743
 20
2.006253
 30
0.0
 10
0.664744
 20
2.030933
 30
0.0
 10
0.701745
 20
2.030933
 30
0.0
  0
LINE
  5
125
100
AcDbEntity
  8
Layer_1
 62
1
100
AcDbLine
 10
0.701745
 20
2.030933
 30
0.0
 11
0.701745
 21
2.030933
 31
0.0
  0
SPLINE
  5
126
100
AcDbEntity
  8
Layer_1
 62
1
100
AcDbSpline
 70
8
 71
3
 72
8
 73
4
 74
0
 40
0
 40
0
 40
0
 40
0
 40
1
 40
1
 40
1
 40
1
 10
5.826745
 20
2.030933
 30
0.0
 10
5.863746
 20
2.030933
 30
0.0
 10
5.900747
 20
2.006253
 30
0.0
 10
5.900747
 20
1.956910
 30
0.0
  0
SPLINE
  5
127
100
AcDbEntity
  8
Layer_1
 62
1
100
AcDbSpline
 70
8
 71
3
 72
8
 73
4
 74
0
 40
0
 40
0
 40
0
 40
0
 40
1
 40
1
 40
1
 40
1
 10
5.900747
 20
1.956910
 30
0.0
 10
5.900747
 20
1.858223
 30
0.0
 10
5.752743
 20
1.858223
 30
0.0
 10
5.752743
 20
1.956910
 30
0.0
  0
SPLINE
  5
128
100
AcDbEntity
  8
Layer_1
 62
1
100
AcDbSpline
 70
8
 71
3
 72
8
 73
4
 74
0
 40
0
 40
0
 40
0
 40
0
 40
1
 40
1
 40
1
 40
1
 10
5.752743
 20
1.956910
 30
0.0
 10
5.752743
 20
2.006253
 30
0.0
 10
5.789744
 20
2.030933
 30
0.0
 10
5.826745
 20
2.030933
 30
0.0
  0
LINE
  5
129
100
AcDbEntity
  8
Layer_1
 62
1
100
AcDbLine
 10
5.826745
 20
2.030933
 30
0.0
 11
5.826745
 21
2.030933
 31
0.0
  0
SPLINE
  5
12a
100
AcDbEntity
  8
Layer_1
 62
1
100
AcDbSpline
 70
8
 71
3
 72
8
 73
4
 74
0
 40
0
 40
0
 40
0
 40
0
 40
1
 40
1
 40
1
 40
1
 10
10.951745
 20
2.030933
 30
0.0
 10
10.988746
 20
2.030933
 30
0.0
 10
11.025747
 20
2.006253
 30
0.0
 10
11.025747
 20
1.956910
 30
0.0
  0
SPLINE
  5
12b
100
AcDbEntity
  8
Layer_1
 62
1
100
AcDbSpline
 70
8
 71
3
 72
8
 73
4
 74
0
 40
0
 40
0
 40
0
 40
0
 40
1
 40
1
 40
1
 40
1
 10
11.025747
 20
1.956910
 30
0.0
 10
11.025747
 20
1.858223
 30
0.0
 10
10.877743
 20
1.858223
 30
0.0
 10
10.877743
 20
1.956910
 30
0.0
  0
SPLINE
  5
12c
100
AcDbEntity
  8
Layer_1
 62
1
100
AcDbSpline
 70
8
 71
3
 72
8
 73
4
 74
0
 40
0
 40
0
 40
0
 40
0
 40
1
 40
1
 40
1
 40
1
 10
10.877743
 20
1.956910
 30
0.0
 10
10.877743
 20
2.006253
 30
0.0
 10
10.914744
 20
2.030933
 30
0.0
 10
10.951745
 20
2.030933
 30
0.0
  0
LINE
  5
12d
100
AcDbEntity
  8
Layer_1
 62
1
100
AcDbLine
 10
10.951745
 20
2.030933
 30
0.0
 11
10.951745
 21
2.030933
 31
0.0
  0
LINE
  5
12e
100
AcDbEntity
  8
Layer_1
 62
1
100
AcDbLine
 10
0.316697
 20
1.808971
 30
0.0
 11
0.856237
 21
1.808971
 31
0.0
  0
SPLINE
  5
12f
100
AcDbEntity
  8
Layer_1
 62
1
100
AcDbSpline
 70
8
 71
3
 72
8
 73
4
 74
0
 40
0
 40
0
 40
0
 40
0
 40
1
 40
1
 40
1
 40
1
 10
0.856237
 20
1.808971
 30
0.0
 10
0.867317
 20
1.808971
 30
0.0
 10
0.876224
 20
1.800064
 30
0.0
 10
0.876224
 20
1.788984
 30
0.0
  0
LINE
  5
130
100
AcDbEntity
  8
Layer_1
 62
1
100
AcDbLine
 10
0.876224
 20
1.788984
 30
0.0
 11
0.876224
 21
1.609319
 31
0.0
  0
SPLINE
  5
131
100
AcDbEntity
  8
Layer_1
 62
1
100
AcDbSpline
 70
8
 71
3
 72
8
 73
4
 74
0
 40
0
 40
0
 40
0
 40
0
 40
1
 40
1
 40
1
 40
1
 10
0.876224
 20
1.609319
 30
0.0
 10
0.876224
 20
1.598239
 30
0.0
 10
0.867317
 20
1.589332
 30
0.0
 10
0.856237
 20
1.589332
 30
0.0
  0
LINE
  5
132
100
AcDbEntity
  8
Layer_1
 62
1
100
AcDbLine
 10
0.856237
 20
1.589332
 30
0.0
 11
0.316697
 21
1.589332
 31
0.0
  0
SPLINE
  5
133
100
AcDbEntity
  8
Layer_1
 62
1
100
AcDbSpline
 70
8
 71
3
 72
8
 73
4
 74
0
 40
0
 40
0
 40
0
 40
0
 40
1
 40
1
 40
1
 40
1
 10
0.316697
 20
1.589332
 30
0.0
 10
0.305617
 20
1.589332
 30
0.0
 10
0.296688
 20
1.598239
 30
0.0
 10
0.296688
 20
1.609319
 30
0.0
  0
LINE
  5
134
100
AcDbEntity
  8
Layer_1
 62
1
100
AcDbLine
 10
0.296688
 20
1.609319
 30
0.0
 11
0.296688
 21
1.788984
 31
0.0
  0
SPLINE
  5
135
100
AcDbEntity
  8
Layer_1
 62
1
100
AcDbSpline
 70
8
 71
3
 72
8
 73
4
 74
0
 40
0
 40
0
 40
0
 40
0
 40
1
 40
1
 40
1
 40
1
 10
0.296688
 20
1.788984
 30
0.0
 10
0.296688
 20
1.800064
 30
0.0
 10
0.305617
 20
1.808971
 30
0.0
 10
0.316697
 20
1.808971
 30
0.0
  0
LINE
  5
136
100
AcDbEntity
  8
Layer_1
 62
1
100
AcDbLine
 10
0.316697
 20
1.808971
 30
0.0
 11
0.316697
 21
1.808971
 31
0.0
  0
LINE
  5
137
100
AcDbEntity
  8
Layer_1
 62
1
100
AcDbLine
 10
2.405499
 20
1.694236
 30
0.0
 11
3.053481
 21
1.694236
 31
0.0
  0
SPLINE
  5
138
100
AcDbEntity
  8
Layer_1
 62
1
100
AcDbSpline
 70
8
 71
3
 72
8
 73
4
 74
0
 40
0
 40
0
 40
0
 40
0
 40
1
 40
1
 40
1
 40
1
 10
3.053481
 20
1.694236
 30
0.0
 10
3.064561
 20
1.694236
 30
0.0
 10
3.073490
 20
1.685307
 30
0.0
 10
3.073490
 20
1.674227
 30
0.0
  0
LINE
  5
139
100
AcDbEntity
  8
Layer_1
 62
1
100
AcDbLine
 10
3.073490
 20
1.674227
 30
0.0
 11
3.073490
 21
1.490829
 31
0.0
  0
LINE
  5
13a
100
AcDbEntity
  8
Layer_1
 62
1
100
AcDbLine
 10
3.073490
 20
1.490829
 30
0.0
 11
3.270213
 21
1.490829
 31
0.0
  0
SPLINE
  5
13b
100
AcDbEntity
  8
Layer_1
 62
1
100
AcDbSpline
 70
8
 71
3
 72
8
 73
4
 74
0
 40
0
 40
0
 40
0
 40
0
 40
1
 40
1
 40
1
 40
1
 10
3.270213
 20
1.490829
 30
0.0
 10
3.281293
 20
1.490829
 30
0.0
 10
3.290221
 20
1.481922
 30
0.0
 10
3.290221
 20
1.470842
 30
0.0
  0
LINE
  5
13c
100
AcDbEntity
  8
Layer_1
 62
1
100
AcDbLine
 10
3.290221
 20
1.470842
 30
0.0
 11
3.290221
 21
1.250313
 31
0.0
  0
SPLINE
  5
13d
100
AcDbEntity
  8
Layer_1
 62
1
100
AcDbSpline
 70
8
 71
3
 72
8
 73
4
 74
0
 40
0
 40
0
 40
0
 40
0
 40
1
 40
1
 40
1
 40
1
 10
3.290221
 20
1.250313
 30
0.0
 10
3.290221
 20
1.239233
 30
0.0
 10
3.281293
 20
1.230326
 30
0.0
 10
3.270213
 20
1.230326
 30
0.0
  0
LINE
  5
13e
100
AcDbEntity
  8
Layer_1
 62
1
100
AcDbLine
 10
3.270213
 20
1.230326
 30
0.0
 11
2.381953
 21
1.230326
 31
0.0
  0
SPLINE
  5
13f
100
AcDbEntity
  8
Layer_1
 62
1
100
AcDbSpline
 70
8
 71
3
 72
8
 73
4
 74
0
 40
0
 40
0
 40
0
 40
0
 40
1
 40
1
 40
1
 40
1
 10
2.381953
 20
1.230326
 30
0.0
 10
2.370873
 20
1.230326
 30
0.0
 10
2.361944
 20
1.239233
 30
0.0
 10
2.361944
 20
1.250313
 30
0.0
  0
LINE
  5
140
100
AcDbEntity
  8
Layer_1
 62
1
100
AcDbLine
 10
2.361944
 20
1.250313
 30
0.0
 11
2.361944
 21
1.470842
 31
0.0
  0
SPLINE
  5
141
100
AcDbEntity
  8
Layer_1
 62
1
100
AcDbSpline
 70
8
 71
3
 72
8
 73
4
 74
0
 40
0
 40
0
 40
0
 40
0
 40
1
 40
1
 40
1
 40
1
 10
2.361944
 20
1.470842
 30
0.0
 10
2.361944
 20
1.481922
 30
0.0
 10
2.370873
 20
1.490829
 30
0.0
 10
2.381953
 20
1.490829
 30
0.0
  0
LINE
  5
142
100
AcDbEntity
  8
Layer_1
 62
1
100
AcDbLine
 10
2.381953
 20
1.490829
 30
0.0
 11
2.385490
 21
1.490829
 31
0.0
  0
LINE
  5
143
100
AcDbEntity
  8
Layer_1
 62
1
100
AcDbLine
 10
2.385490
 20
1.490829
 30
0.0
 11
2.385490
 21
1.674227
 31
0.0
  0
SPLINE
  5
144
100
AcDbEntity
  8
Layer_1
 62
1
100
AcDbSpline
 70
8
 71
3
 72
8
 73
4
 74
0
 40
0
 40
0
 40
0
 40
0
 40
1
 40
1
 40
1
 40
1
 10
2.385490
 20
1.674227
 30
0.0
 10
2.385490
 20
1.685307
 30
0.0
 10
2.394419
 20
1.694236
 30
0.0
 10
2.405499
 20
1.694236
 30
0.0
  0
LINE
  5
145
100
AcDbEntity
  8
Layer_1
 62
1
100
AcDbLine
 10
2.405499
 20
1.694236
 30
0.0
 11
2.405499
 21
1.694236
 31
0.0
  0
LINE
  5
146
100
AcDbEntity
  8
Layer_1
 62
1
100
AcDbLine
 10
3.545690
 20
1.506758
 30
0.0
 11
4.593238
 21
1.506758
 31
0.0
  0
SPLINE
  5
147
100
AcDbEntity
  8
Layer_1
 62
1
100
AcDbSpline
 70
8
 71
3
 72
8
 73
4
 74
0
 40
0
 40
0
 40
0
 40
0
 40
1
 40
1
 40
1
 40
1
 10
4.593238
 20
1.506758
 30
0.0
 10
4.604318
 20
1.506758
 30
0.0
 10
4.613225
 20
1.497829
 30
0.0
 10
4.613225
 20
1.486749
 30
0.0
  0
LINE
  5
148
100
AcDbEntity
  8
Layer_1
 62
1
100
AcDbLine
 10
4.613225
 20
1.486749
 30
0.0
 11
4.613225
 21
1.320625
 31
0.0
  0
SPLINE
  5
149
100
AcDbEntity
  8
Layer_1
 62
1
100
AcDbSpline
 70
8
 71
3
 72
8
 73
4
 74
0
 40
0
 40
0
 40
0
 40
0
 40
1
 40
1
 40
1
 40
1
 10
4.613225
 20
1.320625
 30
0.0
 10
4.613225
 20
1.309545
 30
0.0
 10
4.604318
 20
1.300638
 30
0.0
 10
4.593238
 20
1.300638
 30
0.0
  0
LINE
  5
14a
100
AcDbEntity
  8
Layer_1
 62
1
100
AcDbLine
 10
4.593238
 20
1.300638
 30
0.0
 11
3.545690
 21
1.300638
 31
0.0
  0
SPLINE
  5
14b
100
AcDbEntity
  8
Layer_1
 62
1
100
AcDbSpline
 70
8
 71
3
 72
8
 73
4
 74
0
 40
0
 40
0
 40
0
 40
0
 40
1
 40
1
 40
1
 40
1
 10
3.545690
 20
1.300638
 30
0.0
 10
3.534610
 20
1.300638
 30
0.0
 10
3.525681
 20
1.309545
 30
0.0
 10
3.525681
 20
1.320625
 30
0.0
  0
LINE
  5
14c
100
AcDbEntity
  8
Layer_1
 62
1
100
AcDbLine
 10
3.525681
 20
1.320625
 30
0.0
 11
3.525681
 21
1.486749
 31
0.0
  0
SPLINE
  5
14d
100
AcDbEntity
  8
Layer_1
 62
1
100
AcDbSpline
 70
8
 71
3
 72
8
 73
4
 74
0
 40
0
 40
0
 40
0
 40
0
 40
1
 40
1
 40
1
 40
1
 10
3.525681
 20
1.486749
 30
0.0
 10
3.525681
 20
1.497829
 30
0.0
 10
3.534610
 20
1.506758
 30
0.0
 10
3.545690
 20
1.506758
 30
0.0
  0
LINE
  5
14e
100
AcDbEntity
  8
Layer_1
 62
1
100
AcDbLine
 10
3.545690
 20
1.506758
 30
0.0
 11
3.545690
 21
1.506758
 31
0.0
  0
SPLINE
  5
14f
100
AcDbEntity
  8
Layer_1
 62
1
100
AcDbSpline
 70
8
 71
3
 72
8
 73
4
 74
0
 40
0
 40
0
 40
0
 40
0
 40
1
 40
1
 40
1
 40
1
 10
0.701745
 20
1.290916
 30
0.0
 10
0.738746
 20
1.290916
 30
0.0
 10
0.775747
 20
1.266236
 30
0.0
 10
0.775747
 20
1.216892
 30
0.0
  0
SPLINE
  5
150
100
AcDbEntity
  8
Layer_1
 62
1
100
AcDbSpline
 70
8
 71
3
 72
8
 73
4
 74
0
 40
0
 40
0
 40
0
 40
0
 40
1
 40
1
 40
1
 40
1
 10
0.775747
 20
1.216892
 30
0.0
 10
0.775747
 20
1.118260
 30
0.0
 10
0.627743
 20
1.118260
 30
0.0
 10
0.627743
 20
1.216892
 30
0.0
  0
SPLINE
  5
151
100
AcDbEntity
  8
Layer_1
 62
1
100
AcDbSpline
 70
8
 71
3
 72
8
 73
4
 74
0
 40
0
 40
0
 40
0
 40
0
 40
1
 40
1
 40
1
 40
1
 10
0.627743
 20
1.216892
 30
0.0
 10
0.627743
 20
1.266236
 30
0.0
 10
0.664744
 20
1.290916
 30
0.0
 10
0.701745
 20
1.290916
 30
0.0
  0
LINE
  5
152
100
AcDbEntity
  8
Layer_1
 62
1
100
AcDbLine
 10
0.701745
 20
1.290916
 30
0.0
 11
0.701745
 21
1.290916
 31
0.0
  0
SPLINE
  5
153
100
AcDbEntity
  8
Layer_1
 62
1
100
AcDbSpline
 70
8
 71
3
 72
8
 73
4
 74
0
 40
0
 40
0
 40
0
 40
0
 40
1
 40
1
 40
1
 40
1
 10
5.826745
 20
1.290916
 30
0.0
 10
5.863746
 20
1.290916
 30
0.0
 10
5.900747
 20
1.266236
 30
0.0
 10
5.900747
 20
1.216892
 30
0.0
  0
SPLINE
  5
154
100
AcDbEntity
  8
Layer_1
 62
1
100
AcDbSpline
 70
8
 71
3
 72
8
 73
4
 74
0
 40
0
 40
0
 40
0
 40
0
 40
1
 40
1
 40
1
 40
1
 10
5.900747
 20
1.216892
 30
0.0
 10
5.900747
 20
1.118260
 30
0.0
 10
5.752743
 20
1.118260
 30
0.0
 10
5.752743
 20
1.216892
 30
0.0
  0
SPLINE
  5
155
100
AcDbEntity
  8
Layer_1
 62
1
100
AcDbSpline
 70
8
 71
3
 72
8
 73
4
 74
0
 40
0
 40
0
 40
0
 40
0
 40
1
 40
1
 40
1
 40
1
 10
5.752743
 20
1.216892
 30
0.0
 10
5.752743
 20
1.266236
 30
0.0
 10
5.789744
 20
1.290916
 30
0.0
 10
5.826745
 20
1.290916
 30
0.0
  0
LINE
  5
156
100
AcDbEntity
  8
Layer_1
 62
1
100
AcDbLine
 10
5.826745
 20
1.290916
 30
0.0
 11
5.826745
 21
1.290916
 31
0.0
  0
SPLINE
  5
157
100
AcDbEntity
  8
Layer_1
 62
1
100
AcDbSpline
 70
8
 71
3
 72
8
 73
4
 74
0
 40
0
 40
0
 40
0
 40
0
 40
1
 40
1
 40
1
 40
1
 10
10.951745
 20
1.290916
 30
0.0
 10
10.988746
 20
1.290916
 30
0.0
 10
11.025747
 20
1.266236
 30
0.0
 10
11.025747
 20
1.216892
 30
0.0
  0
SPLINE
  5
158
100
AcDbEntity
  8
Layer_1
 62
1
100
AcDbSpline
 70
8
 71
3
 72
8
 73
4
 74
0
 40
0
 40
0
 40
0
 40
0
 40
1
 40
1
 40
1
 40
1
 10
11.025747
 20
1.216892
 30
0.0
 10
11.025747
 20
1.118260
 30
0.0
 10
10.877743
 20
1.118260
 30
0.0
 10
10.877743
 20
1.216892
 30
0.0
  0
SPLINE
  5
159
100
AcDbEntity
  8
Layer_1
 62
1
100
AcDbSpline
 70
8
 71
3
 72
8
 73
4
 74
0
 40
0
 40
0
 40
0
 40
0
 40
1
 40
1
 40
1
 40
1
 10
10.877743
 20
1.216892
 30
0.0
 10
10.877743
 20
1.266236
 30
0.0
 10
10.914744
 20
1.290916
 30
0.0
 10
10.951745
 20
1.290916
 30
0.0
  0
LINE
  5
15a
100
AcDbEntity
  8
Layer_1
 62
1
100
AcDbLine
 10
10.951745
 20
1.290916
 30
0.0
 11
10.951745
 21
1.290916
 31
0.0
  0
LINE
  5
15b
100
AcDbEntity
  8
Layer_1
 62
1
100
AcDbLine
 10
10.492131
 20
1.163160
 30
0.0
 11
10.688702
 21
1.163160
 31
0.0
  0
SPLINE
  5
15c
100
AcDbEntity
  8
Layer_1
 62
1
100
AcDbSpline
 70
8
 71
3
 72
8
 73
4
 74
0
 40
0
 40
0
 40
0
 40
0
 40
1
 40
1
 40
1
 40
1
 10
10.688702
 20
1.163160
 30
0.0
 10
10.699782
 20
1.163160
 30
0.0
 10
10.708689
 20
1.154231
 30
0.0
 10
10.708689
 20
1.143151
 30
0.0
  0
LINE
  5
15d
100
AcDbEntity
  8
Layer_1
 62
1
100
AcDbLine
 10
10.708689
 20
1.143151
 30
0.0
 11
10.708689
 21
1.058168
 31
0.0
  0
LINE
  5
15e
100
AcDbEntity
  8
Layer_1
 62
1
100
AcDbLine
 10
10.708689
 20
1.058168
 30
0.0
 11
10.808299
 21
1.058168
 31
0.0
  0
SPLINE
  5
15f
100
AcDbEntity
  8
Layer_1
 62
1
100
AcDbSpline
 70
8
 71
3
 72
8
 73
4
 74
0
 40
0
 40
0
 40
0
 40
0
 40
1
 40
1
 40
1
 40
1
 10
10.808299
 20
1.058168
 30
0.0
 10
10.819379
 20
1.058168
 30
0.0
 10
10.828286
 20
1.049240
 30
0.0
 10
10.828286
 20
1.038160
 30
0.0
  0
LINE
  5
160
100
AcDbEntity
  8
Layer_1
 62
1
100
AcDbLine
 10
10.828286
 20
1.038160
 30
0.0
 11
10.828286
 21
0.867891
 31
0.0
  0
SPLINE
  5
161
100
AcDbEntity
  8
Layer_1
 62
1
100
AcDbSpline
 70
8
 71
3
 72
8
 73
4
 74
0
 40
0
 40
0
 40
0
 40
0
 40
1
 40
1
 40
1
 40
1
 10
10.828286
 20
0.867891
 30
0.0
 10
10.828286
 20
0.856811
 30
0.0
 10
10.819379
 20
0.847904
 30
0.0
 10
10.808299
 20
0.847904
 30
0.0
  0
LINE
  5
162
100
AcDbEntity
  8
Layer_1
 62
1
100
AcDbLine
 10
10.808299
 20
0.847904
 30
0.0
 11
10.492131
 21
0.847904
 31
0.0
  0
SPLINE
  5
163
100
AcDbEntity
  8
Layer_1
 62
1
100
AcDbSpline
 70
8
 71
3
 72
8
 73
4
 74
0
 40
0
 40
0
 40
0
 40
0
 40
1
 40
1
 40
1
 40
1
 10
10.492131
 20
0.847904
 30
0.0
 10
10.481051
 20
0.847904
 30
0.0
 10
10.472122
 20
0.856811
 30
0.0
 10
10.472122
 20
0.867891
 30
0.0
  0
LINE
  5
164
100
AcDbEntity
  8
Layer_1
 62
1
100
AcDbLine
 10
10.472122
 20
0.867891
 30
0.0
 11
10.472122
 21
1.038160
 31
0.0
  0
SPLINE
  5
165
100
AcDbEntity
  8
Layer_1
 62
1
100
AcDbSpline
 70
8
 71
3
 72
8
 73
4
 74
0
 40
0
 40
0
 40
0
 40
0
 40
1
 40
1
 40
1
 40
1
 10
10.472122
 20
1.038160
 30
0.0
 10
10.472122
 20
1.040208
 30
0.0
 10
10.472510
 20
1.042161
 30
0.0
 10
10.473077
 20
1.044019
 30
0.0
  0
SPLINE
  5
166
100
AcDbEntity
  8
Layer_1
 62
1
100
AcDbSpline
 70
8
 71
3
 72
8
 73
4
 74
0
 40
0
 40
0
 40
0
 40
0
 40
1
 40
1
 40
1
 40
1
 10
10.473077
 20
1.044019
 30
0.0
 10
10.472515
 20
1.045871
 30
0.0
 10
10.472122
 20
1.047816
 30
0.0
 10
10.472122
 20
1.049857
 30
0.0
  0
LINE
  5
167
100
AcDbEntity
  8
Layer_1
 62
1
100
AcDbLine
 10
10.472122
 20
1.049857
 30
0.0
 11
10.472122
 21
1.143151
 31
0.0
  0
SPLINE
  5
168
100
AcDbEntity
  8
Layer_1
 62
1
100
AcDbSpline
 70
8
 71
3
 72
8
 73
4
 74
0
 40
0
 40
0
 40
0
 40
0
 40
1
 40
1
 40
1
 40
1
 10
10.472122
 20
1.143151
 30
0.0
 10
10.472122
 20
1.154231
 30
0.0
 10
10.481051
 20
1.163160
 30
0.0
 10
10.492131
 20
1.163160
 30
0.0
  0
LINE
  5
169
100
AcDbEntity
  8
Layer_1
 62
1
100
AcDbLine
 10
10.492131
 20
1.163160
 30
0.0
 11
10.492131
 21
1.163160
 31
0.0
  0
ENDSEC
  0
SECTION
  2
OBJECTS
  0
DICTIONARY
  5
C
330
0
100
AcDbDictionary
  3
ACAD_GROUP
350
D
  3
ACAD_MLINESTYLE
350
17
  0
DICTIONARY
  5
D
330
C
100
AcDbDictionary
  0
DICTIONARY
  5
1A
330
C
100
AcDbDictionary
  0
DICTIONARY
  5
17
330
C
100
AcDbDictionary
  3
STANDARD
350
18
  0
DICTIONARY
  5
19
330
C
100
AcDbDictionary
  0
ENDSEC
  0
EOF
