  0
SECTION
  2
HEADER
  9
$ACADVER
  1
AC1014
  9
$HANDSEED
  5
FFFF
  9
$MEASUREMENT
 70
     1
  0
ENDSEC
  0
SECTION
  2
TABLES
  0
TABLE
  2
VPORT
  5
8
330
0
100
AcDbSymbolTable
 70
     4
  0
VPORT
  5
2E
330
8
100
AcDbSymbolTableRecord
100
AcDbViewportTableRecord
  2
*ACTIVE
 70
     0
 10
0.0
 20
0.0
 11
1.0
 21
1.0
 12
210.0
 22
148.5
 13
0.0
 23
0.0
 14
10.0
 24
10.0
 15
10.0
 25
10.0
 16
0.0
 26
0.0
 36
1.0
 17
0.0
 27
0.0
 37
0.0
 40
341.0
 41
1.24
 42
50.0
 43
0.0
 44
0.0
 50
0.0
 51
0.0
 71
     0
 72
   100
 73
     1
 74
     3
 75
     0
 76
     0
 77
     0
 78
     0
  0
ENDTAB
  0
TABLE
  2
LTYPE
  5
5
330
0
100
AcDbSymbolTable
 70
     1
  0
LTYPE
  5
14
330
5
100
AcDbSymbolTableRecord
100
AcDbLinetypeTableRecord
  2
BYBLOCK
 70
     0
  3

 72
    65
 73
     0
 40
0.0
  0
LTYPE
  5
15
330
5
100
AcDbSymbolTableRecord
100
AcDbLinetypeTableRecord
  2
BYLAYER
 70
     0
  3

 72
    65
 73
     0
 40
0.0
  0
LTYPE
  5
16
330
5
100
AcDbSymbolTableRecord
100
AcDbLinetypeTableRecord
  2
CONTINUOUS
 70
     0
  3
Solid line
 72
    65
 73
     0
 40
0.0
  0
ENDTAB
  0
TABLE
  2
LAYER
  5
2
100
AcDbSymbolTable
 70
2
  0
LAYER
  5
50
100
AcDbSymbolTableRecord
100
AcDbLayerTableRecord
  2
0
 70
0
  6
CONTINUOUS
  0
LAYER
  5
51
100
AcDbSymbolTableRecord
100
AcDbLayerTableRecord
  2
Layer_1
 70
0
  6
CONTINUOUS
  0
ENDTAB
  0
TABLE
  2
STYLE
  5
3
330
0
100
AcDbSymbolTable
 70
     1
  0
STYLE
  5
11
330
3
100
AcDbSymbolTableRecord
100
AcDbTextStyleTableRecord
  2
STANDARD
 70
     0
 40
0.0
 41
1.0
 50
0.0
 71
     0
 42
2.5
  3
txt
  4

  0
ENDTAB
  0
TABLE
  2
VIEW
  5
6
330
0
100
AcDbSymbolTable
 70
     0
  0
ENDTAB
  0
TABLE
  2
UCS
  5
7
330
0
100
AcDbSymbolTable
 70
     0
  0
ENDTAB
  0
TABLE
  2
APPID
  5
9
330
0
100
AcDbSymbolTable
 70
     2
  0
APPID
  5
12
330
9
100
AcDbSymbolTableRecord
100
AcDbRegAppTableRecord
  2
ACAD
 70
     0
  0
ENDTAB
  0
TABLE
  2
DIMSTYLE
  5
A
330
0
100
AcDbSymbolTable
 70
     1
  0
DIMSTYLE
105
27
330
A
100
AcDbSymbolTableRecord
100
AcDbDimStyleTableRecord
  2
ISO-25
 70
     0
  3

  4

  5

  6

  7

 40
1.0
 41
2.5
 42
0.625
 43
3.75
 44
1.25
 45
0.0
 46
0.0
 47
0.0
 48
0.0
140
2.5
141
2.5
142
0.0
143
0.03937007874016
144
1.0
145
0.0
146
1.0
147
0.625
 71
     0
 72
     0
 73
     0
 74
     0
 75
     0
 76
     0
 77
     1
 78
     8
170
     0
171
     3
172
     1
173
     0
174
     0
175
     0
176
     0
177
     0
178
     0
270
     2
271
     2
272
     2
273
     2
274
     3
340
11
275
     0
280
     0
281
     0
282
     0
283
     0
284
     8
285
     0
286
     0
287
     3
288
     0
  0
ENDTAB
  0
TABLE
  2
BLOCK_RECORD
  5
1
330
0
100
AcDbSymbolTable
 70
     1
  0
BLOCK_RECORD
  5
1F
330
1
100
AcDbSymbolTableRecord
100
AcDbBlockTableRecord
  2
*MODEL_SPACE
  0
BLOCK_RECORD
  5
1B
330
1
100
AcDbSymbolTableRecord
100
AcDbBlockTableRecord
  2
*PAPER_SPACE
  0
ENDTAB
  0
ENDSEC
  0
SECTION
  2
BLOCKS
  0
BLOCK
  5
20
330
1F
100
AcDbEntity
  8
0
100
AcDbBlockBegin
  2
*MODEL_SPACE
 70
     0
 10
0.0
 20
0.0
 30
0.0
  3
*MODEL_SPACE
  1

  0
ENDBLK
  5
21
330
1F
100
AcDbEntity
  8
0
100
AcDbBlockEnd
  0
BLOCK
  5
1C
330
1B
100
AcDbEntity
 67
     1
  8
0
100
AcDbBlockBegin
  2
*PAPER_SPACE
  1

  0
ENDBLK
  5
1D
330
1B
100
AcDbEntity
 67
     1
  8
0
100
AcDbBlockEnd
  0
ENDSEC
  0
SECTION
  2
ENTITIES
  0
LINE
  5
100
100
AcDbEntity
  8
Layer_1
 62
1
100
AcDbLine
 10
7.394379
 20
9.003908
 30
0.0
 11
7.432593
 21
9.003908
 31
0.0
  0
LINE
  5
101
100
AcDbEntity
  8
Layer_1
 62
1
100
AcDbLine
 10
7.432593
 20
9.003908
 30
0.0
 11
7.432593
 21
8.343852
 31
0.0
  0
LINE
  5
102
100
AcDbEntity
  8
Layer_1
 62
1
100
AcDbLine
 10
7.432593
 20
8.343852
 30
0.0
 11
7.394379
 21
8.343852
 31
0.0
  0
LINE
  5
103
100
AcDbEntity
  8
Layer_1
 62
1
100
AcDbLine
 10
7.394379
 20
8.343852
 30
0.0
 11
7.394379
 21
9.003908
 31
0.0
  0
LINE
  5
104
100
AcDbEntity
  8
Layer_1
 62
1
100
AcDbLine
 10
8.974822
 20
9.003908
 30
0.0
 11
9.013036
 21
9.003908
 31
0.0
  0
LINE
  5
105
100
AcDbEntity
  8
Layer_1
 62
1
100
AcDbLine
 10
9.013036
 20
9.003908
 30
0.0
 11
9.013036
 21
8.343852
 31
0.0
  0
LINE
  5
106
100
AcDbEntity
  8
Layer_1
 62
1
100
AcDbLine
 10
9.013036
 20
8.343852
 30
0.0
 11
8.974822
 21
8.343852
 31
0.0
  0
LINE
  5
107
100
AcDbEntity
  8
Layer_1
 62
1
100
AcDbLine
 10
8.974822
 20
8.343852
 30
0.0
 11
8.974822
 21
9.003908
 31
0.0
  0
LINE
  5
108
100
AcDbEntity
  8
Layer_1
 62
1
100
AcDbLine
 10
8.855187
 20
8.210104
 30
0.0
 11
8.855187
 21
8.171890
 31
0.0
  0
LINE
  5
109
100
AcDbEntity
  8
Layer_1
 62
1
100
AcDbLine
 10
8.855187
 20
8.171890
 30
0.0
 11
7.555918
 21
8.171890
 31
0.0
  0
LINE
  5
10a
100
AcDbEntity
  8
Layer_1
 62
1
100
AcDbLine
 10
7.555918
 20
8.171890
 30
0.0
 11
7.555918
 21
8.210104
 31
0.0
  0
LINE
  5
10b
100
AcDbEntity
  8
Layer_1
 62
1
100
AcDbLine
 10
7.555918
 20
8.210104
 30
0.0
 11
8.855187
 21
8.210104
 31
0.0
  0
SPLINE
  5
10c
100
AcDbEntity
  8
Layer_1
 62
1
100
AcDbSpline
 70
8
 71
3
 72
8
 73
4
 74
0
 40
0
 40
0
 40
0
 40
0
 40
1
 40
1
 40
1
 40
1
 10
26.755644
 20
6.938058
 30
0.0
 10
26.727501
 20
6.938058
 30
0.0
 10
26.704821
 20
6.915434
 30
0.0
 10
26.704821
 20
6.887291
 30
0.0
  0
LINE
  5
10d
100
AcDbEntity
  8
Layer_1
 62
1
100
AcDbLine
 10
26.704821
 20
6.887291
 30
0.0
 11
26.704821
 21
6.631417
 31
0.0
  0
LINE
  5
10e
100
AcDbEntity
  8
Layer_1
 62
1
100
AcDbLine
 10
26.704821
 20
6.631417
 30
0.0
 11
25.555042
 21
6.631417
 31
0.0
  0
SPLINE
  5
10f
100
AcDbEntity
  8
Layer_1
 62
1
100
AcDbSpline
 70
8
 71
3
 72
8
 73
4
 74
0
 40
0
 40
0
 40
0
 40
0
 40
1
 40
1
 40
1
 40
1
 10
25.555042
 20
6.631417
 30
0.0
 10
25.526898
 20
6.631417
 30
0.0
 10
25.504220
 20
6.608738
 30
0.0
 10
25.504220
 20
6.580595
 30
0.0
  0
LINE
  5
110
100
AcDbEntity
  8
Layer_1
 62
1
100
AcDbLine
 10
25.504220
 20
6.580595
 30
0.0
 11
25.504220
 21
6.504527
 31
0.0
  0
LINE
  5
111
100
AcDbEntity
  8
Layer_1
 62
1
100
AcDbLine
 10
25.504220
 20
6.504527
 30
0.0
 11
25.504220
 21
6.280734
 31
0.0
  0
LINE
  5
112
100
AcDbEntity
  8
Layer_1
 62
1
100
AcDbLine
 10
25.504220
 20
6.280734
 30
0.0
 11
25.504220
 21
6.204666
 31
0.0
  0
SPLINE
  5
113
100
AcDbEntity
  8
Layer_1
 62
1
100
AcDbSpline
 70
8
 71
3
 72
8
 73
4
 74
0
 40
0
 40
0
 40
0
 40
0
 40
1
 40
1
 40
1
 40
1
 10
25.504220
 20
6.204666
 30
0.0
 10
25.504220
 20
6.176523
 30
0.0
 10
25.526898
 20
6.153899
 30
0.0
 10
25.555042
 20
6.153899
 30
0.0
  0
LINE
  5
114
100
AcDbEntity
  8
Layer_1
 62
1
100
AcDbLine
 10
25.555042
 20
6.153899
 30
0.0
 11
28.877326
 21
6.153899
 31
0.0
  0
SPLINE
  5
115
100
AcDbEntity
  8
Layer_1
 62
1
100
AcDbSpline
 70
8
 71
3
 72
8
 73
4
 74
0
 40
0
 40
0
 40
0
 40
0
 40
1
 40
1
 40
1
 40
1
 10
28.877326
 20
6.153899
 30
0.0
 10
28.905470
 20
6.153899
 30
0.0
 10
28.928149
 20
6.176523
 30
0.0
 10
28.928149
 20
6.204666
 30
0.0
  0
LINE
  5
116
100
AcDbEntity
  8
Layer_1
 62
1
100
AcDbLine
 10
28.928149
 20
6.204666
 30
0.0
 11
28.928149
 21
6.280734
 31
0.0
  0
LINE
  5
117
100
AcDbEntity
  8
Layer_1
 62
1
100
AcDbLine
 10
28.928149
 20
6.280734
 30
0.0
 11
28.928149
 21
6.504527
 31
0.0
  0
LINE
  5
118
100
AcDbEntity
  8
Layer_1
 62
1
100
AcDbLine
 10
28.928149
 20
6.504527
 30
0.0
 11
28.928149
 21
6.580595
 31
0.0
  0
SPLINE
  5
119
100
AcDbEntity
  8
Layer_1
 62
1
100
AcDbSpline
 70
8
 71
3
 72
8
 73
4
 74
0
 40
0
 40
0
 40
0
 40
0
 40
1
 40
1
 40
1
 40
1
 10
28.928149
 20
6.580595
 30
0.0
 10
28.928149
 20
6.608738
 30
0.0
 10
28.905470
 20
6.631417
 30
0.0
 10
28.877326
 20
6.631417
 30
0.0
  0
LINE
  5
11a
100
AcDbEntity
  8
Layer_1
 62
1
100
AcDbLine
 10
28.877326
 20
6.631417
 30
0.0
 11
27.571112
 21
6.631417
 31
0.0
  0
LINE
  5
11b
100
AcDbEntity
  8
Layer_1
 62
1
100
AcDbLine
 10
27.571112
 20
6.631417
 30
0.0
 11
27.571112
 21
6.887291
 31
0.0
  0
SPLINE
  5
11c
100
AcDbEntity
  8
Layer_1
 62
1
100
AcDbSpline
 70
8
 71
3
 72
8
 73
4
 74
0
 40
0
 40
0
 40
0
 40
0
 40
1
 40
1
 40
1
 40
1
 10
27.571112
 20
6.887291
 30
0.0
 10
27.571112
 20
6.915434
 30
0.0
 10
27.548433
 20
6.938058
 30
0.0
 10
27.520290
 20
6.938058
 30
0.0
  0
LINE
  5
11d
100
AcDbEntity
  8
Layer_1
 62
1
100
AcDbLine
 10
27.520290
 20
6.938058
 30
0.0
 11
26.755644
 21
6.938058
 31
0.0
  0
LINE
  5
11e
100
AcDbEntity
  8
Layer_1
 62
1
100
AcDbLine
 10
26.755644
 20
6.938058
 30
0.0
 11
26.755644
 21
6.938058
 31
0.0
  0
SPLINE
  5
11f
100
AcDbEntity
  8
Layer_1
 62
1
100
AcDbSpline
 70
8
 71
3
 72
8
 73
4
 74
0
 40
0
 40
0
 40
0
 40
0
 40
1
 40
1
 40
1
 40
1
 10
24.489983
 20
6.147946
 30
0.0
 10
24.461840
 20
6.147946
 30
0.0
 10
24.439161
 20
6.125267
 30
0.0
 10
24.439161
 20
6.097124
 30
0.0
  0
LINE
  5
120
100
AcDbEntity
  8
Layer_1
 62
1
100
AcDbLine
 10
24.439161
 20
6.097124
 30
0.0
 11
24.439161
 21
5.830777
 31
0.0
  0
LINE
  5
121
100
AcDbEntity
  8
Layer_1
 62
1
100
AcDbLine
 10
24.439161
 20
5.830777
 30
0.0
 11
23.495867
 21
5.830777
 31
0.0
  0
SPLINE
  5
122
100
AcDbEntity
  8
Layer_1
 62
1
100
AcDbSpline
 70
8
 71
3
 72
8
 73
4
 74
0
 40
0
 40
0
 40
0
 40
0
 40
1
 40
1
 40
1
 40
1
 10
23.495867
 20
5.830777
 30
0.0
 10
23.467724
 20
5.830777
 30
0.0
 10
23.445045
 20
5.808153
 30
0.0
 10
23.445045
 20
5.780010
 30
0.0
  0
LINE
  5
123
100
AcDbEntity
  8
Layer_1
 62
1
100
AcDbLine
 10
23.445045
 20
5.780010
 30
0.0
 11
23.445045
 21
5.703942
 31
0.0
  0
LINE
  5
124
100
AcDbEntity
  8
Layer_1
 62
1
100
AcDbLine
 10
23.445045
 20
5.703942
 30
0.0
 11
23.445045
 21
5.480093
 31
0.0
  0
LINE
  5
125
100
AcDbEntity
  8
Layer_1
 62
1
100
AcDbLine
 10
23.445045
 20
5.480093
 30
0.0
 11
23.445045
 21
5.404081
 31
0.0
  0
SPLINE
  5
126
100
AcDbEntity
  8
Layer_1
 62
1
100
AcDbSpline
 70
8
 71
3
 72
8
 73
4
 74
0
 40
0
 40
0
 40
0
 40
0
 40
1
 40
1
 40
1
 40
1
 10
23.445045
 20
5.404081
 30
0.0
 10
23.445045
 20
5.375938
 30
0.0
 10
23.467724
 20
5.353259
 30
0.0
 10
23.495867
 20
5.353259
 30
0.0
  0
LINE
  5
127
100
AcDbEntity
  8
Layer_1
 62
1
100
AcDbLine
 10
23.495867
 20
5.353259
 30
0.0
 11
26.251778
 21
5.353259
 31
0.0
  0
SPLINE
  5
128
100
AcDbEntity
  8
Layer_1
 62
1
100
AcDbSpline
 70
8
 71
3
 72
8
 73
4
 74
0
 40
0
 40
0
 40
0
 40
0
 40
1
 40
1
 40
1
 40
1
 10
26.251778
 20
5.353259
 30
0.0
 10
26.279921
 20
5.353259
 30
0.0
 10
26.302545
 20
5.375938
 30
0.0
 10
26.302545
 20
5.404081
 30
0.0
  0
LINE
  5
129
100
AcDbEntity
  8
Layer_1
 62
1
100
AcDbLine
 10
26.302545
 20
5.404081
 30
0.0
 11
26.302545
 21
5.480093
 31
0.0
  0
LINE
  5
12a
100
AcDbEntity
  8
Layer_1
 62
1
100
AcDbLine
 10
26.302545
 20
5.480093
 30
0.0
 11
26.302545
 21
5.703942
 31
0.0
  0
LINE
  5
12b
100
AcDbEntity
  8
Layer_1
 62
1
100
AcDbLine
 10
26.302545
 20
5.703942
 30
0.0
 11
26.302545
 21
5.780010
 31
0.0
  0
SPLINE
  5
12c
100
AcDbEntity
  8
Layer_1
 62
1
100
AcDbSpline
 70
8
 71
3
 72
8
 73
4
 74
0
 40
0
 40
0
 40
0
 40
0
 40
1
 40
1
 40
1
 40
1
 10
26.302545
 20
5.780010
 30
0.0
 10
26.302545
 20
5.808153
 30
0.0
 10
26.279921
 20
5.830777
 30
0.0
 10
26.251778
 20
5.830777
 30
0.0
  0
LINE
  5
12d
100
AcDbEntity
  8
Layer_1
 62
1
100
AcDbLine
 10
26.251778
 20
5.830777
 30
0.0
 11
25.324468
 21
5.830777
 31
0.0
  0
LINE
  5
12e
100
AcDbEntity
  8
Layer_1
 62
1
100
AcDbLine
 10
25.324468
 20
5.830777
 30
0.0
 11
25.324468
 21
6.097124
 31
0.0
  0
SPLINE
  5
12f
100
AcDbEntity
  8
Layer_1
 62
1
100
AcDbSpline
 70
8
 71
3
 72
8
 73
4
 74
0
 40
0
 40
0
 40
0
 40
0
 40
1
 40
1
 40
1
 40
1
 10
25.324468
 20
6.097124
 30
0.0
 10
25.324468
 20
6.125267
 30
0.0
 10
25.301845
 20
6.147946
 30
0.0
 10
25.273701
 20
6.147946
 30
0.0
  0
LINE
  5
130
100
AcDbEntity
  8
Layer_1
 62
1
100
AcDbLine
 10
25.273701
 20
6.147946
 30
0.0
 11
24.489983
 21
6.147946
 31
0.0
  0
LINE
  5
131
100
AcDbEntity
  8
Layer_1
 62
1
100
AcDbLine
 10
24.489983
 20
6.147946
 30
0.0
 11
24.489983
 21
6.147946
 31
0.0
  0
SPLINE
  5
132
100
AcDbEntity
  8
Layer_1
 62
1
100
AcDbSpline
 70
8
 71
3
 72
8
 73
4
 74
0
 40
0
 40
0
 40
0
 40
0
 40
1
 40
1
 40
1
 40
1
 10
20.586994
 20
6.186035
 30
0.0
 10
20.558850
 20
6.186035
 30
0.0
 10
20.536171
 20
6.163356
 30
0.0
 10
20.536171
 20
6.135213
 30
0.0
  0
LINE
  5
133
100
AcDbEntity
  8
Layer_1
 62
1
100
AcDbLine
 10
20.536171
 20
6.135213
 30
0.0
 11
20.536171
 21
5.838053
 31
0.0
  0
LINE
  5
134
100
AcDbEntity
  8
Layer_1
 62
1
100
AcDbLine
 10
20.536171
 20
5.838053
 30
0.0
 11
19.354201
 21
5.838053
 31
0.0
  0
SPLINE
  5
135
100
AcDbEntity
  8
Layer_1
 62
1
100
AcDbSpline
 70
8
 71
3
 72
8
 73
4
 74
0
 40
0
 40
0
 40
0
 40
0
 40
1
 40
1
 40
1
 40
1
 10
19.354201
 20
5.838053
 30
0.0
 10
19.326057
 20
5.838053
 30
0.0
 10
19.303378
 20
5.815374
 30
0.0
 10
19.303378
 20
5.787231
 30
0.0
  0
LINE
  5
136
100
AcDbEntity
  8
Layer_1
 62
1
100
AcDbLine
 10
19.303378
 20
5.787231
 30
0.0
 11
19.303378
 21
5.711218
 31
0.0
  0
LINE
  5
137
100
AcDbEntity
  8
Layer_1
 62
1
100
AcDbLine
 10
19.303378
 20
5.711218
 30
0.0
 11
19.303378
 21
5.487369
 31
0.0
  0
LINE
  5
138
100
AcDbEntity
  8
Layer_1
 62
1
100
AcDbLine
 10
19.303378
 20
5.487369
 30
0.0
 11
19.303378
 21
5.411357
 31
0.0
  0
SPLINE
  5
139
100
AcDbEntity
  8
Layer_1
 62
1
100
AcDbSpline
 70
8
 71
3
 72
8
 73
4
 74
0
 40
0
 40
0
 40
0
 40
0
 40
1
 40
1
 40
1
 40
1
 10
19.303378
 20
5.411357
 30
0.0
 10
19.303378
 20
5.383214
 30
0.0
 10
19.326057
 20
5.360535
 30
0.0
 10
19.354201
 20
5.360535
 30
0.0
  0
LINE
  5
13a
100
AcDbEntity
  8
Layer_1
 62
1
100
AcDbLine
 10
19.354201
 20
5.360535
 30
0.0
 11
22.640932
 21
5.360535
 31
0.0
  0
SPLINE
  5
13b
100
AcDbEntity
  8
Layer_1
 62
1
100
AcDbSpline
 70
8
 71
3
 72
8
 73
4
 74
0
 40
0
 40
0
 40
0
 40
0
 40
1
 40
1
 40
1
 40
1
 10
22.640932
 20
5.360535
 30
0.0
 10
22.669075
 20
5.360535
 30
0.0
 10
22.691754
 20
5.383214
 30
0.0
 10
22.691754
 20
5.411357
 30
0.0
  0
LINE
  5
13c
100
AcDbEntity
  8
Layer_1
 62
1
100
AcDbLine
 10
22.691754
 20
5.411357
 30
0.0
 11
22.691754
 21
5.487369
 31
0.0
  0
LINE
  5
13d
100
AcDbEntity
  8
Layer_1
 62
1
100
AcDbLine
 10
22.691754
 20
5.487369
 30
0.0
 11
22.691754
 21
5.711218
 31
0.0
  0
LINE
  5
13e
100
AcDbEntity
  8
Layer_1
 62
1
100
AcDbLine
 10
22.691754
 20
5.711218
 30
0.0
 11
22.691754
 21
5.787231
 31
0.0
  0
SPLINE
  5
13f
100
AcDbEntity
  8
Layer_1
 62
1
100
AcDbSpline
 70
8
 71
3
 72
8
 73
4
 74
0
 40
0
 40
0
 40
0
 40
0
 40
1
 40
1
 40
1
 40
1
 10
22.691754
 20
5.787231
 30
0.0
 10
22.691754
 20
5.815374
 30
0.0
 10
22.669075
 20
5.838053
 30
0.0
 10
22.640932
 20
5.838053
 30
0.0
  0
LINE
  5
140
100
AcDbEntity
  8
Layer_1
 62
1
100
AcDbLine
 10
22.640932
 20
5.838053
 30
0.0
 11
21.431014
 21
5.838053
 31
0.0
  0
LINE
  5
141
100
AcDbEntity
  8
Layer_1
 62
1
100
AcDbLine
 10
21.431014
 20
5.838053
 30
0.0
 11
21.431014
 21
6.135213
 31
0.0
  0
SPLINE
  5
142
100
AcDbEntity
  8
Layer_1
 62
1
100
AcDbSpline
 70
8
 71
3
 72
8
 73
4
 74
0
 40
0
 40
0
 40
0
 40
0
 40
1
 40
1
 40
1
 40
1
 10
21.431014
 20
6.135213
 30
0.0
 10
21.431014
 20
6.163356
 30
0.0
 10
21.408391
 20
6.186035
 30
0.0
 10
21.380247
 20
6.186035
 30
0.0
  0
LINE
  5
143
100
AcDbEntity
  8
Layer_1
 62
1
100
AcDbLine
 10
21.380247
 20
6.186035
 30
0.0
 11
20.586994
 21
6.186035
 31
0.0
  0
LINE
  5
144
100
AcDbEntity
  8
Layer_1
 62
1
100
AcDbLine
 10
20.586994
 20
6.186035
 30
0.0
 11
20.586994
 21
6.186035
 31
0.0
  0
SPLINE
  5
145
100
AcDbEntity
  8
Layer_1
 62
7
100
AcDbSpline
 70
8
 71
3
 72
8
 73
4
 74
0
 40
0
 40
0
 40
0
 40
0
 40
1
 40
1
 40
1
 40
1
 10
2.076903
 20
7.434585
 30
0.0
 10
2.076903
 20
7.685250
 30
0.0
 10
1.700975
 20
7.685250
 30
0.0
 10
1.700975
 20
7.434585
 30
0.0
  0
SPLINE
  5
146
100
AcDbEntity
  8
Layer_1
 62
7
100
AcDbSpline
 70
8
 71
3
 72
8
 73
4
 74
0
 40
0
 40
0
 40
0
 40
0
 40
1
 40
1
 40
1
 40
1
 10
1.700975
 20
7.434585
 30
0.0
 10
1.700975
 20
7.183920
 30
0.0
 10
2.076903
 20
7.183920
 30
0.0
 10
2.076903
 20
7.434585
 30
0.0
  0
SPLINE
  5
147
100
AcDbEntity
  8
Layer_1
 62
7
100
AcDbSpline
 70
8
 71
3
 72
8
 73
4
 74
0
 40
0
 40
0
 40
0
 40
0
 40
1
 40
1
 40
1
 40
1
 10
2.076903
 20
5.554941
 30
0.0
 10
2.076903
 20
5.805606
 30
0.0
 10
1.700975
 20
5.805606
 30
0.0
 10
1.700975
 20
5.554941
 30
0.0
  0
SPLINE
  5
148
100
AcDbEntity
  8
Layer_1
 62
7
100
AcDbSpline
 70
8
 71
3
 72
8
 73
4
 74
0
 40
0
 40
0
 40
0
 40
0
 40
1
 40
1
 40
1
 40
1
 10
1.700975
 20
5.554941
 30
0.0
 10
1.700975
 20
5.304414
 30
0.0
 10
2.076903
 20
5.304414
 30
0.0
 10
2.076903
 20
5.554941
 30
0.0
  0
SPLINE
  5
149
100
AcDbEntity
  8
Layer_1
 62
7
100
AcDbSpline
 70
8
 71
3
 72
8
 73
4
 74
0
 40
0
 40
0
 40
0
 40
0
 40
1
 40
1
 40
1
 40
1
 10
15.094403
 20
7.434585
 30
0.0
 10
15.094403
 20
7.685250
 30
0.0
 10
14.718474
 20
7.685250
 30
0.0
 10
14.718474
 20
7.434585
 30
0.0
  0
SPLINE
  5
14a
100
AcDbEntity
  8
Layer_1
 62
7
100
AcDbSpline
 70
8
 71
3
 72
8
 73
4
 74
0
 40
0
 40
0
 40
0
 40
0
 40
1
 40
1
 40
1
 40
1
 10
14.718474
 20
7.434585
 30
0.0
 10
14.718474
 20
7.183920
 30
0.0
 10
15.094403
 20
7.183920
 30
0.0
 10
15.094403
 20
7.434585
 30
0.0
  0
SPLINE
  5
14b
100
AcDbEntity
  8
Layer_1
 62
7
100
AcDbSpline
 70
8
 71
3
 72
8
 73
4
 74
0
 40
0
 40
0
 40
0
 40
0
 40
1
 40
1
 40
1
 40
1
 10
15.094403
 20
5.554941
 30
0.0
 10
15.094403
 20
5.805606
 30
0.0
 10
14.718474
 20
5.805606
 30
0.0
 10
14.718474
 20
5.554941
 30
0.0
  0
SPLINE
  5
14c
100
AcDbEntity
  8
Layer_1
 62
7
100
AcDbSpline
 70
8
 71
3
 72
8
 73
4
 74
0
 40
0
 40
0
 40
0
 40
0
 40
1
 40
1
 40
1
 40
1
 10
14.718474
 20
5.554941
 30
0.0
 10
14.718474
 20
5.304414
 30
0.0
 10
15.094403
 20
5.304414
 30
0.0
 10
15.094403
 20
5.554941
 30
0.0
  0
SPLINE
  5
14d
100
AcDbEntity
  8
Layer_1
 62
7
100
AcDbSpline
 70
8
 71
3
 72
8
 73
4
 74
0
 40
0
 40
0
 40
0
 40
0
 40
1
 40
1
 40
1
 40
1
 10
28.111903
 20
7.434585
 30
0.0
 10
28.111903
 20
7.685250
 30
0.0
 10
27.735975
 20
7.685250
 30
0.0
 10
27.735975
 20
7.434585
 30
0.0
  0
SPLINE
  5
14e
100
AcDbEntity
  8
Layer_1
 62
7
100
AcDbSpline
 70
8
 71
3
 72
8
 73
4
 74
0
 40
0
 40
0
 40
0
 40
0
 40
1
 40
1
 40
1
 40
1
 10
27.735975
 20
7.434585
 30
0.0
 10
27.735975
 20
7.183920
 30
0.0
 10
28.111903
 20
7.183920
 30
0.0
 10
28.111903
 20
7.434585
 30
0.0
  0
SPLINE
  5
14f
100
AcDbEntity
  8
Layer_1
 62
7
100
AcDbSpline
 70
8
 71
3
 72
8
 73
4
 74
0
 40
0
 40
0
 40
0
 40
0
 40
1
 40
1
 40
1
 40
1
 10
28.111903
 20
5.554941
 30
0.0
 10
28.111903
 20
5.805606
 30
0.0
 10
27.735975
 20
5.805606
 30
0.0
 10
27.735975
 20
5.554941
 30
0.0
  0
SPLINE
  5
150
100
AcDbEntity
  8
Layer_1
 62
7
100
AcDbSpline
 70
8
 71
3
 72
8
 73
4
 74
0
 40
0
 40
0
 40
0
 40
0
 40
1
 40
1
 40
1
 40
1
 10
27.735975
 20
5.554941
 30
0.0
 10
27.735975
 20
5.304414
 30
0.0
 10
28.111903
 20
5.304414
 30
0.0
 10
28.111903
 20
5.554941
 30
0.0
  0
SPLINE
  5
151
100
AcDbEntity
  8
Layer_1
 62
7
100
AcDbSpline
 70
8
 71
3
 72
8
 73
4
 74
0
 40
0
 40
0
 40
0
 40
0
 40
1
 40
1
 40
1
 40
1
 10
9.028829
 20
7.508311
 30
0.0
 10
9.028829
 20
7.178545
 30
0.0
 10
9.296032
 20
6.911345
 30
0.0
 10
9.625795
 20
6.911345
 30
0.0
  0
SPLINE
  5
152
100
AcDbEntity
  8
Layer_1
 62
7
100
AcDbSpline
 70
8
 71
3
 72
8
 73
4
 74
0
 40
0
 40
0
 40
0
 40
0
 40
1
 40
1
 40
1
 40
1
 10
9.625795
 20
6.911345
 30
0.0
 10
9.955424
 20
6.911345
 30
0.0
 10
10.222624
 20
7.178545
 30
0.0
 10
10.222624
 20
7.508311
 30
0.0
  0
SPLINE
  5
153
100
AcDbEntity
  8
Layer_1
 62
7
100
AcDbSpline
 70
8
 71
3
 72
8
 73
4
 74
0
 40
0
 40
0
 40
0
 40
0
 40
1
 40
1
 40
1
 40
1
 10
10.222624
 20
7.508311
 30
0.0
 10
10.222624
 20
7.837937
 30
0.0
 10
9.955424
 20
8.105139
 30
0.0
 10
9.625795
 20
8.105139
 30
0.0
  0
SPLINE
  5
154
100
AcDbEntity
  8
Layer_1
 62
7
100
AcDbSpline
 70
8
 71
3
 72
8
 73
4
 74
0
 40
0
 40
0
 40
0
 40
0
 40
1
 40
1
 40
1
 40
1
 10
9.625795
 20
8.105139
 30
0.0
 10
9.296032
 20
8.105139
 30
0.0
 10
9.028829
 20
7.837937
 30
0.0
 10
9.028829
 20
7.508311
 30
0.0
  0
LINE
  5
155
100
AcDbEntity
  8
Layer_1
 62
1
100
AcDbLine
 10
15.687513
 20
8.409068
 30
0.0
 11
20.845308
 21
8.409068
 31
0.0
  0
LINE
  5
156
100
AcDbEntity
  8
Layer_1
 62
1
100
AcDbLine
 10
20.845308
 20
8.409068
 30
0.0
 11
20.845308
 21
7.235340
 31
0.0
  0
LINE
  5
157
100
AcDbEntity
  8
Layer_1
 62
1
100
AcDbLine
 10
20.845308
 20
7.235340
 30
0.0
 11
15.687513
 21
7.235340
 31
0.0
  0
LINE
  5
158
100
AcDbEntity
  8
Layer_1
 62
1
100
AcDbLine
 10
15.687513
 20
7.235340
 30
0.0
 11
15.687513
 21
8.409068
 31
0.0
  0
SPLINE
  5
159
100
AcDbEntity
  8
Layer_1
 62
1
100
AcDbSpline
 70
8
 71
3
 72
8
 73
4
 74
0
 40
0
 40
0
 40
0
 40
0
 40
1
 40
1
 40
1
 40
1
 10
1.670167
 20
6.527954
 30
0.0
 10
1.642024
 20
6.527954
 30
0.0
 10
1.619345
 20
6.505275
 30
0.0
 10
1.619345
 20
6.477132
 30
0.0
  0
LINE
  5
15a
100
AcDbEntity
  8
Layer_1
 62
1
100
AcDbLine
 10
1.619345
 20
6.477132
 30
0.0
 11
1.619345
 21
6.390095
 31
0.0
  0
LINE
  5
15b
100
AcDbEntity
  8
Layer_1
 62
1
100
AcDbLine
 10
1.619345
 20
6.390095
 30
0.0
 11
1.086981
 21
6.390095
 31
0.0
  0
SPLINE
  5
15c
100
AcDbEntity
  8
Layer_1
 62
1
100
AcDbSpline
 70
8
 71
3
 72
8
 73
4
 74
0
 40
0
 40
0
 40
0
 40
0
 40
1
 40
1
 40
1
 40
1
 10
1.086981
 20
6.390095
 30
0.0
 10
1.058838
 20
6.390095
 30
0.0
 10
1.036159
 20
6.367471
 30
0.0
 10
1.036159
 20
6.339328
 30
0.0
  0
LINE
  5
15d
100
AcDbEntity
  8
Layer_1
 62
1
100
AcDbLine
 10
1.036159
 20
6.339328
 30
0.0
 11
1.036159
 21
6.263260
 31
0.0
  0
LINE
  5
15e
100
AcDbEntity
  8
Layer_1
 62
1
100
AcDbLine
 10
1.036159
 20
6.263260
 30
0.0
 11
1.036159
 21
6.039412
 31
0.0
  0
LINE
  5
15f
100
AcDbEntity
  8
Layer_1
 62
1
100
AcDbLine
 10
1.036159
 20
6.039412
 30
0.0
 11
1.036159
 21
5.963399
 31
0.0
  0
SPLINE
  5
160
100
AcDbEntity
  8
Layer_1
 62
1
100
AcDbSpline
 70
8
 71
3
 72
8
 73
4
 74
0
 40
0
 40
0
 40
0
 40
0
 40
1
 40
1
 40
1
 40
1
 10
1.036159
 20
5.963399
 30
0.0
 10
1.036159
 20
5.935256
 30
0.0
 10
1.058838
 20
5.912577
 30
0.0
 10
1.086981
 20
5.912577
 30
0.0
  0
LINE
  5
161
100
AcDbEntity
  8
Layer_1
 62
1
100
AcDbLine
 10
1.086981
 20
5.912577
 30
0.0
 11
2.610981
 21
5.912577
 31
0.0
  0
SPLINE
  5
162
100
AcDbEntity
  8
Layer_1
 62
1
100
AcDbSpline
 70
8
 71
3
 72
8
 73
4
 74
0
 40
0
 40
0
 40
0
 40
0
 40
1
 40
1
 40
1
 40
1
 10
2.610981
 20
5.912577
 30
0.0
 10
2.639125
 20
5.912577
 30
0.0
 10
2.661748
 20
5.935256
 30
0.0
 10
2.661748
 20
5.963399
 30
0.0
  0
LINE
  5
163
100
AcDbEntity
  8
Layer_1
 62
1
100
AcDbLine
 10
2.661748
 20
5.963399
 30
0.0
 11
2.661748
 21
6.039412
 31
0.0
  0
LINE
  5
164
100
AcDbEntity
  8
Layer_1
 62
1
100
AcDbLine
 10
2.661748
 20
6.039412
 30
0.0
 11
2.661748
 21
6.263260
 31
0.0
  0
LINE
  5
165
100
AcDbEntity
  8
Layer_1
 62
1
100
AcDbLine
 10
2.661748
 20
6.263260
 30
0.0
 11
2.661748
 21
6.339328
 31
0.0
  0
SPLINE
  5
166
100
AcDbEntity
  8
Layer_1
 62
1
100
AcDbSpline
 70
8
 71
3
 72
8
 73
4
 74
0
 40
0
 40
0
 40
0
 40
0
 40
1
 40
1
 40
1
 40
1
 10
2.661748
 20
6.339328
 30
0.0
 10
2.661748
 20
6.367471
 30
0.0
 10
2.639125
 20
6.390095
 30
0.0
 10
2.610981
 20
6.390095
 30
0.0
  0
LINE
  5
167
100
AcDbEntity
  8
Layer_1
 62
1
100
AcDbLine
 10
2.610981
 20
6.390095
 30
0.0
 11
2.089201
 21
6.390095
 31
0.0
  0
LINE
  5
168
100
AcDbEntity
  8
Layer_1
 62
1
100
AcDbLine
 10
2.089201
 20
6.390095
 30
0.0
 11
2.089201
 21
6.477132
 31
0.0
  0
SPLINE
  5
169
100
AcDbEntity
  8
Layer_1
 62
1
100
AcDbSpline
 70
8
 71
3
 72
8
 73
4
 74
0
 40
0
 40
0
 40
0
 40
0
 40
1
 40
1
 40
1
 40
1
 10
2.089201
 20
6.477132
 30
0.0
 10
2.089201
 20
6.505275
 30
0.0
 10
2.066522
 20
6.527954
 30
0.0
 10
2.038379
 20
6.527954
 30
0.0
  0
LINE
  5
16a
100
AcDbEntity
  8
Layer_1
 62
1
100
AcDbLine
 10
2.038379
 20
6.527954
 30
0.0
 11
1.670167
 21
6.527954
 31
0.0
  0
LINE
  5
16b
100
AcDbEntity
  8
Layer_1
 62
1
100
AcDbLine
 10
1.670167
 20
6.527954
 30
0.0
 11
1.670167
 21
6.527954
 31
0.0
  0
LINE
  5
16c
100
AcDbEntity
  8
Layer_1
 62
1
100
AcDbLine
 10
0.683679
 20
9.147757
 30
0.0
 11
29.131679
 21
9.147757
 31
0.0
  0
LINE
  5
16d
100
AcDbEntity
  8
Layer_1
 62
1
100
AcDbLine
 10
29.131679
 20
9.147757
 30
0.0
 11
29.131679
 21
4.321757
 31
0.0
  0
LINE
  5
16e
100
AcDbEntity
  8
Layer_1
 62
1
100
AcDbLine
 10
29.131679
 20
4.321757
 30
0.0
 11
0.683679
 21
4.321757
 31
0.0
  0
LINE
  5
16f
100
AcDbEntity
  8
Layer_1
 62
1
100
AcDbLine
 10
0.683679
 20
4.321757
 30
0.0
 11
0.683679
 21
9.147757
 31
0.0
  0
LINE
  5
170
100
AcDbEntity
  8
Layer_1
 62
1
100
AcDbLine
 10
19.333285
 20
6.260836
 30
0.0
 11
19.380882
 21
6.260836
 31
0.0
  0
LINE
  5
171
100
AcDbEntity
  8
Layer_1
 62
1
100
AcDbLine
 10
19.380882
 20
6.260836
 30
0.0
 11
19.380882
 21
5.994291
 31
0.0
  0
LINE
  5
172
100
AcDbEntity
  8
Layer_1
 62
1
100
AcDbLine
 10
19.380882
 20
5.994291
 30
0.0
 11
19.333285
 21
5.994291
 31
0.0
  0
LINE
  5
173
100
AcDbEntity
  8
Layer_1
 62
1
100
AcDbLine
 10
19.333285
 20
5.994291
 30
0.0
 11
19.333285
 21
6.260836
 31
0.0
  0
LINE
  5
174
100
AcDbEntity
  8
Layer_1
 62
1
100
AcDbLine
 10
23.488535
 20
6.213912
 30
0.0
 11
23.536132
 21
6.213912
 31
0.0
  0
LINE
  5
175
100
AcDbEntity
  8
Layer_1
 62
1
100
AcDbLine
 10
23.536132
 20
6.213912
 30
0.0
 11
23.536132
 21
5.947367
 31
0.0
  0
LINE
  5
176
100
AcDbEntity
  8
Layer_1
 62
1
100
AcDbLine
 10
23.536132
 20
5.947367
 30
0.0
 11
23.488535
 21
5.947367
 31
0.0
  0
LINE
  5
177
100
AcDbEntity
  8
Layer_1
 62
1
100
AcDbLine
 10
23.488535
 20
5.947367
 30
0.0
 11
23.488535
 21
6.213912
 31
0.0
  0
LINE
  5
178
100
AcDbEntity
  8
Layer_1
 62
1
100
AcDbLine
 10
25.563774
 20
7.012875
 30
0.0
 11
25.611372
 21
7.012875
 31
0.0
  0
LINE
  5
179
100
AcDbEntity
  8
Layer_1
 62
1
100
AcDbLine
 10
25.611372
 20
7.012875
 30
0.0
 11
25.611372
 21
6.746329
 31
0.0
  0
LINE
  5
17a
100
AcDbEntity
  8
Layer_1
 62
1
100
AcDbLine
 10
25.611372
 20
6.746329
 30
0.0
 11
25.563774
 21
6.746329
 31
0.0
  0
LINE
  5
17b
100
AcDbEntity
  8
Layer_1
 62
1
100
AcDbLine
 10
25.563774
 20
6.746329
 30
0.0
 11
25.563774
 21
7.012875
 31
0.0
  0
LINE
  5
17c
100
AcDbEntity
  8
Layer_1
 62
1
100
AcDbLine
 10
0.879340
 20
5.789683
 30
0.0
 11
0.934400
 21
5.789683
 31
0.0
  0
LINE
  5
17d
100
AcDbEntity
  8
Layer_1
 62
1
100
AcDbLine
 10
0.934400
 20
5.789683
 30
0.0
 11
0.934400
 21
5.576781
 31
0.0
  0
LINE
  5
17e
100
AcDbEntity
  8
Layer_1
 62
1
100
AcDbLine
 10
0.934400
 20
5.576781
 30
0.0
 11
0.879340
 21
5.576781
 31
0.0
  0
LINE
  5
17f
100
AcDbEntity
  8
Layer_1
 62
1
100
AcDbLine
 10
0.879340
 20
5.576781
 30
0.0
 11
0.879340
 21
5.789683
 31
0.0
  0
ENDSEC
  0
SECTION
  2
OBJECTS
  0
DICTIONARY
  5
C
330
0
100
AcDbDictionary
  3
ACAD_GROUP
350
D
  3
ACAD_MLINESTYLE
350
17
  0
DICTIONARY
  5
D
330
C
100
AcDbDictionary
  0
DICTIONARY
  5
1A
330
C
100
AcDbDictionary
  0
DICTIONARY
  5
17
330
C
100
AcDbDictionary
  3
STANDARD
350
18
  0
DICTIONARY
  5
19
330
C
100
AcDbDictionary
  0
ENDSEC
  0
EOF
