  0
SECTION
  2
HEADER
  9
$ACADVER
  1
AC1014
  9
$HANDSEED
  5
FFFF
  9
$MEASUREMENT
 70
     1
  0
ENDSEC
  0
SECTION
  2
TABLES
  0
TABLE
  2
VPORT
  5
8
330
0
100
AcDbSymbolTable
 70
     4
  0
VPORT
  5
2E
330
8
100
AcDbSymbolTableRecord
100
AcDbViewportTableRecord
  2
*ACTIVE
 70
     0
 10
0.0
 20
0.0
 11
1.0
 21
1.0
 12
210.0
 22
148.5
 13
0.0
 23
0.0
 14
10.0
 24
10.0
 15
10.0
 25
10.0
 16
0.0
 26
0.0
 36
1.0
 17
0.0
 27
0.0
 37
0.0
 40
341.0
 41
1.24
 42
50.0
 43
0.0
 44
0.0
 50
0.0
 51
0.0
 71
     0
 72
   100
 73
     1
 74
     3
 75
     0
 76
     0
 77
     0
 78
     0
  0
ENDTAB
  0
TABLE
  2
LTYPE
  5
5
330
0
100
AcDbSymbolTable
 70
     1
  0
LTYPE
  5
14
330
5
100
AcDbSymbolTableRecord
100
AcDbLinetypeTableRecord
  2
BYBLOCK
 70
     0
  3

 72
    65
 73
     0
 40
0.0
  0
LTYPE
  5
15
330
5
100
AcDbSymbolTableRecord
100
AcDbLinetypeTableRecord
  2
BYLAYER
 70
     0
  3

 72
    65
 73
     0
 40
0.0
  0
LTYPE
  5
16
330
5
100
AcDbSymbolTableRecord
100
AcDbLinetypeTableRecord
  2
CONTINUOUS
 70
     0
  3
Solid line
 72
    65
 73
     0
 40
0.0
  0
ENDTAB
  0
TABLE
  2
LAYER
  5
2
100
AcDbSymbolTable
 70
2
  0
LAYER
  5
50
100
AcDbSymbolTableRecord
100
AcDbLayerTableRecord
  2
0
 70
0
  6
CONTINUOUS
  0
LAYER
  5
51
100
AcDbSymbolTableRecord
100
AcDbLayerTableRecord
  2
Layer_1
 70
0
  6
CONTINUOUS
  0
ENDTAB
  0
TABLE
  2
STYLE
  5
3
330
0
100
AcDbSymbolTable
 70
     1
  0
STYLE
  5
11
330
3
100
AcDbSymbolTableRecord
100
AcDbTextStyleTableRecord
  2
STANDARD
 70
     0
 40
0.0
 41
1.0
 50
0.0
 71
     0
 42
2.5
  3
txt
  4

  0
ENDTAB
  0
TABLE
  2
VIEW
  5
6
330
0
100
AcDbSymbolTable
 70
     0
  0
ENDTAB
  0
TABLE
  2
UCS
  5
7
330
0
100
AcDbSymbolTable
 70
     0
  0
ENDTAB
  0
TABLE
  2
APPID
  5
9
330
0
100
AcDbSymbolTable
 70
     2
  0
APPID
  5
12
330
9
100
AcDbSymbolTableRecord
100
AcDbRegAppTableRecord
  2
ACAD
 70
     0
  0
ENDTAB
  0
TABLE
  2
DIMSTYLE
  5
A
330
0
100
AcDbSymbolTable
 70
     1
  0
DIMSTYLE
105
27
330
A
100
AcDbSymbolTableRecord
100
AcDbDimStyleTableRecord
  2
ISO-25
 70
     0
  3

  4

  5

  6

  7

 40
1.0
 41
2.5
 42
0.625
 43
3.75
 44
1.25
 45
0.0
 46
0.0
 47
0.0
 48
0.0
140
2.5
141
2.5
142
0.0
143
0.03937007874016
144
1.0
145
0.0
146
1.0
147
0.625
 71
     0
 72
     0
 73
     0
 74
     0
 75
     0
 76
     0
 77
     1
 78
     8
170
     0
171
     3
172
     1
173
     0
174
     0
175
     0
176
     0
177
     0
178
     0
270
     2
271
     2
272
     2
273
     2
274
     3
340
11
275
     0
280
     0
281
     0
282
     0
283
     0
284
     8
285
     0
286
     0
287
     3
288
     0
  0
ENDTAB
  0
TABLE
  2
BLOCK_RECORD
  5
1
330
0
100
AcDbSymbolTable
 70
     1
  0
BLOCK_RECORD
  5
1F
330
1
100
AcDbSymbolTableRecord
100
AcDbBlockTableRecord
  2
*MODEL_SPACE
  0
BLOCK_RECORD
  5
1B
330
1
100
AcDbSymbolTableRecord
100
AcDbBlockTableRecord
  2
*PAPER_SPACE
  0
ENDTAB
  0
ENDSEC
  0
SECTION
  2
BLOCKS
  0
BLOCK
  5
20
330
1F
100
AcDbEntity
  8
0
100
AcDbBlockBegin
  2
*MODEL_SPACE
 70
     0
 10
0.0
 20
0.0
 30
0.0
  3
*MODEL_SPACE
  1

  0
ENDBLK
  5
21
330
1F
100
AcDbEntity
  8
0
100
AcDbBlockEnd
  0
BLOCK
  5
1C
330
1B
100
AcDbEntity
 67
     1
  8
0
100
AcDbBlockBegin
  2
*PAPER_SPACE
  1

  0
ENDBLK
  5
1D
330
1B
100
AcDbEntity
 67
     1
  8
0
100
AcDbBlockEnd
  0
ENDSEC
  0
SECTION
  2
ENTITIES
  0
LINE
  5
100
100
AcDbEntity
  8
Layer_1
 62
1
100
AcDbLine
 10
2.911173
 20
3.544846
 30
0.0
 11
2.926218
 21
3.544846
 31
0.0
  0
LINE
  5
101
100
AcDbEntity
  8
Layer_1
 62
1
100
AcDbLine
 10
2.926218
 20
3.544846
 30
0.0
 11
2.926218
 21
3.284981
 31
0.0
  0
LINE
  5
102
100
AcDbEntity
  8
Layer_1
 62
1
100
AcDbLine
 10
2.926218
 20
3.284981
 30
0.0
 11
2.911173
 21
3.284981
 31
0.0
  0
LINE
  5
103
100
AcDbEntity
  8
Layer_1
 62
1
100
AcDbLine
 10
2.911173
 20
3.284981
 30
0.0
 11
2.911173
 21
3.544846
 31
0.0
  0
LINE
  5
104
100
AcDbEntity
  8
Layer_1
 62
1
100
AcDbLine
 10
3.533394
 20
3.544846
 30
0.0
 11
3.548439
 21
3.544846
 31
0.0
  0
LINE
  5
105
100
AcDbEntity
  8
Layer_1
 62
1
100
AcDbLine
 10
3.548439
 20
3.544846
 30
0.0
 11
3.548439
 21
3.284981
 31
0.0
  0
LINE
  5
106
100
AcDbEntity
  8
Layer_1
 62
1
100
AcDbLine
 10
3.548439
 20
3.284981
 30
0.0
 11
3.533394
 21
3.284981
 31
0.0
  0
LINE
  5
107
100
AcDbEntity
  8
Layer_1
 62
1
100
AcDbLine
 10
3.533394
 20
3.284981
 30
0.0
 11
3.533394
 21
3.544846
 31
0.0
  0
LINE
  5
108
100
AcDbEntity
  8
Layer_1
 62
1
100
AcDbLine
 10
3.486294
 20
3.232324
 30
0.0
 11
3.486294
 21
3.217279
 31
0.0
  0
LINE
  5
109
100
AcDbEntity
  8
Layer_1
 62
1
100
AcDbLine
 10
3.486294
 20
3.217279
 30
0.0
 11
2.974771
 21
3.217279
 31
0.0
  0
LINE
  5
10a
100
AcDbEntity
  8
Layer_1
 62
1
100
AcDbLine
 10
2.974771
 20
3.217279
 30
0.0
 11
2.974771
 21
3.232324
 31
0.0
  0
LINE
  5
10b
100
AcDbEntity
  8
Layer_1
 62
1
100
AcDbLine
 10
2.974771
 20
3.232324
 30
0.0
 11
3.486294
 21
3.232324
 31
0.0
  0
SPLINE
  5
10c
100
AcDbEntity
  8
Layer_1
 62
1
100
AcDbSpline
 70
8
 71
3
 72
8
 73
4
 74
0
 40
0
 40
0
 40
0
 40
0
 40
1
 40
1
 40
1
 40
1
 10
10.533718
 20
2.731519
 30
0.0
 10
10.522638
 20
2.731519
 30
0.0
 10
10.513709
 20
2.722612
 30
0.0
 10
10.513709
 20
2.711532
 30
0.0
  0
LINE
  5
10d
100
AcDbEntity
  8
Layer_1
 62
1
100
AcDbLine
 10
10.513709
 20
2.711532
 30
0.0
 11
10.513709
 21
2.610794
 31
0.0
  0
LINE
  5
10e
100
AcDbEntity
  8
Layer_1
 62
1
100
AcDbLine
 10
10.513709
 20
2.610794
 30
0.0
 11
10.061040
 21
2.610794
 31
0.0
  0
SPLINE
  5
10f
100
AcDbEntity
  8
Layer_1
 62
1
100
AcDbSpline
 70
8
 71
3
 72
8
 73
4
 74
0
 40
0
 40
0
 40
0
 40
0
 40
1
 40
1
 40
1
 40
1
 10
10.061040
 20
2.610794
 30
0.0
 10
10.049960
 20
2.610794
 30
0.0
 10
10.041031
 20
2.601865
 30
0.0
 10
10.041031
 20
2.590785
 30
0.0
  0
LINE
  5
110
100
AcDbEntity
  8
Layer_1
 62
1
100
AcDbLine
 10
10.041031
 20
2.590785
 30
0.0
 11
10.041031
 21
2.560837
 31
0.0
  0
LINE
  5
111
100
AcDbEntity
  8
Layer_1
 62
1
100
AcDbLine
 10
10.041031
 20
2.560837
 30
0.0
 11
10.041031
 21
2.472730
 31
0.0
  0
LINE
  5
112
100
AcDbEntity
  8
Layer_1
 62
1
100
AcDbLine
 10
10.041031
 20
2.472730
 30
0.0
 11
10.041031
 21
2.442782
 31
0.0
  0
SPLINE
  5
113
100
AcDbEntity
  8
Layer_1
 62
1
100
AcDbSpline
 70
8
 71
3
 72
8
 73
4
 74
0
 40
0
 40
0
 40
0
 40
0
 40
1
 40
1
 40
1
 40
1
 10
10.041031
 20
2.442782
 30
0.0
 10
10.041031
 20
2.431702
 30
0.0
 10
10.049960
 20
2.422795
 30
0.0
 10
10.061040
 20
2.422795
 30
0.0
  0
LINE
  5
114
100
AcDbEntity
  8
Layer_1
 62
1
100
AcDbLine
 10
10.061040
 20
2.422795
 30
0.0
 11
11.369026
 21
2.422795
 31
0.0
  0
SPLINE
  5
115
100
AcDbEntity
  8
Layer_1
 62
1
100
AcDbSpline
 70
8
 71
3
 72
8
 73
4
 74
0
 40
0
 40
0
 40
0
 40
0
 40
1
 40
1
 40
1
 40
1
 10
11.369026
 20
2.422795
 30
0.0
 10
11.380106
 20
2.422795
 30
0.0
 10
11.389035
 20
2.431702
 30
0.0
 10
11.389035
 20
2.442782
 30
0.0
  0
LINE
  5
116
100
AcDbEntity
  8
Layer_1
 62
1
100
AcDbLine
 10
11.389035
 20
2.442782
 30
0.0
 11
11.389035
 21
2.472730
 31
0.0
  0
LINE
  5
117
100
AcDbEntity
  8
Layer_1
 62
1
100
AcDbLine
 10
11.389035
 20
2.472730
 30
0.0
 11
11.389035
 21
2.560837
 31
0.0
  0
LINE
  5
118
100
AcDbEntity
  8
Layer_1
 62
1
100
AcDbLine
 10
11.389035
 20
2.560837
 30
0.0
 11
11.389035
 21
2.590785
 31
0.0
  0
SPLINE
  5
119
100
AcDbEntity
  8
Layer_1
 62
1
100
AcDbSpline
 70
8
 71
3
 72
8
 73
4
 74
0
 40
0
 40
0
 40
0
 40
0
 40
1
 40
1
 40
1
 40
1
 10
11.389035
 20
2.590785
 30
0.0
 10
11.389035
 20
2.601865
 30
0.0
 10
11.380106
 20
2.610794
 30
0.0
 10
11.369026
 20
2.610794
 30
0.0
  0
LINE
  5
11a
100
AcDbEntity
  8
Layer_1
 62
1
100
AcDbLine
 10
11.369026
 20
2.610794
 30
0.0
 11
10.854768
 21
2.610794
 31
0.0
  0
LINE
  5
11b
100
AcDbEntity
  8
Layer_1
 62
1
100
AcDbLine
 10
10.854768
 20
2.610794
 30
0.0
 11
10.854768
 21
2.711532
 31
0.0
  0
SPLINE
  5
11c
100
AcDbEntity
  8
Layer_1
 62
1
100
AcDbSpline
 70
8
 71
3
 72
8
 73
4
 74
0
 40
0
 40
0
 40
0
 40
0
 40
1
 40
1
 40
1
 40
1
 10
10.854768
 20
2.711532
 30
0.0
 10
10.854768
 20
2.722612
 30
0.0
 10
10.845840
 20
2.731519
 30
0.0
 10
10.834760
 20
2.731519
 30
0.0
  0
LINE
  5
11d
100
AcDbEntity
  8
Layer_1
 62
1
100
AcDbLine
 10
10.834760
 20
2.731519
 30
0.0
 11
10.533718
 21
2.731519
 31
0.0
  0
SPLINE
  5
11e
100
AcDbEntity
  8
Layer_1
 62
1
100
AcDbSpline
 70
8
 71
3
 72
8
 73
4
 74
0
 40
0
 40
0
 40
0
 40
0
 40
1
 40
1
 40
1
 40
1
 10
9.641726
 20
2.420451
 30
0.0
 10
9.630646
 20
2.420451
 30
0.0
 10
9.621717
 20
2.411522
 30
0.0
 10
9.621717
 20
2.400442
 30
0.0
  0
LINE
  5
11f
100
AcDbEntity
  8
Layer_1
 62
1
100
AcDbLine
 10
9.621717
 20
2.400442
 30
0.0
 11
9.621717
 21
2.295581
 31
0.0
  0
LINE
  5
120
100
AcDbEntity
  8
Layer_1
 62
1
100
AcDbLine
 10
9.621717
 20
2.295581
 30
0.0
 11
9.250341
 21
2.295581
 31
0.0
  0
SPLINE
  5
121
100
AcDbEntity
  8
Layer_1
 62
1
100
AcDbSpline
 70
8
 71
3
 72
8
 73
4
 74
0
 40
0
 40
0
 40
0
 40
0
 40
1
 40
1
 40
1
 40
1
 10
9.250341
 20
2.295581
 30
0.0
 10
9.239261
 20
2.295581
 30
0.0
 10
9.230333
 20
2.286674
 30
0.0
 10
9.230333
 20
2.275594
 30
0.0
  0
LINE
  5
122
100
AcDbEntity
  8
Layer_1
 62
1
100
AcDbLine
 10
9.230333
 20
2.275594
 30
0.0
 11
9.230333
 21
2.245646
 31
0.0
  0
LINE
  5
123
100
AcDbEntity
  8
Layer_1
 62
1
100
AcDbLine
 10
9.230333
 20
2.245646
 30
0.0
 11
9.230333
 21
2.157517
 31
0.0
  0
LINE
  5
124
100
AcDbEntity
  8
Layer_1
 62
1
100
AcDbLine
 10
9.230333
 20
2.157517
 30
0.0
 11
9.230333
 21
2.127591
 31
0.0
  0
SPLINE
  5
125
100
AcDbEntity
  8
Layer_1
 62
1
100
AcDbSpline
 70
8
 71
3
 72
8
 73
4
 74
0
 40
0
 40
0
 40
0
 40
0
 40
1
 40
1
 40
1
 40
1
 10
9.230333
 20
2.127591
 30
0.0
 10
9.230333
 20
2.116511
 30
0.0
 10
9.239261
 20
2.107582
 30
0.0
 10
9.250341
 20
2.107582
 30
0.0
  0
LINE
  5
126
100
AcDbEntity
  8
Layer_1
 62
1
100
AcDbLine
 10
9.250341
 20
2.107582
 30
0.0
 11
10.335346
 21
2.107582
 31
0.0
  0
SPLINE
  5
127
100
AcDbEntity
  8
Layer_1
 62
1
100
AcDbSpline
 70
8
 71
3
 72
8
 73
4
 74
0
 40
0
 40
0
 40
0
 40
0
 40
1
 40
1
 40
1
 40
1
 10
10.335346
 20
2.107582
 30
0.0
 10
10.346426
 20
2.107582
 30
0.0
 10
10.355333
 20
2.116511
 30
0.0
 10
10.355333
 20
2.127591
 30
0.0
  0
LINE
  5
128
100
AcDbEntity
  8
Layer_1
 62
1
100
AcDbLine
 10
10.355333
 20
2.127591
 30
0.0
 11
10.355333
 21
2.157517
 31
0.0
  0
LINE
  5
129
100
AcDbEntity
  8
Layer_1
 62
1
100
AcDbLine
 10
10.355333
 20
2.157517
 30
0.0
 11
10.355333
 21
2.245646
 31
0.0
  0
LINE
  5
12a
100
AcDbEntity
  8
Layer_1
 62
1
100
AcDbLine
 10
10.355333
 20
2.245646
 30
0.0
 11
10.355333
 21
2.275594
 31
0.0
  0
SPLINE
  5
12b
100
AcDbEntity
  8
Layer_1
 62
1
100
AcDbSpline
 70
8
 71
3
 72
8
 73
4
 74
0
 40
0
 40
0
 40
0
 40
0
 40
1
 40
1
 40
1
 40
1
 10
10.355333
 20
2.275594
 30
0.0
 10
10.355333
 20
2.286674
 30
0.0
 10
10.346426
 20
2.295581
 30
0.0
 10
10.335346
 20
2.295581
 30
0.0
  0
LINE
  5
12c
100
AcDbEntity
  8
Layer_1
 62
1
100
AcDbLine
 10
10.335346
 20
2.295581
 30
0.0
 11
9.970263
 21
2.295581
 31
0.0
  0
LINE
  5
12d
100
AcDbEntity
  8
Layer_1
 62
1
100
AcDbLine
 10
9.970263
 20
2.295581
 30
0.0
 11
9.970263
 21
2.400442
 31
0.0
  0
SPLINE
  5
12e
100
AcDbEntity
  8
Layer_1
 62
1
100
AcDbSpline
 70
8
 71
3
 72
8
 73
4
 74
0
 40
0
 40
0
 40
0
 40
0
 40
1
 40
1
 40
1
 40
1
 10
9.970263
 20
2.400442
 30
0.0
 10
9.970263
 20
2.411522
 30
0.0
 10
9.961356
 20
2.420451
 30
0.0
 10
9.950276
 20
2.420451
 30
0.0
  0
LINE
  5
12f
100
AcDbEntity
  8
Layer_1
 62
1
100
AcDbLine
 10
9.950276
 20
2.420451
 30
0.0
 11
9.641726
 21
2.420451
 31
0.0
  0
SPLINE
  5
130
100
AcDbEntity
  8
Layer_1
 62
1
100
AcDbSpline
 70
8
 71
3
 72
8
 73
4
 74
0
 40
0
 40
0
 40
0
 40
0
 40
1
 40
1
 40
1
 40
1
 10
8.105116
 20
2.435447
 30
0.0
 10
8.094036
 20
2.435447
 30
0.0
 10
8.085107
 20
2.426518
 30
0.0
 10
8.085107
 20
2.415438
 30
0.0
  0
LINE
  5
131
100
AcDbEntity
  8
Layer_1
 62
1
100
AcDbLine
 10
8.085107
 20
2.415438
 30
0.0
 11
8.085107
 21
2.298446
 31
0.0
  0
LINE
  5
132
100
AcDbEntity
  8
Layer_1
 62
1
100
AcDbLine
 10
8.085107
 20
2.298446
 30
0.0
 11
7.619764
 21
2.298446
 31
0.0
  0
SPLINE
  5
133
100
AcDbEntity
  8
Layer_1
 62
1
100
AcDbSpline
 70
8
 71
3
 72
8
 73
4
 74
0
 40
0
 40
0
 40
0
 40
0
 40
1
 40
1
 40
1
 40
1
 10
7.619764
 20
2.298446
 30
0.0
 10
7.608684
 20
2.298446
 30
0.0
 10
7.599755
 20
2.289517
 30
0.0
 10
7.599755
 20
2.278437
 30
0.0
  0
LINE
  5
134
100
AcDbEntity
  8
Layer_1
 62
1
100
AcDbLine
 10
7.599755
 20
2.278437
 30
0.0
 11
7.599755
 21
2.248511
 31
0.0
  0
LINE
  5
135
100
AcDbEntity
  8
Layer_1
 62
1
100
AcDbLine
 10
7.599755
 20
2.248511
 30
0.0
 11
7.599755
 21
2.160382
 31
0.0
  0
LINE
  5
136
100
AcDbEntity
  8
Layer_1
 62
1
100
AcDbLine
 10
7.599755
 20
2.160382
 30
0.0
 11
7.599755
 21
2.130455
 31
0.0
  0
SPLINE
  5
137
100
AcDbEntity
  8
Layer_1
 62
1
100
AcDbSpline
 70
8
 71
3
 72
8
 73
4
 74
0
 40
0
 40
0
 40
0
 40
0
 40
1
 40
1
 40
1
 40
1
 10
7.599755
 20
2.130455
 30
0.0
 10
7.599755
 20
2.119375
 30
0.0
 10
7.608684
 20
2.110447
 30
0.0
 10
7.619764
 20
2.110447
 30
0.0
  0
LINE
  5
138
100
AcDbEntity
  8
Layer_1
 62
1
100
AcDbLine
 10
7.619764
 20
2.110447
 30
0.0
 11
8.913753
 21
2.110447
 31
0.0
  0
SPLINE
  5
139
100
AcDbEntity
  8
Layer_1
 62
1
100
AcDbSpline
 70
8
 71
3
 72
8
 73
4
 74
0
 40
0
 40
0
 40
0
 40
0
 40
1
 40
1
 40
1
 40
1
 10
8.913753
 20
2.110447
 30
0.0
 10
8.924833
 20
2.110447
 30
0.0
 10
8.933761
 20
2.119375
 30
0.0
 10
8.933761
 20
2.130455
 30
0.0
  0
LINE
  5
13a
100
AcDbEntity
  8
Layer_1
 62
1
100
AcDbLine
 10
8.933761
 20
2.130455
 30
0.0
 11
8.933761
 21
2.160382
 31
0.0
  0
LINE
  5
13b
100
AcDbEntity
  8
Layer_1
 62
1
100
AcDbLine
 10
8.933761
 20
2.160382
 30
0.0
 11
8.933761
 21
2.248511
 31
0.0
  0
LINE
  5
13c
100
AcDbEntity
  8
Layer_1
 62
1
100
AcDbLine
 10
8.933761
 20
2.248511
 30
0.0
 11
8.933761
 21
2.278437
 31
0.0
  0
SPLINE
  5
13d
100
AcDbEntity
  8
Layer_1
 62
1
100
AcDbSpline
 70
8
 71
3
 72
8
 73
4
 74
0
 40
0
 40
0
 40
0
 40
0
 40
1
 40
1
 40
1
 40
1
 10
8.933761
 20
2.278437
 30
0.0
 10
8.933761
 20
2.289517
 30
0.0
 10
8.924833
 20
2.298446
 30
0.0
 10
8.913753
 20
2.298446
 30
0.0
  0
LINE
  5
13e
100
AcDbEntity
  8
Layer_1
 62
1
100
AcDbLine
 10
8.913753
 20
2.298446
 30
0.0
 11
8.437407
 21
2.298446
 31
0.0
  0
LINE
  5
13f
100
AcDbEntity
  8
Layer_1
 62
1
100
AcDbLine
 10
8.437407
 20
2.298446
 30
0.0
 11
8.437407
 21
2.415438
 31
0.0
  0
SPLINE
  5
140
100
AcDbEntity
  8
Layer_1
 62
1
100
AcDbSpline
 70
8
 71
3
 72
8
 73
4
 74
0
 40
0
 40
0
 40
0
 40
0
 40
1
 40
1
 40
1
 40
1
 10
8.437407
 20
2.415438
 30
0.0
 10
8.437407
 20
2.426518
 30
0.0
 10
8.428500
 20
2.435447
 30
0.0
 10
8.417420
 20
2.435447
 30
0.0
  0
LINE
  5
141
100
AcDbEntity
  8
Layer_1
 62
1
100
AcDbLine
 10
8.417420
 20
2.435447
 30
0.0
 11
8.105116
 21
2.435447
 31
0.0
  0
SPLINE
  5
142
100
AcDbEntity
  8
Layer_1
 62
7
100
AcDbSpline
 70
8
 71
3
 72
8
 73
4
 74
0
 40
0
 40
0
 40
0
 40
0
 40
1
 40
1
 40
1
 40
1
 10
0.817678
 20
2.927002
 30
0.0
 10
0.817678
 20
3.025689
 30
0.0
 10
0.669675
 20
3.025689
 30
0.0
 10
0.669675
 20
2.927002
 30
0.0
  0
SPLINE
  5
143
100
AcDbEntity
  8
Layer_1
 62
7
100
AcDbSpline
 70
8
 71
3
 72
8
 73
4
 74
0
 40
0
 40
0
 40
0
 40
0
 40
1
 40
1
 40
1
 40
1
 10
0.669675
 20
2.927002
 30
0.0
 10
0.669675
 20
2.828315
 30
0.0
 10
0.817678
 20
2.828315
 30
0.0
 10
0.817678
 20
2.927002
 30
0.0
  0
SPLINE
  5
144
100
AcDbEntity
  8
Layer_1
 62
7
100
AcDbSpline
 70
8
 71
3
 72
8
 73
4
 74
0
 40
0
 40
0
 40
0
 40
0
 40
1
 40
1
 40
1
 40
1
 10
0.817678
 20
2.186985
 30
0.0
 10
0.817678
 20
2.285672
 30
0.0
 10
0.669675
 20
2.285672
 30
0.0
 10
0.669675
 20
2.186985
 30
0.0
  0
SPLINE
  5
145
100
AcDbEntity
  8
Layer_1
 62
7
100
AcDbSpline
 70
8
 71
3
 72
8
 73
4
 74
0
 40
0
 40
0
 40
0
 40
0
 40
1
 40
1
 40
1
 40
1
 10
0.669675
 20
2.186985
 30
0.0
 10
0.669675
 20
2.088352
 30
0.0
 10
0.817678
 20
2.088352
 30
0.0
 10
0.817678
 20
2.186985
 30
0.0
  0
SPLINE
  5
146
100
AcDbEntity
  8
Layer_1
 62
7
100
AcDbSpline
 70
8
 71
3
 72
8
 73
4
 74
0
 40
0
 40
0
 40
0
 40
0
 40
1
 40
1
 40
1
 40
1
 10
5.942678
 20
2.927002
 30
0.0
 10
5.942678
 20
3.025689
 30
0.0
 10
5.794675
 20
3.025689
 30
0.0
 10
5.794675
 20
2.927002
 30
0.0
  0
SPLINE
  5
147
100
AcDbEntity
  8
Layer_1
 62
7
100
AcDbSpline
 70
8
 71
3
 72
8
 73
4
 74
0
 40
0
 40
0
 40
0
 40
0
 40
1
 40
1
 40
1
 40
1
 10
5.794675
 20
2.927002
 30
0.0
 10
5.794675
 20
2.828315
 30
0.0
 10
5.942678
 20
2.828315
 30
0.0
 10
5.942678
 20
2.927002
 30
0.0
  0
SPLINE
  5
148
100
AcDbEntity
  8
Layer_1
 62
7
100
AcDbSpline
 70
8
 71
3
 72
8
 73
4
 74
0
 40
0
 40
0
 40
0
 40
0
 40
1
 40
1
 40
1
 40
1
 10
5.942678
 20
2.186985
 30
0.0
 10
5.942678
 20
2.285672
 30
0.0
 10
5.794675
 20
2.285672
 30
0.0
 10
5.794675
 20
2.186985
 30
0.0
  0
SPLINE
  5
149
100
AcDbEntity
  8
Layer_1
 62
7
100
AcDbSpline
 70
8
 71
3
 72
8
 73
4
 74
0
 40
0
 40
0
 40
0
 40
0
 40
1
 40
1
 40
1
 40
1
 10
5.794675
 20
2.186985
 30
0.0
 10
5.794675
 20
2.088352
 30
0.0
 10
5.942678
 20
2.088352
 30
0.0
 10
5.942678
 20
2.186985
 30
0.0
  0
SPLINE
  5
14a
100
AcDbEntity
  8
Layer_1
 62
7
100
AcDbSpline
 70
8
 71
3
 72
8
 73
4
 74
0
 40
0
 40
0
 40
0
 40
0
 40
1
 40
1
 40
1
 40
1
 10
11.067678
 20
2.927002
 30
0.0
 10
11.067678
 20
3.025689
 30
0.0
 10
10.919675
 20
3.025689
 30
0.0
 10
10.919675
 20
2.927002
 30
0.0
  0
SPLINE
  5
14b
100
AcDbEntity
  8
Layer_1
 62
7
100
AcDbSpline
 70
8
 71
3
 72
8
 73
4
 74
0
 40
0
 40
0
 40
0
 40
0
 40
1
 40
1
 40
1
 40
1
 10
10.919675
 20
2.927002
 30
0.0
 10
10.919675
 20
2.828315
 30
0.0
 10
11.067678
 20
2.828315
 30
0.0
 10
11.067678
 20
2.927002
 30
0.0
  0
SPLINE
  5
14c
100
AcDbEntity
  8
Layer_1
 62
7
100
AcDbSpline
 70
8
 71
3
 72
8
 73
4
 74
0
 40
0
 40
0
 40
0
 40
0
 40
1
 40
1
 40
1
 40
1
 10
11.067678
 20
2.186985
 30
0.0
 10
11.067678
 20
2.285672
 30
0.0
 10
10.919675
 20
2.285672
 30
0.0
 10
10.919675
 20
2.186985
 30
0.0
  0
SPLINE
  5
14d
100
AcDbEntity
  8
Layer_1
 62
7
100
AcDbSpline
 70
8
 71
3
 72
8
 73
4
 74
0
 40
0
 40
0
 40
0
 40
0
 40
1
 40
1
 40
1
 40
1
 10
10.919675
 20
2.186985
 30
0.0
 10
10.919675
 20
2.088352
 30
0.0
 10
11.067678
 20
2.088352
 30
0.0
 10
11.067678
 20
2.186985
 30
0.0
  0
SPLINE
  5
14e
100
AcDbEntity
  8
Layer_1
 62
7
100
AcDbSpline
 70
8
 71
3
 72
8
 73
4
 74
0
 40
0
 40
0
 40
0
 40
0
 40
1
 40
1
 40
1
 40
1
 10
3.554657
 20
2.956028
 30
0.0
 10
3.554657
 20
2.826199
 30
0.0
 10
3.659855
 20
2.721002
 30
0.0
 10
3.789683
 20
2.721002
 30
0.0
  0
SPLINE
  5
14f
100
AcDbEntity
  8
Layer_1
 62
7
100
AcDbSpline
 70
8
 71
3
 72
8
 73
4
 74
0
 40
0
 40
0
 40
0
 40
0
 40
1
 40
1
 40
1
 40
1
 10
3.789683
 20
2.721002
 30
0.0
 10
3.919458
 20
2.721002
 30
0.0
 10
4.024655
 20
2.826199
 30
0.0
 10
4.024655
 20
2.956028
 30
0.0
  0
SPLINE
  5
150
100
AcDbEntity
  8
Layer_1
 62
7
100
AcDbSpline
 70
8
 71
3
 72
8
 73
4
 74
0
 40
0
 40
0
 40
0
 40
0
 40
1
 40
1
 40
1
 40
1
 10
4.024655
 20
2.956028
 30
0.0
 10
4.024655
 20
3.085802
 30
0.0
 10
3.919458
 20
3.191000
 30
0.0
 10
3.789683
 20
3.191000
 30
0.0
  0
SPLINE
  5
151
100
AcDbEntity
  8
Layer_1
 62
7
100
AcDbSpline
 70
8
 71
3
 72
8
 73
4
 74
0
 40
0
 40
0
 40
0
 40
0
 40
1
 40
1
 40
1
 40
1
 10
3.789683
 20
3.191000
 30
0.0
 10
3.659855
 20
3.191000
 30
0.0
 10
3.554657
 20
3.085802
 30
0.0
 10
3.554657
 20
2.956028
 30
0.0
  0
LINE
  5
152
100
AcDbEntity
  8
Layer_1
 62
1
100
AcDbLine
 10
6.176186
 20
3.310657
 30
0.0
 11
8.206814
 21
3.310657
 31
0.0
  0
LINE
  5
153
100
AcDbEntity
  8
Layer_1
 62
1
100
AcDbLine
 10
8.206814
 20
3.310657
 30
0.0
 11
8.206814
 21
2.848559
 31
0.0
  0
LINE
  5
154
100
AcDbEntity
  8
Layer_1
 62
1
100
AcDbLine
 10
8.206814
 20
2.848559
 30
0.0
 11
6.176186
 21
2.848559
 31
0.0
  0
LINE
  5
155
100
AcDbEntity
  8
Layer_1
 62
1
100
AcDbLine
 10
6.176186
 20
2.848559
 30
0.0
 11
6.176186
 21
3.310657
 31
0.0
  0
SPLINE
  5
156
100
AcDbEntity
  8
Layer_1
 62
1
100
AcDbSpline
 70
8
 71
3
 72
8
 73
4
 74
0
 40
0
 40
0
 40
0
 40
0
 40
1
 40
1
 40
1
 40
1
 10
0.657546
 20
2.570061
 30
0.0
 10
0.646466
 20
2.570061
 30
0.0
 10
0.637537
 20
2.561132
 30
0.0
 10
0.637537
 20
2.550052
 30
0.0
  0
LINE
  5
157
100
AcDbEntity
  8
Layer_1
 62
1
100
AcDbLine
 10
0.637537
 20
2.550052
 30
0.0
 11
0.637537
 21
2.515785
 31
0.0
  0
LINE
  5
158
100
AcDbEntity
  8
Layer_1
 62
1
100
AcDbLine
 10
0.637537
 20
2.515785
 30
0.0
 11
0.427945
 21
2.515785
 31
0.0
  0
SPLINE
  5
159
100
AcDbEntity
  8
Layer_1
 62
1
100
AcDbSpline
 70
8
 71
3
 72
8
 73
4
 74
0
 40
0
 40
0
 40
0
 40
0
 40
1
 40
1
 40
1
 40
1
 10
0.427945
 20
2.515785
 30
0.0
 10
0.416865
 20
2.515785
 30
0.0
 10
0.407937
 20
2.506878
 30
0.0
 10
0.407937
 20
2.495798
 30
0.0
  0
LINE
  5
15a
100
AcDbEntity
  8
Layer_1
 62
1
100
AcDbLine
 10
0.407937
 20
2.495798
 30
0.0
 11
0.407937
 21
2.465850
 31
0.0
  0
LINE
  5
15b
100
AcDbEntity
  8
Layer_1
 62
1
100
AcDbLine
 10
0.407937
 20
2.465850
 30
0.0
 11
0.407937
 21
2.377721
 31
0.0
  0
LINE
  5
15c
100
AcDbEntity
  8
Layer_1
 62
1
100
AcDbLine
 10
0.407937
 20
2.377721
 30
0.0
 11
0.407937
 21
2.347795
 31
0.0
  0
SPLINE
  5
15d
100
AcDbEntity
  8
Layer_1
 62
1
100
AcDbSpline
 70
8
 71
3
 72
8
 73
4
 74
0
 40
0
 40
0
 40
0
 40
0
 40
1
 40
1
 40
1
 40
1
 10
0.407937
 20
2.347795
 30
0.0
 10
0.407937
 20
2.336715
 30
0.0
 10
0.416865
 20
2.327786
 30
0.0
 10
0.427945
 20
2.327786
 30
0.0
  0
LINE
  5
15e
100
AcDbEntity
  8
Layer_1
 62
1
100
AcDbLine
 10
0.427945
 20
2.327786
 30
0.0
 11
1.027945
 21
2.327786
 31
0.0
  0
SPLINE
  5
15f
100
AcDbEntity
  8
Layer_1
 62
1
100
AcDbSpline
 70
8
 71
3
 72
8
 73
4
 74
0
 40
0
 40
0
 40
0
 40
0
 40
1
 40
1
 40
1
 40
1
 10
1.027945
 20
2.327786
 30
0.0
 10
1.039025
 20
2.327786
 30
0.0
 10
1.047932
 20
2.336715
 30
0.0
 10
1.047932
 20
2.347795
 30
0.0
  0
LINE
  5
160
100
AcDbEntity
  8
Layer_1
 62
1
100
AcDbLine
 10
1.047932
 20
2.347795
 30
0.0
 11
1.047932
 21
2.377721
 31
0.0
  0
LINE
  5
161
100
AcDbEntity
  8
Layer_1
 62
1
100
AcDbLine
 10
1.047932
 20
2.377721
 30
0.0
 11
1.047932
 21
2.465850
 31
0.0
  0
LINE
  5
162
100
AcDbEntity
  8
Layer_1
 62
1
100
AcDbLine
 10
1.047932
 20
2.465850
 30
0.0
 11
1.047932
 21
2.495798
 31
0.0
  0
SPLINE
  5
163
100
AcDbEntity
  8
Layer_1
 62
1
100
AcDbSpline
 70
8
 71
3
 72
8
 73
4
 74
0
 40
0
 40
0
 40
0
 40
0
 40
1
 40
1
 40
1
 40
1
 10
1.047932
 20
2.495798
 30
0.0
 10
1.047932
 20
2.506878
 30
0.0
 10
1.039025
 20
2.515785
 30
0.0
 10
1.027945
 20
2.515785
 30
0.0
  0
LINE
  5
164
100
AcDbEntity
  8
Layer_1
 62
1
100
AcDbLine
 10
1.027945
 20
2.515785
 30
0.0
 11
0.822520
 21
2.515785
 31
0.0
  0
LINE
  5
165
100
AcDbEntity
  8
Layer_1
 62
1
100
AcDbLine
 10
0.822520
 20
2.515785
 30
0.0
 11
0.822520
 21
2.550052
 31
0.0
  0
SPLINE
  5
166
100
AcDbEntity
  8
Layer_1
 62
1
100
AcDbSpline
 70
8
 71
3
 72
8
 73
4
 74
0
 40
0
 40
0
 40
0
 40
0
 40
1
 40
1
 40
1
 40
1
 10
0.822520
 20
2.550052
 30
0.0
 10
0.822520
 20
2.561132
 30
0.0
 10
0.813591
 20
2.570061
 30
0.0
 10
0.802511
 20
2.570061
 30
0.0
  0
LINE
  5
167
100
AcDbEntity
  8
Layer_1
 62
1
100
AcDbLine
 10
0.802511
 20
2.570061
 30
0.0
 11
0.657546
 21
2.570061
 31
0.0
  0
LINE
  5
168
100
AcDbEntity
  8
Layer_1
 62
1
100
AcDbLine
 10
0.269165
 20
3.601479
 30
0.0
 11
11.469165
 21
3.601479
 31
0.0
  0
LINE
  5
169
100
AcDbEntity
  8
Layer_1
 62
1
100
AcDbLine
 10
11.469165
 20
3.601479
 30
0.0
 11
11.469165
 21
1.701479
 31
0.0
  0
LINE
  5
16a
100
AcDbEntity
  8
Layer_1
 62
1
100
AcDbLine
 10
11.469165
 20
1.701479
 30
0.0
 11
0.269165
 21
1.701479
 31
0.0
  0
LINE
  5
16b
100
AcDbEntity
  8
Layer_1
 62
1
100
AcDbLine
 10
0.269165
 20
1.701479
 30
0.0
 11
0.269165
 21
3.601479
 31
0.0
  0
LINE
  5
16c
100
AcDbEntity
  8
Layer_1
 62
1
100
AcDbLine
 10
7.611529
 20
2.464896
 30
0.0
 11
7.630269
 21
2.464896
 31
0.0
  0
LINE
  5
16d
100
AcDbEntity
  8
Layer_1
 62
1
100
AcDbLine
 10
7.630269
 20
2.464896
 30
0.0
 11
7.630269
 21
2.359957
 31
0.0
  0
LINE
  5
16e
100
AcDbEntity
  8
Layer_1
 62
1
100
AcDbLine
 10
7.630269
 20
2.359957
 30
0.0
 11
7.611529
 21
2.359957
 31
0.0
  0
LINE
  5
16f
100
AcDbEntity
  8
Layer_1
 62
1
100
AcDbLine
 10
7.611529
 20
2.359957
 30
0.0
 11
7.611529
 21
2.464896
 31
0.0
  0
LINE
  5
170
100
AcDbEntity
  8
Layer_1
 62
1
100
AcDbLine
 10
9.247455
 20
2.446422
 30
0.0
 11
9.266194
 21
2.446422
 31
0.0
  0
LINE
  5
171
100
AcDbEntity
  8
Layer_1
 62
1
100
AcDbLine
 10
9.266194
 20
2.446422
 30
0.0
 11
9.266194
 21
2.341483
 31
0.0
  0
LINE
  5
172
100
AcDbEntity
  8
Layer_1
 62
1
100
AcDbLine
 10
9.266194
 20
2.341483
 30
0.0
 11
9.247455
 21
2.341483
 31
0.0
  0
LINE
  5
173
100
AcDbEntity
  8
Layer_1
 62
1
100
AcDbLine
 10
9.247455
 20
2.341483
 30
0.0
 11
9.247455
 21
2.446422
 31
0.0
  0
LINE
  5
174
100
AcDbEntity
  8
Layer_1
 62
1
100
AcDbLine
 10
10.064478
 20
2.760974
 30
0.0
 11
10.083217
 21
2.760974
 31
0.0
  0
LINE
  5
175
100
AcDbEntity
  8
Layer_1
 62
1
100
AcDbLine
 10
10.083217
 20
2.760974
 30
0.0
 11
10.083217
 21
2.656035
 31
0.0
  0
LINE
  5
176
100
AcDbEntity
  8
Layer_1
 62
1
100
AcDbLine
 10
10.083217
 20
2.656035
 30
0.0
 11
10.064478
 21
2.656035
 31
0.0
  0
LINE
  5
177
100
AcDbEntity
  8
Layer_1
 62
1
100
AcDbLine
 10
10.064478
 20
2.656035
 30
0.0
 11
10.064478
 21
2.760974
 31
0.0
  0
LINE
  5
178
100
AcDbEntity
  8
Layer_1
 62
1
100
AcDbLine
 10
0.346197
 20
2.279403
 30
0.0
 11
0.367874
 21
2.279403
 31
0.0
  0
LINE
  5
179
100
AcDbEntity
  8
Layer_1
 62
1
100
AcDbLine
 10
0.367874
 20
2.279403
 30
0.0
 11
0.367874
 21
2.195583
 31
0.0
  0
LINE
  5
17a
100
AcDbEntity
  8
Layer_1
 62
1
100
AcDbLine
 10
0.367874
 20
2.195583
 30
0.0
 11
0.346197
 21
2.195583
 31
0.0
  0
LINE
  5
17b
100
AcDbEntity
  8
Layer_1
 62
1
100
AcDbLine
 10
0.346197
 20
2.195583
 30
0.0
 11
0.346197
 21
2.279403
 31
0.0
  0
ENDSEC
  0
SECTION
  2
OBJECTS
  0
DICTIONARY
  5
C
330
0
100
AcDbDictionary
  3
ACAD_GROUP
350
D
  3
ACAD_MLINESTYLE
350
17
  0
DICTIONARY
  5
D
330
C
100
AcDbDictionary
  0
DICTIONARY
  5
1A
330
C
100
AcDbDictionary
  0
DICTIONARY
  5
17
330
C
100
AcDbDictionary
  3
STANDARD
350
18
  0
DICTIONARY
  5
19
330
C
100
AcDbDictionary
  0
ENDSEC
  0
EOF
