  0
SECTION
  2
HEADER
  9
$ACADVER
  1
AC1014
  9
$HANDSEED
  5
FFFF
  9
$MEASUREMENT
 70
     1
  0
ENDSEC
  0
SECTION
  2
TABLES
  0
TABLE
  2
VPORT
  5
8
330
0
100
AcDbSymbolTable
 70
     4
  0
VPORT
  5
2E
330
8
100
AcDbSymbolTableRecord
100
AcDbViewportTableRecord
  2
*ACTIVE
 70
     0
 10
0.0
 20
0.0
 11
1.0
 21
1.0
 12
210.0
 22
148.5
 13
0.0
 23
0.0
 14
10.0
 24
10.0
 15
10.0
 25
10.0
 16
0.0
 26
0.0
 36
1.0
 17
0.0
 27
0.0
 37
0.0
 40
341.0
 41
1.24
 42
50.0
 43
0.0
 44
0.0
 50
0.0
 51
0.0
 71
     0
 72
   100
 73
     1
 74
     3
 75
     0
 76
     0
 77
     0
 78
     0
  0
ENDTAB
  0
TABLE
  2
LTYPE
  5
5
330
0
100
AcDbSymbolTable
 70
     1
  0
LTYPE
  5
14
330
5
100
AcDbSymbolTableRecord
100
AcDbLinetypeTableRecord
  2
BYBLOCK
 70
     0
  3

 72
    65
 73
     0
 40
0.0
  0
LTYPE
  5
15
330
5
100
AcDbSymbolTableRecord
100
AcDbLinetypeTableRecord
  2
BYLAYER
 70
     0
  3

 72
    65
 73
     0
 40
0.0
  0
LTYPE
  5
16
330
5
100
AcDbSymbolTableRecord
100
AcDbLinetypeTableRecord
  2
CONTINUOUS
 70
     0
  3
Solid line
 72
    65
 73
     0
 40
0.0
  0
ENDTAB
  0
TABLE
  2
LAYER
  5
2
100
AcDbSymbolTable
 70
2
  0
LAYER
  5
50
100
AcDbSymbolTableRecord
100
AcDbLayerTableRecord
  2
0
 70
0
  6
CONTINUOUS
  0
LAYER
  5
51
100
AcDbSymbolTableRecord
100
AcDbLayerTableRecord
  2
Layer_1
 70
0
  6
CONTINUOUS
  0
ENDTAB
  0
TABLE
  2
STYLE
  5
3
330
0
100
AcDbSymbolTable
 70
     1
  0
STYLE
  5
11
330
3
100
AcDbSymbolTableRecord
100
AcDbTextStyleTableRecord
  2
STANDARD
 70
     0
 40
0.0
 41
1.0
 50
0.0
 71
     0
 42
2.5
  3
txt
  4

  0
ENDTAB
  0
TABLE
  2
VIEW
  5
6
330
0
100
AcDbSymbolTable
 70
     0
  0
ENDTAB
  0
TABLE
  2
UCS
  5
7
330
0
100
AcDbSymbolTable
 70
     0
  0
ENDTAB
  0
TABLE
  2
APPID
  5
9
330
0
100
AcDbSymbolTable
 70
     2
  0
APPID
  5
12
330
9
100
AcDbSymbolTableRecord
100
AcDbRegAppTableRecord
  2
ACAD
 70
     0
  0
ENDTAB
  0
TABLE
  2
DIMSTYLE
  5
A
330
0
100
AcDbSymbolTable
 70
     1
  0
DIMSTYLE
105
27
330
A
100
AcDbSymbolTableRecord
100
AcDbDimStyleTableRecord
  2
ISO-25
 70
     0
  3

  4

  5

  6

  7

 40
1.0
 41
2.5
 42
0.625
 43
3.75
 44
1.25
 45
0.0
 46
0.0
 47
0.0
 48
0.0
140
2.5
141
2.5
142
0.0
143
0.03937007874016
144
1.0
145
0.0
146
1.0
147
0.625
 71
     0
 72
     0
 73
     0
 74
     0
 75
     0
 76
     0
 77
     1
 78
     8
170
     0
171
     3
172
     1
173
     0
174
     0
175
     0
176
     0
177
     0
178
     0
270
     2
271
     2
272
     2
273
     2
274
     3
340
11
275
     0
280
     0
281
     0
282
     0
283
     0
284
     8
285
     0
286
     0
287
     3
288
     0
  0
ENDTAB
  0
TABLE
  2
BLOCK_RECORD
  5
1
330
0
100
AcDbSymbolTable
 70
     1
  0
BLOCK_RECORD
  5
1F
330
1
100
AcDbSymbolTableRecord
100
AcDbBlockTableRecord
  2
*MODEL_SPACE
  0
BLOCK_RECORD
  5
1B
330
1
100
AcDbSymbolTableRecord
100
AcDbBlockTableRecord
  2
*PAPER_SPACE
  0
ENDTAB
  0
ENDSEC
  0
SECTION
  2
BLOCKS
  0
BLOCK
  5
20
330
1F
100
AcDbEntity
  8
0
100
AcDbBlockBegin
  2
*MODEL_SPACE
 70
     0
 10
0.0
 20
0.0
 30
0.0
  3
*MODEL_SPACE
  1

  0
ENDBLK
  5
21
330
1F
100
AcDbEntity
  8
0
100
AcDbBlockEnd
  0
BLOCK
  5
1C
330
1B
100
AcDbEntity
 67
     1
  8
0
100
AcDbBlockBegin
  2
*PAPER_SPACE
  1

  0
ENDBLK
  5
1D
330
1B
100
AcDbEntity
 67
     1
  8
0
100
AcDbBlockEnd
  0
ENDSEC
  0
SECTION
  2
ENTITIES
  0
SPLINE
  5
100
100
AcDbEntity
  8
Layer_1
 62
1
100
AcDbSpline
 70
8
 71
3
 72
8
 73
4
 74
0
 40
0
 40
0
 40
0
 40
0
 40
1
 40
1
 40
1
 40
1
 10
0.352222
 20
2.693889
 30
0.0
 10
0.282972
 20
2.693889
 30
0.0
 10
0.227222
 20
2.638139
 30
0.0
 10
0.227222
 20
2.568889
 30
0.0
  0
LINE
  5
101
100
AcDbEntity
  8
Layer_1
 62
1
100
AcDbLine
 10
0.227222
 20
2.568889
 30
0.0
 11
0.227222
 21
0.918889
 31
0.0
  0
SPLINE
  5
102
100
AcDbEntity
  8
Layer_1
 62
1
100
AcDbSpline
 70
8
 71
3
 72
8
 73
4
 74
0
 40
0
 40
0
 40
0
 40
0
 40
1
 40
1
 40
1
 40
1
 10
0.227222
 20
0.918889
 30
0.0
 10
0.227222
 20
0.849639
 30
0.0
 10
0.282972
 20
0.793889
 30
0.0
 10
0.352222
 20
0.793889
 30
0.0
  0
LINE
  5
103
100
AcDbEntity
  8
Layer_1
 62
1
100
AcDbLine
 10
0.352222
 20
0.793889
 30
0.0
 11
11.302222
 21
0.793889
 31
0.0
  0
SPLINE
  5
104
100
AcDbEntity
  8
Layer_1
 62
1
100
AcDbSpline
 70
8
 71
3
 72
8
 73
4
 74
0
 40
0
 40
0
 40
0
 40
0
 40
1
 40
1
 40
1
 40
1
 10
11.302222
 20
0.793889
 30
0.0
 10
11.371472
 20
0.793889
 30
0.0
 10
11.427222
 20
0.849639
 30
0.0
 10
11.427222
 20
0.918889
 30
0.0
  0
LINE
  5
105
100
AcDbEntity
  8
Layer_1
 62
1
100
AcDbLine
 10
11.427222
 20
0.918889
 30
0.0
 11
11.427222
 21
2.568889
 31
0.0
  0
SPLINE
  5
106
100
AcDbEntity
  8
Layer_1
 62
1
100
AcDbSpline
 70
8
 71
3
 72
8
 73
4
 74
0
 40
0
 40
0
 40
0
 40
0
 40
1
 40
1
 40
1
 40
1
 10
11.427222
 20
2.568889
 30
0.0
 10
11.427222
 20
2.638139
 30
0.0
 10
11.371472
 20
2.693889
 30
0.0
 10
11.302222
 20
2.693889
 30
0.0
  0
LINE
  5
107
100
AcDbEntity
  8
Layer_1
 62
1
100
AcDbLine
 10
11.302222
 20
2.693889
 30
0.0
 11
0.352222
 21
2.693889
 31
0.0
  0
LINE
  5
108
100
AcDbEntity
  8
Layer_1
 62
1
100
AcDbLine
 10
2.869236
 20
2.637248
 30
0.0
 11
2.884275
 21
2.637248
 31
0.0
  0
LINE
  5
109
100
AcDbEntity
  8
Layer_1
 62
1
100
AcDbLine
 10
2.884275
 20
2.637248
 30
0.0
 11
2.884275
 21
2.377396
 31
0.0
  0
LINE
  5
10a
100
AcDbEntity
  8
Layer_1
 62
1
100
AcDbLine
 10
2.884275
 20
2.377396
 30
0.0
 11
2.869236
 21
2.377396
 31
0.0
  0
LINE
  5
10b
100
AcDbEntity
  8
Layer_1
 62
1
100
AcDbLine
 10
2.869236
 20
2.377396
 30
0.0
 11
2.869236
 21
2.637248
 31
0.0
  0
LINE
  5
10c
100
AcDbEntity
  8
Layer_1
 62
1
100
AcDbLine
 10
3.491458
 20
2.637248
 30
0.0
 11
3.506497
 21
2.637248
 31
0.0
  0
LINE
  5
10d
100
AcDbEntity
  8
Layer_1
 62
1
100
AcDbLine
 10
3.506497
 20
2.637248
 30
0.0
 11
3.506497
 21
2.377396
 31
0.0
  0
LINE
  5
10e
100
AcDbEntity
  8
Layer_1
 62
1
100
AcDbLine
 10
3.506497
 20
2.377396
 30
0.0
 11
3.491458
 21
2.377396
 31
0.0
  0
LINE
  5
10f
100
AcDbEntity
  8
Layer_1
 62
1
100
AcDbLine
 10
3.491458
 20
2.377396
 30
0.0
 11
3.491458
 21
2.637248
 31
0.0
  0
LINE
  5
110
100
AcDbEntity
  8
Layer_1
 62
1
100
AcDbLine
 10
6.154262
 20
2.403069
 30
0.0
 11
8.144887
 21
2.403069
 31
0.0
  0
SPLINE
  5
111
100
AcDbEntity
  8
Layer_1
 62
1
100
AcDbSpline
 70
8
 71
3
 72
8
 73
4
 74
0
 40
0
 40
0
 40
0
 40
0
 40
1
 40
1
 40
1
 40
1
 10
8.144887
 20
2.403069
 30
0.0
 10
8.155967
 20
2.403069
 30
0.0
 10
8.164874
 20
2.394140
 30
0.0
 10
8.164874
 20
2.383060
 30
0.0
  0
LINE
  5
112
100
AcDbEntity
  8
Layer_1
 62
1
100
AcDbLine
 10
8.164874
 20
2.383060
 30
0.0
 11
8.164874
 21
1.960968
 31
0.0
  0
SPLINE
  5
113
100
AcDbEntity
  8
Layer_1
 62
1
100
AcDbSpline
 70
8
 71
3
 72
8
 73
4
 74
0
 40
0
 40
0
 40
0
 40
0
 40
1
 40
1
 40
1
 40
1
 10
8.164874
 20
1.960968
 30
0.0
 10
8.164874
 20
1.949888
 30
0.0
 10
8.155967
 20
1.940959
 30
0.0
 10
8.144887
 20
1.940959
 30
0.0
  0
LINE
  5
114
100
AcDbEntity
  8
Layer_1
 62
1
100
AcDbLine
 10
8.144887
 20
1.940959
 30
0.0
 11
6.154262
 21
1.940959
 31
0.0
  0
SPLINE
  5
115
100
AcDbEntity
  8
Layer_1
 62
1
100
AcDbSpline
 70
8
 71
3
 72
8
 73
4
 74
0
 40
0
 40
0
 40
0
 40
0
 40
1
 40
1
 40
1
 40
1
 10
6.154262
 20
1.940959
 30
0.0
 10
6.143182
 20
1.940959
 30
0.0
 10
6.134253
 20
1.949888
 30
0.0
 10
6.134253
 20
1.960968
 30
0.0
  0
LINE
  5
116
100
AcDbEntity
  8
Layer_1
 62
1
100
AcDbLine
 10
6.134253
 20
1.960968
 30
0.0
 11
6.134253
 21
2.383060
 31
0.0
  0
SPLINE
  5
117
100
AcDbEntity
  8
Layer_1
 62
1
100
AcDbSpline
 70
8
 71
3
 72
8
 73
4
 74
0
 40
0
 40
0
 40
0
 40
0
 40
1
 40
1
 40
1
 40
1
 10
6.134253
 20
2.383060
 30
0.0
 10
6.134253
 20
2.394140
 30
0.0
 10
6.143182
 20
2.403069
 30
0.0
 10
6.154262
 20
2.403069
 30
0.0
  0
LINE
  5
118
100
AcDbEntity
  8
Layer_1
 62
1
100
AcDbLine
 10
6.154262
 20
2.403069
 30
0.0
 11
6.154262
 21
2.403069
 31
0.0
  0
LINE
  5
119
100
AcDbEntity
  8
Layer_1
 62
1
100
AcDbLine
 10
2.932843
 20
2.324727
 30
0.0
 11
3.444366
 21
2.324727
 31
0.0
  0
LINE
  5
11a
100
AcDbEntity
  8
Layer_1
 62
1
100
AcDbLine
 10
3.444366
 20
2.324727
 30
0.0
 11
3.444366
 21
2.309688
 31
0.0
  0
LINE
  5
11b
100
AcDbEntity
  8
Layer_1
 62
1
100
AcDbLine
 10
3.444366
 20
2.309688
 30
0.0
 11
2.932843
 21
2.309688
 31
0.0
  0
LINE
  5
11c
100
AcDbEntity
  8
Layer_1
 62
1
100
AcDbLine
 10
2.932843
 20
2.309688
 30
0.0
 11
2.932843
 21
2.324727
 31
0.0
  0
SPLINE
  5
11d
100
AcDbEntity
  8
Layer_1
 62
1
100
AcDbSpline
 70
8
 71
3
 72
8
 73
4
 74
0
 40
0
 40
0
 40
0
 40
0
 40
1
 40
1
 40
1
 40
1
 10
3.747752
 20
2.283407
 30
0.0
 10
3.877527
 20
2.283407
 30
0.0
 10
3.982713
 20
2.178220
 30
0.0
 10
3.982713
 20
2.048446
 30
0.0
  0
SPLINE
  5
11e
100
AcDbEntity
  8
Layer_1
 62
1
100
AcDbSpline
 70
8
 71
3
 72
8
 73
4
 74
0
 40
0
 40
0
 40
0
 40
0
 40
1
 40
1
 40
1
 40
1
 10
3.982713
 20
2.048446
 30
0.0
 10
3.982713
 20
1.918617
 30
0.0
 10
3.877527
 20
1.813420
 30
0.0
 10
3.747752
 20
1.813420
 30
0.0
  0
SPLINE
  5
11f
100
AcDbEntity
  8
Layer_1
 62
1
100
AcDbSpline
 70
8
 71
3
 72
8
 73
4
 74
0
 40
0
 40
0
 40
0
 40
0
 40
1
 40
1
 40
1
 40
1
 10
3.747752
 20
1.813420
 30
0.0
 10
3.617924
 20
1.813420
 30
0.0
 10
3.512726
 20
1.918617
 30
0.0
 10
3.512726
 20
2.048446
 30
0.0
  0
SPLINE
  5
120
100
AcDbEntity
  8
Layer_1
 62
1
100
AcDbSpline
 70
8
 71
3
 72
8
 73
4
 74
0
 40
0
 40
0
 40
0
 40
0
 40
1
 40
1
 40
1
 40
1
 10
3.512726
 20
2.048446
 30
0.0
 10
3.512726
 20
2.178220
 30
0.0
 10
3.617924
 20
2.283407
 30
0.0
 10
3.747752
 20
2.283407
 30
0.0
  0
LINE
  5
121
100
AcDbEntity
  8
Layer_1
 62
1
100
AcDbLine
 10
3.747752
 20
2.283407
 30
0.0
 11
3.747752
 21
2.283407
 31
0.0
  0
SPLINE
  5
122
100
AcDbEntity
  8
Layer_1
 62
1
100
AcDbSpline
 70
8
 71
3
 72
8
 73
4
 74
0
 40
0
 40
0
 40
0
 40
0
 40
1
 40
1
 40
1
 40
1
 10
0.701745
 20
2.093433
 30
0.0
 10
0.738746
 20
2.093433
 30
0.0
 10
0.775747
 20
2.068753
 30
0.0
 10
0.775747
 20
2.019410
 30
0.0
  0
SPLINE
  5
123
100
AcDbEntity
  8
Layer_1
 62
1
100
AcDbSpline
 70
8
 71
3
 72
8
 73
4
 74
0
 40
0
 40
0
 40
0
 40
0
 40
1
 40
1
 40
1
 40
1
 10
0.775747
 20
2.019410
 30
0.0
 10
0.775747
 20
1.920723
 30
0.0
 10
0.627743
 20
1.920723
 30
0.0
 10
0.627743
 20
2.019410
 30
0.0
  0
SPLINE
  5
124
100
AcDbEntity
  8
Layer_1
 62
1
100
AcDbSpline
 70
8
 71
3
 72
8
 73
4
 74
0
 40
0
 40
0
 40
0
 40
0
 40
1
 40
1
 40
1
 40
1
 10
0.627743
 20
2.019410
 30
0.0
 10
0.627743
 20
2.068753
 30
0.0
 10
0.664744
 20
2.093433
 30
0.0
 10
0.701745
 20
2.093433
 30
0.0
  0
LINE
  5
125
100
AcDbEntity
  8
Layer_1
 62
1
100
AcDbLine
 10
0.701745
 20
2.093433
 30
0.0
 11
0.701745
 21
2.093433
 31
0.0
  0
SPLINE
  5
126
100
AcDbEntity
  8
Layer_1
 62
1
100
AcDbSpline
 70
8
 71
3
 72
8
 73
4
 74
0
 40
0
 40
0
 40
0
 40
0
 40
1
 40
1
 40
1
 40
1
 10
5.826745
 20
2.093433
 30
0.0
 10
5.863746
 20
2.093433
 30
0.0
 10
5.900747
 20
2.068753
 30
0.0
 10
5.900747
 20
2.019410
 30
0.0
  0
SPLINE
  5
127
100
AcDbEntity
  8
Layer_1
 62
1
100
AcDbSpline
 70
8
 71
3
 72
8
 73
4
 74
0
 40
0
 40
0
 40
0
 40
0
 40
1
 40
1
 40
1
 40
1
 10
5.900747
 20
2.019410
 30
0.0
 10
5.900747
 20
1.920723
 30
0.0
 10
5.752743
 20
1.920723
 30
0.0
 10
5.752743
 20
2.019410
 30
0.0
  0
SPLINE
  5
128
100
AcDbEntity
  8
Layer_1
 62
1
100
AcDbSpline
 70
8
 71
3
 72
8
 73
4
 74
0
 40
0
 40
0
 40
0
 40
0
 40
1
 40
1
 40
1
 40
1
 10
5.752743
 20
2.019410
 30
0.0
 10
5.752743
 20
2.068753
 30
0.0
 10
5.789744
 20
2.093433
 30
0.0
 10
5.826745
 20
2.093433
 30
0.0
  0
LINE
  5
129
100
AcDbEntity
  8
Layer_1
 62
1
100
AcDbLine
 10
5.826745
 20
2.093433
 30
0.0
 11
5.826745
 21
2.093433
 31
0.0
  0
SPLINE
  5
12a
100
AcDbEntity
  8
Layer_1
 62
1
100
AcDbSpline
 70
8
 71
3
 72
8
 73
4
 74
0
 40
0
 40
0
 40
0
 40
0
 40
1
 40
1
 40
1
 40
1
 10
10.951745
 20
2.093433
 30
0.0
 10
10.988746
 20
2.093433
 30
0.0
 10
11.025747
 20
2.068753
 30
0.0
 10
11.025747
 20
2.019410
 30
0.0
  0
SPLINE
  5
12b
100
AcDbEntity
  8
Layer_1
 62
1
100
AcDbSpline
 70
8
 71
3
 72
8
 73
4
 74
0
 40
0
 40
0
 40
0
 40
0
 40
1
 40
1
 40
1
 40
1
 10
11.025747
 20
2.019410
 30
0.0
 10
11.025747
 20
1.920723
 30
0.0
 10
10.877743
 20
1.920723
 30
0.0
 10
10.877743
 20
2.019410
 30
0.0
  0
SPLINE
  5
12c
100
AcDbEntity
  8
Layer_1
 62
1
100
AcDbSpline
 70
8
 71
3
 72
8
 73
4
 74
0
 40
0
 40
0
 40
0
 40
0
 40
1
 40
1
 40
1
 40
1
 10
10.877743
 20
2.019410
 30
0.0
 10
10.877743
 20
2.068753
 30
0.0
 10
10.914744
 20
2.093433
 30
0.0
 10
10.951745
 20
2.093433
 30
0.0
  0
LINE
  5
12d
100
AcDbEntity
  8
Layer_1
 62
1
100
AcDbLine
 10
10.951745
 20
2.093433
 30
0.0
 11
10.951745
 21
2.093433
 31
0.0
  0
LINE
  5
12e
100
AcDbEntity
  8
Layer_1
 62
1
100
AcDbLine
 10
2.465569
 20
2.029371
 30
0.0
 11
3.222253
 21
2.029371
 31
0.0
  0
SPLINE
  5
12f
100
AcDbEntity
  8
Layer_1
 62
1
100
AcDbSpline
 70
8
 71
3
 72
8
 73
4
 74
0
 40
0
 40
0
 40
0
 40
0
 40
1
 40
1
 40
1
 40
1
 10
3.222253
 20
2.029371
 30
0.0
 10
3.233333
 20
2.029371
 30
0.0
 10
3.242240
 20
2.020464
 30
0.0
 10
3.242240
 20
2.009384
 30
0.0
  0
LINE
  5
130
100
AcDbEntity
  8
Layer_1
 62
1
100
AcDbLine
 10
3.242240
 20
2.009384
 30
0.0
 11
3.242240
 21
1.824076
 31
0.0
  0
SPLINE
  5
131
100
AcDbEntity
  8
Layer_1
 62
1
100
AcDbSpline
 70
8
 71
3
 72
8
 73
4
 74
0
 40
0
 40
0
 40
0
 40
0
 40
1
 40
1
 40
1
 40
1
 10
3.242240
 20
1.824076
 30
0.0
 10
3.242240
 20
1.812996
 30
0.0
 10
3.233333
 20
1.804067
 30
0.0
 10
3.222253
 20
1.804067
 30
0.0
  0
LINE
  5
132
100
AcDbEntity
  8
Layer_1
 62
1
100
AcDbLine
 10
3.222253
 20
1.804067
 30
0.0
 11
2.465569
 21
1.804067
 31
0.0
  0
SPLINE
  5
133
100
AcDbEntity
  8
Layer_1
 62
1
100
AcDbSpline
 70
8
 71
3
 72
8
 73
4
 74
0
 40
0
 40
0
 40
0
 40
0
 40
1
 40
1
 40
1
 40
1
 10
2.465569
 20
1.804067
 30
0.0
 10
2.454489
 20
1.804067
 30
0.0
 10
2.445560
 20
1.812996
 30
0.0
 10
2.445560
 20
1.824076
 30
0.0
  0
LINE
  5
134
100
AcDbEntity
  8
Layer_1
 62
1
100
AcDbLine
 10
2.445560
 20
1.824076
 30
0.0
 11
2.445560
 21
2.009384
 31
0.0
  0
SPLINE
  5
135
100
AcDbEntity
  8
Layer_1
 62
1
100
AcDbSpline
 70
8
 71
3
 72
8
 73
4
 74
0
 40
0
 40
0
 40
0
 40
0
 40
1
 40
1
 40
1
 40
1
 10
2.445560
 20
2.009384
 30
0.0
 10
2.445560
 20
2.020464
 30
0.0
 10
2.454489
 20
2.029371
 30
0.0
 10
2.465569
 20
2.029371
 30
0.0
  0
LINE
  5
136
100
AcDbEntity
  8
Layer_1
 62
1
100
AcDbLine
 10
2.465569
 20
2.029371
 30
0.0
 11
2.465569
 21
2.029371
 31
0.0
  0
SPLINE
  5
137
100
AcDbEntity
  8
Layer_1
 62
1
100
AcDbSpline
 70
8
 71
3
 72
8
 73
4
 74
0
 40
0
 40
0
 40
0
 40
0
 40
1
 40
1
 40
1
 40
1
 10
0.701745
 20
1.353416
 30
0.0
 10
0.738746
 20
1.353416
 30
0.0
 10
0.775747
 20
1.328736
 30
0.0
 10
0.775747
 20
1.279392
 30
0.0
  0
SPLINE
  5
138
100
AcDbEntity
  8
Layer_1
 62
1
100
AcDbSpline
 70
8
 71
3
 72
8
 73
4
 74
0
 40
0
 40
0
 40
0
 40
0
 40
1
 40
1
 40
1
 40
1
 10
0.775747
 20
1.279392
 30
0.0
 10
0.775747
 20
1.180760
 30
0.0
 10
0.627743
 20
1.180760
 30
0.0
 10
0.627743
 20
1.279392
 30
0.0
  0
SPLINE
  5
139
100
AcDbEntity
  8
Layer_1
 62
1
100
AcDbSpline
 70
8
 71
3
 72
8
 73
4
 74
0
 40
0
 40
0
 40
0
 40
0
 40
1
 40
1
 40
1
 40
1
 10
0.627743
 20
1.279392
 30
0.0
 10
0.627743
 20
1.328736
 30
0.0
 10
0.664744
 20
1.353416
 30
0.0
 10
0.701745
 20
1.353416
 30
0.0
  0
LINE
  5
13a
100
AcDbEntity
  8
Layer_1
 62
1
100
AcDbLine
 10
0.701745
 20
1.353416
 30
0.0
 11
0.701745
 21
1.353416
 31
0.0
  0
SPLINE
  5
13b
100
AcDbEntity
  8
Layer_1
 62
1
100
AcDbSpline
 70
8
 71
3
 72
8
 73
4
 74
0
 40
0
 40
0
 40
0
 40
0
 40
1
 40
1
 40
1
 40
1
 10
5.826745
 20
1.353416
 30
0.0
 10
5.863746
 20
1.353416
 30
0.0
 10
5.900747
 20
1.328736
 30
0.0
 10
5.900747
 20
1.279392
 30
0.0
  0
SPLINE
  5
13c
100
AcDbEntity
  8
Layer_1
 62
1
100
AcDbSpline
 70
8
 71
3
 72
8
 73
4
 74
0
 40
0
 40
0
 40
0
 40
0
 40
1
 40
1
 40
1
 40
1
 10
5.900747
 20
1.279392
 30
0.0
 10
5.900747
 20
1.180760
 30
0.0
 10
5.752743
 20
1.180760
 30
0.0
 10
5.752743
 20
1.279392
 30
0.0
  0
SPLINE
  5
13d
100
AcDbEntity
  8
Layer_1
 62
1
100
AcDbSpline
 70
8
 71
3
 72
8
 73
4
 74
0
 40
0
 40
0
 40
0
 40
0
 40
1
 40
1
 40
1
 40
1
 10
5.752743
 20
1.279392
 30
0.0
 10
5.752743
 20
1.328736
 30
0.0
 10
5.789744
 20
1.353416
 30
0.0
 10
5.826745
 20
1.353416
 30
0.0
  0
LINE
  5
13e
100
AcDbEntity
  8
Layer_1
 62
1
100
AcDbLine
 10
5.826745
 20
1.353416
 30
0.0
 11
5.826745
 21
1.353416
 31
0.0
  0
SPLINE
  5
13f
100
AcDbEntity
  8
Layer_1
 62
1
100
AcDbSpline
 70
8
 71
3
 72
8
 73
4
 74
0
 40
0
 40
0
 40
0
 40
0
 40
1
 40
1
 40
1
 40
1
 10
10.951745
 20
1.353416
 30
0.0
 10
10.988746
 20
1.353416
 30
0.0
 10
11.025747
 20
1.328736
 30
0.0
 10
11.025747
 20
1.279392
 30
0.0
  0
SPLINE
  5
140
100
AcDbEntity
  8
Layer_1
 62
1
100
AcDbSpline
 70
8
 71
3
 72
8
 73
4
 74
0
 40
0
 40
0
 40
0
 40
0
 40
1
 40
1
 40
1
 40
1
 10
11.025747
 20
1.279392
 30
0.0
 10
11.025747
 20
1.180760
 30
0.0
 10
10.877743
 20
1.180760
 30
0.0
 10
10.877743
 20
1.279392
 30
0.0
  0
SPLINE
  5
141
100
AcDbEntity
  8
Layer_1
 62
1
100
AcDbSpline
 70
8
 71
3
 72
8
 73
4
 74
0
 40
0
 40
0
 40
0
 40
0
 40
1
 40
1
 40
1
 40
1
 10
10.877743
 20
1.279392
 30
0.0
 10
10.877743
 20
1.328736
 30
0.0
 10
10.914744
 20
1.353416
 30
0.0
 10
10.951745
 20
1.353416
 30
0.0
  0
LINE
  5
142
100
AcDbEntity
  8
Layer_1
 62
1
100
AcDbLine
 10
10.951745
 20
1.353416
 30
0.0
 11
10.951745
 21
1.353416
 31
0.0
  0
LINE
  5
143
100
AcDbEntity
  8
Layer_1
 62
1
100
AcDbLine
 10
2.246298
 20
1.338051
 30
0.0
 11
3.294735
 21
1.338051
 31
0.0
  0
SPLINE
  5
144
100
AcDbEntity
  8
Layer_1
 62
1
100
AcDbSpline
 70
8
 71
3
 72
8
 73
4
 74
0
 40
0
 40
0
 40
0
 40
0
 40
1
 40
1
 40
1
 40
1
 10
3.294735
 20
1.338051
 30
0.0
 10
3.305815
 20
1.338051
 30
0.0
 10
3.314744
 20
1.329123
 30
0.0
 10
3.314744
 20
1.318043
 30
0.0
  0
LINE
  5
145
100
AcDbEntity
  8
Layer_1
 62
1
100
AcDbLine
 10
3.314744
 20
1.318043
 30
0.0
 11
3.314744
 21
1.124097
 31
0.0
  0
SPLINE
  5
146
100
AcDbEntity
  8
Layer_1
 62
1
100
AcDbSpline
 70
8
 71
3
 72
8
 73
4
 74
0
 40
0
 40
0
 40
0
 40
0
 40
1
 40
1
 40
1
 40
1
 10
3.314744
 20
1.124097
 30
0.0
 10
3.314744
 20
1.113017
 30
0.0
 10
3.305815
 20
1.104089
 30
0.0
 10
3.294735
 20
1.104089
 30
0.0
  0
LINE
  5
147
100
AcDbEntity
  8
Layer_1
 62
1
100
AcDbLine
 10
3.294735
 20
1.104089
 30
0.0
 11
2.246298
 21
1.104089
 31
0.0
  0
SPLINE
  5
148
100
AcDbEntity
  8
Layer_1
 62
1
100
AcDbSpline
 70
8
 71
3
 72
8
 73
4
 74
0
 40
0
 40
0
 40
0
 40
0
 40
1
 40
1
 40
1
 40
1
 10
2.246298
 20
1.104089
 30
0.0
 10
2.235218
 20
1.104089
 30
0.0
 10
2.226289
 20
1.113017
 30
0.0
 10
2.226289
 20
1.124097
 30
0.0
  0
LINE
  5
149
100
AcDbEntity
  8
Layer_1
 62
1
100
AcDbLine
 10
2.226289
 20
1.124097
 30
0.0
 11
2.226289
 21
1.318043
 31
0.0
  0
SPLINE
  5
14a
100
AcDbEntity
  8
Layer_1
 62
1
100
AcDbSpline
 70
8
 71
3
 72
8
 73
4
 74
0
 40
0
 40
0
 40
0
 40
0
 40
1
 40
1
 40
1
 40
1
 10
2.226289
 20
1.318043
 30
0.0
 10
2.226289
 20
1.329123
 30
0.0
 10
2.235218
 20
1.338051
 30
0.0
 10
2.246298
 20
1.338051
 30
0.0
  0
LINE
  5
14b
100
AcDbEntity
  8
Layer_1
 62
1
100
AcDbLine
 10
2.246298
 20
1.338051
 30
0.0
 11
2.246298
 21
1.338051
 31
0.0
  0
LINE
  5
14c
100
AcDbEntity
  8
Layer_1
 62
1
100
AcDbLine
 10
3.398207
 20
1.331389
 30
0.0
 11
4.644540
 21
1.331389
 31
0.0
  0
SPLINE
  5
14d
100
AcDbEntity
  8
Layer_1
 62
1
100
AcDbSpline
 70
8
 71
3
 72
8
 73
4
 74
0
 40
0
 40
0
 40
0
 40
0
 40
1
 40
1
 40
1
 40
1
 10
4.644540
 20
1.331389
 30
0.0
 10
4.655620
 20
1.331389
 30
0.0
 10
4.664527
 20
1.322482
 30
0.0
 10
4.664527
 20
1.311402
 30
0.0
  0
LINE
  5
14e
100
AcDbEntity
  8
Layer_1
 62
1
100
AcDbLine
 10
4.664527
 20
1.311402
 30
0.0
 11
4.664527
 21
1.117435
 31
0.0
  0
SPLINE
  5
14f
100
AcDbEntity
  8
Layer_1
 62
1
100
AcDbSpline
 70
8
 71
3
 72
8
 73
4
 74
0
 40
0
 40
0
 40
0
 40
0
 40
1
 40
1
 40
1
 40
1
 10
4.664527
 20
1.117435
 30
0.0
 10
4.664527
 20
1.106355
 30
0.0
 10
4.655620
 20
1.097426
 30
0.0
 10
4.644540
 20
1.097426
 30
0.0
  0
LINE
  5
150
100
AcDbEntity
  8
Layer_1
 62
1
100
AcDbLine
 10
4.644540
 20
1.097426
 30
0.0
 11
3.398207
 21
1.097426
 31
0.0
  0
SPLINE
  5
151
100
AcDbEntity
  8
Layer_1
 62
1
100
AcDbSpline
 70
8
 71
3
 72
8
 73
4
 74
0
 40
0
 40
0
 40
0
 40
0
 40
1
 40
1
 40
1
 40
1
 10
3.398207
 20
1.097426
 30
0.0
 10
3.387127
 20
1.097426
 30
0.0
 10
3.378220
 20
1.106355
 30
0.0
 10
3.378220
 20
1.117435
 30
0.0
  0
LINE
  5
152
100
AcDbEntity
  8
Layer_1
 62
1
100
AcDbLine
 10
3.378220
 20
1.117435
 30
0.0
 11
3.378220
 21
1.311402
 31
0.0
  0
SPLINE
  5
153
100
AcDbEntity
  8
Layer_1
 62
1
100
AcDbSpline
 70
8
 71
3
 72
8
 73
4
 74
0
 40
0
 40
0
 40
0
 40
0
 40
1
 40
1
 40
1
 40
1
 10
3.378220
 20
1.311402
 30
0.0
 10
3.378220
 20
1.322482
 30
0.0
 10
3.387127
 20
1.331389
 30
0.0
 10
3.398207
 20
1.331389
 30
0.0
  0
LINE
  5
154
100
AcDbEntity
  8
Layer_1
 62
1
100
AcDbLine
 10
3.398207
 20
1.331389
 30
0.0
 11
3.398207
 21
1.331389
 31
0.0
  0
LINE
  5
155
100
AcDbEntity
  8
Layer_1
 62
1
100
AcDbLine
 10
11.128307
 20
1.225660
 30
0.0
 11
11.267218
 21
1.225660
 31
0.0
  0
SPLINE
  5
156
100
AcDbEntity
  8
Layer_1
 62
1
100
AcDbSpline
 70
8
 71
3
 72
8
 73
4
 74
0
 40
0
 40
0
 40
0
 40
0
 40
1
 40
1
 40
1
 40
1
 10
11.267218
 20
1.225660
 30
0.0
 10
11.278298
 20
1.225660
 30
0.0
 10
11.287227
 20
1.216731
 30
0.0
 10
11.287227
 20
1.205651
 30
0.0
  0
LINE
  5
157
100
AcDbEntity
  8
Layer_1
 62
1
100
AcDbLine
 10
11.287227
 20
1.205651
 30
0.0
 11
11.287227
 21
1.091155
 31
0.0
  0
LINE
  5
158
100
AcDbEntity
  8
Layer_1
 62
1
100
AcDbLine
 10
11.287227
 20
1.091155
 30
0.0
 11
11.287227
 21
1.070256
 31
0.0
  0
LINE
  5
159
100
AcDbEntity
  8
Layer_1
 62
1
100
AcDbLine
 10
11.287227
 20
1.070256
 30
0.0
 11
11.287227
 21
0.903937
 31
0.0
  0
SPLINE
  5
15a
100
AcDbEntity
  8
Layer_1
 62
1
100
AcDbSpline
 70
8
 71
3
 72
8
 73
4
 74
0
 40
0
 40
0
 40
0
 40
0
 40
1
 40
1
 40
1
 40
1
 10
11.287227
 20
0.903937
 30
0.0
 10
11.287227
 20
0.892857
 30
0.0
 10
11.278298
 20
0.883950
 30
0.0
 10
11.267218
 20
0.883950
 30
0.0
  0
LINE
  5
15b
100
AcDbEntity
  8
Layer_1
 62
1
100
AcDbLine
 10
11.267218
 20
0.883950
 30
0.0
 11
10.881693
 21
0.883950
 31
0.0
  0
SPLINE
  5
15c
100
AcDbEntity
  8
Layer_1
 62
1
100
AcDbSpline
 70
8
 71
3
 72
8
 73
4
 74
0
 40
0
 40
0
 40
0
 40
0
 40
1
 40
1
 40
1
 40
1
 10
10.881693
 20
0.883950
 30
0.0
 10
10.870613
 20
0.883950
 30
0.0
 10
10.861706
 20
0.892857
 30
0.0
 10
10.861706
 20
0.903937
 30
0.0
  0
LINE
  5
15d
100
AcDbEntity
  8
Layer_1
 62
1
100
AcDbLine
 10
10.861706
 20
0.903937
 30
0.0
 11
10.861706
 21
1.091155
 31
0.0
  0
SPLINE
  5
15e
100
AcDbEntity
  8
Layer_1
 62
1
100
AcDbSpline
 70
8
 71
3
 72
8
 73
4
 74
0
 40
0
 40
0
 40
0
 40
0
 40
1
 40
1
 40
1
 40
1
 10
10.861706
 20
1.091155
 30
0.0
 10
10.861706
 20
1.102235
 30
0.0
 10
10.870613
 20
1.111163
 30
0.0
 10
10.881693
 20
1.111163
 30
0.0
  0
LINE
  5
15f
100
AcDbEntity
  8
Layer_1
 62
1
100
AcDbLine
 10
10.881693
 20
1.111163
 30
0.0
 11
11.108299
 21
1.111163
 31
0.0
  0
LINE
  5
160
100
AcDbEntity
  8
Layer_1
 62
1
100
AcDbLine
 10
11.108299
 20
1.111163
 30
0.0
 11
11.108299
 21
1.205651
 31
0.0
  0
SPLINE
  5
161
100
AcDbEntity
  8
Layer_1
 62
1
100
AcDbSpline
 70
8
 71
3
 72
8
 73
4
 74
0
 40
0
 40
0
 40
0
 40
0
 40
1
 40
1
 40
1
 40
1
 10
11.108299
 20
1.205651
 30
0.0
 10
11.108299
 20
1.216731
 30
0.0
 10
11.117227
 20
1.225660
 30
0.0
 10
11.128307
 20
1.225660
 30
0.0
  0
LINE
  5
162
100
AcDbEntity
  8
Layer_1
 62
1
100
AcDbLine
 10
11.128307
 20
1.225660
 30
0.0
 11
11.128307
 21
1.225660
 31
0.0
  0
LINE
  5
163
100
AcDbEntity
  8
Layer_1
 62
1
100
AcDbLine
 10
0.502873
 20
1.110230
 30
0.0
 11
0.907713
 21
1.110230
 31
0.0
  0
SPLINE
  5
164
100
AcDbEntity
  8
Layer_1
 62
1
100
AcDbSpline
 70
8
 71
3
 72
8
 73
4
 74
0
 40
0
 40
0
 40
0
 40
0
 40
1
 40
1
 40
1
 40
1
 10
0.907713
 20
1.110230
 30
0.0
 10
0.918793
 20
1.110230
 30
0.0
 10
0.927721
 20
1.101323
 30
0.0
 10
0.927721
 20
1.090243
 30
0.0
  0
LINE
  5
165
100
AcDbEntity
  8
Layer_1
 62
1
100
AcDbLine
 10
0.927721
 20
1.090243
 30
0.0
 11
0.927721
 21
0.903763
 31
0.0
  0
SPLINE
  5
166
100
AcDbEntity
  8
Layer_1
 62
1
100
AcDbSpline
 70
8
 71
3
 72
8
 73
4
 74
0
 40
0
 40
0
 40
0
 40
0
 40
1
 40
1
 40
1
 40
1
 10
0.927721
 20
0.903763
 30
0.0
 10
0.927721
 20
0.892683
 30
0.0
 10
0.918793
 20
0.883776
 30
0.0
 10
0.907713
 20
0.883776
 30
0.0
  0
LINE
  5
167
100
AcDbEntity
  8
Layer_1
 62
1
100
AcDbLine
 10
0.907713
 20
0.883776
 30
0.0
 11
0.502873
 21
0.883776
 31
0.0
  0
SPLINE
  5
168
100
AcDbEntity
  8
Layer_1
 62
1
100
AcDbSpline
 70
8
 71
3
 72
8
 73
4
 74
0
 40
0
 40
0
 40
0
 40
0
 40
1
 40
1
 40
1
 40
1
 10
0.502873
 20
0.883776
 30
0.0
 10
0.491793
 20
0.883776
 30
0.0
 10
0.482886
 20
0.892683
 30
0.0
 10
0.482886
 20
0.903763
 30
0.0
  0
LINE
  5
169
100
AcDbEntity
  8
Layer_1
 62
1
100
AcDbLine
 10
0.482886
 20
0.903763
 30
0.0
 11
0.482886
 21
0.915612
 31
0.0
  0
LINE
  5
16a
100
AcDbEntity
  8
Layer_1
 62
1
100
AcDbLine
 10
0.482886
 20
0.915612
 30
0.0
 11
0.385729
 21
0.915612
 31
0.0
  0
SPLINE
  5
16b
100
AcDbEntity
  8
Layer_1
 62
1
100
AcDbSpline
 70
8
 71
3
 72
8
 73
4
 74
0
 40
0
 40
0
 40
0
 40
0
 40
1
 40
1
 40
1
 40
1
 10
0.385729
 20
0.915612
 30
0.0
 10
0.374649
 20
0.915612
 30
0.0
 10
0.365720
 20
0.924541
 30
0.0
 10
0.365720
 20
0.935621
 30
0.0
  0
LINE
  5
16c
100
AcDbEntity
  8
Layer_1
 62
1
100
AcDbLine
 10
0.365720
 20
0.935621
 30
0.0
 11
0.365720
 21
0.990569
 31
0.0
  0
SPLINE
  5
16d
100
AcDbEntity
  8
Layer_1
 62
1
100
AcDbSpline
 70
8
 71
3
 72
8
 73
4
 74
0
 40
0
 40
0
 40
0
 40
0
 40
1
 40
1
 40
1
 40
1
 10
0.365720
 20
0.990569
 30
0.0
 10
0.365720
 20
1.001649
 30
0.0
 10
0.374649
 20
1.010556
 30
0.0
 10
0.385729
 20
1.010556
 30
0.0
  0
LINE
  5
16e
100
AcDbEntity
  8
Layer_1
 62
1
100
AcDbLine
 10
0.385729
 20
1.010556
 30
0.0
 11
0.482886
 21
1.010556
 31
0.0
  0
LINE
  5
16f
100
AcDbEntity
  8
Layer_1
 62
1
100
AcDbLine
 10
0.482886
 20
1.010556
 30
0.0
 11
0.482886
 21
1.090243
 31
0.0
  0
SPLINE
  5
170
100
AcDbEntity
  8
Layer_1
 62
1
100
AcDbSpline
 70
8
 71
3
 72
8
 73
4
 74
0
 40
0
 40
0
 40
0
 40
0
 40
1
 40
1
 40
1
 40
1
 10
0.482886
 20
1.090243
 30
0.0
 10
0.482886
 20
1.101323
 30
0.0
 10
0.491793
 20
1.110230
 30
0.0
 10
0.502873
 20
1.110230
 30
0.0
  0
LINE
  5
171
100
AcDbEntity
  8
Layer_1
 62
1
100
AcDbLine
 10
0.502873
 20
1.110230
 30
0.0
 11
0.502873
 21
1.110230
 31
0.0
  0
ENDSEC
  0
SECTION
  2
OBJECTS
  0
DICTIONARY
  5
C
330
0
100
AcDbDictionary
  3
ACAD_GROUP
350
D
  3
ACAD_MLINESTYLE
350
17
  0
DICTIONARY
  5
D
330
C
100
AcDbDictionary
  0
DICTIONARY
  5
1A
330
C
100
AcDbDictionary
  0
DICTIONARY
  5
17
330
C
100
AcDbDictionary
  3
STANDARD
350
18
  0
DICTIONARY
  5
19
330
C
100
AcDbDictionary
  0
ENDSEC
  0
EOF
