  0
SECTION
  2
HEADER
  9
$ACADVER
  1
AC1014
  9
$HANDSEED
  5
FFFF
  9
$MEASUREMENT
 70
     1
  0
ENDSEC
  0
SECTION
  2
TABLES
  0
TABLE
  2
VPORT
  5
8
330
0
100
AcDbSymbolTable
 70
     4
  0
VPORT
  5
2E
330
8
100
AcDbSymbolTableRecord
100
AcDbViewportTableRecord
  2
*ACTIVE
 70
     0
 10
0.0
 20
0.0
 11
1.0
 21
1.0
 12
210.0
 22
148.5
 13
0.0
 23
0.0
 14
10.0
 24
10.0
 15
10.0
 25
10.0
 16
0.0
 26
0.0
 36
1.0
 17
0.0
 27
0.0
 37
0.0
 40
341.0
 41
1.24
 42
50.0
 43
0.0
 44
0.0
 50
0.0
 51
0.0
 71
     0
 72
   100
 73
     1
 74
     3
 75
     0
 76
     0
 77
     0
 78
     0
  0
ENDTAB
  0
TABLE
  2
LTYPE
  5
5
330
0
100
AcDbSymbolTable
 70
     1
  0
LTYPE
  5
14
330
5
100
AcDbSymbolTableRecord
100
AcDbLinetypeTableRecord
  2
BYBLOCK
 70
     0
  3

 72
    65
 73
     0
 40
0.0
  0
LTYPE
  5
15
330
5
100
AcDbSymbolTableRecord
100
AcDbLinetypeTableRecord
  2
BYLAYER
 70
     0
  3

 72
    65
 73
     0
 40
0.0
  0
LTYPE
  5
16
330
5
100
AcDbSymbolTableRecord
100
AcDbLinetypeTableRecord
  2
CONTINUOUS
 70
     0
  3
Solid line
 72
    65
 73
     0
 40
0.0
  0
ENDTAB
  0
TABLE
  2
LAYER
  5
2
100
AcDbSymbolTable
 70
2
  0
LAYER
  5
50
100
AcDbSymbolTableRecord
100
AcDbLayerTableRecord
  2
0
 70
0
  6
CONTINUOUS
  0
LAYER
  5
51
100
AcDbSymbolTableRecord
100
AcDbLayerTableRecord
  2
Layer_1
 70
0
  6
CONTINUOUS
  0
ENDTAB
  0
TABLE
  2
STYLE
  5
3
330
0
100
AcDbSymbolTable
 70
     1
  0
STYLE
  5
11
330
3
100
AcDbSymbolTableRecord
100
AcDbTextStyleTableRecord
  2
STANDARD
 70
     0
 40
0.0
 41
1.0
 50
0.0
 71
     0
 42
2.5
  3
txt
  4

  0
ENDTAB
  0
TABLE
  2
VIEW
  5
6
330
0
100
AcDbSymbolTable
 70
     0
  0
ENDTAB
  0
TABLE
  2
UCS
  5
7
330
0
100
AcDbSymbolTable
 70
     0
  0
ENDTAB
  0
TABLE
  2
APPID
  5
9
330
0
100
AcDbSymbolTable
 70
     2
  0
APPID
  5
12
330
9
100
AcDbSymbolTableRecord
100
AcDbRegAppTableRecord
  2
ACAD
 70
     0
  0
ENDTAB
  0
TABLE
  2
DIMSTYLE
  5
A
330
0
100
AcDbSymbolTable
 70
     1
  0
DIMSTYLE
105
27
330
A
100
AcDbSymbolTableRecord
100
AcDbDimStyleTableRecord
  2
ISO-25
 70
     0
  3

  4

  5

  6

  7

 40
1.0
 41
2.5
 42
0.625
 43
3.75
 44
1.25
 45
0.0
 46
0.0
 47
0.0
 48
0.0
140
2.5
141
2.5
142
0.0
143
0.03937007874016
144
1.0
145
0.0
146
1.0
147
0.625
 71
     0
 72
     0
 73
     0
 74
     0
 75
     0
 76
     0
 77
     1
 78
     8
170
     0
171
     3
172
     1
173
     0
174
     0
175
     0
176
     0
177
     0
178
     0
270
     2
271
     2
272
     2
273
     2
274
     3
340
11
275
     0
280
     0
281
     0
282
     0
283
     0
284
     8
285
     0
286
     0
287
     3
288
     0
  0
ENDTAB
  0
TABLE
  2
BLOCK_RECORD
  5
1
330
0
100
AcDbSymbolTable
 70
     1
  0
BLOCK_RECORD
  5
1F
330
1
100
AcDbSymbolTableRecord
100
AcDbBlockTableRecord
  2
*MODEL_SPACE
  0
BLOCK_RECORD
  5
1B
330
1
100
AcDbSymbolTableRecord
100
AcDbBlockTableRecord
  2
*PAPER_SPACE
  0
ENDTAB
  0
ENDSEC
  0
SECTION
  2
BLOCKS
  0
BLOCK
  5
20
330
1F
100
AcDbEntity
  8
0
100
AcDbBlockBegin
  2
*MODEL_SPACE
 70
     0
 10
0.0
 20
0.0
 30
0.0
  3
*MODEL_SPACE
  1

  0
ENDBLK
  5
21
330
1F
100
AcDbEntity
  8
0
100
AcDbBlockEnd
  0
BLOCK
  5
1C
330
1B
100
AcDbEntity
 67
     1
  8
0
100
AcDbBlockBegin
  2
*PAPER_SPACE
  1

  0
ENDBLK
  5
1D
330
1B
100
AcDbEntity
 67
     1
  8
0
100
AcDbBlockEnd
  0
ENDSEC
  0
SECTION
  2
ENTITIES
  0
SPLINE
  5
100
100
AcDbEntity
  8
Layer_1
 62
1
100
AcDbSpline
 70
8
 71
3
 72
8
 73
4
 74
0
 40
0
 40
0
 40
0
 40
0
 40
1
 40
1
 40
1
 40
1
 10
8.946444
 20
68.424778
 30
0.0
 10
7.187494
 20
68.424778
 30
0.0
 10
5.771444
 20
67.008728
 30
0.0
 10
5.771444
 20
65.249778
 30
0.0
  0
LINE
  5
101
100
AcDbEntity
  8
Layer_1
 62
1
100
AcDbLine
 10
5.771444
 20
65.249778
 30
0.0
 11
5.771444
 21
23.339778
 31
0.0
  0
SPLINE
  5
102
100
AcDbEntity
  8
Layer_1
 62
1
100
AcDbSpline
 70
8
 71
3
 72
8
 73
4
 74
0
 40
0
 40
0
 40
0
 40
0
 40
1
 40
1
 40
1
 40
1
 10
5.771444
 20
23.339778
 30
0.0
 10
5.771444
 20
21.580828
 30
0.0
 10
7.187494
 20
20.164778
 30
0.0
 10
8.946444
 20
20.164778
 30
0.0
  0
LINE
  5
103
100
AcDbEntity
  8
Layer_1
 62
1
100
AcDbLine
 10
8.946444
 20
20.164778
 30
0.0
 11
287.076444
 21
20.164778
 31
0.0
  0
SPLINE
  5
104
100
AcDbEntity
  8
Layer_1
 62
1
100
AcDbSpline
 70
8
 71
3
 72
8
 73
4
 74
0
 40
0
 40
0
 40
0
 40
0
 40
1
 40
1
 40
1
 40
1
 10
287.076444
 20
20.164778
 30
0.0
 10
288.835394
 20
20.164778
 30
0.0
 10
290.251444
 20
21.580828
 30
0.0
 10
290.251444
 20
23.339778
 30
0.0
  0
LINE
  5
105
100
AcDbEntity
  8
Layer_1
 62
1
100
AcDbLine
 10
290.251444
 20
23.339778
 30
0.0
 11
290.251444
 21
65.249778
 31
0.0
  0
SPLINE
  5
106
100
AcDbEntity
  8
Layer_1
 62
1
100
AcDbSpline
 70
8
 71
3
 72
8
 73
4
 74
0
 40
0
 40
0
 40
0
 40
0
 40
1
 40
1
 40
1
 40
1
 10
290.251444
 20
65.249778
 30
0.0
 10
290.251444
 20
67.008728
 30
0.0
 10
288.835394
 20
68.424778
 30
0.0
 10
287.076444
 20
68.424778
 30
0.0
  0
LINE
  5
107
100
AcDbEntity
  8
Layer_1
 62
1
100
AcDbLine
 10
287.076444
 20
68.424778
 30
0.0
 11
8.946444
 21
68.424778
 31
0.0
  0
LINE
  5
108
100
AcDbEntity
  8
Layer_1
 62
1
100
AcDbLine
 10
156.318258
 20
61.037941
 30
0.0
 11
206.880133
 21
61.037941
 31
0.0
  0
SPLINE
  5
109
100
AcDbEntity
  8
Layer_1
 62
1
100
AcDbSpline
 70
8
 71
3
 72
8
 73
4
 74
0
 40
0
 40
0
 40
0
 40
0
 40
1
 40
1
 40
1
 40
1
 10
206.880133
 20
61.037941
 30
0.0
 10
207.161565
 20
61.037941
 30
0.0
 10
207.387802
 20
60.811153
 30
0.0
 10
207.387802
 20
60.529721
 30
0.0
  0
LINE
  5
10a
100
AcDbEntity
  8
Layer_1
 62
1
100
AcDbLine
 10
207.387802
 20
60.529721
 30
0.0
 11
207.387802
 21
49.808584
 31
0.0
  0
SPLINE
  5
10b
100
AcDbEntity
  8
Layer_1
 62
1
100
AcDbSpline
 70
8
 71
3
 72
8
 73
4
 74
0
 40
0
 40
0
 40
0
 40
0
 40
1
 40
1
 40
1
 40
1
 10
207.387802
 20
49.808584
 30
0.0
 10
207.387802
 20
49.527152
 30
0.0
 10
207.161565
 20
49.300364
 30
0.0
 10
206.880133
 20
49.300364
 30
0.0
  0
LINE
  5
10c
100
AcDbEntity
  8
Layer_1
 62
1
100
AcDbLine
 10
206.880133
 20
49.300364
 30
0.0
 11
156.318258
 21
49.300364
 31
0.0
  0
SPLINE
  5
10d
100
AcDbEntity
  8
Layer_1
 62
1
100
AcDbSpline
 70
8
 71
3
 72
8
 73
4
 74
0
 40
0
 40
0
 40
0
 40
0
 40
1
 40
1
 40
1
 40
1
 10
156.318258
 20
49.300364
 30
0.0
 10
156.036826
 20
49.300364
 30
0.0
 10
155.810037
 20
49.527152
 30
0.0
 10
155.810037
 20
49.808584
 30
0.0
  0
LINE
  5
10e
100
AcDbEntity
  8
Layer_1
 62
1
100
AcDbLine
 10
155.810037
 20
49.808584
 30
0.0
 11
155.810037
 21
60.529721
 31
0.0
  0
SPLINE
  5
10f
100
AcDbEntity
  8
Layer_1
 62
1
100
AcDbSpline
 70
8
 71
3
 72
8
 73
4
 74
0
 40
0
 40
0
 40
0
 40
0
 40
1
 40
1
 40
1
 40
1
 10
155.810037
 20
60.529721
 30
0.0
 10
155.810037
 20
60.811153
 30
0.0
 10
156.036826
 20
61.037941
 30
0.0
 10
156.318258
 20
61.037941
 30
0.0
  0
LINE
  5
110
100
AcDbEntity
  8
Layer_1
 62
1
100
AcDbLine
 10
156.318258
 20
61.037941
 30
0.0
 11
156.318258
 21
61.037941
 31
0.0
  0
SPLINE
  5
111
100
AcDbEntity
  8
Layer_1
 62
1
100
AcDbSpline
 70
8
 71
3
 72
8
 73
4
 74
0
 40
0
 40
0
 40
0
 40
0
 40
1
 40
1
 40
1
 40
1
 10
95.192895
 20
57.998541
 30
0.0
 10
98.489180
 20
57.998541
 30
0.0
 10
101.160902
 20
55.326796
 30
0.0
 10
101.160902
 20
52.030534
 30
0.0
  0
SPLINE
  5
112
100
AcDbEntity
  8
Layer_1
 62
1
100
AcDbSpline
 70
8
 71
3
 72
8
 73
4
 74
0
 40
0
 40
0
 40
0
 40
0
 40
1
 40
1
 40
1
 40
1
 10
101.160902
 20
52.030534
 30
0.0
 10
101.160902
 20
48.732877
 30
0.0
 10
98.489180
 20
46.060871
 30
0.0
 10
95.192895
 20
46.060871
 30
0.0
  0
SPLINE
  5
113
100
AcDbEntity
  8
Layer_1
 62
1
100
AcDbSpline
 70
8
 71
3
 72
8
 73
4
 74
0
 40
0
 40
0
 40
0
 40
0
 40
1
 40
1
 40
1
 40
1
 10
95.192895
 20
46.060871
 30
0.0
 10
91.895258
 20
46.060871
 30
0.0
 10
89.223232
 20
48.732877
 30
0.0
 10
89.223232
 20
52.030534
 30
0.0
  0
SPLINE
  5
114
100
AcDbEntity
  8
Layer_1
 62
1
100
AcDbSpline
 70
8
 71
3
 72
8
 73
4
 74
0
 40
0
 40
0
 40
0
 40
0
 40
1
 40
1
 40
1
 40
1
 10
89.223232
 20
52.030534
 30
0.0
 10
89.223232
 20
55.326796
 30
0.0
 10
91.895261
 20
57.998541
 30
0.0
 10
95.192895
 20
57.998541
 30
0.0
  0
LINE
  5
115
100
AcDbEntity
  8
Layer_1
 62
1
100
AcDbLine
 10
95.192895
 20
57.998541
 30
0.0
 11
95.192895
 21
57.998541
 31
0.0
  0
LINE
  5
116
100
AcDbEntity
  8
Layer_1
 62
1
100
AcDbLine
 10
8.883605
 20
47.535372
 30
0.0
 11
21.748420
 21
47.535372
 31
0.0
  0
SPLINE
  5
117
100
AcDbEntity
  8
Layer_1
 62
1
100
AcDbSpline
 70
8
 71
3
 72
8
 73
4
 74
0
 40
0
 40
0
 40
0
 40
0
 40
1
 40
1
 40
1
 40
1
 10
21.748420
 20
47.535372
 30
0.0
 10
22.029852
 20
47.535372
 30
0.0
 10
22.256090
 20
47.309134
 30
0.0
 10
22.256090
 20
47.027702
 30
0.0
  0
LINE
  5
118
100
AcDbEntity
  8
Layer_1
 62
1
100
AcDbLine
 10
22.256090
 20
47.027702
 30
0.0
 11
22.256090
 21
42.464191
 31
0.0
  0
SPLINE
  5
119
100
AcDbEntity
  8
Layer_1
 62
1
100
AcDbSpline
 70
8
 71
3
 72
8
 73
4
 74
0
 40
0
 40
0
 40
0
 40
0
 40
1
 40
1
 40
1
 40
1
 10
22.256090
 20
42.464191
 30
0.0
 10
22.256090
 20
42.182759
 30
0.0
 10
22.029852
 20
41.956522
 30
0.0
 10
21.748420
 20
41.956522
 30
0.0
  0
LINE
  5
11a
100
AcDbEntity
  8
Layer_1
 62
1
100
AcDbLine
 10
21.748420
 20
41.956522
 30
0.0
 11
8.883605
 21
41.956522
 31
0.0
  0
SPLINE
  5
11b
100
AcDbEntity
  8
Layer_1
 62
1
100
AcDbSpline
 70
8
 71
3
 72
8
 73
4
 74
0
 40
0
 40
0
 40
0
 40
0
 40
1
 40
1
 40
1
 40
1
 10
8.883605
 20
41.956522
 30
0.0
 10
8.602173
 20
41.956522
 30
0.0
 10
8.375385
 20
42.182759
 30
0.0
 10
8.375385
 20
42.464191
 30
0.0
  0
LINE
  5
11c
100
AcDbEntity
  8
Layer_1
 62
1
100
AcDbLine
 10
8.375385
 20
42.464191
 30
0.0
 11
8.375385
 21
47.027702
 31
0.0
  0
SPLINE
  5
11d
100
AcDbEntity
  8
Layer_1
 62
1
100
AcDbSpline
 70
8
 71
3
 72
8
 73
4
 74
0
 40
0
 40
0
 40
0
 40
0
 40
1
 40
1
 40
1
 40
1
 10
8.375385
 20
47.027702
 30
0.0
 10
8.375385
 20
47.309134
 30
0.0
 10
8.602173
 20
47.535372
 30
0.0
 10
8.883605
 20
47.535372
 30
0.0
  0
LINE
  5
11e
100
AcDbEntity
  8
Layer_1
 62
1
100
AcDbLine
 10
8.883605
 20
47.535372
 30
0.0
 11
8.883605
 21
47.535372
 31
0.0
  0
LINE
  5
11f
100
AcDbEntity
  8
Layer_1
 62
1
100
AcDbLine
 10
61.099677
 20
44.621097
 30
0.0
 11
77.558415
 21
44.621097
 31
0.0
  0
SPLINE
  5
120
100
AcDbEntity
  8
Layer_1
 62
1
100
AcDbSpline
 70
8
 71
3
 72
8
 73
4
 74
0
 40
0
 40
0
 40
0
 40
0
 40
1
 40
1
 40
1
 40
1
 10
77.558415
 20
44.621097
 30
0.0
 10
77.839847
 20
44.621097
 30
0.0
 10
78.066635
 20
44.394309
 30
0.0
 10
78.066635
 20
44.112877
 30
0.0
  0
LINE
  5
121
100
AcDbEntity
  8
Layer_1
 62
1
100
AcDbLine
 10
78.066635
 20
44.112877
 30
0.0
 11
78.066635
 21
39.176746
 31
0.0
  0
SPLINE
  5
122
100
AcDbEntity
  8
Layer_1
 62
1
100
AcDbSpline
 70
8
 71
3
 72
8
 73
4
 74
0
 40
0
 40
0
 40
0
 40
0
 40
1
 40
1
 40
1
 40
1
 10
78.066635
 20
39.176746
 30
0.0
 10
78.066635
 20
38.895308
 30
0.0
 10
77.839847
 20
38.669076
 30
0.0
 10
77.558415
 20
38.669076
 30
0.0
  0
LINE
  5
123
100
AcDbEntity
  8
Layer_1
 62
1
100
AcDbLine
 10
77.558415
 20
38.669076
 30
0.0
 11
61.099677
 21
38.669076
 31
0.0
  0
SPLINE
  5
124
100
AcDbEntity
  8
Layer_1
 62
1
100
AcDbSpline
 70
8
 71
3
 72
8
 73
4
 74
0
 40
0
 40
0
 40
0
 40
0
 40
1
 40
1
 40
1
 40
1
 10
61.099677
 20
38.669076
 30
0.0
 10
60.818245
 20
38.669076
 30
0.0
 10
60.591457
 20
38.895311
 30
0.0
 10
60.591457
 20
39.176746
 30
0.0
  0
LINE
  5
125
100
AcDbEntity
  8
Layer_1
 62
1
100
AcDbLine
 10
60.591457
 20
39.176746
 30
0.0
 11
60.591457
 21
44.112877
 31
0.0
  0
SPLINE
  5
126
100
AcDbEntity
  8
Layer_1
 62
1
100
AcDbSpline
 70
8
 71
3
 72
8
 73
4
 74
0
 40
0
 40
0
 40
0
 40
0
 40
1
 40
1
 40
1
 40
1
 10
60.591457
 20
44.112877
 30
0.0
 10
60.591457
 20
44.394309
 30
0.0
 10
60.818245
 20
44.621097
 30
0.0
 10
61.099677
 20
44.621097
 30
0.0
  0
LINE
  5
127
100
AcDbEntity
  8
Layer_1
 62
1
100
AcDbLine
 10
61.099677
 20
44.621097
 30
0.0
 11
61.099677
 21
44.621097
 31
0.0
  0
LINE
  5
128
100
AcDbEntity
  8
Layer_1
 62
1
100
AcDbLine
 10
57.055964
 20
33.986501
 30
0.0
 11
83.686275
 21
33.986501
 31
0.0
  0
SPLINE
  5
129
100
AcDbEntity
  8
Layer_1
 62
1
100
AcDbSpline
 70
8
 71
3
 72
8
 73
4
 74
0
 40
0
 40
0
 40
0
 40
0
 40
1
 40
1
 40
1
 40
1
 10
83.686275
 20
33.986501
 30
0.0
 10
83.967707
 20
33.986501
 30
0.0
 10
84.194495
 20
33.759713
 30
0.0
 10
84.194495
 20
33.478281
 30
0.0
  0
LINE
  5
12a
100
AcDbEntity
  8
Layer_1
 62
1
100
AcDbLine
 10
84.194495
 20
33.478281
 30
0.0
 11
84.194495
 21
28.552069
 31
0.0
  0
SPLINE
  5
12b
100
AcDbEntity
  8
Layer_1
 62
1
100
AcDbSpline
 70
8
 71
3
 72
8
 73
4
 74
0
 40
0
 40
0
 40
0
 40
0
 40
1
 40
1
 40
1
 40
1
 10
84.194495
 20
28.552069
 30
0.0
 10
84.194495
 20
28.270637
 30
0.0
 10
83.967707
 20
28.043849
 30
0.0
 10
83.686275
 20
28.043849
 30
0.0
  0
LINE
  5
12c
100
AcDbEntity
  8
Layer_1
 62
1
100
AcDbLine
 10
83.686275
 20
28.043849
 30
0.0
 11
57.055964
 21
28.043849
 31
0.0
  0
SPLINE
  5
12d
100
AcDbEntity
  8
Layer_1
 62
1
100
AcDbSpline
 70
8
 71
3
 72
8
 73
4
 74
0
 40
0
 40
0
 40
0
 40
0
 40
1
 40
1
 40
1
 40
1
 10
57.055964
 20
28.043849
 30
0.0
 10
56.774532
 20
28.043849
 30
0.0
 10
56.547741
 20
28.270637
 30
0.0
 10
56.547741
 20
28.552069
 30
0.0
  0
LINE
  5
12e
100
AcDbEntity
  8
Layer_1
 62
1
100
AcDbLine
 10
56.547741
 20
28.552069
 30
0.0
 11
56.547741
 21
33.478281
 31
0.0
  0
SPLINE
  5
12f
100
AcDbEntity
  8
Layer_1
 62
1
100
AcDbSpline
 70
8
 71
3
 72
8
 73
4
 74
0
 40
0
 40
0
 40
0
 40
0
 40
1
 40
1
 40
1
 40
1
 10
56.547741
 20
33.478281
 30
0.0
 10
56.547741
 20
33.759713
 30
0.0
 10
56.774532
 20
33.986501
 30
0.0
 10
57.055964
 20
33.986501
 30
0.0
  0
LINE
  5
130
100
AcDbEntity
  8
Layer_1
 62
1
100
AcDbLine
 10
57.055964
 20
33.986501
 30
0.0
 11
57.055964
 21
33.986501
 31
0.0
  0
LINE
  5
131
100
AcDbEntity
  8
Layer_1
 62
1
100
AcDbLine
 10
86.314469
 20
33.817278
 30
0.0
 11
117.970763
 21
33.817278
 31
0.0
  0
SPLINE
  5
132
100
AcDbEntity
  8
Layer_1
 62
1
100
AcDbSpline
 70
8
 71
3
 72
8
 73
4
 74
0
 40
0
 40
0
 40
0
 40
0
 40
1
 40
1
 40
1
 40
1
 10
117.970763
 20
33.817278
 30
0.0
 10
118.252195
 20
33.817278
 30
0.0
 10
118.478983
 20
33.591040
 30
0.0
 10
118.478983
 20
33.309608
 30
0.0
  0
LINE
  5
133
100
AcDbEntity
  8
Layer_1
 62
1
100
AcDbLine
 10
118.478983
 20
33.309608
 30
0.0
 11
118.478983
 21
28.382846
 31
0.0
  0
SPLINE
  5
134
100
AcDbEntity
  8
Layer_1
 62
1
100
AcDbSpline
 70
8
 71
3
 72
8
 73
4
 74
0
 40
0
 40
0
 40
0
 40
0
 40
1
 40
1
 40
1
 40
1
 10
118.478983
 20
28.382846
 30
0.0
 10
118.478983
 20
28.101414
 30
0.0
 10
118.252195
 20
27.874626
 30
0.0
 10
117.970763
 20
27.874626
 30
0.0
  0
LINE
  5
135
100
AcDbEntity
  8
Layer_1
 62
1
100
AcDbLine
 10
117.970763
 20
27.874626
 30
0.0
 11
86.314469
 21
27.874626
 31
0.0
  0
SPLINE
  5
136
100
AcDbEntity
  8
Layer_1
 62
1
100
AcDbSpline
 70
8
 71
3
 72
8
 73
4
 74
0
 40
0
 40
0
 40
0
 40
0
 40
1
 40
1
 40
1
 40
1
 10
86.314469
 20
27.874626
 30
0.0
 10
86.033037
 20
27.874626
 30
0.0
 10
85.806799
 20
28.101414
 30
0.0
 10
85.806799
 20
28.382846
 30
0.0
  0
LINE
  5
137
100
AcDbEntity
  8
Layer_1
 62
1
100
AcDbLine
 10
85.806799
 20
28.382846
 30
0.0
 11
85.806799
 21
33.309608
 31
0.0
  0
SPLINE
  5
138
100
AcDbEntity
  8
Layer_1
 62
1
100
AcDbSpline
 70
8
 71
3
 72
8
 73
4
 74
0
 40
0
 40
0
 40
0
 40
0
 40
1
 40
1
 40
1
 40
1
 10
85.806799
 20
33.309608
 30
0.0
 10
85.806799
 20
33.591040
 30
0.0
 10
86.033037
 20
33.817278
 30
0.0
 10
86.314469
 20
33.817278
 30
0.0
  0
LINE
  5
139
100
AcDbEntity
  8
Layer_1
 62
1
100
AcDbLine
 10
86.314469
 20
33.817278
 30
0.0
 11
86.314469
 21
33.817278
 31
0.0
  0
LINE
  5
13a
100
AcDbEntity
  8
Layer_1
 62
1
100
AcDbLine
 10
266.500130
 20
31.131758
 30
0.0
 11
271.493036
 21
31.131758
 31
0.0
  0
SPLINE
  5
13b
100
AcDbEntity
  8
Layer_1
 62
1
100
AcDbSpline
 70
8
 71
3
 72
8
 73
4
 74
0
 40
0
 40
0
 40
0
 40
0
 40
1
 40
1
 40
1
 40
1
 10
271.493036
 20
31.131758
 30
0.0
 10
271.774468
 20
31.131758
 30
0.0
 10
272.000706
 20
30.904970
 30
0.0
 10
272.000706
 20
30.623535
 30
0.0
  0
LINE
  5
13c
100
AcDbEntity
  8
Layer_1
 62
1
100
AcDbLine
 10
272.000706
 20
30.623535
 30
0.0
 11
272.000706
 21
28.464978
 31
0.0
  0
LINE
  5
13d
100
AcDbEntity
  8
Layer_1
 62
1
100
AcDbLine
 10
272.000706
 20
28.464978
 30
0.0
 11
274.530783
 21
28.464978
 31
0.0
  0
SPLINE
  5
13e
100
AcDbEntity
  8
Layer_1
 62
1
100
AcDbSpline
 70
8
 71
3
 72
8
 73
4
 74
0
 40
0
 40
0
 40
0
 40
0
 40
1
 40
1
 40
1
 40
1
 10
274.530783
 20
28.464978
 30
0.0
 10
274.812215
 20
28.464978
 30
0.0
 10
275.038453
 20
28.238190
 30
0.0
 10
275.038453
 20
27.956758
 30
0.0
  0
LINE
  5
13f
100
AcDbEntity
  8
Layer_1
 62
1
100
AcDbLine
 10
275.038453
 20
27.956758
 30
0.0
 11
275.038453
 21
23.631923
 31
0.0
  0
SPLINE
  5
140
100
AcDbEntity
  8
Layer_1
 62
1
100
AcDbSpline
 70
8
 71
3
 72
8
 73
4
 74
0
 40
0
 40
0
 40
0
 40
0
 40
1
 40
1
 40
1
 40
1
 10
275.038453
 20
23.631923
 30
0.0
 10
275.038453
 20
23.350491
 30
0.0
 10
274.812215
 20
23.124253
 30
0.0
 10
274.530783
 20
23.124253
 30
0.0
  0
LINE
  5
141
100
AcDbEntity
  8
Layer_1
 62
1
100
AcDbLine
 10
274.530783
 20
23.124253
 30
0.0
 11
266.500130
 21
23.124253
 31
0.0
  0
SPLINE
  5
142
100
AcDbEntity
  8
Layer_1
 62
1
100
AcDbSpline
 70
8
 71
3
 72
8
 73
4
 74
0
 40
0
 40
0
 40
0
 40
0
 40
1
 40
1
 40
1
 40
1
 10
266.500130
 20
23.124253
 30
0.0
 10
266.218698
 20
23.124253
 30
0.0
 10
265.991907
 20
23.350491
 30
0.0
 10
265.991907
 20
23.631923
 30
0.0
  0
LINE
  5
143
100
AcDbEntity
  8
Layer_1
 62
1
100
AcDbLine
 10
265.991907
 20
23.631923
 30
0.0
 11
265.991907
 21
27.956758
 31
0.0
  0
SPLINE
  5
144
100
AcDbEntity
  8
Layer_1
 62
1
100
AcDbSpline
 70
8
 71
3
 72
8
 73
4
 74
0
 40
0
 40
0
 40
0
 40
0
 40
1
 40
1
 40
1
 40
1
 10
265.991907
 20
27.956758
 30
0.0
 10
265.991907
 20
28.008789
 30
0.0
 10
266.001757
 20
28.058389
 30
0.0
 10
266.016150
 20
28.105585
 30
0.0
  0
SPLINE
  5
145
100
AcDbEntity
  8
Layer_1
 62
1
100
AcDbSpline
 70
8
 71
3
 72
8
 73
4
 74
0
 40
0
 40
0
 40
0
 40
0
 40
1
 40
1
 40
1
 40
1
 10
266.016150
 20
28.105585
 30
0.0
 10
266.001870
 20
28.152635
 30
0.0
 10
265.991907
 20
28.202015
 30
0.0
 10
265.991907
 20
28.253862
 30
0.0
  0
LINE
  5
146
100
AcDbEntity
  8
Layer_1
 62
1
100
AcDbLine
 10
265.991907
 20
28.253862
 30
0.0
 11
265.991907
 21
30.623535
 31
0.0
  0
SPLINE
  5
147
100
AcDbEntity
  8
Layer_1
 62
1
100
AcDbSpline
 70
8
 71
3
 72
8
 73
4
 74
0
 40
0
 40
0
 40
0
 40
0
 40
1
 40
1
 40
1
 40
1
 10
265.991907
 20
30.623535
 30
0.0
 10
265.991907
 20
30.904970
 30
0.0
 10
266.218698
 20
31.131758
 30
0.0
 10
266.500130
 20
31.131758
 30
0.0
  0
LINE
  5
148
100
AcDbEntity
  8
Layer_1
 62
1
100
AcDbLine
 10
266.500130
 20
31.131758
 30
0.0
 11
266.500130
 21
31.131758
 31
0.0
  0
SPLINE
  5
149
100
AcDbEntity
  8
Layer_1
 62
1
100
AcDbSpline
 70
8
 71
3
 72
8
 73
4
 74
0
 40
0
 40
0
 40
0
 40
0
 40
1
 40
1
 40
1
 40
1
 10
278.180800
 20
52.797933
 30
0.0
 10
278.930269
 20
52.797933
 30
0.0
 10
279.679744
 20
52.298236
 30
0.0
 10
279.679744
 20
51.299178
 30
0.0
  0
SPLINE
  5
14a
100
AcDbEntity
  8
Layer_1
 62
1
100
AcDbSpline
 70
8
 71
3
 72
8
 73
4
 74
0
 40
0
 40
0
 40
0
 40
0
 40
1
 40
1
 40
1
 40
1
 10
279.679744
 20
51.299178
 30
0.0
 10
279.679744
 20
49.301059
 30
0.0
 10
276.681856
 20
49.301059
 30
0.0
 10
276.681856
 20
51.299178
 30
0.0
  0
SPLINE
  5
14b
100
AcDbEntity
  8
Layer_1
 62
1
100
AcDbSpline
 70
8
 71
3
 72
8
 73
4
 74
0
 40
0
 40
0
 40
0
 40
0
 40
1
 40
1
 40
1
 40
1
 10
276.681856
 20
51.299178
 30
0.0
 10
276.681856
 20
52.298236
 30
0.0
 10
277.431328
 20
52.797933
 30
0.0
 10
278.180800
 20
52.797933
 30
0.0
  0
LINE
  5
14c
100
AcDbEntity
  8
Layer_1
 62
1
100
AcDbLine
 10
278.180800
 20
52.797933
 30
0.0
 11
278.180800
 21
52.797933
 31
0.0
  0
SPLINE
  5
14d
100
AcDbEntity
  8
Layer_1
 62
1
100
AcDbSpline
 70
8
 71
3
 72
8
 73
4
 74
0
 40
0
 40
0
 40
0
 40
0
 40
1
 40
1
 40
1
 40
1
 10
148.005800
 20
52.797933
 30
0.0
 10
148.755269
 20
52.797933
 30
0.0
 10
149.504744
 20
52.298236
 30
0.0
 10
149.504744
 20
51.299178
 30
0.0
  0
SPLINE
  5
14e
100
AcDbEntity
  8
Layer_1
 62
1
100
AcDbSpline
 70
8
 71
3
 72
8
 73
4
 74
0
 40
0
 40
0
 40
0
 40
0
 40
1
 40
1
 40
1
 40
1
 10
149.504744
 20
51.299178
 30
0.0
 10
149.504744
 20
49.301059
 30
0.0
 10
146.506856
 20
49.301059
 30
0.0
 10
146.506856
 20
51.299178
 30
0.0
  0
SPLINE
  5
14f
100
AcDbEntity
  8
Layer_1
 62
1
100
AcDbSpline
 70
8
 71
3
 72
8
 73
4
 74
0
 40
0
 40
0
 40
0
 40
0
 40
1
 40
1
 40
1
 40
1
 10
146.506856
 20
51.299178
 30
0.0
 10
146.506856
 20
52.298236
 30
0.0
 10
147.256328
 20
52.797933
 30
0.0
 10
148.005800
 20
52.797933
 30
0.0
  0
LINE
  5
150
100
AcDbEntity
  8
Layer_1
 62
1
100
AcDbLine
 10
148.005800
 20
52.797933
 30
0.0
 11
148.005800
 21
52.797933
 31
0.0
  0
SPLINE
  5
151
100
AcDbEntity
  8
Layer_1
 62
1
100
AcDbSpline
 70
8
 71
3
 72
8
 73
4
 74
0
 40
0
 40
0
 40
0
 40
0
 40
1
 40
1
 40
1
 40
1
 10
148.005800
 20
34.001933
 30
0.0
 10
148.755269
 20
34.001933
 30
0.0
 10
149.504744
 20
33.502236
 30
0.0
 10
149.504744
 20
32.503178
 30
0.0
  0
SPLINE
  5
152
100
AcDbEntity
  8
Layer_1
 62
1
100
AcDbSpline
 70
8
 71
3
 72
8
 73
4
 74
0
 40
0
 40
0
 40
0
 40
0
 40
1
 40
1
 40
1
 40
1
 10
149.504744
 20
32.503178
 30
0.0
 10
149.504744
 20
30.505059
 30
0.0
 10
146.506856
 20
30.505059
 30
0.0
 10
146.506856
 20
32.503178
 30
0.0
  0
SPLINE
  5
153
100
AcDbEntity
  8
Layer_1
 62
1
100
AcDbSpline
 70
8
 71
3
 72
8
 73
4
 74
0
 40
0
 40
0
 40
0
 40
0
 40
1
 40
1
 40
1
 40
1
 10
146.506856
 20
32.503178
 30
0.0
 10
146.506856
 20
33.502236
 30
0.0
 10
147.256328
 20
34.001933
 30
0.0
 10
148.005800
 20
34.001933
 30
0.0
  0
LINE
  5
154
100
AcDbEntity
  8
Layer_1
 62
1
100
AcDbLine
 10
148.005800
 20
34.001933
 30
0.0
 11
148.005800
 21
34.001933
 31
0.0
  0
SPLINE
  5
155
100
AcDbEntity
  8
Layer_1
 62
1
100
AcDbSpline
 70
8
 71
3
 72
8
 73
4
 74
0
 40
0
 40
0
 40
0
 40
0
 40
1
 40
1
 40
1
 40
1
 10
278.171935
 20
34.001933
 30
0.0
 10
278.921405
 20
34.001933
 30
0.0
 10
279.670880
 20
33.502236
 30
0.0
 10
279.670880
 20
32.503178
 30
0.0
  0
SPLINE
  5
156
100
AcDbEntity
  8
Layer_1
 62
1
100
AcDbSpline
 70
8
 71
3
 72
8
 73
4
 74
0
 40
0
 40
0
 40
0
 40
0
 40
1
 40
1
 40
1
 40
1
 10
279.670880
 20
32.503178
 30
0.0
 10
279.670880
 20
30.505059
 30
0.0
 10
276.672991
 20
30.505059
 30
0.0
 10
276.672991
 20
32.503178
 30
0.0
  0
SPLINE
  5
157
100
AcDbEntity
  8
Layer_1
 62
1
100
AcDbSpline
 70
8
 71
3
 72
8
 73
4
 74
0
 40
0
 40
0
 40
0
 40
0
 40
1
 40
1
 40
1
 40
1
 10
276.672991
 20
32.503178
 30
0.0
 10
276.672991
 20
33.502236
 30
0.0
 10
277.422463
 20
34.001933
 30
0.0
 10
278.171935
 20
34.001933
 30
0.0
  0
LINE
  5
158
100
AcDbEntity
  8
Layer_1
 62
1
100
AcDbLine
 10
278.171935
 20
34.001933
 30
0.0
 11
278.171935
 21
34.001933
 31
0.0
  0
SPLINE
  5
159
100
AcDbEntity
  8
Layer_1
 62
1
100
AcDbSpline
 70
8
 71
3
 72
8
 73
4
 74
0
 40
0
 40
0
 40
0
 40
0
 40
1
 40
1
 40
1
 40
1
 10
17.830205
 20
52.797933
 30
0.0
 10
18.579674
 20
52.797933
 30
0.0
 10
19.329149
 20
52.298236
 30
0.0
 10
19.329149
 20
51.299178
 30
0.0
  0
SPLINE
  5
15a
100
AcDbEntity
  8
Layer_1
 62
1
100
AcDbSpline
 70
8
 71
3
 72
8
 73
4
 74
0
 40
0
 40
0
 40
0
 40
0
 40
1
 40
1
 40
1
 40
1
 10
19.329149
 20
51.299178
 30
0.0
 10
19.329149
 20
49.301059
 30
0.0
 10
16.331260
 20
49.301059
 30
0.0
 10
16.331260
 20
51.299178
 30
0.0
  0
SPLINE
  5
15b
100
AcDbEntity
  8
Layer_1
 62
1
100
AcDbSpline
 70
8
 71
3
 72
8
 73
4
 74
0
 40
0
 40
0
 40
0
 40
0
 40
1
 40
1
 40
1
 40
1
 10
16.331260
 20
51.299178
 30
0.0
 10
16.331260
 20
52.298236
 30
0.0
 10
17.080732
 20
52.797933
 30
0.0
 10
17.830205
 20
52.797933
 30
0.0
  0
LINE
  5
15c
100
AcDbEntity
  8
Layer_1
 62
1
100
AcDbLine
 10
17.830205
 20
52.797933
 30
0.0
 11
17.830205
 21
52.797933
 31
0.0
  0
SPLINE
  5
15d
100
AcDbEntity
  8
Layer_1
 62
1
100
AcDbSpline
 70
8
 71
3
 72
8
 73
4
 74
0
 40
0
 40
0
 40
0
 40
0
 40
1
 40
1
 40
1
 40
1
 10
17.830205
 20
34.001933
 30
0.0
 10
18.579674
 20
34.001933
 30
0.0
 10
19.329149
 20
33.502236
 30
0.0
 10
19.329149
 20
32.503178
 30
0.0
  0
SPLINE
  5
15e
100
AcDbEntity
  8
Layer_1
 62
1
100
AcDbSpline
 70
8
 71
3
 72
8
 73
4
 74
0
 40
0
 40
0
 40
0
 40
0
 40
1
 40
1
 40
1
 40
1
 10
19.329149
 20
32.503178
 30
0.0
 10
19.329149
 20
30.505059
 30
0.0
 10
16.331260
 20
30.505059
 30
0.0
 10
16.331260
 20
32.503178
 30
0.0
  0
SPLINE
  5
15f
100
AcDbEntity
  8
Layer_1
 62
1
100
AcDbSpline
 70
8
 71
3
 72
8
 73
4
 74
0
 40
0
 40
0
 40
0
 40
0
 40
1
 40
1
 40
1
 40
1
 10
16.331260
 20
32.503178
 30
0.0
 10
16.331260
 20
33.502236
 30
0.0
 10
17.080732
 20
34.001933
 30
0.0
 10
17.830205
 20
34.001933
 30
0.0
  0
LINE
  5
160
100
AcDbEntity
  8
Layer_1
 62
1
100
AcDbLine
 10
17.830205
 20
34.001933
 30
0.0
 11
17.830205
 21
34.001933
 31
0.0
  0
ENDSEC
  0
SECTION
  2
OBJECTS
  0
DICTIONARY
  5
C
330
0
100
AcDbDictionary
  3
ACAD_GROUP
350
D
  3
ACAD_MLINESTYLE
350
17
  0
DICTIONARY
  5
D
330
C
100
AcDbDictionary
  0
DICTIONARY
  5
1A
330
C
100
AcDbDictionary
  0
DICTIONARY
  5
17
330
C
100
AcDbDictionary
  3
STANDARD
350
18
  0
DICTIONARY
  5
19
330
C
100
AcDbDictionary
  0
ENDSEC
  0
EOF
