<?xml version="1.0" encoding="UTF-8" standalone="no"?>
<!-- Created with Inkscape (http://www.inkscape.org/) -->

<svg
   xmlns:dc="http://purl.org/dc/elements/1.1/"
   xmlns:cc="http://creativecommons.org/ns#"
   xmlns:rdf="http://www.w3.org/1999/02/22-rdf-syntax-ns#"
   xmlns:svg="http://www.w3.org/2000/svg"
   xmlns="http://www.w3.org/2000/svg"
   xmlns:sodipodi="http://sodipodi.sourceforge.net/DTD/sodipodi-0.dtd"
   xmlns:inkscape="http://www.inkscape.org/namespaces/inkscape"
   width="14in"
   height="8.5in"
   viewBox="0 0 1260 765"
   id="svg25844"
   version="1.1"
   inkscape:version="0.92.4 (5da689c313, 2019-01-14)"
   sodipodi:docname="965_v2-orig.svg">
  <defs
     id="defs25846" />
  <sodipodi:namedview
     id="base"
     pagecolor="#ffffff"
     bordercolor="#666666"
     borderopacity="1.0"
     inkscape:pageopacity="0.0"
     inkscape:pageshadow="2"
     inkscape:zoom="2.894364"
     inkscape:cx="312.34837"
     inkscape:cy="95.183766"
     inkscape:document-units="px"
     inkscape:current-layer="layer1"
     showgrid="false"
     fit-margin-top="0"
     fit-margin-left="0"
     fit-margin-right="0"
     fit-margin-bottom="0"
     inkscape:window-width="1842"
     inkscape:window-height="1051"
     inkscape:window-x="-9"
     inkscape:window-y="-9"
     inkscape:window-maximized="1"
     units="in" />
  <metadata
     id="metadata25849">
    <rdf:RDF>
      <cc:Work
         rdf:about="">
        <dc:format>image/svg+xml</dc:format>
        <dc:type
           rdf:resource="http://purl.org/dc/dcmitype/StillImage" />
        <dc:title></dc:title>
      </cc:Work>
    </rdf:RDF>
  </metadata>
  <g
     inkscape:label="Layer 1"
     inkscape:groupmode="layer"
     id="layer1"
     transform="translate(195.79453,226.85742)">
    <path
       style="display:inline;opacity:1;fill:none;fill-opacity:1;stroke:#9e3f3f;stroke-width:0.89999998;stroke-linecap:round;stroke-linejoin:round;stroke-miterlimit:4;stroke-dasharray:none;stroke-opacity:1"
       d="m -164.09453,346.69258 c -6.2325,0 -11.25,5.0175 -11.25,11.25 v 148.5 c 0,6.2325 5.0175,11.25 11.25,11.25 h 985.5 c 6.2325,0 11.25,-5.0175 11.25,-11.25 v -148.5 c 0,-6.2325 -5.0175,-11.25 -11.25,-11.25 z"
       id="path254" />
    <path
       style="display:inline;opacity:1;fill:none;fill-opacity:1;stroke:#9e3f3f;stroke-width:0.89999998;stroke-linecap:round;stroke-linejoin:round;stroke-miterlimit:4;stroke-dasharray:none;stroke-opacity:1"
       d="m 62.43672,351.79024 h 1.35351 v 23.38671 h -1.35351 z"
       id="path252" />
    <path
       style="display:inline;opacity:1;fill:none;fill-opacity:1;stroke:#9e3f3f;stroke-width:0.89999998;stroke-linecap:round;stroke-linejoin:round;stroke-miterlimit:4;stroke-dasharray:none;stroke-opacity:1"
       d="m 118.43672,351.79024 h 1.35351 v 23.38671 h -1.35351 z"
       id="path250" />
    <path
       style="display:inline;opacity:1;fill:none;fill-opacity:1;stroke:#9e3f3f;stroke-width:0.89999998;stroke-linecap:round;stroke-linejoin:round;stroke-miterlimit:4;stroke-dasharray:none;stroke-opacity:1"
       d="m 358.08906,372.86641 h 179.15625 c 0.9972,0 1.79883,0.80358 1.79883,1.80078 v 37.98828 c 0,0.9972 -0.80163,1.80078 -1.79883,1.80078 H 358.08906 c -0.9972,0 -1.80078,-0.80358 -1.80078,-1.80078 v -37.98828 c 0,-0.9972 0.80358,-1.80078 1.80078,-1.80078 z"
       id="path248" />
    <path
       style="display:inline;opacity:1;fill:none;fill-opacity:1;stroke:#9e3f3f;stroke-width:0.89999998;stroke-linecap:round;stroke-linejoin:round;stroke-miterlimit:4;stroke-dasharray:none;stroke-opacity:1"
       d="m 68.16133,379.91719 h 46.03711 v 1.35351 H 68.16133 Z"
       id="path246" />
    <path
       style="display:inline;opacity:1;fill:none;fill-opacity:1;stroke:#9e3f3f;stroke-width:0.89999998;stroke-linecap:round;stroke-linejoin:round;stroke-miterlimit:4;stroke-dasharray:none;stroke-opacity:1"
       d="m 141.50313,383.63594 c 11.67975,0 21.14648,9.46681 21.14648,21.14648 0,11.68461 -9.46673,21.15235 -21.14648,21.15235 -11.68454,0 -21.15235,-9.46774 -21.15235,-21.15235 0,-11.67967 9.46782,-21.14648 21.15235,-21.14648 z"
       id="path244" />
    <path
       style="display:inline;opacity:1;fill:none;fill-opacity:1;stroke:#9e3f3f;stroke-width:0.89999998;stroke-linecap:round;stroke-linejoin:round;stroke-miterlimit:4;stroke-dasharray:none;stroke-opacity:1"
       d="m -132.6375,400.73359 c 3.33008,0 6.66016,2.22119 6.66016,6.66211 0,8.88184 -13.32032,8.88184 -13.32032,0 0,-4.44092 3.33008,-6.66211 6.66016,-6.66211 z"
       id="path242" />
    <path
       style="display:inline;opacity:1;fill:none;fill-opacity:1;stroke:#9e3f3f;stroke-width:0.89999998;stroke-linecap:round;stroke-linejoin:round;stroke-miterlimit:4;stroke-dasharray:none;stroke-opacity:1"
       d="m 328.6125,400.73359 c 3.33008,0 6.66016,2.22119 6.66016,6.66211 0,8.88184 -13.32032,8.88184 -13.32032,0 0,-4.44092 3.33008,-6.66211 6.66016,-6.66211 z"
       id="path240" />
    <path
       style="display:inline;opacity:1;fill:none;fill-opacity:1;stroke:#9e3f3f;stroke-width:0.89999998;stroke-linecap:round;stroke-linejoin:round;stroke-miterlimit:4;stroke-dasharray:none;stroke-opacity:1"
       d="m 789.8625,400.73359 c 3.33008,0 6.66016,2.22119 6.66016,6.66211 0,8.88184 -13.32032,8.88184 -13.32032,0 0,-4.44092 3.33008,-6.66211 6.66016,-6.66211 z"
       id="path238" />
    <path
       style="display:inline;opacity:1;fill:none;fill-opacity:1;stroke:#9e3f3f;stroke-width:0.89999998;stroke-linecap:round;stroke-linejoin:round;stroke-miterlimit:4;stroke-dasharray:none;stroke-opacity:1"
       d="m -164.31719,420.71016 h 45.58399 c 0.9972,0 1.79883,0.80163 1.79883,1.79883 v 16.16992 c 0,0.9972 -0.80163,1.79883 -1.79883,1.79883 h -45.58399 c -0.9972,0 -1.80078,-0.80163 -1.80078,-1.79883 v -16.16992 c 0,-0.9972 0.80358,-1.79883 1.80078,-1.79883 z"
       id="path236" />
    <path
       style="display:inline;opacity:1;fill:none;fill-opacity:1;stroke:#9e3f3f;stroke-width:0.89999998;stroke-linecap:round;stroke-linejoin:round;stroke-miterlimit:4;stroke-dasharray:none;stroke-opacity:1"
       d="m 20.70039,431.03633 h 58.31836 c 0.9972,0 1.80078,0.80358 1.80078,1.80078 v 17.49023 c 0,0.99722 -0.80358,1.79883 -1.80078,1.79883 H 20.70039 c -0.9972,0 -1.80078,-0.80162 -1.80078,-1.79883 v -17.49023 c 0,-0.9972 0.80358,-1.80078 1.80078,-1.80078 z"
       id="path234" />
    <path
       style="display:inline;opacity:1;fill:none;fill-opacity:1;stroke:#9e3f3f;stroke-width:0.89999998;stroke-linecap:round;stroke-linejoin:round;stroke-miterlimit:4;stroke-dasharray:none;stroke-opacity:1"
       d="m -132.6375,467.33516 c 3.33008,0 6.66016,2.22119 6.66016,6.66211 0,8.87695 -13.32032,8.87695 -13.32032,0 0,-4.44092 3.33008,-6.66211 6.66016,-6.66211 z"
       id="path232" />
    <path
       style="display:inline;opacity:1;fill:none;fill-opacity:1;stroke:#9e3f3f;stroke-width:0.89999998;stroke-linecap:round;stroke-linejoin:round;stroke-miterlimit:4;stroke-dasharray:none;stroke-opacity:1"
       d="m 328.6125,467.33516 c 3.33008,0 6.66016,2.22119 6.66016,6.66211 0,8.87695 -13.32032,8.87695 -13.32032,0 0,-4.44092 3.33008,-6.66211 6.66016,-6.66211 z"
       id="path230" />
    <path
       style="display:inline;opacity:1;fill:none;fill-opacity:1;stroke:#9e3f3f;stroke-width:0.89999998;stroke-linecap:round;stroke-linejoin:round;stroke-miterlimit:4;stroke-dasharray:none;stroke-opacity:1"
       d="m 789.8625,467.33516 c 3.33008,0 6.66016,2.22119 6.66016,6.66211 0,8.87695 -13.32032,8.87695 -13.32032,0 0,-4.44092 3.33008,-6.66211 6.66016,-6.66211 z"
       id="path228" />
    <path
       style="display:inline;opacity:1;fill:none;fill-opacity:1;stroke:#9e3f3f;stroke-width:0.89999998;stroke-linecap:round;stroke-linejoin:round;stroke-miterlimit:4;stroke-dasharray:none;stroke-opacity:1"
       d="m 6.37227,468.71797 h 94.35937 c 0.9972,0 1.80078,0.80358 1.80078,1.80078 v 17.45508 c 0,0.9972 -0.80358,1.80078 -1.80078,1.80078 H 6.37227 c -0.9972,0 -1.80079,-0.80358 -1.80079,-1.80078 v -17.45508 c 0,-0.9972 0.80359,-1.80078 1.80079,-1.80078 z"
       id="path226" />
    <path
       style="display:inline;opacity:1;fill:none;fill-opacity:1;stroke:#9e3f3f;stroke-width:0.89999998;stroke-linecap:round;stroke-linejoin:round;stroke-miterlimit:4;stroke-dasharray:none;stroke-opacity:1"
       d="m 110.04414,469.31758 h 112.16797 c 0.9972,0 1.80078,0.80163 1.80078,1.79883 v 17.45703 c 0,0.9972 -0.80358,1.80078 -1.80078,1.80078 H 110.04414 c -0.9972,0 -1.79883,-0.80358 -1.79883,-1.80078 v -17.45703 c 0,-0.9972 0.80163,-1.79883 1.79883,-1.79883 z"
       id="path224" />
    <path
       style="display:inline;opacity:1;fill:none;fill-opacity:1;stroke:#9e3f3f;stroke-width:0.89999998;stroke-linecap:round;stroke-linejoin:round;stroke-miterlimit:4;stroke-dasharray:none;stroke-opacity:1"
       d="m 748.49727,478.8332 h 17.6914 c 0.9972,0 1.79883,0.80358 1.79883,1.80079 v 7.64843 h 8.96484 c 0.9972,0 1.79883,0.80358 1.79883,1.80078 v 15.32422 c 0,0.9972 -0.80163,1.79883 -1.79883,1.79883 h -28.45507 c -0.9972,0 -1.80079,-0.80163 -1.80079,-1.79883 V 490.0832 c 0,-0.18436 0.0349,-0.36011 0.0859,-0.52734 -0.0506,-0.16671 -0.0859,-0.34168 -0.0859,-0.52539 v -8.39648 c 0,-0.99721 0.80359,-1.80079 1.80079,-1.80079 z"
       id="rect22193-0-9" />
  </g>
</svg>
