<?xml version="1.0" encoding="UTF-8" standalone="no"?>
<!-- Created with Inkscape (http://www.inkscape.org/) -->

<svg
   xmlns:dc="http://purl.org/dc/elements/1.1/"
   xmlns:cc="http://creativecommons.org/ns#"
   xmlns:rdf="http://www.w3.org/1999/02/22-rdf-syntax-ns#"
   xmlns:svg="http://www.w3.org/2000/svg"
   xmlns="http://www.w3.org/2000/svg"
   xmlns:sodipodi="http://sodipodi.sourceforge.net/DTD/sodipodi-0.dtd"
   xmlns:inkscape="http://www.inkscape.org/namespaces/inkscape"
   width="14in"
   height="8.5in"
   viewBox="0 0 1260 765"
   id="svg23886"
   version="1.1"
   inkscape:version="0.92.4 (5da689c313, 2019-01-14)"
   sodipodi:docname="910-950_v4-mod.svg">
  <defs
     id="defs23888" />
  <sodipodi:namedview
     id="base"
     pagecolor="#ffffff"
     bordercolor="#666666"
     borderopacity="1.0"
     inkscape:pageopacity="0.0"
     inkscape:pageshadow="2"
     inkscape:zoom="3.2190476"
     inkscape:cx="230.99069"
     inkscape:cy="175.55386"
     inkscape:document-units="px"
     inkscape:current-layer="layer1"
     showgrid="false"
     fit-margin-top="0"
     fit-margin-left="0"
     fit-margin-right="0"
     fit-margin-bottom="0"
     inkscape:window-width="1842"
     inkscape:window-height="1051"
     inkscape:window-x="-9"
     inkscape:window-y="-9"
     inkscape:window-maximized="1"
     units="in" />
  <metadata
     id="metadata23891">
    <rdf:RDF>
      <cc:Work
         rdf:about="">
        <dc:format>image/svg+xml</dc:format>
        <dc:type
           rdf:resource="http://purl.org/dc/dcmitype/StillImage" />
        <dc:title />
      </cc:Work>
    </rdf:RDF>
  </metadata>
  <g
     inkscape:label="Layer 1"
     inkscape:groupmode="layer"
     id="layer1"
     transform="translate(285.69414,279.86641)">
    <g
       id="g456">
      <path
         id="rect22251-0-7"
         d="m 662.34048,290.29689 c -0.9972,0 -1.80079,0.80163 -1.80079,1.79883 l 0,9.06641 -40.74023,0 c -0.9972,0 -1.80078,0.80358 -1.80078,1.80078 l 0,2.69531 0,7.92969 0,2.69531 c 0,0.9972 0.80358,1.79883 1.80078,1.79883 l 117.71875,0 c 0.9972,0 1.8008,-0.80163 1.8008,-1.79883 l 0,-2.69531 0,-7.92969 0,-2.69531 c 0,-0.9972 -0.8036,-1.80078 -1.8008,-1.80078 l -46.2832,0 0,-9.06641 c 0,-0.9972 -0.80358,-1.79883 -1.80078,-1.79883 l -27.09375,0 z"
         style="display:inline;opacity:1;fill:none;fill-opacity:1;stroke:#9e3f3f;stroke-width:0.89999998;stroke-linecap:round;stroke-linejoin:round;stroke-miterlimit:4;stroke-dasharray:none;stroke-opacity:1"
         inkscape:connector-curvature="0" />
      <path
         id="rect22251-0-0-5"
         d="m 582.06118,318.29299 c -0.9972,0 -1.80078,0.80358 -1.80078,1.80078 l 0,9.4375 -33.42383,0 c -0.9972,0 -1.80078,0.80163 -1.80078,1.79883 l 0,2.69531 0,7.93164 0,2.69336 c 0,0.9972 0.80358,1.80078 1.80078,1.80078 l 97.65039,0 c 0.9972,0 1.79883,-0.80358 1.79883,-1.80078 l 0,-2.69336 0,-7.93164 0,-2.69531 c 0,-0.9972 -0.80163,-1.79883 -1.79883,-1.79883 l -32.85742,0 0,-9.4375 c 0,-0.9972 -0.80163,-1.80078 -1.79883,-1.80078 l -27.76953,0 z"
         style="display:inline;opacity:1;fill:none;fill-opacity:1;stroke:#9e3f3f;stroke-width:0.89999998;stroke-linecap:round;stroke-linejoin:round;stroke-miterlimit:4;stroke-dasharray:none;stroke-opacity:1"
         inkscape:connector-curvature="0" />
      <path
         id="rect22298-1"
         d="m 443.76626,316.94338 c -0.9972,0 -1.80078,0.80358 -1.80078,1.80078 l 0,10.5293 -41.88086,0 c -0.9972,0 -1.80079,0.80358 -1.80079,1.80078 l 0,2.69336 0,7.93164 0,2.69336 c 0,0.9972 0.80359,1.80078 1.80079,1.80078 l 116.45898,0 c 0.9972,0 1.80078,-0.80358 1.80078,-1.80078 l 0,-2.69336 0,-7.93164 0,-2.69336 c 0,-0.9972 -0.80358,-1.80078 -1.80078,-1.80078 l -42.87109,0 0,-10.5293 c 0,-0.9972 -0.80163,-1.80078 -1.79883,-1.80078 l -28.10742,0 z"
         style="display:inline;opacity:1;fill:none;fill-opacity:1;stroke:#9e3f3f;stroke-width:0.90000004;stroke-linecap:round;stroke-linejoin:round;stroke-miterlimit:4;stroke-dasharray:none;stroke-opacity:1"
         inkscape:connector-curvature="0" />
      <path
         inkscape:connector-curvature="0"
         id="path12911-3-2"
         d="m 34.225013,270.09109 c 0,11.68461 9.46781,21.15233 21.15234,21.15233 11.67975,0 21.14747,-9.46772 21.14747,-21.15233 0,-11.67967 -9.46772,-21.14748 -21.14747,-21.14748 -11.68453,0 -21.15234,9.46781 -21.15234,21.14748"
         style="display:inline;fill:none;stroke:#000000;stroke-width:0.89999998;stroke-miterlimit:4;stroke-dasharray:none;stroke-opacity:1" />
      <path
         style="display:inline;opacity:1;fill:none;fill-opacity:1;stroke:#9e3f3f;stroke-width:0.89999998;stroke-linecap:round;stroke-linejoin:round;stroke-miterlimit:4;stroke-dasharray:none;stroke-opacity:1"
         d="m 271.96263,238.17447 h 179.15651 c 0.9972,0 1.8,0.8028 1.8,1.8 v 37.98882 c 0,0.9972 -0.8028,1.8 -1.8,1.8 H 271.96263 c -0.9972,0 -1.8,-0.8028 -1.8,-1.8 v -37.98882 c 0,-0.9972 0.8028,-1.8 1.8,-1.8 z"
         id="rect22729-4" />
      <path
         id="rect22251-0-5-0"
         d="m -226.51499,304.82814 c -0.9972,0 -1.80078,0.80357 -1.80078,1.80079 l 0,3.08398 -18.86328,0 c -0.9972,0 -1.80079,0.80163 -1.80079,1.79883 l 0,2.69531 0,7.93164 0,2.69336 c 0,0.9972 0.80359,1.80078 1.80079,1.80078 l 53.99999,0 c 0.99721,0 1.79883,-0.80358 1.79883,-1.80078 l 0,-2.69336 0,-7.93164 0,-2.69531 c 0,-0.9972 -0.80162,-1.79883 -1.79883,-1.79883 l -18.48828,0 0,-3.08398 c 0,-0.99721 -0.80358,-1.80079 -1.80078,-1.80079 l -13.04687,0 z"
         style="display:inline;opacity:1;fill:none;fill-opacity:1;stroke:#9e3f3f;stroke-width:0.89999998;stroke-linecap:round;stroke-linejoin:round;stroke-miterlimit:4;stroke-dasharray:none;stroke-opacity:1"
         inkscape:connector-curvature="0" />
      <path
         style="display:inline;opacity:1;fill:none;fill-opacity:1;stroke:#9e3f3f;stroke-width:0.89999998;stroke-linecap:round;stroke-linejoin:round;stroke-miterlimit:4;stroke-dasharray:none;stroke-opacity:1"
         d="m -250.2193,212.00046 h 985.5 c 6.2325,0 11.25,5.0175 11.25,11.25 v 148.5 c 0,6.2325 -5.0175,11.25 -11.25,11.25 h -985.5 c -6.2325,0 -11.25,-5.0175 -11.25,-11.25 v -148.5 c 0,-6.2325 5.0175,-11.25 11.25,-11.25 z"
         id="rect22193-0-8" />
      <path
         id="path21-9-9-3"
         d="m 709.07704,272.73359 c 0,-7.08157 -10.62236,-7.08157 -10.62236,0 0,7.08157 10.62236,7.08157 10.62236,0"
         style="display:inline;fill:none;fill-opacity:1;fill-rule:evenodd;stroke:#000000;stroke-width:0.71764386;stroke-miterlimit:4;stroke-dasharray:none;stroke-opacity:1"
         inkscape:connector-curvature="0" />
      <path
         id="path21-9-9-3-6"
         d="m 709.07704,339.33359 c 0,-7.08157 -10.62236,-7.08157 -10.62236,0 0,7.08157 10.62236,7.08157 10.62236,0"
         style="display:inline;fill:none;fill-opacity:1;fill-rule:evenodd;stroke:#000000;stroke-width:0.71764386;stroke-miterlimit:4;stroke-dasharray:none;stroke-opacity:1"
         inkscape:connector-curvature="0" />
      <path
         id="path21-9-9-3-9"
         d="m 247.76793,272.73359 c 0,-7.08157 -10.62236,-7.08157 -10.62236,0 0,7.08157 10.62236,7.08157 10.62236,0"
         style="display:inline;fill:none;fill-opacity:1;fill-rule:evenodd;stroke:#000000;stroke-width:0.71764386;stroke-miterlimit:4;stroke-dasharray:none;stroke-opacity:1"
         inkscape:connector-curvature="0" />
      <path
         id="path21-9-9-3-2"
         d="m 247.76793,339.33359 c 0,-7.08157 -10.62236,-7.08157 -10.62236,0 0,7.08157 10.62236,7.08157 10.62236,0"
         style="display:inline;fill:none;fill-opacity:1;fill-rule:evenodd;stroke:#000000;stroke-width:0.71764386;stroke-miterlimit:4;stroke-dasharray:none;stroke-opacity:1"
         inkscape:connector-curvature="0" />
      <path
         id="path21-9-9-3-8"
         d="m -213.42296,272.73359 c 0,-7.08157 -10.62236,-7.08157 -10.62236,0 0,7.08157 10.62236,7.08157 10.62236,0"
         style="display:inline;fill:none;fill-opacity:1;fill-rule:evenodd;stroke:#000000;stroke-width:0.71764386;stroke-miterlimit:4;stroke-dasharray:none;stroke-opacity:1"
         inkscape:connector-curvature="0" />
      <path
         id="path21-9-9-3-1"
         d="m -213.42296,339.33359 c 0,-7.08157 -10.62236,-7.08157 -10.62236,0 0,7.08157 10.62236,7.08157 10.62236,0"
         style="display:inline;fill:none;fill-opacity:1;fill-rule:evenodd;stroke:#000000;stroke-width:0.71764386;stroke-miterlimit:4;stroke-dasharray:none;stroke-opacity:1"
         inkscape:connector-curvature="0" />
    </g>
  </g>
</svg>
