  0
SECTION
  2
HEADER
  9
$ACADVER
  1
AC1014
  9
$HANDSEED
  5
FFFF
  9
$MEASUREMENT
 70
     1
  0
ENDSEC
  0
SECTION
  2
TABLES
  0
TABLE
  2
VPORT
  5
8
330
0
100
AcDbSymbolTable
 70
     4
  0
VPORT
  5
2E
330
8
100
AcDbSymbolTableRecord
100
AcDbViewportTableRecord
  2
*ACTIVE
 70
     0
 10
0.0
 20
0.0
 11
1.0
 21
1.0
 12
210.0
 22
148.5
 13
0.0
 23
0.0
 14
10.0
 24
10.0
 15
10.0
 25
10.0
 16
0.0
 26
0.0
 36
1.0
 17
0.0
 27
0.0
 37
0.0
 40
341.0
 41
1.24
 42
50.0
 43
0.0
 44
0.0
 50
0.0
 51
0.0
 71
     0
 72
   100
 73
     1
 74
     3
 75
     0
 76
     0
 77
     0
 78
     0
  0
ENDTAB
  0
TABLE
  2
LTYPE
  5
5
330
0
100
AcDbSymbolTable
 70
     1
  0
LTYPE
  5
14
330
5
100
AcDbSymbolTableRecord
100
AcDbLinetypeTableRecord
  2
BYBLOCK
 70
     0
  3

 72
    65
 73
     0
 40
0.0
  0
LTYPE
  5
15
330
5
100
AcDbSymbolTableRecord
100
AcDbLinetypeTableRecord
  2
BYLAYER
 70
     0
  3

 72
    65
 73
     0
 40
0.0
  0
LTYPE
  5
16
330
5
100
AcDbSymbolTableRecord
100
AcDbLinetypeTableRecord
  2
CONTINUOUS
 70
     0
  3
Solid line
 72
    65
 73
     0
 40
0.0
  0
ENDTAB
  0
TABLE
  2
LAYER
  5
2
100
AcDbSymbolTable
 70
2
  0
LAYER
  5
50
100
AcDbSymbolTableRecord
100
AcDbLayerTableRecord
  2
0
 70
0
  6
CONTINUOUS
  0
LAYER
  5
51
100
AcDbSymbolTableRecord
100
AcDbLayerTableRecord
  2
Layer_1
 70
0
  6
CONTINUOUS
  0
ENDTAB
  0
TABLE
  2
STYLE
  5
3
330
0
100
AcDbSymbolTable
 70
     1
  0
STYLE
  5
11
330
3
100
AcDbSymbolTableRecord
100
AcDbTextStyleTableRecord
  2
STANDARD
 70
     0
 40
0.0
 41
1.0
 50
0.0
 71
     0
 42
2.5
  3
txt
  4

  0
ENDTAB
  0
TABLE
  2
VIEW
  5
6
330
0
100
AcDbSymbolTable
 70
     0
  0
ENDTAB
  0
TABLE
  2
UCS
  5
7
330
0
100
AcDbSymbolTable
 70
     0
  0
ENDTAB
  0
TABLE
  2
APPID
  5
9
330
0
100
AcDbSymbolTable
 70
     2
  0
APPID
  5
12
330
9
100
AcDbSymbolTableRecord
100
AcDbRegAppTableRecord
  2
ACAD
 70
     0
  0
ENDTAB
  0
TABLE
  2
DIMSTYLE
  5
A
330
0
100
AcDbSymbolTable
 70
     1
  0
DIMSTYLE
105
27
330
A
100
AcDbSymbolTableRecord
100
AcDbDimStyleTableRecord
  2
ISO-25
 70
     0
  3

  4

  5

  6

  7

 40
1.0
 41
2.5
 42
0.625
 43
3.75
 44
1.25
 45
0.0
 46
0.0
 47
0.0
 48
0.0
140
2.5
141
2.5
142
0.0
143
0.03937007874016
144
1.0
145
0.0
146
1.0
147
0.625
 71
     0
 72
     0
 73
     0
 74
     0
 75
     0
 76
     0
 77
     1
 78
     8
170
     0
171
     3
172
     1
173
     0
174
     0
175
     0
176
     0
177
     0
178
     0
270
     2
271
     2
272
     2
273
     2
274
     3
340
11
275
     0
280
     0
281
     0
282
     0
283
     0
284
     8
285
     0
286
     0
287
     3
288
     0
  0
ENDTAB
  0
TABLE
  2
BLOCK_RECORD
  5
1
330
0
100
AcDbSymbolTable
 70
     1
  0
BLOCK_RECORD
  5
1F
330
1
100
AcDbSymbolTableRecord
100
AcDbBlockTableRecord
  2
*MODEL_SPACE
  0
BLOCK_RECORD
  5
1B
330
1
100
AcDbSymbolTableRecord
100
AcDbBlockTableRecord
  2
*PAPER_SPACE
  0
ENDTAB
  0
ENDSEC
  0
SECTION
  2
BLOCKS
  0
BLOCK
  5
20
330
1F
100
AcDbEntity
  8
0
100
AcDbBlockBegin
  2
*MODEL_SPACE
 70
     0
 10
0.0
 20
0.0
 30
0.0
  3
*MODEL_SPACE
  1

  0
ENDBLK
  5
21
330
1F
100
AcDbEntity
  8
0
100
AcDbBlockEnd
  0
BLOCK
  5
1C
330
1B
100
AcDbEntity
 67
     1
  8
0
100
AcDbBlockBegin
  2
*PAPER_SPACE
  1

  0
ENDBLK
  5
1D
330
1B
100
AcDbEntity
 67
     1
  8
0
100
AcDbBlockEnd
  0
ENDSEC
  0
SECTION
  2
ENTITIES
  0
SPLINE
  5
100
100
AcDbEntity
  8
Layer_1
 62
1
100
AcDbSpline
 70
8
 71
3
 72
8
 73
4
 74
0
 40
0
 40
0
 40
0
 40
0
 40
1
 40
1
 40
1
 40
1
 10
267.556437
 20
69.380580
 30
0.0
 10
267.275005
 20
69.380580
 30
0.0
 10
267.048214
 20
69.154342
 30
0.0
 10
267.048214
 20
68.872910
 30
0.0
  0
LINE
  5
101
100
AcDbEntity
  8
Layer_1
 62
1
100
AcDbLine
 10
267.048214
 20
68.872910
 30
0.0
 11
267.048214
 21
66.314168
 31
0.0
  0
LINE
  5
102
100
AcDbEntity
  8
Layer_1
 62
1
100
AcDbLine
 10
267.048214
 20
66.314168
 30
0.0
 11
255.550416
 21
66.314168
 31
0.0
  0
SPLINE
  5
103
100
AcDbEntity
  8
Layer_1
 62
1
100
AcDbSpline
 70
8
 71
3
 72
8
 73
4
 74
0
 40
0
 40
0
 40
0
 40
0
 40
1
 40
1
 40
1
 40
1
 10
255.550416
 20
66.314168
 30
0.0
 10
255.268984
 20
66.314168
 30
0.0
 10
255.042196
 20
66.087379
 30
0.0
 10
255.042196
 20
65.805947
 30
0.0
  0
LINE
  5
104
100
AcDbEntity
  8
Layer_1
 62
1
100
AcDbLine
 10
255.042196
 20
65.805947
 30
0.0
 11
255.042196
 21
65.045271
 31
0.0
  0
LINE
  5
105
100
AcDbEntity
  8
Layer_1
 62
1
100
AcDbLine
 10
255.042196
 20
65.045271
 30
0.0
 11
255.042196
 21
62.807336
 31
0.0
  0
LINE
  5
106
100
AcDbEntity
  8
Layer_1
 62
1
100
AcDbLine
 10
255.042196
 20
62.807336
 30
0.0
 11
255.042196
 21
62.046660
 31
0.0
  0
SPLINE
  5
107
100
AcDbEntity
  8
Layer_1
 62
1
100
AcDbSpline
 70
8
 71
3
 72
8
 73
4
 74
0
 40
0
 40
0
 40
0
 40
0
 40
1
 40
1
 40
1
 40
1
 10
255.042196
 20
62.046660
 30
0.0
 10
255.042196
 20
61.765228
 30
0.0
 10
255.268984
 20
61.538990
 30
0.0
 10
255.550416
 20
61.538990
 30
0.0
  0
LINE
  5
108
100
AcDbEntity
  8
Layer_1
 62
1
100
AcDbLine
 10
255.550416
 20
61.538990
 30
0.0
 11
288.773263
 21
61.538990
 31
0.0
  0
SPLINE
  5
109
100
AcDbEntity
  8
Layer_1
 62
1
100
AcDbSpline
 70
8
 71
3
 72
8
 73
4
 74
0
 40
0
 40
0
 40
0
 40
0
 40
1
 40
1
 40
1
 40
1
 10
288.773263
 20
61.538990
 30
0.0
 10
289.054695
 20
61.538990
 30
0.0
 10
289.281489
 20
61.765228
 30
0.0
 10
289.281489
 20
62.046660
 30
0.0
  0
LINE
  5
10a
100
AcDbEntity
  8
Layer_1
 62
1
100
AcDbLine
 10
289.281489
 20
62.046660
 30
0.0
 11
289.281489
 21
62.807336
 31
0.0
  0
LINE
  5
10b
100
AcDbEntity
  8
Layer_1
 62
1
100
AcDbLine
 10
289.281489
 20
62.807336
 30
0.0
 11
289.281489
 21
65.045271
 31
0.0
  0
LINE
  5
10c
100
AcDbEntity
  8
Layer_1
 62
1
100
AcDbLine
 10
289.281489
 20
65.045271
 30
0.0
 11
289.281489
 21
65.805947
 31
0.0
  0
SPLINE
  5
10d
100
AcDbEntity
  8
Layer_1
 62
1
100
AcDbSpline
 70
8
 71
3
 72
8
 73
4
 74
0
 40
0
 40
0
 40
0
 40
0
 40
1
 40
1
 40
1
 40
1
 10
289.281489
 20
65.805947
 30
0.0
 10
289.281489
 20
66.087379
 30
0.0
 10
289.054695
 20
66.314168
 30
0.0
 10
288.773263
 20
66.314168
 30
0.0
  0
LINE
  5
10e
100
AcDbEntity
  8
Layer_1
 62
1
100
AcDbLine
 10
288.773263
 20
66.314168
 30
0.0
 11
275.711116
 21
66.314168
 31
0.0
  0
LINE
  5
10f
100
AcDbEntity
  8
Layer_1
 62
1
100
AcDbLine
 10
275.711116
 20
66.314168
 30
0.0
 11
275.711116
 21
68.872910
 31
0.0
  0
SPLINE
  5
110
100
AcDbEntity
  8
Layer_1
 62
1
100
AcDbSpline
 70
8
 71
3
 72
8
 73
4
 74
0
 40
0
 40
0
 40
0
 40
0
 40
1
 40
1
 40
1
 40
1
 10
275.711116
 20
68.872910
 30
0.0
 10
275.711116
 20
69.154342
 30
0.0
 10
275.484328
 20
69.380580
 30
0.0
 10
275.202896
 20
69.380580
 30
0.0
  0
LINE
  5
111
100
AcDbEntity
  8
Layer_1
 62
1
100
AcDbLine
 10
275.202896
 20
69.380580
 30
0.0
 11
267.556437
 21
69.380580
 31
0.0
  0
LINE
  5
112
100
AcDbEntity
  8
Layer_1
 62
1
100
AcDbLine
 10
267.556437
 20
69.380580
 30
0.0
 11
267.556437
 21
69.380580
 31
0.0
  0
SPLINE
  5
113
100
AcDbEntity
  8
Layer_1
 62
1
100
AcDbSpline
 70
8
 71
3
 72
8
 73
4
 74
0
 40
0
 40
0
 40
0
 40
0
 40
1
 40
1
 40
1
 40
1
 10
244.899835
 20
61.479458
 30
0.0
 10
244.618403
 20
61.479458
 30
0.0
 10
244.391615
 20
61.252670
 30
0.0
 10
244.391615
 20
60.971238
 30
0.0
  0
LINE
  5
114
100
AcDbEntity
  8
Layer_1
 62
1
100
AcDbLine
 10
244.391615
 20
60.971238
 30
0.0
 11
244.391615
 21
58.307766
 31
0.0
  0
LINE
  5
115
100
AcDbEntity
  8
Layer_1
 62
1
100
AcDbLine
 10
244.391615
 20
58.307766
 30
0.0
 11
234.958667
 21
58.307766
 31
0.0
  0
SPLINE
  5
116
100
AcDbEntity
  8
Layer_1
 62
1
100
AcDbSpline
 70
8
 71
3
 72
8
 73
4
 74
0
 40
0
 40
0
 40
0
 40
0
 40
1
 40
1
 40
1
 40
1
 10
234.958667
 20
58.307766
 30
0.0
 10
234.677235
 20
58.307766
 30
0.0
 10
234.450447
 20
58.081528
 30
0.0
 10
234.450447
 20
57.800096
 30
0.0
  0
LINE
  5
117
100
AcDbEntity
  8
Layer_1
 62
1
100
AcDbLine
 10
234.450447
 20
57.800096
 30
0.0
 11
234.450447
 21
57.039420
 31
0.0
  0
LINE
  5
118
100
AcDbEntity
  8
Layer_1
 62
1
100
AcDbLine
 10
234.450447
 20
57.039420
 30
0.0
 11
234.450447
 21
54.800935
 31
0.0
  0
LINE
  5
119
100
AcDbEntity
  8
Layer_1
 62
1
100
AcDbLine
 10
234.450447
 20
54.800935
 30
0.0
 11
234.450447
 21
54.040809
 31
0.0
  0
SPLINE
  5
11a
100
AcDbEntity
  8
Layer_1
 62
1
100
AcDbSpline
 70
8
 71
3
 72
8
 73
4
 74
0
 40
0
 40
0
 40
0
 40
0
 40
1
 40
1
 40
1
 40
1
 10
234.450447
 20
54.040809
 30
0.0
 10
234.450447
 20
53.759377
 30
0.0
 10
234.677235
 20
53.532588
 30
0.0
 10
234.958667
 20
53.532588
 30
0.0
  0
LINE
  5
11b
100
AcDbEntity
  8
Layer_1
 62
1
100
AcDbLine
 10
234.958667
 20
53.532588
 30
0.0
 11
262.517777
 21
53.532588
 31
0.0
  0
SPLINE
  5
11c
100
AcDbEntity
  8
Layer_1
 62
1
100
AcDbSpline
 70
8
 71
3
 72
8
 73
4
 74
0
 40
0
 40
0
 40
0
 40
0
 40
1
 40
1
 40
1
 40
1
 10
262.517777
 20
53.532588
 30
0.0
 10
262.799209
 20
53.532588
 30
0.0
 10
263.025447
 20
53.759377
 30
0.0
 10
263.025447
 20
54.040809
 30
0.0
  0
LINE
  5
11d
100
AcDbEntity
  8
Layer_1
 62
1
100
AcDbLine
 10
263.025447
 20
54.040809
 30
0.0
 11
263.025447
 21
54.800935
 31
0.0
  0
LINE
  5
11e
100
AcDbEntity
  8
Layer_1
 62
1
100
AcDbLine
 10
263.025447
 20
54.800935
 30
0.0
 11
263.025447
 21
57.039420
 31
0.0
  0
LINE
  5
11f
100
AcDbEntity
  8
Layer_1
 62
1
100
AcDbLine
 10
263.025447
 20
57.039420
 30
0.0
 11
263.025447
 21
57.800096
 31
0.0
  0
SPLINE
  5
120
100
AcDbEntity
  8
Layer_1
 62
1
100
AcDbSpline
 70
8
 71
3
 72
8
 73
4
 74
0
 40
0
 40
0
 40
0
 40
0
 40
1
 40
1
 40
1
 40
1
 10
263.025447
 20
57.800096
 30
0.0
 10
263.025447
 20
58.081528
 30
0.0
 10
262.799209
 20
58.307766
 30
0.0
 10
262.517777
 20
58.307766
 30
0.0
  0
LINE
  5
121
100
AcDbEntity
  8
Layer_1
 62
1
100
AcDbLine
 10
262.517777
 20
58.307766
 30
0.0
 11
253.244683
 21
58.307766
 31
0.0
  0
LINE
  5
122
100
AcDbEntity
  8
Layer_1
 62
1
100
AcDbLine
 10
253.244683
 20
58.307766
 30
0.0
 11
253.244683
 21
60.971238
 31
0.0
  0
SPLINE
  5
123
100
AcDbEntity
  8
Layer_1
 62
1
100
AcDbSpline
 70
8
 71
3
 72
8
 73
4
 74
0
 40
0
 40
0
 40
0
 40
0
 40
1
 40
1
 40
1
 40
1
 10
253.244683
 20
60.971238
 30
0.0
 10
253.244683
 20
61.252670
 30
0.0
 10
253.018445
 20
61.479458
 30
0.0
 10
252.737013
 20
61.479458
 30
0.0
  0
LINE
  5
124
100
AcDbEntity
  8
Layer_1
 62
1
100
AcDbLine
 10
252.737013
 20
61.479458
 30
0.0
 11
244.899835
 21
61.479458
 31
0.0
  0
LINE
  5
125
100
AcDbEntity
  8
Layer_1
 62
1
100
AcDbLine
 10
244.899835
 20
61.479458
 30
0.0
 11
244.899835
 21
61.479458
 31
0.0
  0
SPLINE
  5
126
100
AcDbEntity
  8
Layer_1
 62
1
100
AcDbSpline
 70
8
 71
3
 72
8
 73
4
 74
0
 40
0
 40
0
 40
0
 40
0
 40
1
 40
1
 40
1
 40
1
 10
205.869935
 20
61.860348
 30
0.0
 10
205.588503
 20
61.860348
 30
0.0
 10
205.361715
 20
61.633560
 30
0.0
 10
205.361715
 20
61.352128
 30
0.0
  0
LINE
  5
127
100
AcDbEntity
  8
Layer_1
 62
1
100
AcDbLine
 10
205.361715
 20
61.352128
 30
0.0
 11
205.361715
 21
58.380526
 31
0.0
  0
LINE
  5
128
100
AcDbEntity
  8
Layer_1
 62
1
100
AcDbLine
 10
205.361715
 20
58.380526
 30
0.0
 11
193.542006
 21
58.380526
 31
0.0
  0
SPLINE
  5
129
100
AcDbEntity
  8
Layer_1
 62
1
100
AcDbSpline
 70
8
 71
3
 72
8
 73
4
 74
0
 40
0
 40
0
 40
0
 40
0
 40
1
 40
1
 40
1
 40
1
 10
193.542006
 20
58.380526
 30
0.0
 10
193.260574
 20
58.380526
 30
0.0
 10
193.033783
 20
58.153737
 30
0.0
 10
193.033783
 20
57.872305
 30
0.0
  0
LINE
  5
12a
100
AcDbEntity
  8
Layer_1
 62
1
100
AcDbLine
 10
193.033783
 20
57.872305
 30
0.0
 11
193.033783
 21
57.112179
 31
0.0
  0
LINE
  5
12b
100
AcDbEntity
  8
Layer_1
 62
1
100
AcDbLine
 10
193.033783
 20
57.112179
 30
0.0
 11
193.033783
 21
54.873694
 31
0.0
  0
LINE
  5
12c
100
AcDbEntity
  8
Layer_1
 62
1
100
AcDbLine
 10
193.033783
 20
54.873694
 30
0.0
 11
193.033783
 21
54.113568
 31
0.0
  0
SPLINE
  5
12d
100
AcDbEntity
  8
Layer_1
 62
1
100
AcDbSpline
 70
8
 71
3
 72
8
 73
4
 74
0
 40
0
 40
0
 40
0
 40
0
 40
1
 40
1
 40
1
 40
1
 10
193.033783
 20
54.113568
 30
0.0
 10
193.033783
 20
53.832136
 30
0.0
 10
193.260574
 20
53.605348
 30
0.0
 10
193.542006
 20
53.605348
 30
0.0
  0
LINE
  5
12e
100
AcDbEntity
  8
Layer_1
 62
1
100
AcDbLine
 10
193.542006
 20
53.605348
 30
0.0
 11
226.409318
 21
53.605348
 31
0.0
  0
SPLINE
  5
12f
100
AcDbEntity
  8
Layer_1
 62
1
100
AcDbSpline
 70
8
 71
3
 72
8
 73
4
 74
0
 40
0
 40
0
 40
0
 40
0
 40
1
 40
1
 40
1
 40
1
 10
226.409318
 20
53.605348
 30
0.0
 10
226.690750
 20
53.605348
 30
0.0
 10
226.917538
 20
53.832136
 30
0.0
 10
226.917538
 20
54.113568
 30
0.0
  0
LINE
  5
130
100
AcDbEntity
  8
Layer_1
 62
1
100
AcDbLine
 10
226.917538
 20
54.113568
 30
0.0
 11
226.917538
 21
54.873694
 31
0.0
  0
LINE
  5
131
100
AcDbEntity
  8
Layer_1
 62
1
100
AcDbLine
 10
226.917538
 20
54.873694
 30
0.0
 11
226.917538
 21
57.112179
 31
0.0
  0
LINE
  5
132
100
AcDbEntity
  8
Layer_1
 62
1
100
AcDbLine
 10
226.917538
 20
57.112179
 30
0.0
 11
226.917538
 21
57.872305
 31
0.0
  0
SPLINE
  5
133
100
AcDbEntity
  8
Layer_1
 62
1
100
AcDbSpline
 70
8
 71
3
 72
8
 73
4
 74
0
 40
0
 40
0
 40
0
 40
0
 40
1
 40
1
 40
1
 40
1
 10
226.917538
 20
57.872305
 30
0.0
 10
226.917538
 20
58.153737
 30
0.0
 10
226.690750
 20
58.380526
 30
0.0
 10
226.409318
 20
58.380526
 30
0.0
  0
LINE
  5
134
100
AcDbEntity
  8
Layer_1
 62
1
100
AcDbLine
 10
226.409318
 20
58.380526
 30
0.0
 11
214.310143
 21
58.380526
 31
0.0
  0
LINE
  5
135
100
AcDbEntity
  8
Layer_1
 62
1
100
AcDbLine
 10
214.310143
 20
58.380526
 30
0.0
 11
214.310143
 21
61.352128
 31
0.0
  0
SPLINE
  5
136
100
AcDbEntity
  8
Layer_1
 62
1
100
AcDbSpline
 70
8
 71
3
 72
8
 73
4
 74
0
 40
0
 40
0
 40
0
 40
0
 40
1
 40
1
 40
1
 40
1
 10
214.310143
 20
61.352128
 30
0.0
 10
214.310143
 20
61.633560
 30
0.0
 10
214.083906
 20
61.860348
 30
0.0
 10
213.802474
 20
61.860348
 30
0.0
  0
LINE
  5
137
100
AcDbEntity
  8
Layer_1
 62
1
100
AcDbLine
 10
213.802474
 20
61.860348
 30
0.0
 11
205.869935
 21
61.860348
 31
0.0
  0
LINE
  5
138
100
AcDbEntity
  8
Layer_1
 62
1
100
AcDbLine
 10
205.869935
 20
61.860348
 30
0.0
 11
205.869935
 21
61.860348
 31
0.0
  0
SPLINE
  5
139
100
AcDbEntity
  8
Layer_1
 62
7
100
AcDbSpline
 70
8
 71
3
 72
8
 73
4
 74
0
 40
0
 40
0
 40
0
 40
0
 40
1
 40
1
 40
1
 40
1
 10
90.288294
 20
75.083106
 30
0.0
 10
90.288294
 20
71.785449
 30
0.0
 10
92.960321
 20
69.113448
 30
0.0
 10
96.257955
 20
69.113448
 30
0.0
  0
SPLINE
  5
13a
100
AcDbEntity
  8
Layer_1
 62
7
100
AcDbSpline
 70
8
 71
3
 72
8
 73
4
 74
0
 40
0
 40
0
 40
0
 40
0
 40
1
 40
1
 40
1
 40
1
 10
96.257955
 20
69.113448
 30
0.0
 10
99.554240
 20
69.113448
 30
0.0
 10
102.226241
 20
71.785449
 30
0.0
 10
102.226241
 20
75.083106
 30
0.0
  0
SPLINE
  5
13b
100
AcDbEntity
  8
Layer_1
 62
7
100
AcDbSpline
 70
8
 71
3
 72
8
 73
4
 74
0
 40
0
 40
0
 40
0
 40
0
 40
1
 40
1
 40
1
 40
1
 10
102.226241
 20
75.083106
 30
0.0
 10
102.226241
 20
78.379368
 30
0.0
 10
99.554240
 20
81.051394
 30
0.0
 10
96.257955
 20
81.051394
 30
0.0
  0
SPLINE
  5
13c
100
AcDbEntity
  8
Layer_1
 62
7
100
AcDbSpline
 70
8
 71
3
 72
8
 73
4
 74
0
 40
0
 40
0
 40
0
 40
0
 40
1
 40
1
 40
1
 40
1
 10
96.257955
 20
81.051394
 30
0.0
 10
92.960321
 20
81.051394
 30
0.0
 10
90.288294
 20
78.379368
 30
0.0
 10
90.288294
 20
75.083106
 30
0.0
  0
LINE
  5
13d
100
AcDbEntity
  8
Layer_1
 62
1
100
AcDbLine
 10
157.383133
 20
84.090685
 30
0.0
 11
207.945081
 21
84.090685
 31
0.0
  0
SPLINE
  5
13e
100
AcDbEntity
  8
Layer_1
 62
1
100
AcDbSpline
 70
8
 71
3
 72
8
 73
4
 74
0
 40
0
 40
0
 40
0
 40
0
 40
1
 40
1
 40
1
 40
1
 10
207.945081
 20
84.090685
 30
0.0
 10
208.226513
 20
84.090685
 30
0.0
 10
208.453081
 20
83.864117
 30
0.0
 10
208.453081
 20
83.582685
 30
0.0
  0
LINE
  5
13f
100
AcDbEntity
  8
Layer_1
 62
1
100
AcDbLine
 10
208.453081
 20
83.582685
 30
0.0
 11
208.453081
 21
72.861396
 31
0.0
  0
SPLINE
  5
140
100
AcDbEntity
  8
Layer_1
 62
1
100
AcDbSpline
 70
8
 71
3
 72
8
 73
4
 74
0
 40
0
 40
0
 40
0
 40
0
 40
1
 40
1
 40
1
 40
1
 10
208.453081
 20
72.861396
 30
0.0
 10
208.453081
 20
72.579964
 30
0.0
 10
208.226513
 20
72.353396
 30
0.0
 10
207.945081
 20
72.353396
 30
0.0
  0
LINE
  5
141
100
AcDbEntity
  8
Layer_1
 62
1
100
AcDbLine
 10
207.945081
 20
72.353396
 30
0.0
 11
157.383133
 21
72.353396
 31
0.0
  0
SPLINE
  5
142
100
AcDbEntity
  8
Layer_1
 62
1
100
AcDbSpline
 70
8
 71
3
 72
8
 73
4
 74
0
 40
0
 40
0
 40
0
 40
0
 40
1
 40
1
 40
1
 40
1
 10
157.383133
 20
72.353396
 30
0.0
 10
157.101701
 20
72.353396
 30
0.0
 10
156.875133
 20
72.579964
 30
0.0
 10
156.875133
 20
72.861396
 30
0.0
  0
LINE
  5
143
100
AcDbEntity
  8
Layer_1
 62
1
100
AcDbLine
 10
156.875133
 20
72.861396
 30
0.0
 11
156.875133
 21
83.582685
 31
0.0
  0
SPLINE
  5
144
100
AcDbEntity
  8
Layer_1
 62
1
100
AcDbSpline
 70
8
 71
3
 72
8
 73
4
 74
0
 40
0
 40
0
 40
0
 40
0
 40
1
 40
1
 40
1
 40
1
 10
156.875133
 20
83.582685
 30
0.0
 10
156.875133
 20
83.864117
 30
0.0
 10
157.101701
 20
84.090685
 30
0.0
 10
157.383133
 20
84.090685
 30
0.0
  0
LINE
  5
145
100
AcDbEntity
  8
Layer_1
 62
1
100
AcDbLine
 10
157.383133
 20
84.090685
 30
0.0
 11
157.383133
 21
84.090685
 31
0.0
  0
SPLINE
  5
146
100
AcDbEntity
  8
Layer_1
 62
1
100
AcDbSpline
 70
8
 71
3
 72
8
 73
4
 74
0
 40
0
 40
0
 40
0
 40
0
 40
1
 40
1
 40
1
 40
1
 10
16.701671
 20
65.279538
 30
0.0
 10
16.420239
 20
65.279538
 30
0.0
 10
16.193451
 20
65.052753
 30
0.0
 10
16.193451
 20
64.771315
 30
0.0
  0
LINE
  5
147
100
AcDbEntity
  8
Layer_1
 62
1
100
AcDbLine
 10
16.193451
 20
64.771315
 30
0.0
 11
16.193451
 21
63.900947
 31
0.0
  0
LINE
  5
148
100
AcDbEntity
  8
Layer_1
 62
1
100
AcDbLine
 10
16.193451
 20
63.900947
 30
0.0
 11
10.869814
 21
63.900947
 31
0.0
  0
SPLINE
  5
149
100
AcDbEntity
  8
Layer_1
 62
1
100
AcDbSpline
 70
8
 71
3
 72
8
 73
4
 74
0
 40
0
 40
0
 40
0
 40
0
 40
1
 40
1
 40
1
 40
1
 10
10.869814
 20
63.900947
 30
0.0
 10
10.588382
 20
63.900947
 30
0.0
 10
10.361591
 20
63.674710
 30
0.0
 10
10.361591
 20
63.393278
 30
0.0
  0
LINE
  5
14a
100
AcDbEntity
  8
Layer_1
 62
1
100
AcDbLine
 10
10.361591
 20
63.393278
 30
0.0
 11
10.361591
 21
62.632601
 31
0.0
  0
LINE
  5
14b
100
AcDbEntity
  8
Layer_1
 62
1
100
AcDbLine
 10
10.361591
 20
62.632601
 30
0.0
 11
10.361591
 21
60.394116
 31
0.0
  0
LINE
  5
14c
100
AcDbEntity
  8
Layer_1
 62
1
100
AcDbLine
 10
10.361591
 20
60.394116
 30
0.0
 11
10.361591
 21
59.633990
 31
0.0
  0
SPLINE
  5
14d
100
AcDbEntity
  8
Layer_1
 62
1
100
AcDbSpline
 70
8
 71
3
 72
8
 73
4
 74
0
 40
0
 40
0
 40
0
 40
0
 40
1
 40
1
 40
1
 40
1
 10
10.361591
 20
59.633990
 30
0.0
 10
10.361591
 20
59.352558
 30
0.0
 10
10.588382
 20
59.125770
 30
0.0
 10
10.869814
 20
59.125770
 30
0.0
  0
LINE
  5
14e
100
AcDbEntity
  8
Layer_1
 62
1
100
AcDbLine
 10
10.869814
 20
59.125770
 30
0.0
 11
26.109811
 21
59.125770
 31
0.0
  0
SPLINE
  5
14f
100
AcDbEntity
  8
Layer_1
 62
1
100
AcDbSpline
 70
8
 71
3
 72
8
 73
4
 74
0
 40
0
 40
0
 40
0
 40
0
 40
1
 40
1
 40
1
 40
1
 10
26.109811
 20
59.125770
 30
0.0
 10
26.391246
 20
59.125770
 30
0.0
 10
26.617481
 20
59.352558
 30
0.0
 10
26.617481
 20
59.633990
 30
0.0
  0
LINE
  5
150
100
AcDbEntity
  8
Layer_1
 62
1
100
AcDbLine
 10
26.617481
 20
59.633990
 30
0.0
 11
26.617481
 21
60.394116
 31
0.0
  0
LINE
  5
151
100
AcDbEntity
  8
Layer_1
 62
1
100
AcDbLine
 10
26.617481
 20
60.394116
 30
0.0
 11
26.617481
 21
62.632601
 31
0.0
  0
LINE
  5
152
100
AcDbEntity
  8
Layer_1
 62
1
100
AcDbLine
 10
26.617481
 20
62.632601
 30
0.0
 11
26.617481
 21
63.393278
 31
0.0
  0
SPLINE
  5
153
100
AcDbEntity
  8
Layer_1
 62
1
100
AcDbSpline
 70
8
 71
3
 72
8
 73
4
 74
0
 40
0
 40
0
 40
0
 40
0
 40
1
 40
1
 40
1
 40
1
 10
26.617481
 20
63.393278
 30
0.0
 10
26.617481
 20
63.674710
 30
0.0
 10
26.391246
 20
63.900947
 30
0.0
 10
26.109811
 20
63.900947
 30
0.0
  0
LINE
  5
154
100
AcDbEntity
  8
Layer_1
 62
1
100
AcDbLine
 10
26.109811
 20
63.900947
 30
0.0
 11
20.892008
 21
63.900947
 31
0.0
  0
LINE
  5
155
100
AcDbEntity
  8
Layer_1
 62
1
100
AcDbLine
 10
20.892008
 20
63.900947
 30
0.0
 11
20.892008
 21
64.771315
 31
0.0
  0
SPLINE
  5
156
100
AcDbEntity
  8
Layer_1
 62
1
100
AcDbSpline
 70
8
 71
3
 72
8
 73
4
 74
0
 40
0
 40
0
 40
0
 40
0
 40
1
 40
1
 40
1
 40
1
 10
20.892008
 20
64.771315
 30
0.0
 10
20.892008
 20
65.052750
 30
0.0
 10
20.665220
 20
65.279538
 30
0.0
 10
20.383788
 20
65.279538
 30
0.0
  0
LINE
  5
157
100
AcDbEntity
  8
Layer_1
 62
1
100
AcDbLine
 10
20.383788
 20
65.279538
 30
0.0
 11
16.701671
 21
65.279538
 31
0.0
  0
LINE
  5
158
100
AcDbEntity
  8
Layer_1
 62
1
100
AcDbLine
 10
16.701671
 20
65.279538
 30
0.0
 11
16.701671
 21
65.279538
 31
0.0
  0
LINE
  5
159
100
AcDbEntity
  8
Layer_1
 62
1
100
AcDbLine
 10
10.011788
 20
91.477572
 30
0.0
 11
288.141788
 21
91.477572
 31
0.0
  0
SPLINE
  5
15a
100
AcDbEntity
  8
Layer_1
 62
1
100
AcDbSpline
 70
8
 71
3
 72
8
 73
4
 74
0
 40
0
 40
0
 40
0
 40
0
 40
1
 40
1
 40
1
 40
1
 10
288.141788
 20
91.477572
 30
0.0
 10
289.900738
 20
91.477572
 30
0.0
 10
291.316788
 20
90.061522
 30
0.0
 10
291.316788
 20
88.302572
 30
0.0
  0
LINE
  5
15b
100
AcDbEntity
  8
Layer_1
 62
1
100
AcDbLine
 10
291.316788
 20
88.302572
 30
0.0
 11
291.316788
 21
46.392572
 31
0.0
  0
SPLINE
  5
15c
100
AcDbEntity
  8
Layer_1
 62
1
100
AcDbSpline
 70
8
 71
3
 72
8
 73
4
 74
0
 40
0
 40
0
 40
0
 40
0
 40
1
 40
1
 40
1
 40
1
 10
291.316788
 20
46.392572
 30
0.0
 10
291.316788
 20
44.633622
 30
0.0
 10
289.900738
 20
43.217572
 30
0.0
 10
288.141788
 20
43.217572
 30
0.0
  0
LINE
  5
15d
100
AcDbEntity
  8
Layer_1
 62
1
100
AcDbLine
 10
288.141788
 20
43.217572
 30
0.0
 11
10.011788
 21
43.217572
 31
0.0
  0
SPLINE
  5
15e
100
AcDbEntity
  8
Layer_1
 62
1
100
AcDbSpline
 70
8
 71
3
 72
8
 73
4
 74
0
 40
0
 40
0
 40
0
 40
0
 40
1
 40
1
 40
1
 40
1
 10
10.011788
 20
43.217572
 30
0.0
 10
8.252838
 20
43.217572
 30
0.0
 10
6.836788
 20
44.633622
 30
0.0
 10
6.836788
 20
46.392572
 30
0.0
  0
LINE
  5
15f
100
AcDbEntity
  8
Layer_1
 62
1
100
AcDbLine
 10
6.836788
 20
46.392572
 30
0.0
 11
6.836788
 21
88.302572
 31
0.0
  0
SPLINE
  5
160
100
AcDbEntity
  8
Layer_1
 62
1
100
AcDbSpline
 70
8
 71
3
 72
8
 73
4
 74
0
 40
0
 40
0
 40
0
 40
0
 40
1
 40
1
 40
1
 40
1
 10
6.836788
 20
88.302572
 30
0.0
 10
6.836788
 20
90.061522
 30
0.0
 10
8.252838
 20
91.477572
 30
0.0
 10
10.011788
 20
91.477572
 30
0.0
  0
LINE
  5
161
100
AcDbEntity
  8
Layer_1
 62
1
100
AcDbLine
 10
10.011788
 20
91.477572
 30
0.0
 11
10.011788
 21
91.477572
 31
0.0
  0
SPLINE
  5
162
100
AcDbEntity
  8
Layer_1
 62
7
100
AcDbSpline
 70
8
 71
3
 72
8
 73
4
 74
0
 40
0
 40
0
 40
0
 40
0
 40
1
 40
1
 40
1
 40
1
 10
280.746533
 20
74.337333
 30
0.0
 10
280.746533
 20
76.335910
 30
0.0
 10
277.748667
 20
76.335910
 30
0.0
 10
277.748667
 20
74.337333
 30
0.0
  0
SPLINE
  5
163
100
AcDbEntity
  8
Layer_1
 62
7
100
AcDbSpline
 70
8
 71
3
 72
8
 73
4
 74
0
 40
0
 40
0
 40
0
 40
0
 40
1
 40
1
 40
1
 40
1
 10
277.748667
 20
74.337333
 30
0.0
 10
277.748667
 20
72.338757
 30
0.0
 10
280.746533
 20
72.338757
 30
0.0
 10
280.746533
 20
74.337333
 30
0.0
  0
SPLINE
  5
164
100
AcDbEntity
  8
Layer_1
 62
7
100
AcDbSpline
 70
8
 71
3
 72
8
 73
4
 74
0
 40
0
 40
0
 40
0
 40
0
 40
1
 40
1
 40
1
 40
1
 10
280.746533
 20
55.541333
 30
0.0
 10
280.746533
 20
57.539910
 30
0.0
 10
277.748667
 20
57.539910
 30
0.0
 10
277.748667
 20
55.541333
 30
0.0
  0
SPLINE
  5
165
100
AcDbEntity
  8
Layer_1
 62
7
100
AcDbSpline
 70
8
 71
3
 72
8
 73
4
 74
0
 40
0
 40
0
 40
0
 40
0
 40
1
 40
1
 40
1
 40
1
 10
277.748667
 20
55.541333
 30
0.0
 10
277.748667
 20
53.542757
 30
0.0
 10
280.746533
 20
53.542757
 30
0.0
 10
280.746533
 20
55.541333
 30
0.0
  0
SPLINE
  5
166
100
AcDbEntity
  8
Layer_1
 62
7
100
AcDbSpline
 70
8
 71
3
 72
8
 73
4
 74
0
 40
0
 40
0
 40
0
 40
0
 40
1
 40
1
 40
1
 40
1
 10
150.554851
 20
74.337333
 30
0.0
 10
150.554851
 20
76.335910
 30
0.0
 10
147.556985
 20
76.335910
 30
0.0
 10
147.556985
 20
74.337333
 30
0.0
  0
SPLINE
  5
167
100
AcDbEntity
  8
Layer_1
 62
7
100
AcDbSpline
 70
8
 71
3
 72
8
 73
4
 74
0
 40
0
 40
0
 40
0
 40
0
 40
1
 40
1
 40
1
 40
1
 10
147.556985
 20
74.337333
 30
0.0
 10
147.556985
 20
72.338757
 30
0.0
 10
150.554851
 20
72.338757
 30
0.0
 10
150.554851
 20
74.337333
 30
0.0
  0
SPLINE
  5
168
100
AcDbEntity
  8
Layer_1
 62
7
100
AcDbSpline
 70
8
 71
3
 72
8
 73
4
 74
0
 40
0
 40
0
 40
0
 40
0
 40
1
 40
1
 40
1
 40
1
 10
150.554851
 20
55.541333
 30
0.0
 10
150.554851
 20
57.539910
 30
0.0
 10
147.556985
 20
57.539910
 30
0.0
 10
147.556985
 20
55.541333
 30
0.0
  0
SPLINE
  5
169
100
AcDbEntity
  8
Layer_1
 62
7
100
AcDbSpline
 70
8
 71
3
 72
8
 73
4
 74
0
 40
0
 40
0
 40
0
 40
0
 40
1
 40
1
 40
1
 40
1
 10
147.556985
 20
55.541333
 30
0.0
 10
147.556985
 20
53.542757
 30
0.0
 10
150.554851
 20
53.542757
 30
0.0
 10
150.554851
 20
55.541333
 30
0.0
  0
SPLINE
  5
16a
100
AcDbEntity
  8
Layer_1
 62
7
100
AcDbSpline
 70
8
 71
3
 72
8
 73
4
 74
0
 40
0
 40
0
 40
0
 40
0
 40
1
 40
1
 40
1
 40
1
 10
20.396533
 20
74.337333
 30
0.0
 10
20.396533
 20
76.335910
 30
0.0
 10
17.398667
 20
76.335910
 30
0.0
 10
17.398667
 20
74.337333
 30
0.0
  0
SPLINE
  5
16b
100
AcDbEntity
  8
Layer_1
 62
7
100
AcDbSpline
 70
8
 71
3
 72
8
 73
4
 74
0
 40
0
 40
0
 40
0
 40
0
 40
1
 40
1
 40
1
 40
1
 10
17.398667
 20
74.337333
 30
0.0
 10
17.398667
 20
72.338757
 30
0.0
 10
20.396533
 20
72.338757
 30
0.0
 10
20.396533
 20
74.337333
 30
0.0
  0
SPLINE
  5
16c
100
AcDbEntity
  8
Layer_1
 62
7
100
AcDbSpline
 70
8
 71
3
 72
8
 73
4
 74
0
 40
0
 40
0
 40
0
 40
0
 40
1
 40
1
 40
1
 40
1
 10
20.396533
 20
55.541333
 30
0.0
 10
20.396533
 20
57.539910
 30
0.0
 10
17.398667
 20
57.539910
 30
0.0
 10
17.398667
 20
55.541333
 30
0.0
  0
SPLINE
  5
16d
100
AcDbEntity
  8
Layer_1
 62
7
100
AcDbSpline
 70
8
 71
3
 72
8
 73
4
 74
0
 40
0
 40
0
 40
0
 40
0
 40
1
 40
1
 40
1
 40
1
 10
17.398667
 20
55.541333
 30
0.0
 10
17.398667
 20
53.542757
 30
0.0
 10
20.396533
 20
53.542757
 30
0.0
 10
20.396533
 20
55.541333
 30
0.0
  0
ENDSEC
  0
SECTION
  2
OBJECTS
  0
DICTIONARY
  5
C
330
0
100
AcDbDictionary
  3
ACAD_GROUP
350
D
  3
ACAD_MLINESTYLE
350
17
  0
DICTIONARY
  5
D
330
C
100
AcDbDictionary
  0
DICTIONARY
  5
1A
330
C
100
AcDbDictionary
  0
DICTIONARY
  5
17
330
C
100
AcDbDictionary
  3
STANDARD
350
18
  0
DICTIONARY
  5
19
330
C
100
AcDbDictionary
  0
ENDSEC
  0
EOF
