<?xml version="1.0" encoding="UTF-8" standalone="no"?>
<!-- Created with Inkscape (http://www.inkscape.org/) -->

<svg
   xmlns:dc="http://purl.org/dc/elements/1.1/"
   xmlns:cc="http://creativecommons.org/ns#"
   xmlns:rdf="http://www.w3.org/1999/02/22-rdf-syntax-ns#"
   xmlns:svg="http://www.w3.org/2000/svg"
   xmlns="http://www.w3.org/2000/svg"
   xmlns:sodipodi="http://sodipodi.sourceforge.net/DTD/sodipodi-0.dtd"
   xmlns:inkscape="http://www.inkscape.org/namespaces/inkscape"
   width="284.73401mm"
   height="48.514mm"
   viewBox="0 0 1008.9 171.9"
   id="svg23245"
   version="1.1"
   inkscape:version="0.92.4 (5da689c313, 2019-01-14)"
   sodipodi:docname="Reverse-mod.svg">
  <defs
     id="defs23247" />
  <sodipodi:namedview
     id="base"
     pagecolor="#ffffff"
     bordercolor="#666666"
     borderopacity="1.0"
     inkscape:pageopacity="0.0"
     inkscape:pageshadow="2"
     inkscape:zoom="5.7887274"
     inkscape:cx="641.78552"
     inkscape:cy="70.626315"
     inkscape:document-units="px"
     inkscape:current-layer="layer1"
     showgrid="false"
     fit-margin-top="0"
     fit-margin-left="0"
     fit-margin-right="0"
     fit-margin-bottom="0"
     inkscape:window-width="1842"
     inkscape:window-height="1051"
     inkscape:window-x="-9"
     inkscape:window-y="-9"
     inkscape:window-maximized="1" />
  <metadata
     id="metadata23250">
    <rdf:RDF>
      <cc:Work
         rdf:about="">
        <dc:format>image/svg+xml</dc:format>
        <dc:type
           rdf:resource="http://purl.org/dc/dcmitype/StillImage" />
        <dc:title />
      </cc:Work>
    </rdf:RDF>
  </metadata>
  <g
     inkscape:label="Layer 1"
     inkscape:groupmode="layer"
     id="layer1"
     transform="translate(284.91367,-335.14422)">
    <g
       id="g5121">
      <rect
         y="345.88971"
         x="-174.89601"
         height="14.890747"
         width="23.163385"
         id="rect22381"
         style="display:inline;opacity:1;fill:none;fill-opacity:1;stroke:#9e3f3f;stroke-width:0.89999998;stroke-linecap:round;stroke-linejoin:round;stroke-miterlimit:4;stroke-dasharray:none;stroke-opacity:1" />
      <path
         id="rect22193-0"
         transform="matrix(0.93749998,0,0,0.93749998,-284.91367,335.14422)"
         d="M 18.480469 0.48046875 C 11.832469 0.48046875 6.4804688 5.8324686 6.4804688 12.480469 L 6.4804688 170.88086 C 6.4804688 177.52886 11.832469 182.88086 18.480469 182.88086 L 109.17578 182.88086 L 118.05664 171.49609 L 118.05664 153.9707 L 154.67773 153.9707 L 154.67773 171.49609 L 163.55859 182.88086 L 608.44922 182.88086 L 608.44922 107.8457 L 650.31641 107.8457 L 650.31641 182.88086 L 1069.6797 182.88086 C 1076.3277 182.88086 1081.6797 177.52886 1081.6797 170.88086 L 1081.6797 12.480469 C 1081.6797 5.8324686 1076.3277 0.48046875 1069.6797 0.48046875 L 18.480469 0.48046875 z "
         style="display:inline;opacity:1;fill:none;fill-opacity:1;stroke:#9e3f3f;stroke-width:0.95999998;stroke-linecap:round;stroke-linejoin:round;stroke-miterlimit:4;stroke-dasharray:none;stroke-opacity:1" />
      <path
         id="path17-6-6-0"
         d="m 224.84749,396.31375 c 0,-7.08158 -10.62235,-7.08158 -10.62235,0 0,7.08156 10.62235,7.08156 10.62235,0"
         style="display:inline;fill:none;fill-opacity:1;fill-rule:evenodd;stroke:#000000;stroke-width:0.71764457;stroke-miterlimit:4;stroke-dasharray:none;stroke-opacity:1"
         inkscape:connector-curvature="0" />
      <path
         id="path17-6-6-0-4"
         d="m 224.84749,462.85423 c 0,-7.08158 -10.62235,-7.08158 -10.62235,0 0,7.08156 10.62235,7.08156 10.62235,0"
         style="display:inline;fill:none;fill-opacity:1;fill-rule:evenodd;stroke:#000000;stroke-width:0.71764457;stroke-miterlimit:4;stroke-dasharray:none;stroke-opacity:1"
         inkscape:connector-curvature="0" />
      <path
         id="path17-6-6-0-4-6"
         d="m -236.4025,462.85423 c 0,-7.08158 -10.62235,-7.08158 -10.62235,0 0,7.08156 10.62235,7.08156 10.62235,0"
         style="display:inline;fill:none;fill-opacity:1;fill-rule:evenodd;stroke:#000000;stroke-width:0.71764457;stroke-miterlimit:4;stroke-dasharray:none;stroke-opacity:1"
         inkscape:connector-curvature="0" />
      <path
         id="path17-6-6-0-4-6-4"
         d="m 686.09749,462.85423 c 0,-7.08158 -10.62235,-7.08158 -10.62235,0 0,7.08156 10.62235,7.08156 10.62235,0"
         style="display:inline;fill:none;fill-opacity:1;fill-rule:evenodd;stroke:#000000;stroke-width:0.71764457;stroke-miterlimit:4;stroke-dasharray:none;stroke-opacity:1"
         inkscape:connector-curvature="0" />
      <path
         id="path17-6-6-0-4-6-4-8"
         d="m 686.09749,396.34423 c 0,-7.08158 -10.62235,-7.08158 -10.62235,0 0,7.08156 10.62235,7.08156 10.62235,0"
         style="display:inline;fill:none;fill-opacity:1;fill-rule:evenodd;stroke:#000000;stroke-width:0.71764457;stroke-miterlimit:4;stroke-dasharray:none;stroke-opacity:1"
         inkscape:connector-curvature="0" />
      <path
         id="path17-6-6-0-4-6-4-8-4"
         d="m -236.4025,396.34423 c 0,-7.08158 -10.62235,-7.08158 -10.62235,0 0,7.08156 10.62235,7.08156 10.62235,0"
         style="display:inline;fill:none;fill-opacity:1;fill-rule:evenodd;stroke:#000000;stroke-width:0.71764457;stroke-miterlimit:4;stroke-dasharray:none;stroke-opacity:1"
         inkscape:connector-curvature="0" />
    </g>
  </g>
</svg>
